<?xml version="1.0" encoding="utf-8"?>
<!-- Generator: Adobe Illustrator 19.2.1, SVG Export Plug-In . SVG Version: 6.00 Build 0)  -->
<svg version="1.1" id="Layer_1" xmlns="http://www.w3.org/2000/svg" xmlns:xlink="http://www.w3.org/1999/xlink" x="0px" y="0px"
	 viewBox="0 0 59.8 58.9" style="enable-background:new 0 0 59.8 58.9;" xml:space="preserve">
<style type="text/css">
	.st0{fill:#BBDC96;}
	.st1{fill:none;stroke:#BBDC96;stroke-width:2;stroke-miterlimit:10;}
	.st2{fill:none;}
	.st3{fill:#BBDC96;stroke:#BBDC96;stroke-width:0.75;stroke-miterlimit:10;}
	.st4{fill:#FFFFFF;}
</style>
<g>
	<path class="st0" d="M37.6,31.8c0.7,0,1.2-0.5,1.2-1.2c0-0.7-0.5-1.2-1.2-1.2H21c-0.7,0-1.2,0.5-1.2,1.2v16.6
		c0,0.7,0.5,1.2,1.2,1.2h7.1c0.7,0,1.2-0.5,1.2-1.2S28.8,46,28.1,46h-5.9V31.8H37.6z"/>
	<path class="st0" d="M34.1,55.4H10.4V28.2c0-0.7-0.5-1.2-1.2-1.2H5L28.1,3.9c0.6-0.6,1.7-0.6,2.4,0l8.6,8.6
		c0.3,0.3,0.8,0.4,1.3,0.3c0.4-0.2,0.7-0.6,0.7-1.1V3.4h7.1v17.7c0,0.3,0.1,0.6,0.3,0.8l5.1,5.1h-4.2c-0.7,0-1.2,0.5-1.2,1.2v1.2
		c0,0.7,0.5,1.2,1.2,1.2s1.2-0.5,1.2-1.2h5.9c0.5,0,0.9-0.3,1.1-0.7c0.2-0.4,0.1-1-0.3-1.3l-6.8-6.8V2.2c0-0.7-0.5-1.2-1.2-1.2H40
		c-0.7,0-1.2,0.5-1.2,1.2v6.6l-6.6-6.6c-1.5-1.5-4.2-1.5-5.7,0L1.3,27.4c-0.3,0.3-0.4,0.8-0.3,1.3c0.2,0.4,0.6,0.7,1.1,0.7H8v27.2
		c0,0.7,0.5,1.2,1.2,1.2h24.8c0.7,0,1.2-0.5,1.2-1.2S34.7,55.4,34.1,55.4z"/>
	<path class="st0" d="M44.7,31.8c-7.2,0-13,5.8-13,13s5.8,13,13,13s13-5.8,13-13S51.9,31.8,44.7,31.8z M44.7,55.4
		c-5.9,0-10.6-4.8-10.6-10.6s4.8-10.6,10.6-10.6s10.6,4.8,10.6,10.6S50.6,55.4,44.7,55.4z"/>
</g>
<g>
	<path class="st3" d="M44,47.5v-0.6c0-2.5,2.3-3.2,2.3-5c0-0.9-0.6-1.7-1.5-1.7c-0.9,0-1.7,0.5-1.8,1.4c0.1,0.2,0.1,0.4,0.1,0.6
		c0,0.3-0.2,0.7-0.6,0.7c-0.6,0-0.7-0.5-0.7-1c0-1.5,1.3-2.7,3-2.7c1.4,0,2.7,1,2.7,2.5c0,2.5-2.4,2.7-2.4,5.2v0.5H44z M44.5,49.4
		c0.6,0,1.1,0.5,1.1,1s-0.5,1-1.1,1s-1.1-0.5-1.1-1S44,49.4,44.5,49.4z"/>
</g>
</svg>
