<?xml version="1.0" encoding="utf-8"?>
<!-- Generator: Adobe Illustrator 19.2.1, SVG Export Plug-In . SVG Version: 6.00 Build 0)  -->
<svg version="1.1" id="Layer_1" xmlns="http://www.w3.org/2000/svg" xmlns:xlink="http://www.w3.org/1999/xlink" x="0px" y="0px"
	 viewBox="0 0 53.5 58.9" style="enable-background:new 0 0 53.5 58.9;" xml:space="preserve">
<style type="text/css">
	.st0{fill:#BBDC96;}
	.st1{fill:none;stroke:#BBDC96;stroke-width:2;stroke-miterlimit:10;}
	.st2{fill:none;}
	.st3{fill:#BBDC96;stroke:#BBDC96;stroke-width:0.75;stroke-miterlimit:10;}
	.st4{fill:#FFFFFF;}
</style>
<path class="st0" d="M28.9,17.5c0-0.2,0.1-0.4,0.2-0.5l5-5l-2.1-2.1l-5.9,5.9c-0.1,0.1-0.2,0.3-0.2,0.5v11h-3.1v3.1h3.1v3.1h3.1
	v-3.1H48c0.4,0,0.7,0.3,0.7,0.7v23c0,0.4-0.3,0.7-0.7,0.7H29.6c-0.4,0-0.7-0.3-0.7-0.7V39.4h-3.1v3.1H13.6v3.1h11.5
	c0.4,0,0.7,0.3,0.7,0.7V54c0,0.4-0.3,0.7-0.7,0.7H5.2c-0.4,0-0.7-0.3-0.7-0.7v-8.4h3.1v-3.1H4.4V31c0-0.4,0.3-0.7,0.7-0.7h11.5v-3.1
	H5.2c-0.4,0-0.7-0.3-0.7-0.7V6.6c0-0.4,0.3-0.7,0.7-0.7h20.6v3.1h3.1V3.5c0-0.4-0.3-0.7-0.7-0.7h-26c-0.4,0-0.7,0.3-0.7,0.7V57
	c0,0.4,0.3,0.7,0.7,0.7h48.9c0.4,0,0.7-0.3,0.7-0.7V28c0-0.4-0.3-0.7-0.7-0.7H29.6c-0.4,0-0.7-0.3-0.7-0.7V17.5z"/>
</svg>
