<?xml version="1.0" encoding="utf-8"?>
<!-- Generator: Adobe Illustrator 19.2.1, SVG Export Plug-In . SVG Version: 6.00 Build 0)  -->
<svg version="1.1" id="Layer_1" xmlns="http://www.w3.org/2000/svg" xmlns:xlink="http://www.w3.org/1999/xlink" x="0px" y="0px"
	 viewBox="0 0 68 58.9" style="enable-background:new 0 0 68 58.9;" xml:space="preserve">
<style type="text/css">
	.st0{fill:#BBDC96;}
	.st1{fill:none;stroke:#BBDC96;stroke-width:2;stroke-miterlimit:10;}
	.st2{fill:none;}
	.st3{fill:#BBDC96;stroke:#BBDC96;stroke-width:0.75;stroke-miterlimit:10;}
</style>
<path class="st0" d="M57.4,5.2H3.6c-0.8,0-1.5,0.7-1.5,1.5v48.9c0,0.8,0.7,1.5,1.5,1.5h35.9c-1.1-0.7-2.1-1.5-3-2.5H6.9
	c-0.9,0-1.6-0.7-1.6-1.6V22.6c0-0.9,0.7-1.6,1.6-1.6h47.9c0.9,0,1.6,0.7,1.6,1.6v3.9c0.9,0.4,1.7,0.9,2.5,1.4V6.6
	C58.8,5.8,58.2,5.2,57.4,5.2z M56.2,16.6c0,1.1-0.7,2-1.6,2H6.3c-0.9,0-1.6-0.9-1.6-2V9.3c0-1.1,0.7-2,1.6-2h48.3
	c0.9,0,1.6,0.9,1.6,2V16.6z"/>
<path class="st0" d="M16.4,14.3h-2.5V2.7c0-0.7,0.6-1.2,1.2-1.2h0c0.7,0,1.2,0.6,1.2,1.2V14.3z"/>
<path class="st0" d="M47.1,14.3h-2.5V2.7c0-0.7,0.6-1.2,1.2-1.2h0c0.7,0,1.2,0.6,1.2,1.2V14.3z"/>
<path class="st0" d="M56.4,38.3l-1.6-1.6c-0.1-0.1-0.4-0.1-0.5,0l-7.5,7.4l-3.1-3.1c-0.1-0.1-0.4-0.1-0.5,0l-1.6,1.6
	c-0.1,0.1-0.1,0.4,0,0.5l3.4,3.4l1.6,1.6c0.1,0.1,0.4,0.1,0.5,0l1.6-1.6l7.7-7.7C56.5,38.6,56.5,38.5,56.4,38.3z"/>
<g>
	<path class="st0" d="M49,56.8c-4.3,0-8.3-1.9-11-5.1c-0.9-1-1.6-2.2-2.1-3.4c-0.8-1.8-1.2-3.8-1.2-5.8c0-8,6.4-14.4,14.4-14.4
		c1.6,0,3.3,0.2,4.8,0.8c1.2,0.4,2.3,1,3.4,1.7c3.9,2.7,6.2,7.1,6.2,11.8C63.3,50.3,56.9,56.8,49,56.8z M49,30.7
		c-6.4,0-11.7,5.2-11.7,11.7c0,1.6,0.4,3.3,1,4.7c0.4,1,1,1.9,1.7,2.8c2.2,2.7,5.5,4.2,9,4.2c6.4,0,11.7-5.2,11.7-11.7
		c0-3.9-1.9-7.4-5.1-9.6c-0.8-0.6-1.8-1.1-2.8-1.4C51.6,30.9,50.3,30.7,49,30.7z"/>
</g>
</svg>
