<?xml version="1.0" encoding="utf-8"?>
<!-- Generator: Adobe Illustrator 21.0.2, SVG Export Plug-In . SVG Version: 6.00 Build 0)  -->
<svg version="1.0" id="Layer_1" xmlns="http://www.w3.org/2000/svg" xmlns:xlink="http://www.w3.org/1999/xlink" x="0px" y="0px"
	 viewBox="0 0 214.1 214.1" style="enable-background:new 0 0 214.1 214.1;" xml:space="preserve">
<style type="text/css">
	.st0{fill:#FFFFFF;}
</style>
<path class="st0" d="M178.5,147.1l-44.4-37.6L152,91.6c0,0,0,0,0,0c0,0,0,0,0,0l25-25c1-1,1-2.7,0-3.7l-18.5-18.5c-1-1-2.7-1-3.7,0
	l-44.6,44.6L87.9,70.3c10.2-9.9,18.7-16,32.5-14.1c1.1,0.2,2.2-0.5,2.6-1.5c0.4-1.1,0.1-2.3-0.9-2.9c-0.3-0.2-33.6-23.3-55.8-1.1
	L44.7,72.4c-0.9,0.9-1,2.2-0.2,3.2c0.2,0.3,4.4,6.2-0.9,12c-0.9,1-0.9,2.6,0.2,3.5c1,0.9,2.6,0.9,3.5-0.2c5.4-5.9,4.2-12.6,2.3-16.4
	l20.4-20.4c13-13,30.8-7.8,41.2-3C99.5,52.7,91.2,60,81.6,69.6L53.7,97.5c-0.5,0.5-0.7,1.1-0.7,1.8s0.3,1.3,0.7,1.8l2.9,2.9
	l-4.8,4.8L33.5,90.6l6.6-6.6c1-1,1-2.5,0-3.5c-1-1-2.5-1-3.5,0l-8.3,8.3c-1,1-1,2.5,0,3.5L50,114c0.5,0.5,1.1,0.7,1.8,0.7
	s1.3-0.3,1.8-0.7l8.3-8.3c0.5-0.5,0.7-1.1,0.7-1.8s-0.3-1.3-0.7-1.8l-2.9-2.9L71.2,87l19.9,21.1l-46.8,46.8c-1,1-1,2.7,0,3.7
	l18.5,18.5c0.5,0.5,1.2,0.8,1.9,0.8s1.3-0.3,1.9-0.8l26.6-26.6c0,0,0,0,0,0c0,0,0,0,0,0l16.5-16.5c0,0,0,0,0,0c0,0,0,0,0,0l3.1-3.1
	l39.9,42.3c0.5,0.5,1.1,0.8,1.8,0.8c0,0,0,0,0,0c0.7,0,1.3-0.3,1.8-0.7l22.6-22.6c0.5-0.5,0.8-1.2,0.7-1.9
	C179.4,148.2,179,147.5,178.5,147.1z M156.6,50l14.8,14.8l-7.5,7.5l-7.4-7.4c-1-1-2.7-1-3.7,0c-1,1-1,2.7,0,3.7l7.4,7.4l-10.1,10.1
	l-3.6-3.6c-1-1-2.7-1-3.7,0c-1,1-1,2.7,0,3.7l3.6,3.6l-10.1,10.1l-7.4-7.4c-1-1-2.7-1-3.7,0c-1,1-1,2.7,0,3.7l7.4,7.4l-2.5,2.5
	l-16-13.6L156.6,50z M107.7,128.5l-7.4-7.4c-1-1-2.7-1-3.7,0c-1,1-1,2.7,0,3.7l7.4,7.4L91.2,145l-3.6-3.6c-1-1-2.7-1-3.7,0
	c-1,1-1,2.7,0,3.7l3.6,3.6l-11.1,11.1l-7.4-7.4c-1-1-2.7-1-3.7,0c-1,1-1,2.7,0,3.7l7.4,7.4l-8,8l-14.8-14.8l44.8-44.8l14.3,15.2
	L107.7,128.5z M154.3,168L74.7,83.5l9.7-9.7l88.9,75.3L154.3,168z"/>
</svg>
