<?xml version="1.0" encoding="utf-8"?>
<!-- Generator: Adobe Illustrator 21.0.2, SVG Export Plug-In . SVG Version: 6.00 Build 0)  -->
<svg version="1.0" id="Layer_1" xmlns="http://www.w3.org/2000/svg" xmlns:xlink="http://www.w3.org/1999/xlink" x="0px" y="0px"
	 viewBox="0 0 214.2 214.2" style="enable-background:new 0 0 214.2 214.2;" xml:space="preserve">
<style type="text/css">
	.st0{fill:#FFFFFF;}
</style>
<path class="st0" d="M173.8,86l-62.6-38.4c-0.4-0.2-0.9-0.4-1.4-0.4c-0.5,0-1,0.1-1.4,0.4L79.9,65.1c-0.3,0.2-0.5,0.2-0.8,0.2
	c-0.6,0-1-0.5-1-1.2l0-11.9c0-0.9-0.7-1.6-1.6-1.6H53.6c-0.9,0-1.6,0.7-1.6,1.6v28.1c0,1-0.7,2.3-1.6,2.8L45.8,86
	c-0.8,0.5-1.4,1.6-1.4,2.5v68.7c0,0.9,0.7,1.6,1.6,1.6l20.2,0c0.9,0,1.6-0.7,1.6-1.6v-43.5c0-1.1,0.9-1.9,1.9-1.9h26.5
	c1.1,0,1.9,0.9,1.9,1.9v43.5c0,0.9,0.7,1.6,1.6,1.6l73.9,0c0.9,0,1.6-0.7,1.6-1.6V88.5C175.2,87.6,174.5,86.5,173.8,86z M57.5,58
	c0-1.1,0.9-1.9,1.9-1.9h11.4c1.1,0,1.9,0.9,1.9,1.9v9.7c0,1-0.7,2.3-1.6,2.8l-11.9,7.3c-0.3,0.2-0.5,0.2-0.8,0.2c-0.6,0-1-0.5-1-1.2
	V58z M62.3,151.4c0,1.1-0.9,1.9-1.9,1.9h-8.6c-1.1,0-1.9-0.9-1.9-1.9V97.4c0-1.1,0.9-1.9,1.9-1.9h8.6c1.1,0,1.9,0.9,1.9,1.9V151.4z
	 M80.2,104.4c0,1.1-0.9,1.9-1.9,1.9h-8.6c-1.1,0-1.9-0.9-1.9-1.9v-7c0-1.1,0.9-1.9,1.9-1.9h8.6c1.1,0,1.9,0.9,1.9,1.9V104.4z
	 M98.1,104.4c0,1.1-0.9,1.9-1.9,1.9h-8.6c-1.1,0-1.9-0.9-1.9-1.9v-7c0-1.1,0.9-1.9,1.9-1.9h8.6c1.1,0,1.9,0.9,1.9,1.9V104.4z M52,90
	c-0.6,0-0.9-0.1-1-0.4c-0.1-0.3,0.1-0.5,0.6-0.8l56.5-34.7c0.4-0.3,1-0.4,1.6-0.4c0.6,0,1.2,0.1,1.6,0.4l56.5,34.7
	c0.5,0.3,0.7,0.6,0.6,0.8c-0.1,0.3-0.4,0.4-1,0.4H52z M123.4,111.8h26.5c1.1,0,1.9,0.9,1.9,1.9v12.8c0,1.1-0.9,1.9-1.9,1.9h-26.5
	c-1.1,0-1.9-0.9-1.9-1.9v-12.8C121.4,112.6,122.3,111.8,123.4,111.8z M121.4,104.4v-7c0-1.1,0.9-1.9,1.9-1.9h8.6
	c1.1,0,1.9,0.9,1.9,1.9v7c0,1.1-0.9,1.9-1.9,1.9h-8.6C122.3,106.3,121.4,105.5,121.4,104.4z M149.9,106.3h-8.6
	c-1.1,0-1.9-0.9-1.9-1.9v-7c0-1.1,0.9-1.9,1.9-1.9h8.6c1.1,0,1.9,0.9,1.9,1.9v7C151.8,105.5,151,106.3,149.9,106.3z M116,151.4
	c0,1.1-0.9,1.9-1.9,1.9h-8.6c-1.1,0-1.9-0.9-1.9-1.9V97.4c0-1.1,0.9-1.9,1.9-1.9h8.6c1.1,0,1.9,0.9,1.9,1.9V151.4z M133.9,151.4
	c0,1.1-0.9,1.9-1.9,1.9h-8.6c-1.1,0-1.9-0.9-1.9-1.9v-15.6c0-1.1,0.9-1.9,1.9-1.9h8.6c1.1,0,1.9,0.9,1.9,1.9V151.4z M151.8,151.4
	c0,1.1-0.9,1.9-1.9,1.9h-8.6c-1.1,0-1.9-0.9-1.9-1.9v-15.6c0-1.1,0.9-1.9,1.9-1.9h8.6c1.1,0,1.9,0.9,1.9,1.9V151.4z M169.7,151.4
	c0,1.1-0.9,1.9-1.9,1.9h-8.6c-1.1,0-1.9-0.9-1.9-1.9V97.4c0-1.1,0.9-1.9,1.9-1.9h8.6c1.1,0,1.9,0.9,1.9,1.9V151.4z"/>
</svg>
