<?xml version="1.0" encoding="utf-8"?>
<!-- Generator: Adobe Illustrator 21.0.2, SVG Export Plug-In . SVG Version: 6.00 Build 0)  -->
<svg version="1.0" id="Layer_1" xmlns="http://www.w3.org/2000/svg" xmlns:xlink="http://www.w3.org/1999/xlink" x="0px" y="0px"
	 viewBox="0 0 214.1 214.1" style="enable-background:new 0 0 214.1 214.1;" xml:space="preserve">
<style type="text/css">
	.st0{fill:#FFFFFF;}
</style>
<g>
	<path class="st0" d="M106.7,46.5c-8.2,0-16.2,1.6-23.8,4.8c-7.3,3.1-13.8,7.5-19.4,13.1c-5.6,5.6-10,12.1-13.1,19.4
		c-3.2,7.5-4.8,15.5-4.8,23.8s1.6,16.2,4.8,23.8c3.1,7.3,7.5,13.8,13.1,19.4s12.1,10,19.4,13.1c7.5,3.2,15.5,4.8,23.8,4.8
		c8.2,0,16.2-1.6,23.8-4.8c7.3-3.1,13.8-7.5,19.4-13.1s10-12.1,13.1-19.4c3.2-7.5,4.8-15.5,4.8-23.8s-1.6-16.2-4.8-23.8
		c-3.1-7.3-7.5-13.8-13.1-19.4c-5.6-5.6-12.1-10-19.4-13.1C123,48.1,115,46.5,106.7,46.5 M106.7,172.4c-8.8,0-17.2-1.7-25.2-5.1
		c-7.7-3.3-14.7-7.9-20.6-13.9c-6-6-10.6-12.9-13.9-20.6c-3.4-8-5.1-16.5-5.1-25.2s1.7-17.2,5.1-25.2c3.3-7.7,7.9-14.7,13.9-20.6
		c6-6,12.9-10.6,20.6-13.9c8-3.4,16.5-5.1,25.2-5.1c8.8,0,17.2,1.7,25.2,5.1c7.7,3.3,14.7,7.9,20.6,13.9c6,6,10.6,12.9,13.9,20.6
		c3.4,8,5.1,16.5,5.1,25.2s-1.7,17.2-5.1,25.2c-3.3,7.7-7.9,14.7-13.9,20.6c-6,6-12.9,10.6-20.6,13.9
		C124,170.7,115.5,172.4,106.7,172.4"/>
	<path class="st0" d="M106.7,46.5c-8.2,0-16.2,1.6-23.8,4.8c-7.3,3.1-13.8,7.5-19.4,13.1c-5.6,5.6-10,12.1-13.1,19.4
		c-3.2,7.5-4.8,15.5-4.8,23.8s1.6,16.2,4.8,23.8c3.1,7.3,7.5,13.8,13.1,19.4s12.1,10,19.4,13.1c7.5,3.2,15.5,4.8,23.8,4.8
		c8.2,0,16.2-1.6,23.8-4.8c7.3-3.1,13.8-7.5,19.4-13.1s10-12.1,13.1-19.4c3.2-7.5,4.8-15.5,4.8-23.8s-1.6-16.2-4.8-23.8
		c-3.1-7.3-7.5-13.8-13.1-19.4c-5.6-5.6-12.1-10-19.4-13.1C123,48.1,115,46.5,106.7,46.5z M106.7,172.4c-8.8,0-17.2-1.7-25.2-5.1
		c-7.7-3.3-14.7-7.9-20.6-13.9c-6-6-10.6-12.9-13.9-20.6c-3.4-8-5.1-16.5-5.1-25.2s1.7-17.2,5.1-25.2c3.3-7.7,7.9-14.7,13.9-20.6
		c6-6,12.9-10.6,20.6-13.9c8-3.4,16.5-5.1,25.2-5.1c8.8,0,17.2,1.7,25.2,5.1c7.7,3.3,14.7,7.9,20.6,13.9c6,6,10.6,12.9,13.9,20.6
		c3.4,8,5.1,16.5,5.1,25.2s-1.7,17.2-5.1,25.2c-3.3,7.7-7.9,14.7-13.9,20.6c-6,6-12.9,10.6-20.6,13.9
		C124,170.7,115.5,172.4,106.7,172.4z"/>
	<path class="st0" d="M142.9,104.4c0-0.2,0-0.5-0.1-0.7l-0.1-0.6l7.2-0.7l0.1,0.6c0,0.3,0.1,0.5,0.1,0.8l0,0.6l-7.2,0.6L142.9,104.4
		z M142.4,101c0-0.2-0.1-0.5-0.1-0.7l-0.1-0.6l7.1-1.4l0.1,0.6c0.1,0.3,0.1,0.5,0.2,0.8l0.1,0.6l-7.1,1.3L142.4,101z M141.6,97.6
		c-0.1-0.2-0.1-0.4-0.2-0.7l-0.2-0.5l6.9-2.1l0.2,0.5c0.1,0.3,0.2,0.5,0.2,0.8l0.2,0.5l-6.9,2L141.6,97.6z M140.5,94.4
		c-0.1-0.2-0.2-0.4-0.3-0.6l-0.2-0.5l6.7-2.7l0.2,0.5c0.1,0.3,0.2,0.5,0.3,0.8l0.2,0.5l-6.7,2.6L140.5,94.4z M139.1,91.2
		c-0.1-0.2-0.2-0.4-0.3-0.6l-0.3-0.5l6.4-3.4l0.3,0.5c0.1,0.2,0.3,0.5,0.4,0.7l0.3,0.5l-6.4,3.2L139.1,91.2z M137.4,88.2
		c-0.1-0.2-0.2-0.4-0.4-0.6l-0.3-0.5l6-4l0.3,0.5c0.2,0.2,0.3,0.5,0.4,0.7l0.3,0.5l-6.1,3.8L137.4,88.2z M135.5,85.4
		c-0.1-0.2-0.3-0.4-0.4-0.5l-0.4-0.4l5.6-4.5l0.4,0.4c0.2,0.2,0.3,0.4,0.5,0.6l0.3,0.5l-5.7,4.4L135.5,85.4z M133.2,82.8
		c-0.2-0.2-0.3-0.3-0.5-0.5l-0.4-0.4l5.2-5l0.4,0.4c0.2,0.2,0.4,0.4,0.6,0.6l0.4,0.4l-5.3,4.9L133.2,82.8z M130.7,80.4
		c-0.2-0.2-0.3-0.3-0.5-0.5l-0.4-0.4l4.7-5.5l0.4,0.4c0.2,0.2,0.4,0.4,0.6,0.5l0.4,0.4l-4.8,5.4L130.7,80.4z M128,78.2
		c-0.2-0.1-0.4-0.3-0.6-0.4l-0.5-0.3l4.1-5.9l0.5,0.3c0.2,0.2,0.4,0.3,0.7,0.5l0.5,0.3l-4.2,5.8L128,78.2z M107.7,127.8
		c-11.1,0.5-20.5-8.1-21-19.2c-0.4-9,5.2-16.8,13.2-19.8c0.9-0.3,7.1-11.3,7.1-11.3s6.4,11.1,7.3,11.4c7.1,2.8,12.3,9.7,12.7,17.8
		C127.4,117.9,118.8,127.3,107.7,127.8 M86,77.8c-0.2,0.1-0.4,0.3-0.6,0.4l-0.5,0.3l-4.2-5.8l0.5-0.3c0.2-0.2,0.5-0.3,0.7-0.5
		l0.5-0.3l4.1,5.9L86,77.8z M83.2,79.9c-0.2,0.2-0.4,0.3-0.5,0.5l-0.4,0.4l-4.8-5.4l0.4-0.4c0.2-0.2,0.4-0.4,0.6-0.5l0.4-0.4
		l4.7,5.5L83.2,79.9z M80.7,82.3c-0.2,0.2-0.3,0.3-0.5,0.5l-0.4,0.4l-5.3-4.9l0.4-0.4c0.2-0.2,0.4-0.4,0.6-0.6l0.4-0.4l5.2,5
		L80.7,82.3z M78.4,84.9c-0.1,0.2-0.3,0.4-0.4,0.5l-0.3,0.5L72,81.5l0.3-0.4c0.2-0.2,0.3-0.4,0.5-0.7l0.4-0.4l5.6,4.5L78.4,84.9z
		 M76.4,87.7c-0.1,0.2-0.3,0.4-0.4,0.6l-0.3,0.5l-6.1-3.8l0.3-0.5c0.1-0.2,0.3-0.5,0.4-0.7l0.3-0.5l6,4L76.4,87.7z M74.6,90.6
		c-0.1,0.2-0.2,0.4-0.3,0.6l-0.3,0.5l-6.4-3.2l0.3-0.5c0.1-0.2,0.2-0.5,0.4-0.7l0.3-0.5l6.4,3.4L74.6,90.6z M73.2,93.7
		c-0.1,0.2-0.2,0.4-0.3,0.6l-0.2,0.5L66,92.3l0.2-0.5c0.1-0.3,0.2-0.5,0.3-0.8l0.2-0.5l6.7,2.7L73.2,93.7z M72,97
		c-0.1,0.2-0.1,0.4-0.2,0.7l-0.2,0.5l-6.9-2l0.2-0.5c0.1-0.3,0.2-0.5,0.2-0.8l0.2-0.5l6.9,2.1L72,97z M71.2,100.4
		c0,0.2-0.1,0.5-0.1,0.7l-0.1,0.6l-7.1-1.3l0.1-0.6c0.1-0.3,0.1-0.5,0.2-0.8l0.1-0.6l7.1,1.4L71.2,100.4z M70.6,103.8
		c0,0.2,0,0.5-0.1,0.7l0,0.6l-7.2-0.6l0-0.6c0-0.3,0-0.5,0.1-0.8l0.1-0.6l7.2,0.7L70.6,103.8z M84.6,70.1c0.2-0.1,0.5-0.3,0.7-0.4
		l0.5-0.3l3.5,6.3L88.9,76c-0.2,0.1-0.4,0.2-0.6,0.3l-0.5,0.3l-3.7-6.2L84.6,70.1z M88.3,68.2c0.2-0.1,0.5-0.2,0.7-0.3l0.5-0.2
		l2.9,6.6L92,74.4c-0.2,0.1-0.4,0.2-0.6,0.3l-0.5,0.2l-3.1-6.5L88.3,68.2z M92.1,66.6c0.3-0.1,0.5-0.2,0.8-0.3l0.5-0.2l2.3,6.8
		l-0.5,0.2c-0.2,0.1-0.4,0.1-0.7,0.2L94,73.6l-2.4-6.8L92.1,66.6z M96.1,65.4c0.3-0.1,0.5-0.1,0.8-0.2l0.6-0.1l1.6,7l-0.6,0.1
		c-0.2,0.1-0.4,0.1-0.7,0.2l-0.6,0.1l-1.8-7L96.1,65.4z M100.1,64.6c0.3,0,0.5-0.1,0.8-0.1l0.6-0.1l0.9,7.1l-0.6,0.1
		c-0.2,0-0.5,0.1-0.7,0.1l-0.6,0.1l-1.1-7.1L100.1,64.6z M104.2,64.2c0.3,0,0.6,0,0.8,0l0.6,0l0.3,7.2l-0.6,0c-0.2,0-0.5,0-0.7,0
		l-0.6,0l-0.4-7.2L104.2,64.2z M107.8,64.1l0.6,0c0.3,0,0.6,0,0.8,0l0.6,0l-0.4,7.2l-0.6,0c-0.2,0-0.5,0-0.7,0l-0.6,0L107.8,64.1z
		 M111.9,64.4l0.6,0.1c0.3,0,0.5,0.1,0.8,0.1l0.6,0.1l-1.1,7.1l-0.6-0.1c-0.2,0-0.5-0.1-0.7-0.1l-0.6-0.1L111.9,64.4z M116,65.1
		l0.6,0.1c0.3,0.1,0.5,0.1,0.8,0.2l0.6,0.1l-1.8,7l-0.6-0.1c-0.2-0.1-0.4-0.1-0.7-0.2l-0.6-0.1L116,65.1z M120.5,66.3
		c0.3,0.1,0.5,0.2,0.8,0.3l0.5,0.2l-2.4,6.8l-0.5-0.2c-0.2-0.1-0.4-0.2-0.7-0.2l-0.5-0.2l2.3-6.8L120.5,66.3z M124.4,67.8
		c0.2,0.1,0.5,0.2,0.8,0.3l0.5,0.2l-3.1,6.5l-0.5-0.2c-0.2-0.1-0.4-0.2-0.6-0.3l-0.5-0.2l2.9-6.6L124.4,67.8z M128.1,69.7
		c0.2,0.1,0.5,0.3,0.7,0.4l0.5,0.3l-3.7,6.2l-0.5-0.3c-0.2-0.1-0.4-0.2-0.6-0.3l-0.5-0.3l3.5-6.3L128.1,69.7z"/>
</g>
</svg>
