<?xml version="1.0" encoding="utf-8"?>
<!-- Generator: Adobe Illustrator 21.0.2, SVG Export Plug-In . SVG Version: 6.00 Build 0)  -->
<svg version="1.0" id="Layer_1" xmlns="http://www.w3.org/2000/svg" xmlns:xlink="http://www.w3.org/1999/xlink" x="0px" y="0px"
	 viewBox="0 0 214.2 214.2" style="enable-background:new 0 0 214.2 214.2;" xml:space="preserve">
<style type="text/css">
	.st0{fill:none;}
	.st1{fill:#FFFFFF;}
</style>
<g>
	<path class="st0" d="M90.8,99.7l4.2-4.2l-8-8l-4.2,4.2L62.1,71l4.2-4.2L62.6,63c-0.2-0.2-0.4-0.2-0.5-0.2s-0.4,0-0.5,0.2L43.6,80.8
		c-0.3,0.3-0.3,0.8,0,1.1l3.7,3.7l7.5-7.5c0.8-0.8,2-0.8,2.8,0c0.8,0.8,0.8,2,0,2.8l-7.5,7.5l10.4,10.4l7.5-7.5c0.8-0.8,2-0.8,2.8,0
		s0.8,2,0,2.8l-7.5,7.5l10.9,10.9l7.5-7.5c0.8-0.8,2-0.8,2.8,0s0.8,2,0,2.8l-7.5,7.5l10.4,10.4l7.5-7.5c0.8-0.8,2-0.8,2.8,0
		c0.8,0.8,0.8,2,0,2.8l-7.5,7.5l10.4,10.4l7.5-7.5c0.8-0.8,2-0.8,2.8,0s0.8,2,0,2.8l-7.5,7.5l10.9,10.9l7.5-7.5c0.8-0.8,2-0.8,2.8,0
		s0.8,2,0,2.8l-7.5,7.5l10.4,10.4l7.5-7.5c0.8-0.8,2-0.8,2.8,0c0.8,0.8,0.8,2,0,2.8l-7.5,7.5l4.1,4.1c0.2,0.2,0.4,0.2,0.5,0.2
		c0.1,0,0.4,0,0.5-0.2l17.8-17.8c0.2-0.2,0.2-0.4,0.2-0.5s0-0.4-0.2-0.5l-37.8-37.8l-4.2,4.2L90.8,99.7z"/>
	<path class="st1" d="M156.3,151l-37.8-37.8l6.4-6.4c5.8-5.8,5.8-11.3,5.8-16.3c0-4.1,0-7.3,3.1-10.5c4.2-4.2,7-8.8,8.1-13.1
		c1.2-4.9,0.1-9.2-3.2-12.5l-1.4-1.4L97.8,92.6l-8-8l39.5-39.5l-1.4-1.4c-6.3-6.3-16.3-4.3-25.6,5c-3.1,3.1-6.4,3.1-10.5,3.1
		c-4.9,0-10.5,0-16.3,5.8L69.2,64l-3.8-3.8c-0.9-0.9-2.1-1.4-3.4-1.4s-2.5,0.5-3.4,1.4L40.8,78c-1.9,1.9-1.9,4.9,0,6.7l90.9,90.9
		c0.9,0.9,2.2,1.4,3.4,1.4c1.2,0,2.4-0.5,3.4-1.4l17.8-17.8C158.1,155.9,158.1,152.9,156.3,151z M137.1,59c1.2,2,1.5,4.4,0.8,7.1
		c-0.9,3.6-3.4,7.6-7.1,11.2c-4.3,4.3-4.3,8.9-4.3,13.3c0,4.5,0,8.8-4.6,13.4l-6.4,6.4l-2.8,2.8l-1.4,1.4l-15-15l1.4-1.4l2.8-2.8
		L137.1,59z M116.3,44.5c2.8-0.7,5.2-0.4,7.1,0.8L87,81.8l-2.8,2.8L82.8,86l-15-15l1.4-1.4l2.8-2.8l6.4-6.4
		c4.6-4.6,8.9-4.6,13.4-4.6c4.4,0,9,0,13.3-4.3C108.8,47.9,112.8,45.3,116.3,44.5z M153.4,155l-17.8,17.8c-0.2,0.2-0.4,0.2-0.5,0.2
		c-0.1,0-0.4,0-0.5-0.2l-4.1-4.1l7.5-7.5c0.8-0.8,0.8-2,0-2.8c-0.8-0.8-2-0.8-2.8,0l-7.5,7.5l-10.4-10.4l7.5-7.5
		c0.8-0.8,0.8-2,0-2.8s-2-0.8-2.8,0l-7.5,7.5l-10.9-10.9l7.5-7.5c0.8-0.8,0.8-2,0-2.8s-2-0.8-2.8,0l-7.5,7.5l-10.4-10.4l7.5-7.5
		c0.8-0.8,0.8-2,0-2.8c-0.8-0.8-2-0.8-2.8,0l-7.5,7.5l-10.4-10.4l7.5-7.5c0.8-0.8,0.8-2,0-2.8s-2-0.8-2.8,0l-7.5,7.5l-10.9-10.9
		l7.5-7.5c0.8-0.8,0.8-2,0-2.8s-2-0.8-2.8,0l-7.5,7.5L50.2,88.5l7.5-7.5c0.8-0.8,0.8-2,0-2.8c-0.8-0.8-2-0.8-2.8,0l-7.5,7.5
		l-3.7-3.7c-0.3-0.3-0.3-0.8,0-1.1L61.5,63c0.2-0.2,0.4-0.2,0.5-0.2s0.4,0,0.5,0.2l3.8,3.8L62.1,71l20.7,20.7l4.2-4.2l8,8l-4.2,4.2
		l20.7,20.7l4.2-4.2l37.8,37.8c0.2,0.2,0.2,0.4,0.2,0.5S153.6,154.8,153.4,155z"/>
</g>
</svg>
