<?xml version="1.0" encoding="utf-8"?>
<!-- Generator: Adobe Illustrator 21.0.2, SVG Export Plug-In . SVG Version: 6.00 Build 0)  -->
<svg version="1.0" id="Layer_1" xmlns="http://www.w3.org/2000/svg" xmlns:xlink="http://www.w3.org/1999/xlink" x="0px" y="0px"
	 viewBox="0 0 214.2 214.2" style="enable-background:new 0 0 214.2 214.2;" xml:space="preserve">
<style type="text/css">
	.st0{fill:#FFFFFF;}
</style>
<g>
	<ellipse transform="matrix(0.1949 -0.9808 0.9808 0.1949 9.4968 142.9157)" class="st0" cx="91.8" cy="65.7" rx="3.3" ry="3.3"/>
	<ellipse transform="matrix(0.1949 -0.9808 0.9808 0.1949 -23.0961 160.3477)" class="st0" cx="86.1" cy="94.2" rx="3.3" ry="3.3"/>
	
		<ellipse transform="matrix(0.1949 -0.9808 0.9808 0.1949 -24.2357 216.3589)" class="st0" cx="119.7" cy="122.9" rx="3.3" ry="3.3"/>
	
		<ellipse transform="matrix(0.1949 -0.9808 0.9808 0.1949 -19.8914 242.3363)" class="st0" cx="137.7" cy="133.3" rx="3.3" ry="3.3"/>
	
		<ellipse transform="matrix(0.1949 -0.9808 0.9808 0.1949 -47.7594 244.6862)" class="st0" cx="125.2" cy="151.4" rx="3.3" ry="3.3"/>
	
		<ellipse transform="matrix(0.1949 -0.9808 0.9808 0.1949 -90.1714 209.2033)" class="st0" cx="82.3" cy="159.5" rx="3.3" ry="3.3"/>
	<ellipse transform="matrix(0.1949 -0.9808 0.9808 0.1949 -64.6985 211.0973)" class="st0" cx="96.2" cy="145" rx="3.3" ry="3.3"/>
	
		<ellipse transform="matrix(0.1949 -0.9808 0.9808 0.1949 -68.3908 180.3757)" class="st0" cx="75.7" cy="131.8" rx="3.3" ry="3.3"/>
	
		<ellipse transform="matrix(0.1949 -0.9808 0.9808 0.1949 -43.1269 187.2822)" class="st0" cx="92.5" cy="119.9" rx="3.3" ry="3.3"/>
	<ellipse transform="matrix(0.1949 -0.9808 0.9808 0.1949 5.6619 117.8027)" class="st0" cx="74.6" cy="55.5" rx="3.3" ry="3.3"/>
	<ellipse transform="matrix(0.1949 -0.9808 0.9808 0.1949 -17.2899 138.5361)" class="st0" cx="75.7" cy="79.8" rx="3.3" ry="3.3"/>
	<path class="st0" d="M150.8,166.7c0.1-0.3,0.1-0.6,0.1-0.8V48.4c0-2.5-2-4.5-4.5-4.5H66.9c-2.5,0-4.5,2-4.5,4.5v117.5
		c0,0.3,0,0.6,0.1,0.8h-8.2v4.5h105.6v-4.5H150.8z M66.9,109.8h37.6v56.1H66.9V109.8z M109,109.8h37.4v56.1H109V109.8z M146.4,105.2
		H109v-9.5c0.1,0,0.3,0,0.4,0c21.7,0,32.4,0,37,0V105.2z M146.4,57.6L146.4,57.6c-2.2-1.3-4.7-2.1-7.5-2.1
		c-6.9,0-12.6,4.8-14.1,11.2c-1.3-1-3-1.6-4.7-1.6c-4.4,0-8,3.6-8,8c0,0.6,0.1,1.3,0.2,1.8c-1.1-0.1-2.1-0.2-2.9-0.2
		c-0.1,0-0.3,0-0.4,0V48.4h37.4V57.6z M104.5,48.4v27.7c-3.3,1.8-5.5,5.2-5.5,9.2s2.2,7.5,5.5,9.2v10.7H66.9V48.4H104.5z"/>
</g>
</svg>
