<?xml version="1.0" encoding="utf-8"?>
<!-- Generator: Adobe Illustrator 21.0.2, SVG Export Plug-In . SVG Version: 6.00 Build 0)  -->
<svg version="1.0" id="Layer_1" xmlns="http://www.w3.org/2000/svg" xmlns:xlink="http://www.w3.org/1999/xlink" x="0px" y="0px"
	 viewBox="0 0 214.2 214.2" style="enable-background:new 0 0 214.2 214.2;" xml:space="preserve">
<style type="text/css">
	.st0{fill:#FFFFFF;}
</style>
<path class="st0" d="M106.8,118.2l0.7,0.3c0.2,0.1,0.3,0.1,0.5,0.1c0.5,0,0.9-0.3,1.2-0.8c1.7-3.9,11.2-23.6,28.5-24.2
	c0.7,0,1.2-0.6,1.2-1.3v-0.8c0-0.3-0.1-0.7-0.4-0.9c-0.2-0.2-0.6-0.4-0.9-0.4c-8.8,0.3-17.1,5-23.9,13.7c-4.2,5.3-6.7,10.6-7.6,12.6
	c-0.1,0.3-0.1,0.7,0,1C106.2,117.9,106.4,118.1,106.8,118.2z"/>
<path class="st0" d="M168.9,99.3 M109.5,33.9c-1.1-0.9-2.8-0.9-3.9,0c0,0-68.5,53.7-71.2,55.8c-2.9,2.3-2.7,5.4-1.9,7
	c1,2,2.6,2.7,5.8,2.7h7.1c0,0-0.2,58.7-0.2,59.4c0,2.1,1.7,3.7,3.7,3.7h116.2c2.1,0,3.7-1.7,3.7-3.7v-50.2l0-9.2h7.1
	c3.2,0,4.8-0.7,5.8-2.7c0.8-1.6,1-4.8-1.9-7L109.5,33.9z M107.7,38L177,92.8c0.9,0.7,0.8,2.4-0.8,2.4h-9.4c-1.2,0-2.1,0.9-2.1,2.1
	l0,53.1l0,7.9h-63.1l0-30.6c0-0.2,0.1-0.3,0.3-0.3c15.9-0.8,28.2-5.7,36.5-14.5c11.4-12.1,11.1-27.2,11-27.8c0-1.1-0.9-2-1.9-2.2
	c-16.2-2.6-28.9,0.1-37.7,8.1c-14,12.6-12.9,33.4-12.8,34.3v8.5c-1.7-2.1-3.8-4.1-6.4-5.1c-0.8-2.1-3.1-7.1-7.3-10.9
	c-5.4-4.8-12.2-6.2-20-3.9c-1.1,0.3-1.8,1.3-1.7,2.5c0,0.4,1.1,9.7,8.5,14.7c4.9,3.3,11.2,4,18.8,1.9c4.2,1.4,7.2,7.5,8.2,10.2v15.2
	H49.6v-61c0-1.2-0.9-2.1-2.1-2.1H38c-1.6,0-1.8-1.7-0.8-2.4L107.7,38z M164.6,97.2 M164.6,96.9 M101.5,122.4
	c0.2-5.6,1.7-19.4,11.3-28.1c5.7-5.2,13.6-7.8,23.3-7.8c2.6,0,5.3,0.2,8.2,0.6c0.2,0,0.3,0.2,0.3,0.4c-0.3,3.9-1.9,14-9.7,22.3
	c-7.4,7.9-18.5,12.3-33.1,13.1c-0.1,0-0.2,0-0.2-0.1C101.6,122.6,101.5,122.5,101.5,122.4z M85.6,128.9c-5.4,1.1-9.8,0.5-13.1-1.7
	c-3.8-2.6-5.5-6.9-6.1-9.4C78.2,115.6,83.6,124.5,85.6,128.9z"/>
</svg>
