<?xml version="1.0" encoding="utf-8"?>
<!-- Generator: Adobe Illustrator 21.0.2, SVG Export Plug-In . SVG Version: 6.00 Build 0)  -->
<svg version="1.0" id="Layer_1" xmlns="http://www.w3.org/2000/svg" xmlns:xlink="http://www.w3.org/1999/xlink" x="0px" y="0px"
	 viewBox="0 0 214.2 214.2" style="enable-background:new 0 0 214.2 214.2;" xml:space="preserve">
<style type="text/css">
	.st0{fill:#FFFFFF;}
	.st1{fill:none;stroke:#FFFFFF;stroke-width:4.0465;stroke-linecap:round;stroke-miterlimit:10;}
	.st2{fill:none;stroke:#FFFFFF;stroke-width:4.0465;stroke-linecap:round;stroke-linejoin:round;stroke-miterlimit:10;}
</style>
<g>
	<g>
		<path class="st0" d="M130,82.8c-2.9,0-5.3,2.3-5.3,5.2c0,2.9,2.4,5.2,5.3,5.2c2.9,0,5.3-2.3,5.3-5.2
			C135.3,85.1,132.9,82.8,130,82.8z M130,90.5c-1.4,0-2.6-1.1-2.6-2.6c0-1.4,1.2-2.6,2.6-2.6c1.4,0,2.6,1.1,2.6,2.6
			C132.7,89.4,131.5,90.5,130,90.5z"/>
		<path class="st0" d="M122.6,98.4c-2.9,0-5.3,2.3-5.3,5.2c0,2.9,2.4,5.2,5.3,5.2c2.9,0,5.3-2.3,5.3-5.2
			C127.8,100.8,125.5,98.4,122.6,98.4z M122.6,106.2c-1.4,0-2.6-1.1-2.6-2.6c0-1.4,1.2-2.6,2.6-2.6c1.4,0,2.6,1.1,2.6,2.6
			C125.2,105,124,106.2,122.6,106.2z"/>
		<path class="st0" d="M105.5,119.3c0-2.9-2.4-5.2-5.3-5.2c-2.9,0-5.3,2.3-5.3,5.2c0,2.9,2.4,5.2,5.3,5.2
			C103.1,124.5,105.5,122.2,105.5,119.3z M100.2,121.9c-1.5,0-2.6-1.1-2.6-2.6c0-1.4,1.2-2.6,2.6-2.6c1.4,0,2.6,1.1,2.6,2.6
			C102.8,120.7,101.7,121.9,100.2,121.9z"/>
		<path class="st0" d="M90.6,88c0-2.9-2.4-5.2-5.3-5.2c-2.9,0-5.3,2.3-5.3,5.2c0,2.9,2.4,5.2,5.3,5.2C88.2,93.2,90.6,90.8,90.6,88z
			 M85.3,90.5c-1.4,0-2.6-1.1-2.6-2.6c0-1.4,1.2-2.6,2.6-2.6c1.4,0,2.6,1.1,2.6,2.6C87.9,89.4,86.7,90.5,85.3,90.5z"/>
		<path class="st0" d="M98,103.6c0-2.9-2.4-5.2-5.3-5.2c-2.9,0-5.2,2.3-5.2,5.2c0,2.9,2.4,5.2,5.2,5.2C95.7,108.8,98,106.5,98,103.6
			z M92.8,106.2c-1.4,0-2.6-1.1-2.6-2.6c0-1.4,1.2-2.6,2.6-2.6c1.4,0,2.6,1.1,2.6,2.6C95.4,105,94.2,106.2,92.8,106.2z"/>
		<path class="st0" d="M100.2,93.2c2.9,0,5.2-2.3,5.2-5.2c0-2.9-2.4-5.2-5.2-5.2c-2.9,0-5.3,2.3-5.3,5.2
			C95,90.8,97.3,93.2,100.2,93.2z M100.2,85.4c1.4,0,2.6,1.1,2.6,2.6c0,1.4-1.2,2.6-2.6,2.6c-1.4,0-2.6-1.1-2.6-2.6
			C97.6,86.6,98.8,85.4,100.2,85.4z"/>
		<path class="st0" d="M115.1,93.2c2.9,0,5.3-2.3,5.3-5.2c0-2.9-2.4-5.2-5.3-5.2c-2.9,0-5.3,2.3-5.3,5.2
			C109.9,90.8,112.2,93.2,115.1,93.2z M115.1,85.4c1.4,0,2.6,1.1,2.6,2.6c0,1.4-1.2,2.6-2.6,2.6c-1.4,0-2.6-1.1-2.6-2.6
			C112.5,86.6,113.7,85.4,115.1,85.4z"/>
		<path class="st0" d="M107.7,129.8c-2.9,0-5.3,2.3-5.3,5.2c0,2.9,2.4,5.2,5.3,5.2c2.9,0,5.2-2.3,5.2-5.2
			C112.9,132.1,110.6,129.8,107.7,129.8z M107.7,137.5c-1.4,0-2.6-1.2-2.6-2.6c0-1.4,1.2-2.5,2.6-2.5c1.4,0,2.6,1.1,2.6,2.5
			C110.3,136.4,109.1,137.5,107.7,137.5z"/>
		<path class="st0" d="M115.1,114.1c-2.9,0-5.3,2.3-5.3,5.2c0,2.9,2.4,5.2,5.3,5.2c2.9,0,5.3-2.3,5.3-5.2
			C120.4,116.4,118,114.1,115.1,114.1z M115.1,121.9c-1.4,0-2.6-1.1-2.6-2.6c0-1.4,1.2-2.6,2.6-2.6c1.4,0,2.6,1.1,2.6,2.6
			C117.7,120.7,116.6,121.9,115.1,121.9z"/>
		<path class="st0" d="M102.4,103.6c0,2.9,2.4,5.2,5.2,5.2c2.9,0,5.2-2.3,5.2-5.2c0-2.9-2.4-5.2-5.2-5.2
			C104.8,98.4,102.4,100.8,102.4,103.6z M107.7,101.1c1.4,0,2.6,1.1,2.6,2.6c0,1.4-1.2,2.6-2.6,2.6c-1.4,0-2.6-1.1-2.6-2.6
			C105.1,102.2,106.2,101.1,107.7,101.1z"/>
	</g>
	<path class="st1" d="M182.2,79.5l-75.7-48.3c-0.4-0.4-0.9-0.4-1.3,0L33.2,76.1c-0.6,0.6-0.2,1.5,0.6,1.5h17v87.1
		c0,0.9,0.7,1.6,1.6,1.6h110.9c0.9,0,1.6-0.7,1.6-1.6V81.1h16.7C182.3,81.1,182.7,80.1,182.2,79.5z"/>
	<polygon class="st2" points="62.5,156.6 62.5,79.4 105.8,52.4 153.1,82.7 153.1,156.6 	"/>
	<polyline class="st1" points="47.2,77.4 105.8,40.8 168.7,81 	"/>
</g>
</svg>
