<?xml version="1.0" encoding="utf-8"?>
<!-- Generator: Adobe Illustrator 21.0.2, SVG Export Plug-In . SVG Version: 6.00 Build 0)  -->
<svg version="1.0" id="Layer_1" xmlns="http://www.w3.org/2000/svg" xmlns:xlink="http://www.w3.org/1999/xlink" x="0px" y="0px"
	 viewBox="0 0 214.1 214.1" style="enable-background:new 0 0 214.1 214.1;" xml:space="preserve">
<style type="text/css">
	.st0{fill:#FFFFFF;}
</style>
<g>
	<circle class="st0" cx="81.1" cy="77.7" r="3.3"/>
	<ellipse transform="matrix(0.4189 -0.908 0.908 0.4189 7.1063 179.774)" class="st0" cx="144" cy="84.3" rx="3.3" ry="3.3"/>
	<ellipse transform="matrix(0.4189 -0.908 0.908 0.4189 13.783 189.7368)" class="st0" cx="155.1" cy="84.1" rx="3.3" ry="3.3"/>
	<ellipse transform="matrix(0.4189 -0.908 0.908 0.4189 -37.4762 114.0587)" class="st0" cx="70.4" cy="86.3" rx="3.3" ry="3.3"/>
	<ellipse transform="matrix(0.4189 -0.908 0.908 0.4189 -43.479 104.6779)" class="st0" cx="60" cy="86.3" rx="3.3" ry="3.3"/>
	<ellipse transform="matrix(0.1949 -0.9808 0.9808 0.1949 24.0667 152.3643)" class="st0" cx="104.8" cy="61.5" rx="3.3" ry="3.3"/>
	<ellipse transform="matrix(0.1032 -0.9947 0.9947 0.1032 52.5154 202.2242)" class="st0" cx="138.4" cy="72" rx="3.3" ry="3.3"/>
	<path class="st0" d="M182.5,90.3c-2.9-1.8-70.4-46.7-70.4-46.7c-1.1-0.9-2.8-0.9-3.9,0c0,0-68.3,45.2-71.2,47
		c-2.9,1.8-3.3,3.9-2.5,6.3c0.7,2.1,3,3.4,6.4,3.4h7.1l0,54.6c0,4.7,3.9,8.6,8.6,8.6H163c4.7,0,8.6-3.9,8.6-8.6l-0.1-54.9h7.1
		c3.4,0,5.7-1.2,6.4-3.4C185.8,94.3,185.4,92.2,182.5,90.3z M67,159.3H56.6c-2.4,0-4.4-2-4.4-4.4l0-47.2L67,98.4V159.3z
		 M147.8,159.3H71V95.9L110.1,71l37.8,24.6V159.3z M163,159.3h-11.2V98.3l15.2,9.9c0.1,0.1,0.2,0.1,0.3,0.1l0.1,46.7
		C167.3,157.4,165.4,159.3,163,159.3z M178.5,95.8l-2,0c0.3-1.5-0.4-3-1.9-3.6c-1.7-0.8-3.7,0-4.4,1.6c-0.3,0.7-0.4,1.4-0.2,2.1
		l-2.8,0l0,7.6l-8.7-5.7c0.6-0.5,1.1-1.2,1.3-2c0.4-1.8-0.8-3.6-2.6-3.9c-1.8-0.4-3.5,0.8-3.9,2.5l-26.7-17.4
		c0.2,0.1,0.4,0.1,0.6,0.2c1.8,0.4,3.6-0.8,3.9-2.6c0.4-1.8-0.8-3.6-2.6-3.9c-1.8-0.4-3.6,0.8-3.9,2.6c-0.2,1.1,0.2,2.2,0.9,3
		l-7-4.5c1.3-0.5,2.2-1.7,2.2-3.1c0-1.8-1.5-3.3-3.3-3.3c-1.8,0-3.3,1.5-3.3,3.3c0,0.1,0,0.2,0,0.2l-2.9-1.9c-0.7-0.4-1.5-0.4-2.2,0
		l-10,6.4c0.2-0.3,0.4-0.7,0.5-1.2c0.4-1.8-0.8-3.6-2.6-3.9c-1.8-0.4-3.6,0.8-3.9,2.6s0.8,3.6,2.6,3.9c0.4,0.1,0.7,0.1,1.1,0
		L62,96.8c0.2-1.4-0.6-2.8-1.9-3.4c-1.7-0.8-3.7,0-4.4,1.6c-0.8,1.7,0,3.7,1.6,4.4c0.1,0.1,0.2,0.1,0.3,0.1l-5.5,3.5l0-6.9l-11.2,0
		c-1.5,0-1.8-1.7-0.9-2.4l4.2-2.8c0.1,1.1,0.8,2.2,1.9,2.7c1.7,0.8,3.7,0,4.4-1.6c0.7-1.6,0.1-3.5-1.5-4.3l16.6-11
		c0.2,1.4,1.2,2.6,2.6,2.8c1.8,0.4,3.6-0.8,3.9-2.6c0.3-1.4-0.4-2.8-1.6-3.5l12.8-8.5c-0.8,1.7,0,3.6,1.6,4.4c1.7,0.8,3.7,0,4.4-1.6
		c0.8-1.7,0-3.7-1.6-4.4c-0.5-0.2-1-0.3-1.5-0.3l7.7-5.2c0.5,1.2,1.7,2,3.1,2c1.8,0,3.3-1.5,3.3-3.3c0-0.9-0.4-1.7-1-2.3l4.9-3.2
		c0,1.3,0.7,2.6,1.9,3.1c1.7,0.8,3.7,0,4.4-1.6c0.8-1.7,0-3.7-1.6-4.4c-0.1,0-0.2-0.1-0.2-0.1l0.9-0.6c0.2,0.1,0.4,0.1,0.4,0.1
		l7.2,4.8c-1.6,0.3-2.8,1.6-2.8,3.3c0,1.8,1.5,3.3,3.3,3.3s3.3-1.5,3.3-3.3c0-0.3,0-0.5-0.1-0.7l6.3,4.2c-1.5,0.3-2.6,1.7-2.6,3.2
		c0,1.8,1.5,3.3,3.3,3.3c1.8,0,3.3-1.5,3.3-3.3c0-0.2,0-0.4-0.1-0.6l15.4,10.2c-0.4,0.3-0.7,0.7-0.9,1.1c-0.8,1.7,0,3.7,1.6,4.4
		c1.7,0.8,3.7,0,4.4-1.6c0.1-0.1,0.1-0.3,0.1-0.4l12.3,8.2c-0.7,0.5-1.3,1.2-1.5,2.1c-0.4,1.8,0.8,3.6,2.6,3.9
		c1.8,0.4,3.6-0.8,3.9-2.6c0,0,0,0,0-0.1l9.8,6.5C180.3,94.1,180,95.8,178.5,95.8z"/>
</g>
</svg>
