<?xml version="1.0" encoding="utf-8"?>
<!-- Generator: Adobe Illustrator 21.0.2, SVG Export Plug-In . SVG Version: 6.00 Build 0)  -->
<svg version="1.0" id="Layer_1" xmlns="http://www.w3.org/2000/svg" xmlns:xlink="http://www.w3.org/1999/xlink" x="0px" y="0px"
	 viewBox="0 0 214.1 214.1" style="enable-background:new 0 0 214.1 214.1;" xml:space="preserve">
<style type="text/css">
	.st0{fill:#FFFFFF;}
</style>
<g>
	<g>
		<path class="st0" d="M140.5,55.7h6.1v47.3h-3.3c0.1-1.6,0.2-20.2,0.2-21.9c0-26.3-16.3-47.6-36.4-47.6S70.7,54.8,70.7,81.1
			c0,1.6,0.1,20.3,0.2,21.9h-3.3V56.1h6.5c0,0,0.7-1.8,1.2-2.6c0.6-1.1,1.5-2.4,1.5-2.4H60.3v-5.4h19.1c0,0,1.2-1.6,1.9-2.4
			c0.8-0.8,2.4-2.3,2.4-2.3H58c-1.3,0-2.3,1-2.3,2.3v10c0,1.3,1,2.3,2.3,2.3h4.9v47.3h-1.5c-1.3,0-2.3,1-2.3,2.3v10
			c0,1.3,1,2.3,2.3,2.3h4.1c0.7,13.2,7.6,24.7,17.9,31.8c0,0,2.1,1.5,4.4,2.7v15.3H78v13.2h58.1v-13.2h-9.8v-15.3
			c1.4-0.7,3.7-1.9,4.4-2.7c10.2-7.1,17.1-18.7,17.9-31.8h4.1c1.3,0,2.3-1,2.3-2.3v-10c0-1.3-1-2.3-2.3-2.3h-1.5V55.7h5
			c1.3,0,2.3-1,2.3-2.3v-10c0-1.3-1-2.3-2.3-2.3H131c0,0,1.9,1.7,2.5,2.6c0.7,1,1.6,2.1,1.6,2.1l18.8,0V51H138c0,0,1.1,1.8,1.5,2.5
			C139.8,54.1,140.5,55.7,140.5,55.7z M131.3,175.9H82.9v-3.6h48.4V175.9z M92.7,154.3c4.5,1.7,9.3,2.6,14.4,2.6
			c5.1,0,9.9-0.9,14.4-2.6v13H92.7V154.3z M107.1,152.2c-19.6,0-35.6-15.3-36.8-34.6h73.6C142.7,136.9,126.6,152.2,107.1,152.2z
			 M150.4,113L150.4,113h-4.1H67.8h-4.1v-5.4h1.5c0,0,0,0,0,0h23.1h2H95h22.8h4.7h0.9h25.5c0,0,0,0,0,0h1.5V113z M75.4,81.1
			c0-23.7,14.2-43,31.7-43s31.7,19.3,31.7,43c0,1.6-0.1,20.3-0.2,21.9h-15.2h-0.9h-2.3h-2.3H95h-2.3h-2.3h-2H75.6
			C75.4,101.3,75.4,82.7,75.4,81.1z"/>
	</g>
	<g>
		<path class="st0" d="M87.5,57.4c-0.2,0-0.5,0-0.7-0.2c-0.9-0.4-1.4-1.5-1-2.4c1.1-2.5,4.1-5.4,4.5-5.7c0.8-0.7,1.9-0.7,2.6,0.1
			c0.7,0.8,0.7,1.9-0.1,2.6c-1.1,1-3,3.1-3.6,4.5C88.9,57,88.2,57.4,87.5,57.4z"/>
	</g>
	<g>
		<path class="st0" d="M127.6,57.4c-0.7,0-1.4-0.4-1.7-1.1c-0.6-1.3-2.5-3.4-3.6-4.5c-0.8-0.7-0.8-1.9-0.1-2.6
			c0.7-0.8,1.9-0.8,2.6-0.1c0.3,0.3,3.4,3.2,4.5,5.7c0.4,0.9,0,2-1,2.4C128.1,57.3,127.9,57.4,127.6,57.4z"/>
	</g>
</g>
</svg>
