<?xml version="1.0" encoding="utf-8"?>
<!-- Generator: Adobe Illustrator 19.1.0, SVG Export Plug-In . SVG Version: 6.00 Build 0)  -->
<svg version="1.1" id="Layer_1" xmlns="http://www.w3.org/2000/svg" xmlns:xlink="http://www.w3.org/1999/xlink" x="0px" y="0px"
	 viewBox="0 0 60 60" style="enable-background:new 0 0 60 60;" xml:space="preserve">
<style type="text/css">
	.st0{fill:#FFFFFF;}
</style>
<g>
	<g>
		<path class="st0" d="M44.8,45.1c1.3,0,2.4-1.1,2.4-2.4l0-15.1h1.9c0.9,0,1.6-0.3,1.8-0.9c0.2-0.7,0.1-1.2-0.7-1.7
			c-0.8-0.5-19.4-12.8-19.4-12.8c-0.3-0.3-0.8-0.3-1.1,0c0,0-18.8,12.4-19.6,12.9c-0.8,0.5-0.9,1.1-0.7,1.7c0.2,0.6,0.8,0.9,1.8,0.9
			h1.9l0,15c0,1.3,1.1,2.4,2.4,2.4H44.8z M15.6,43.9c-0.7,0-1.2-0.5-1.2-1.2l0-16.2l-3.1,0c-0.4,0-0.5-0.5-0.2-0.7l19.2-12.8
			c0.1,0,0.1,0,0.1,0l19,12.6c0.3,0.2,0.2,0.7-0.2,0.7l-3.1,0l0,16.2c0,0.7-0.5,1.2-1.2,1.2H15.6z"/>
		<path class="st0" d="M42.6,41L42.6,41L18,41c-0.3,0-0.6-0.2-0.6-0.6V25.6c0-0.2,0.1-0.4,0.2-0.5L30,17.1c0.2-0.1,0.4-0.1,0.6,0
			l12.4,7.8c0.2,0.1,0.3,0.3,0.3,0.5v15.2c0,0.1-0.1,0.3-0.2,0.4C42.9,41,42.8,41,42.6,41z M18.6,39.9l23.5,0V25.6l-11.8-7.4
			l-11.7,7.7V39.9z"/>
	</g>
	<g>
		<path class="st0" d="M25.2,28.2c0.9-0.5,1.9-0.8,3-0.8l0.1,0c1.6,0,3,0.6,4.1,1.8l-1.1,1.1l0,0C31,30.4,31,30.6,31,30.7
			c0,0.1,0.1,0.2,0.3,0.2l6,0.5l-0.4-6l0,0c0-0.2-0.1-0.3-0.3-0.3c-0.1,0-0.3,0-0.4,0.2L35,26.5c-1.2-1.1-2.8-1.7-4.4-1.7l-0.1,0
			c0,0,0,0,0,0c-2.3,0-4.4,1.1-5.6,3c-0.1,0.2-0.1,0.3,0,0.4C25,28.3,25.1,28.3,25.2,28.2z M32.4,30.2l1.1-1L33,28.7
			c-1.3-1.4-3-2.1-4.8-2.1l-0.1,0c-0.3,0-0.6,0-0.9,0.1c1-0.6,2.1-1,3.3-1l0.1,0c1.5,0,2.9,0.6,4,1.6l0.5,0.4l1.2-1.1l0.3,4
			L32.4,30.2z"/>
		<path class="st0" d="M35.5,33.7c-0.9,0.5-1.9,0.8-3,0.8l-0.1,0c-1.6,0-3-0.6-4.1-1.8l1.1-1.1l0,0c0.1-0.1,0.2-0.3,0.1-0.4
			c0-0.1-0.1-0.2-0.3-0.2l-6-0.5l0.4,6l0,0c0,0.2,0.1,0.3,0.3,0.3c0.1,0,0.3,0,0.4-0.2l1.2-1.2c1.2,1.1,2.8,1.7,4.4,1.7l0.1,0
			c0,0,0,0,0,0c2.3,0,4.4-1.1,5.6-3c0.1-0.2,0.1-0.3,0-0.4C35.7,33.6,35.6,33.6,35.5,33.7z M28.2,31.7l-1.1,1l0.4,0.5
			c1.3,1.4,3,2.1,4.8,2.1l0.1,0c0.3,0,0.6,0,0.9-0.1c-1,0.6-2.1,1-3.3,1l-0.1,0c-1.5,0-2.9-0.6-4-1.6l-0.5-0.4l-1.2,1.1l-0.3-4
			L28.2,31.7z"/>
	</g>
</g>
</svg>
