<?xml version="1.0" encoding="utf-8"?>
<!-- Generator: Adobe Illustrator 19.1.0, SVG Export Plug-In . SVG Version: 6.00 Build 0)  -->
<svg version="1.1" id="Layer_1" xmlns="http://www.w3.org/2000/svg" xmlns:xlink="http://www.w3.org/1999/xlink" x="0px" y="0px"
	 viewBox="0 0 60 60" style="enable-background:new 0 0 60 60;" xml:space="preserve">
<style type="text/css">
	.st0{fill:#FFFFFF;}
</style>
<g>
	<path class="st0" d="M11.5,22.7v17.2c0,0.3,0.3,0.6,0.6,0.6c0.3,0,0.6-0.3,0.6-0.6V22.7c0-0.3-0.3-0.6-0.6-0.6
		C11.7,22.1,11.5,22.3,11.5,22.7z"/>
	<path class="st0" d="M16,22.7v17.2c0,0.3,0.3,0.6,0.6,0.6s0.6-0.3,0.6-0.6V22.7c0-0.3-0.3-0.6-0.6-0.6S16,22.3,16,22.7z"/>
	<path class="st0" d="M20.6,22.7v17.2c0,0.3,0.3,0.6,0.6,0.6c0.3,0,0.6-0.3,0.6-0.6V22.7c0-0.3-0.3-0.6-0.6-0.6
		C20.8,22.1,20.6,22.3,20.6,22.7z"/>
	<path class="st0" d="M25.1,22.7v17.2c0,0.3,0.3,0.6,0.6,0.6c0.3,0,0.6-0.3,0.6-0.6V22.7c0-0.3-0.3-0.6-0.6-0.6
		C25.4,22.1,25.1,22.3,25.1,22.7z"/>
	<path class="st0" d="M29.7,22.7v17.2c0,0.3,0.3,0.6,0.6,0.6s0.6-0.3,0.6-0.6V22.7c0-0.3-0.3-0.6-0.6-0.6S29.7,22.3,29.7,22.7z"/>
	<path class="st0" d="M35.5,24.7v-2c0-0.3-0.3-0.6-0.6-0.6c-0.3,0-0.6,0.3-0.6,0.6v2c0,0.3,0.3,0.6,0.6,0.6
		C35.2,25.3,35.5,25,35.5,24.7z"/>
	<path class="st0" d="M40,25.4v-2.7c0-0.3-0.3-0.6-0.6-0.6s-0.6,0.3-0.6,0.6v2.7c0,0.3,0.3,0.6,0.6,0.6S40,25.8,40,25.4z"/>
	<path class="st0" d="M35.5,39.8v-2.1c0-0.3-0.3-0.6-0.6-0.6c-0.3,0-0.6,0.3-0.6,0.6v2.1c0,0.3,0.3,0.6,0.6,0.6
		C35.2,40.5,35.5,40.2,35.5,39.8z"/>
	<path class="st0" d="M40,39.8v-1.6c0-0.3-0.3-0.6-0.6-0.6s-0.6,0.3-0.6,0.6v1.6c0,0.3,0.3,0.6,0.6,0.6S40,40.2,40,39.8z"/>
	<path class="st0" d="M33.3,26.2c-0.1-0.1-0.2-0.1-0.3-0.1c-0.1,0-0.1,0-0.2,0c-0.2,0-0.3,0.2-0.4,0.3c-0.1,0.2-0.1,0.3-0.1,0.5
		c0,0.2,0.2,0.3,0.3,0.4c1.9,1.1,3.7,1.6,5.4,1.6c2.1,0,3.8-0.8,5.4-1.6c2.6-1.3,5.1-2.5,9.6,0c0.3,0.2,0.7,0.1,0.9-0.3
		c0.1-0.2,0.1-0.3,0.1-0.5c0-0.2-0.2-0.3-0.3-0.4c-5-2.8-8.1-1.3-10.8,0C40.2,27.4,37.8,28.6,33.3,26.2z"/>
	<path class="st0" d="M53.6,30c-5-2.8-8.1-1.3-10.8,0c-2.6,1.3-5.1,2.5-9.6,0c-0.1-0.1-0.2-0.1-0.3-0.1c-0.1,0-0.1,0-0.2,0
		c-0.2,0-0.3,0.2-0.4,0.3c-0.1,0.2-0.1,0.3-0.1,0.5c0,0.2,0.2,0.3,0.3,0.4c1.9,1.1,3.7,1.6,5.4,1.6c2.1,0,3.8-0.8,5.4-1.6
		c2.6-1.3,5.1-2.5,9.6,0c0.3,0.2,0.7,0.1,0.9-0.3c0.1-0.2,0.1-0.3,0.1-0.5C53.9,30.2,53.8,30.1,53.6,30z"/>
	<path class="st0" d="M53.6,34c-5-2.8-8.1-1.3-10.8,0c-2.6,1.3-5.1,2.5-9.6,0c-0.1-0.1-0.2-0.1-0.3-0.1c-0.1,0-0.1,0-0.2,0
		c-0.2,0-0.3,0.2-0.4,0.3c-0.1,0.2-0.1,0.3-0.1,0.5c0,0.2,0.2,0.3,0.3,0.4c1.9,1.1,3.7,1.6,5.4,1.6c2.1,0,3.8-0.8,5.4-1.6
		c0,0,0.1,0,0.1-0.1c0,0,0.1,0,0.1,0c0,0,0.1,0,0.1,0v0.1v0.1V42c0,0.5-0.4,1-1,1H9c-0.6,0-1-0.5-1-1V20.7c0-0.5,0.4-1,1-1h33.7
		c0.6,0,1,0.5,1,1v3.6l1.2-0.6v-3c0-1.7-1.1-2.3-2.2-2.3H9c-1.1,0-2.2,0.6-2.2,2.3V42c0,1.7,1.1,2.3,2.2,2.3h33.7
		c1.1,0,2.2-0.6,2.2-2.3v-7.3v-0.1v-0.1c0,0,0.1,0,0.1,0c0,0,0.1,0,0.1,0c2.1-0.9,4.4-1.2,7.9,0.7c0.3,0.2,0.7,0.1,0.9-0.3
		c0.1-0.2,0.1-0.3,0.1-0.5C53.9,34.2,53.8,34.1,53.6,34z"/>
</g>
</svg>
