<?xml version="1.0" encoding="utf-8"?>
<!-- Generator: Adobe Illustrator 21.0.0, SVG Export Plug-In . SVG Version: 6.00 Build 0)  -->
<svg version="1.0" id="Layer_1" xmlns="http://www.w3.org/2000/svg" xmlns:xlink="http://www.w3.org/1999/xlink" x="0px" y="0px"
	 viewBox="0 0 214.2 214.2" style="enable-background:new 0 0 214.2 214.2;" xml:space="preserve">
<style type="text/css">
	.st0{display:none;}
	.st1{fill:#FFFFFF;}
</style>
<g id="WorkableArtwork" class="st0">
</g>
<g id="Icons">
</g>
<g id="Fourth_Tier_-_Optional_Features">
</g>
<g id="Third_Tier_-_Features">
</g>
<g>
	<path class="st1" d="M116,48.7c0-4.9-4-8.9-8.9-8.9s-8.9,4-8.9,8.9s4,8.9,8.9,8.9S116,53.6,116,48.7z M112,48.7
		c0,2.7-2.2,4.9-4.9,4.9s-4.9-2.2-4.9-4.9s2.2-4.9,4.9-4.9S112,46,112,48.7z"/>
	<path class="st1" d="M158.9,122.1l0.1-3c0-0.1,0-0.3-0.1-0.4s-0.2-0.2-0.4-0.2h-18.7L118,60.7l0.1-0.1c3.4-3.1,5.3-7.5,5.3-12
		c0-8.3-6.1-15.2-14.3-16.2v-10c0-0.6-0.5-1-1-1h-2c-0.6,0-1,0.5-1,1v10.1c-8.2,1-14.3,7.9-14.3,16.2c0,4.5,1.9,8.8,5.2,11.9
		l-21.8,58H55.8c-0.1,0-0.3,0.1-0.4,0.2s-0.1,0.2-0.1,0.4l0.1,3c0,0.3,0.2,0.5,0.5,0.5h16.8l-16.4,43.5c-0.1,0.2-0.1,0.4-0.1,0.5
		l-1,12.4c-0.1,0.8,0.4,1.6,1.2,2c0.2,0.1,0.3,0.1,0.5,0.2c0.1,0,0.2,0,0.3,0h0.1h0.1c0.5,0,1.1-0.2,1.4-0.6l8.9-9.1
		c0.2-0.2,0.3-0.4,0.4-0.7l18.1-48.2h18.9v6.1c0,0.5,0.4,0.9,1,0.9h2.2c0.5,0,1-0.4,1-0.9v-6.1h18.8l18.1,48.2
		c0.1,0.3,0.2,0.5,0.4,0.7l8.9,9.1c0.4,0.4,0.9,0.6,1.4,0.6c0.1,0,0.2,0,0.3,0c0.2,0,0.4-0.1,0.5-0.2c0.8-0.3,1.2-1.1,1.2-2l-1-12.4
		c0-0.2-0.1-0.4-0.1-0.5l-16.4-43.5h17.1C158.7,122.6,158.9,122.4,158.9,122.1z M94.8,48.7c0-6.8,5.5-12.3,12.3-12.3
		s12.3,5.5,12.3,12.3S113.9,61,107.1,61S94.8,55.5,94.8,48.7z M108.2,111.6h-2.1c-0.5,0-1,0.4-1,0.9v6.1H87.7l19.4-51.8l19.4,51.8
		h-17.3v-6.1C109.2,112,108.7,111.6,108.2,111.6z M60.3,167.3l16.9-44.7h4.5L64.3,169l-4.5,4.6L60.3,167.3z M103.5,64.6L85.7,112
		l-1.1,2.9l-1.4,3.7h-4.5l20.9-55.4C100.9,63.8,102.2,64.3,103.5,64.6z M110.4,64.6c1.4-0.3,2.7-0.8,4-1.4l20.9,55.4h-4.7l-1.4-3.7
		L110.4,64.6z M136.9,122.6l16.9,44.7l0.5,6.6l-4.7-4.8l-17.4-46.4h4.7V122.6z"/>
</g>
<g id="First_Tier_-_PrimaryPillars">
</g>
</svg>
