<?xml version="1.0" encoding="utf-8"?>
<!-- Generator: Adobe Illustrator 19.1.0, SVG Export Plug-In . SVG Version: 6.00 Build 0)  -->
<svg version="1.1" id="Layer_1" xmlns="http://www.w3.org/2000/svg" xmlns:xlink="http://www.w3.org/1999/xlink" x="0px" y="0px"
	 viewBox="0 0 60 60" style="enable-background:new 0 0 60 60;" xml:space="preserve">
<style type="text/css">
	.st0{fill:#FFFFFF;}
</style>
<g>
	<g>
		<polygon class="st0" points="46,26.5 46,26.5 46,26.5 		"/>
		<path class="st0" d="M45.4,18.1l-2.4,0l0-2.2c0-0.4-0.2-0.8-0.4-1c-0.3-0.3-0.6-0.4-1-0.4l-24.7-0.1c-0.4,0-0.8,0.2-1,0.4
			c-0.3,0.3-0.4,0.6-0.4,1l0,6.6c0,0.4,0.2,0.8,0.4,1c0.3,0.3,0.6,0.4,1,0.4L41.6,24c0.4,0,0.8-0.2,1-0.4c0.3-0.3,0.4-0.6,0.4-1
			l0-3.1l2.4,0c0.1,0,0.2,0.1,0.2,0.2l0,5.4c0,0,0,0,0,0.1l0,0.1l-0.1,0.1l0,0l-16.6,6.2c-0.3,0.1-0.4,0.3-0.4,0.6l0,5.2l-1.6,0
			c-0.4,0-0.8,0.2-1.1,0.5c-0.3,0.3-0.5,0.7-0.5,1.1l0,10.2c0,0.9,0.7,1.6,1.6,1.6l4.5,0c0.4,0,0.8-0.2,1.1-0.5
			c0.3-0.3,0.5-0.7,0.5-1.1l0-10.2c0-0.9-0.7-1.6-1.6-1.6l-1.6,0l0-4.7l16.2-6.1c0.6-0.3,0.9-0.8,0.9-1.5l0-5.4
			C46.9,18.8,46.2,18.1,45.4,18.1z M16.7,22.6l0-6.9l25,0.1l0,6.9L16.7,22.6z M31.4,38.7c0.1,0,0.2,0.1,0.2,0.2l0.1,10.2
			c0,0,0,0.1-0.1,0.2c0,0-0.1,0.1-0.2,0.1l-1.3,0v-8.9c0-0.1,0-0.5-0.3-0.5c-0.6,0-0.4,0.4-0.4,0.4v9l-2.3,0c-0.1,0-0.2-0.1-0.2-0.2
			l0-10.2c0-0.1,0-0.1,0.1-0.2c0,0,0.1-0.1,0.2-0.1L31.4,38.7z M46,26.5L46,26.5L46,26.5L46,26.5z"/>
	</g>
</g>
</svg>
