<?xml version="1.0" encoding="utf-8"?>
<!-- Generator: Adobe Illustrator 19.1.0, SVG Export Plug-In . SVG Version: 6.00 Build 0)  -->
<svg version="1.1" id="Layer_1" xmlns="http://www.w3.org/2000/svg" xmlns:xlink="http://www.w3.org/1999/xlink" x="0px" y="0px"
	 viewBox="0 0 60 60" style="enable-background:new 0 0 60 60;" xml:space="preserve">
<style type="text/css">
	.st0{fill:#FFFFFF;}
</style>
<g>
	<g>
		<circle class="st0" cx="25.8" cy="18.6" r="0.9"/>
		<circle class="st0" cx="24.2" cy="26.5" r="0.9"/>
		<circle class="st0" cx="33.5" cy="34.4" r="0.9"/>
		<circle class="st0" cx="38.4" cy="37.2" r="0.9"/>
		<circle class="st0" cx="35" cy="42.2" r="0.9"/>
		<circle class="st0" cx="23.2" cy="44.4" r="0.9"/>
		<circle class="st0" cx="27" cy="40.4" r="0.9"/>
		<circle class="st0" cx="21.4" cy="36.8" r="0.9"/>
		<circle class="st0" cx="26" cy="33.5" r="0.9"/>
		<circle class="st0" cx="21.1" cy="15.8" r="0.9"/>
		<circle class="st0" cx="21.4" cy="22.5" r="0.9"/>
		<path class="st0" d="M42,46.4c0-0.1,0-0.2,0-0.2V13.8c0-0.7-0.6-1.2-1.2-1.2H18.9c-0.7,0-1.2,0.6-1.2,1.2v32.3c0,0.1,0,0.2,0,0.2
			h-2.3v1.2h29v-1.2H42z M18.9,30.7h10.3v15.4H18.9V30.7z M30.5,30.7h10.3v15.4H30.5V30.7z M40.8,29.5H30.5v-2.6c0,0,0.1,0,0.1,0
			c6,0,8.9,0,10.2,0V29.5z M40.8,16.4L40.8,16.4c-0.6-0.4-1.3-0.6-2.1-0.6c-1.9,0-3.5,1.3-3.9,3.1c-0.4-0.3-0.8-0.4-1.3-0.4
			c-1.2,0-2.2,1-2.2,2.2c0,0.2,0,0.3,0.1,0.5c-0.3,0-0.6-0.1-0.8-0.1c0,0-0.1,0-0.1,0v-7.3h10.3V16.4z M29.3,13.8v7.6
			c-0.9,0.5-1.5,1.4-1.5,2.5c0,1.1,0.6,2.1,1.5,2.5v2.9H18.9V13.8H29.3z"/>
	</g>
</g>
</svg>
