<?xml version="1.0" encoding="utf-8"?>
<!-- Generator: Adobe Illustrator 21.0.0, SVG Export Plug-In . SVG Version: 6.00 Build 0)  -->
<svg version="1.0" id="Layer_1" xmlns="http://www.w3.org/2000/svg" xmlns:xlink="http://www.w3.org/1999/xlink" x="0px" y="0px"
	 viewBox="0 0 126.5 128" style="enable-background:new 0 0 126.5 128;" xml:space="preserve">
<style type="text/css">
	.st0{fill:#FFFFFF;}
</style>
<g>
	<path class="st0" d="M92.5,98.5H34.1c-3.8,0-6.8-3.1-6.8-6.8l0-35.7h-1.8c-2.7,0-4.8-1.2-5.5-3.3c-0.8-2.4,0-4.5,2.2-5.9
		c1.2-0.8,26.1-17.6,39-26.3c1.2-1,3.3-1,4.6,0.1c12.6,8.6,37.2,25.2,38.4,26c2.3,1.4,3.1,3.5,2.2,5.9c-0.7,2-2.8,3.3-5.5,3.3h-1.8
		l0,35.9C99.3,95.5,96.2,98.5,92.5,98.5z M63.5,24C59.8,26.5,26,49.4,24.4,50.3c-0.7,0.4-0.7,0.6-0.5,1c0.1,0.2,0.6,0.4,1.6,0.4h6
		l0,39.9c0,1.5,1.2,2.6,2.6,2.6h58.4c1.5,0,2.6-1.2,2.6-2.6l-0.1-40.1h6c1,0,1.5-0.3,1.6-0.5c0.2-0.5,0.2-0.6-0.5-1
		C100.5,49.1,65.9,25.7,63.5,24z M63.4,23.9C63.4,24,63.4,24,63.4,23.9C63.4,24,63.4,24,63.4,23.9z M63.7,23.8c0,0-0.1,0-0.1,0.1
		C63.7,23.9,63.7,23.9,63.7,23.8z"/>
	<path class="st0" d="M63.2,77.2c-4.2,0-8.1-1.6-11.1-4.6c-3-3-4.6-6.9-4.6-11.1c0-4.2,1.6-8.1,4.6-11.1c0.6-0.6,1.7-0.6,2.3,0
		c0.6,0.6,0.6,1.7,0,2.3c-2.3,2.3-3.6,5.4-3.6,8.8c0,3.3,1.3,6.4,3.6,8.8c2.3,2.3,5.4,3.6,8.8,3.6c3.3,0,6.4-1.3,8.8-3.6
		c2.3-2.3,3.6-5.4,3.6-8.8c0-3.3-1.3-6.4-3.6-8.8c-0.6-0.6-0.6-1.7,0-2.3c0.6-0.6,1.7-0.6,2.3,0c3,3,4.6,6.9,4.6,11.1
		c0,4.2-1.6,8.1-4.6,11.1C71.4,75.6,67.4,77.2,63.2,77.2z M63.2,65.3c-0.9,0-1.6-0.7-1.6-1.6V42.7c0-0.9,0.7-1.6,1.6-1.6
		s1.6,0.7,1.6,1.6v20.9C64.9,64.5,64.2,65.3,63.2,65.3z"/>
</g>
</svg>
