<?xml version="1.0" encoding="utf-8"?>
<!-- Generator: Adobe Illustrator 19.1.0, SVG Export Plug-In . SVG Version: 6.00 Build 0)  -->
<svg version="1.1" id="Layer_1" xmlns="http://www.w3.org/2000/svg" xmlns:xlink="http://www.w3.org/1999/xlink" x="0px" y="0px"
	 viewBox="0 0 60 60" style="enable-background:new 0 0 60 60;" xml:space="preserve">
<style type="text/css">
	.st0{fill:#FFFFFF;}
</style>
<g>
	<g>
		<path class="st0" d="M42,46.5c0-0.1,0-0.2,0-0.2V13.9c0-0.7-0.6-1.2-1.2-1.2H18.9c-0.7,0-1.2,0.6-1.2,1.2v32.3c0,0.1,0,0.2,0,0.2
			h-2.3v1.2h29v-1.2H42z M18.9,30.8h10.3v15.4H18.9V30.8z M30.5,30.8h10.3v15.4H30.5V30.8z M32.6,19.5c-0.1-0.2-0.4-0.3-0.7-0.2
			l-1.4,0.8v-4.1h0.5c0.3,0,0.5-0.2,0.5-0.5s-0.2-0.5-0.5-0.5h-0.5v-1.2h2.3c-0.1,0.4-0.1,0.9-0.1,1.3c0,3.7,3,6.7,6.7,6.7
			c0.5,0,0.9-0.1,1.4-0.1v7.7H30.5v-8.3l1.9-1.1C32.6,20,32.7,19.7,32.6,19.5z M40.8,20.7c-0.4,0.1-0.9,0.2-1.4,0.2
			c-3.1,0-5.6-2.5-5.6-5.6c0-0.5,0.1-0.9,0.2-1.3h6.8V20.7z M29.3,13.9v1.2h-2.2c-0.3,0-0.5,0.2-0.5,0.5s0.2,0.5,0.5,0.5h2.2v4.8
			l-0.9,0.5c-0.2,0.1-0.3,0.4-0.2,0.7c0.1,0.2,0.3,0.2,0.4,0.2c0.1,0,0.2,0,0.3-0.1l0.4-0.2v7.5H18.9V13.9H29.3z"/>
		<path class="st0" d="M32.9,26.6c0.1,0,0.2,0.1,0.2,0.1c0.2,0,0.3-0.1,0.4-0.2l2.1-3.5c0.1-0.2,0.1-0.5-0.2-0.7
			c-0.2-0.1-0.5-0.1-0.7,0.2l-2.1,3.5C32.6,26.1,32.6,26.4,32.9,26.6z"/>
		<path class="st0" d="M39.3,28.2C39.3,28.2,39.3,28.2,39.3,28.2c0.3,0,0.5-0.2,0.5-0.5l0-4c0-0.3-0.2-0.5-0.5-0.5
			c-0.3,0-0.5,0.2-0.5,0.5l0,4C38.8,28,39,28.2,39.3,28.2z"/>
	</g>
</g>
</svg>
