<?xml version="1.0" encoding="utf-8"?>
<!-- Generator: Adobe Illustrator 19.1.0, SVG Export Plug-In . SVG Version: 6.00 Build 0)  -->
<svg version="1.1" id="Layer_1" xmlns="http://www.w3.org/2000/svg" xmlns:xlink="http://www.w3.org/1999/xlink" x="0px" y="0px"
	 viewBox="0 0 60 60" style="enable-background:new 0 0 60 60;" xml:space="preserve">
<style type="text/css">
	.st0{fill:#FFFFFF;}
</style>
<g>
	<g>
		<path class="st0" d="M36.5,26.2c0.8,0,1.4-0.6,1.4-1.4c0-0.8-0.6-1.4-1.4-1.4c-0.8,0-1.4,0.6-1.4,1.4C35,25.5,35.7,26.2,36.5,26.2
			z M36.5,24c0.4,0,0.7,0.3,0.7,0.7c0,0.4-0.3,0.7-0.7,0.7c-0.4,0-0.7-0.3-0.7-0.7C35.8,24.4,36.1,24,36.5,24z"/>
		<path class="st0" d="M33,29c0,0.8,0.6,1.4,1.4,1.4c0.8,0,1.4-0.6,1.4-1.4c0-0.8-0.6-1.4-1.4-1.4C33.6,27.6,33,28.3,33,29z
			 M34.4,28.3c0.4,0,0.7,0.3,0.7,0.7c0,0.4-0.3,0.7-0.7,0.7c-0.4,0-0.7-0.3-0.7-0.7C33.7,28.7,34,28.3,34.4,28.3z"/>
		<path class="st0" d="M29.7,33.4c0-0.8-0.6-1.4-1.4-1.4c-0.8,0-1.4,0.6-1.4,1.4c0,0.8,0.6,1.4,1.4,1.4
			C29.1,34.8,29.7,34.1,29.7,33.4z M28.3,34.1c-0.4,0-0.7-0.3-0.7-0.7c0-0.4,0.3-0.7,0.7-0.7c0.4,0,0.7,0.3,0.7,0.7
			C29,33.7,28.7,34.1,28.3,34.1z"/>
		<path class="st0" d="M25.6,24.7c0-0.8-0.6-1.4-1.4-1.4c-0.8,0-1.4,0.6-1.4,1.4c0,0.8,0.6,1.4,1.4,1.4C25,26.2,25.6,25.5,25.6,24.7
			z M24.2,25.4c-0.4,0-0.7-0.3-0.7-0.7c0-0.4,0.3-0.7,0.7-0.7c0.4,0,0.7,0.3,0.7,0.7C24.9,25.1,24.6,25.4,24.2,25.4z"/>
		<path class="st0" d="M27.7,29c0-0.8-0.6-1.4-1.4-1.4c-0.8,0-1.4,0.6-1.4,1.4c0,0.8,0.6,1.4,1.4,1.4C27,30.5,27.7,29.8,27.7,29z
			 M26.2,29.7c-0.4,0-0.7-0.3-0.7-0.7c0-0.4,0.3-0.7,0.7-0.7c0.4,0,0.7,0.3,0.7,0.7C27,29.4,26.6,29.7,26.2,29.7z"/>
		<path class="st0" d="M28.3,26.2c0.8,0,1.4-0.6,1.4-1.4c0-0.8-0.6-1.4-1.4-1.4c-0.8,0-1.4,0.6-1.4,1.4
			C26.8,25.5,27.5,26.2,28.3,26.2z M28.3,24c0.4,0,0.7,0.3,0.7,0.7c0,0.4-0.3,0.7-0.7,0.7c-0.4,0-0.7-0.3-0.7-0.7
			C27.6,24.4,27.9,24,28.3,24z"/>
		<path class="st0" d="M32.4,26.2c0.8,0,1.4-0.6,1.4-1.4c0-0.8-0.6-1.4-1.4-1.4c-0.8,0-1.4,0.6-1.4,1.4
			C30.9,25.5,31.6,26.2,32.4,26.2z M32.4,24c0.4,0,0.7,0.3,0.7,0.7c0,0.4-0.3,0.7-0.7,0.7c-0.4,0-0.7-0.3-0.7-0.7
			C31.7,24.4,32,24,32.4,24z"/>
		<path class="st0" d="M30.3,36.2c-0.8,0-1.4,0.6-1.4,1.4c0,0.8,0.6,1.4,1.4,1.4c0.8,0,1.4-0.6,1.4-1.4
			C31.8,36.9,31.1,36.2,30.3,36.2z M30.3,38.4c-0.4,0-0.7-0.3-0.7-0.7c0-0.4,0.3-0.7,0.7-0.7c0.4,0,0.7,0.3,0.7,0.7
			C31.1,38.1,30.7,38.4,30.3,38.4z"/>
		<path class="st0" d="M32.4,31.9c-0.8,0-1.4,0.6-1.4,1.4c0,0.8,0.6,1.4,1.4,1.4c0.8,0,1.4-0.6,1.4-1.4
			C33.8,32.6,33.2,31.9,32.4,31.9z M32.4,34.1c-0.4,0-0.7-0.3-0.7-0.7c0-0.4,0.3-0.7,0.7-0.7c0.4,0,0.7,0.3,0.7,0.7
			C33.1,33.7,32.8,34.1,32.4,34.1z"/>
		<path class="st0" d="M28.9,29c0,0.8,0.6,1.4,1.4,1.4c0.8,0,1.4-0.6,1.4-1.4c0-0.8-0.6-1.4-1.4-1.4C29.5,27.6,28.9,28.3,28.9,29z
			 M30.3,28.3c0.4,0,0.7,0.3,0.7,0.7c0,0.4-0.3,0.7-0.7,0.7c-0.4,0-0.7-0.3-0.7-0.7C29.6,28.7,29.9,28.3,30.3,28.3z"/>
		<path class="st0" d="M51.2,22L51.2,22L30.4,8.7c-0.3-0.2-0.7-0.2-1,0L9.5,21l-0.1,0l0,0c-0.2,0.2-0.3,0.6-0.2,0.9
			c0.1,0.3,0.4,0.5,0.7,0.5h4.1v23.4c0,0.5,0.4,1,1,1h30.5c0.5,0,1-0.4,1-1V23.4h4c0.3,0,0.6-0.2,0.7-0.5
			C51.5,22.6,51.4,22.3,51.2,22z M15.3,45.7V21.5l14.6-9.1l15.7,10v23.3H15.3z M47.3,22.3L29.8,11.1L13.4,21.3h-2.3L29.8,9.7
			l19.7,12.6H47.3z"/>
		<path class="st0" d="M43.1,22.8l-13-8.3c-0.2-0.1-0.4-0.1-0.6,0l-11.9,7.4c-0.2,0.1-0.3,0.3-0.3,0.5v21.2c0,0.3,0.2,0.6,0.6,0.6
			h24.9c0.3,0,0.6-0.2,0.6-0.6V23.3C43.4,23.1,43.3,22.9,43.1,22.8z M42.3,43H18.5V22.7l11.3-7.1l12.5,8V43z"/>
	</g>
</g>
</svg>
