<?xml version="1.0" encoding="utf-8"?>
<!-- Generator: Adobe Illustrator 19.1.0, SVG Export Plug-In . SVG Version: 6.00 Build 0)  -->
<svg version="1.1" id="Layer_1" xmlns="http://www.w3.org/2000/svg" xmlns:xlink="http://www.w3.org/1999/xlink" x="0px" y="0px"
	 viewBox="0 0 60 60" style="enable-background:new 0 0 60 60;" xml:space="preserve">
<style type="text/css">
	.st0{fill:#FFFFFF;}
</style>
<g>
	<g>
		<g>
			<g>
				<g>
					<path class="st0" d="M33.2,48.5h-5.7c-0.9,0-1.6-0.7-1.6-1.6v-4c0-0.9,0.7-1.6,1.6-1.6h5.7c0.9,0,1.6,0.7,1.6,1.6v4
						C34.8,47.8,34.1,48.5,33.2,48.5z M27.5,42.6c-0.2,0-0.3,0.1-0.3,0.3v4c0,0.2,0.1,0.3,0.3,0.3h5.7c0.2,0,0.3-0.1,0.3-0.3v-4
						c0-0.2-0.1-0.3-0.3-0.3H27.5z M30.3,39.8c-1.4,0-2.5-1.1-2.5-2.5c0-1.4,1.1-2.5,2.5-2.5c1.4,0,2.5,1.1,2.5,2.5
						C32.8,38.7,31.7,39.8,30.3,39.8z M30.3,36.2c-0.7,0-1.2,0.5-1.2,1.2c0,0.6,0.5,1.2,1.2,1.2c0.7,0,1.2-0.5,1.2-1.2
						C31.5,36.7,31,36.2,30.3,36.2z M33.8,32.5c-1.4,0-2.5-1.1-2.5-2.5c0-1.4,1.1-2.5,2.5-2.5c1.4,0,2.5,1.1,2.5,2.5
						C36.3,31.4,35.2,32.5,33.8,32.5z M33.8,28.9c-0.7,0-1.2,0.5-1.2,1.2c0,0.6,0.5,1.2,1.2,1.2c0.7,0,1.2-0.5,1.2-1.2
						C35,29.4,34.5,28.9,33.8,28.9z M26.9,32.5c-1.4,0-2.5-1.1-2.5-2.5c0-1.4,1.1-2.5,2.5-2.5c1.4,0,2.5,1.1,2.5,2.5
						C29.3,31.4,28.2,32.5,26.9,32.5z M26.9,28.9c-0.7,0-1.2,0.5-1.2,1.2c0,0.6,0.5,1.2,1.2,1.2c0.7,0,1.2-0.5,1.2-1.2
						C28,29.4,27.5,28.9,26.9,28.9z M37.3,25.2c-1.4,0-2.5-1.1-2.5-2.5c0-1.4,1.1-2.5,2.5-2.5c1.4,0,2.5,1.1,2.5,2.5
						C39.8,24.1,38.7,25.2,37.3,25.2z M37.3,21.6c-0.7,0-1.2,0.5-1.2,1.2c0,0.6,0.5,1.2,1.2,1.2c0.7,0,1.2-0.5,1.2-1.2
						C38.5,22.1,37.9,21.6,37.3,21.6z M30.3,25.2c-1.4,0-2.5-1.1-2.5-2.5c0-1.4,1.1-2.5,2.5-2.5c1.4,0,2.5,1.1,2.5,2.5
						C32.8,24.1,31.7,25.2,30.3,25.2z M30.3,21.6c-0.7,0-1.2,0.5-1.2,1.2c0,0.6,0.5,1.2,1.2,1.2c0.7,0,1.2-0.5,1.2-1.2
						C31.5,22.1,31,21.6,30.3,21.6z M23.4,25.2c-1.4,0-2.5-1.1-2.5-2.5c0-1.4,1.1-2.5,2.5-2.5c1.4,0,2.5,1.1,2.5,2.5
						C25.9,24.1,24.7,25.2,23.4,25.2z M23.4,21.6c-0.7,0-1.2,0.5-1.2,1.2c0,0.6,0.5,1.2,1.2,1.2c0.7,0,1.2-0.5,1.2-1.2
						C24.6,22.1,24,21.6,23.4,21.6z M40.8,17.9c-1.4,0-2.5-1.1-2.5-2.5c0-1.4,1.1-2.5,2.5-2.5c1.4,0,2.5,1.1,2.5,2.5
						C43.3,16.8,42.1,17.9,40.8,17.9z M40.8,14.3c-0.7,0-1.2,0.5-1.2,1.2c0,0.6,0.5,1.2,1.2,1.2c0.7,0,1.2-0.5,1.2-1.2
						C42,14.8,41.4,14.3,40.8,14.3z M33.8,17.9c-1.4,0-2.5-1.1-2.5-2.5c0-1.4,1.1-2.5,2.5-2.5c1.4,0,2.5,1.1,2.5,2.5
						C36.3,16.8,35.2,17.9,33.8,17.9z M33.8,14.3c-0.7,0-1.2,0.5-1.2,1.2c0,0.6,0.5,1.2,1.2,1.2c0.7,0,1.2-0.5,1.2-1.2
						C35,14.8,34.5,14.3,33.8,14.3z M26.8,17.9c-1.4,0-2.5-1.1-2.5-2.5c0-1.4,1.1-2.5,2.5-2.5c1.4,0,2.5,1.1,2.5,2.5
						C29.3,16.8,28.2,17.9,26.8,17.9z M26.8,14.3c-0.7,0-1.2,0.5-1.2,1.2c0,0.6,0.5,1.2,1.2,1.2c0.7,0,1.2-0.5,1.2-1.2
						C28,14.8,27.5,14.3,26.8,14.3z M19.9,17.9c-1.4,0-2.5-1.1-2.5-2.5c0-1.4,1.1-2.5,2.5-2.5c1.4,0,2.5,1.1,2.5,2.5
						C22.4,16.8,21.3,17.9,19.9,17.9z M19.9,14.3c-0.7,0-1.2,0.5-1.2,1.2c0,0.6,0.5,1.2,1.2,1.2c0.7,0,1.2-0.5,1.2-1.2
						C21.1,14.8,20.5,14.3,19.9,14.3z"/>
				</g>
			</g>
		</g>
	</g>
</g>
</svg>
