<?xml version="1.0" encoding="utf-8"?>
<!-- Generator: Adobe Illustrator 19.1.0, SVG Export Plug-In . SVG Version: 6.00 Build 0)  -->
<svg version="1.1" id="Layer_1" xmlns="http://www.w3.org/2000/svg" xmlns:xlink="http://www.w3.org/1999/xlink" x="0px" y="0px"
	 viewBox="0 0 60 60" style="enable-background:new 0 0 60 60;" xml:space="preserve">
<style type="text/css">
	.st0{fill:#FFFFFF;}
</style>
<g>
	<path class="st0" d="M49,16.8c-1.9-2.8-4.2-4.4-7-4.8c-2.4-0.4-5.3,0.2-8.1,1.7c-1.6,0.8-2.7,1.6-3.3,2c-0.9-0.6-3.4-2.1-6.5-2.9
		c-5.2-1.3-9.4,0.1-12.3,4c-3.9,5.3-2.8,11.8,3,19.5c4.6,6,10.9,11,14,13.4l0.4,0.3c0.5,0.4,0.8,0.5,1.2,0.5c0.5,0,0.9-0.2,1.4-0.6
		c3.3-2.4,9.4-7.4,13.9-13.2C51.6,29,52.7,22.3,49,16.8z M28.5,28.9v8.3l-7.5,0l0-12.3l-2.3,0l11.9-7.6l0,0l0,0L42,24.8l-2.1,0
		l0,12.3l-7.8,0v-8.3H28.5z M44.7,36C40.3,41.7,34.3,46.6,31,49c-0.6,0.5-0.7,0.4-1.1,0.1l-0.4-0.3c-3-2.4-9.2-7.3-13.8-13.2
		c-5.5-7.2-6.5-13.3-3-18.1c1.9-2.7,4.5-4,7.7-4c1.1,0,2.2,0.2,3.4,0.5c2.5,0.6,4.7,1.8,5.8,2.5l-13,8.4c-0.2,0.1-0.3,0.4-0.2,0.7
		c0.1,0.2,0.3,0.4,0.6,0.4l3,0l0,11.7c0,0.3,0.3,0.6,0.6,0.6l20,0c0,0,0,0,0,0c0.3,0,0.6-0.3,0.6-0.6L41,26l2.8,0c0,0,0,0,0,0
		c0.3,0,0.5-0.2,0.6-0.4c0.1-0.2,0-0.5-0.2-0.7l-12.6-8.5c1.6-1.1,5.9-3.9,10.2-3.3c2.5,0.4,4.6,1.8,6.2,4.3
		C51.4,22.5,50.3,28.7,44.7,36z"/>
</g>
</svg>
