<?xml version="1.0" encoding="utf-8"?>
<!-- Generator: Adobe Illustrator 19.1.0, SVG Export Plug-In . SVG Version: 6.00 Build 0)  -->
<svg version="1.1" id="Layer_1" xmlns="http://www.w3.org/2000/svg" xmlns:xlink="http://www.w3.org/1999/xlink" x="0px" y="0px"
	 viewBox="0 0 60 60" style="enable-background:new 0 0 60 60;" xml:space="preserve">
<style type="text/css">
	.st0{fill:#FFFFFF;}
</style>
<g>
	<g>
		<path class="st0" d="M47.6,26.7H30.5V16.2c0-1.5,1.2-2.7,2.7-2.7c1.5,0,2.7,1.2,2.7,2.7v1c0,0.3,0.3,0.6,0.6,0.6
			c0.3,0,0.6-0.3,0.6-0.6v-1c0-2.2-1.8-4-4-4c-2.2,0-4,1.8-4,4v10.5h-1.6v-3.6c0-0.1,0-0.3-0.1-0.4l-2.5-3.2
			c-0.2-0.3-0.6-0.3-0.9-0.1c-0.3,0.2-0.3,0.6-0.1,0.9l2.3,3v3.4H12c-1.3,0-2.4,1.1-2.4,2.4v0.2c0,1.3,1.1,2.4,2.4,2.4h0.8
			c0.5,1.7,2.5,7.6,2.8,8.7c0.6,1.7,1.8,2,3.8,2h5h2.1v3c0,1.6,1.3,2.9,2.9,2.9c1.6,0,2.9-1.3,2.9-2.9v-3h2.8h5c1.9,0,3.2-0.3,3.8-2
			c0.4-1,2.3-7,2.8-8.7h0.8c1.3,0,2.4-1.1,2.4-2.4v-0.2C50,27.8,49,26.7,47.6,26.7z M31.3,45.3c0,1-0.8,1.9-1.8,1.9
			s-1.8-0.8-1.8-1.9v-2.9h3.6V45.3z M42.8,39.9c-0.3,0.7-0.6,1.2-2.6,1.2h-5H24.4h-5c-2,0-2.3-0.4-2.6-1.2c-0.3-0.9-2-6.2-2.7-8.2
			h31.4C44.8,33.7,43.1,39,42.8,39.9z M48.8,29.3c0,0.6-0.5,1.2-1.2,1.2H12c-0.6,0-1.2-0.5-1.2-1.2v-0.2c0-0.6,0.5-1.2,1.2-1.2h35.6
			c0.6,0,1.2,0.5,1.2,1.2V29.3z"/>
		<circle class="st0" cx="36.5" cy="20.4" r="0.7"/>
		<circle class="st0" cx="36.5" cy="23.8" r="0.7"/>
		<path class="st0" d="M20.3,38.7c1.1,0,2-0.6,2.5-1c0.4,0.4,1.2,1,2.3,1c1.1,0,2-0.6,2.5-1c0.4,0.4,1.2,1,2.3,1c1.1,0,2-0.6,2.5-1
			c0.4,0.4,1.2,1,2.3,1c1.1,0,2-0.6,2.5-1c0.4,0.4,1.2,1,2.3,1c1.7,0,2.9-1.3,2.9-1.4c0.2-0.2,0.2-0.5-0.1-0.7
			c-0.2-0.2-0.5-0.2-0.7,0.1c0,0-0.9,1-2.2,1c-1.2,0-1.8-0.9-1.8-1c0,0,0,0,0,0c0,0,0,0,0,0c0,0,0,0-0.1-0.1c0,0,0,0,0,0
			c0,0,0,0,0,0c0,0,0,0-0.1,0c0,0,0,0,0,0c0,0,0,0-0.1,0c0,0,0,0,0,0c0,0-0.1,0-0.1,0c0,0,0,0,0,0c0,0-0.1,0-0.1,0c0,0,0,0,0,0
			c0,0-0.1,0-0.1,0c0,0,0,0,0,0c0,0,0,0-0.1,0c0,0,0,0,0,0c0,0,0,0,0,0c0,0,0,0,0,0c0,0,0,0,0,0c0,0,0,0,0,0c0,0,0,0,0,0
			c0,0-0.9,1-2.2,1c-1.2,0-1.8-0.9-1.8-1c0,0,0,0,0,0c0,0,0,0,0,0c0,0,0,0,0,0c0,0,0,0,0,0c0,0,0,0,0,0c0,0,0,0,0,0c0,0,0,0,0,0
			c0,0,0,0-0.1,0c0,0,0,0,0,0c0,0,0,0-0.1,0c0,0,0,0,0,0c0,0,0,0-0.1,0c0,0,0,0,0,0c0,0,0,0-0.1,0c0,0,0,0,0,0c0,0,0,0,0,0
			c0,0,0,0,0,0c0,0,0,0,0,0c0,0,0,0,0,0c0,0,0,0,0,0c0,0,0,0,0,0c0,0,0,0,0,0c0,0-0.9,1-2.2,1c-1.2,0-1.8-0.9-1.8-1
			c-0.1-0.1-0.2-0.2-0.4-0.2c0,0,0,0,0,0c0,0,0,0-0.1,0c0,0,0,0,0,0c0,0,0,0,0,0c0,0,0,0-0.1,0c0,0,0,0,0,0c-0.1,0-0.2,0.1-0.2,0.1
			c0,0-0.9,1-2.2,1c-1.2,0-1.8-0.9-1.8-1c0,0,0,0,0,0c0,0,0,0,0,0c0,0,0,0,0,0c0,0,0,0,0,0c0,0,0,0,0,0c0,0,0,0,0,0c0,0,0,0,0,0
			c0,0,0,0,0,0c0,0,0,0,0,0c0,0,0,0-0.1,0c0,0,0,0,0,0c0,0,0,0-0.1,0c0,0,0,0,0,0c0,0,0,0-0.1,0c0,0,0,0,0,0c0,0,0,0,0,0
			c0,0,0,0,0,0c0,0,0,0,0,0c0,0,0,0,0,0c0,0,0,0,0,0c0,0,0,0,0,0c0,0,0,0,0,0c0,0-0.9,1-2.2,1c-1.2,0-1.8-0.9-1.8-1
			c-0.1-0.2-0.4-0.3-0.7-0.2c-0.2,0.1-0.3,0.4-0.2,0.7C17.7,37.4,18.5,38.7,20.3,38.7z"/>
	</g>
</g>
</svg>
