<?xml version="1.0" encoding="utf-8"?>
<!-- Generator: Adobe Illustrator 21.0.0, SVG Export Plug-In . SVG Version: 6.00 Build 0)  -->
<svg version="1.0" id="Layer_1" xmlns="http://www.w3.org/2000/svg" xmlns:xlink="http://www.w3.org/1999/xlink" x="0px" y="0px"
	 viewBox="0 0 214.2 214.2" style="enable-background:new 0 0 214.2 214.2;" xml:space="preserve">
<style type="text/css">
	.st0{display:none;}
	.st1{fill:#FFFFFF;}
</style>
<g id="WorkableArtwork" class="st0">
</g>
<g id="Icons">
</g>
<g id="Fourth_Tier_-_Optional_Features">
</g>
<g id="Third_Tier_-_Features">
</g>
<g>
	<path class="st1" d="M175,166.3l-1.4-10.3c-0.1-0.6-0.4-1.1-0.9-1.5l-9.1-6.1l-36.9-36.9l3-3c0.4-0.4,0.6-0.9,0.6-1.5
		s-0.2-1.1-0.6-1.5l-5.2-5.1l5.7-6.4c1.5,0.8,3.1,1.3,4.7,1.6c1.3,0.2,2.2,0.2,3,0.2c1.7,0.1,2.2,0.1,3.8,1.6
		c-0.8,0.7-1.3,1.7-1.3,2.8c0,1.2,0.4,2.3,1.3,3.2l7.5,7.5c1.2,1.2,2.8,1.9,4.5,1.9c1.7,0,3.3-0.7,4.5-1.9L173.1,96
		c1.2-1.2,1.9-2.8,1.9-4.5s-0.7-3.3-1.9-4.5l-7.5-7.5c-0.8-0.8-1.9-1.2-3-1.2h-0.1c-1.1,0-2.2,0.5-3,1.2c-1.5-1.5-1.5-1.9-1.6-3.7
		c0-0.8-0.1-1.8-0.2-3c-0.4-3.1-1.9-6-4.2-8.3l-7.7-7.7c-4.5-4.5-6.7-6.6-12.3-9.2C121.3,42,108.8,43,90.4,51
		c-0.9,0.4-1.4,1.4-1.2,2.4c0.2,1,1.1,1.7,2.1,1.7H94c9.5-0.1,14.2-0.1,22.7,8.3c4,4,3.8,10.2-0.5,14.5l0,0l0,0l-6.6,7.4L68.8,44.5
		c-3.4-3.4-8.8-3.4-12.2,0l-5.7,5.7c-3.4,3.4-3.4,8.8,0,12.2l41.9,41.9L51,151.1c-1.6,1.6-2.6,3.8-2.6,6.1c0,2.3,0.8,4.5,2.4,6.1
		l3,3c1.6,1.6,3.7,2.4,5.9,2.4c0.1,0,0.1,0,0.2,0c2.3,0,4.4-1,6.1-2.7l41.8-46.7l4.2,4.1c0.4,0.4,0.9,0.6,1.5,0.6
		c0.5,0,1.1-0.2,1.5-0.6l3-3l36.8,36.8l6.3,9.3c0.3,0.5,0.9,0.8,1.5,0.9l10.2,1.3c0.1,0,0.2,0,0.3,0c0.6,0,1.1-0.2,1.5-0.6
		C174.9,167.6,175.1,166.9,175,166.3z M53.9,53.2l5.7-5.7c0.9-0.9,2-1.3,3.1-1.3s2.3,0.4,3.1,1.3l41.1,41.1l-11.2,12.6L53.9,59.4
		C52.2,57.7,52.2,54.9,53.9,53.2z M102.4,51.1c11.9-3.8,20.9-3.6,29.6,0.4c4.9,2.2,6.7,3.9,11.1,8.3l7.7,7.7c1.6,1.6,2.7,3.7,3,5.8
		c0.1,1,0.2,1.9,0.2,2.6c0.1,2.4,0.3,3.9,2.8,6.5c0.8,0.8,1.9,1.3,3.1,1.3l0,0c1.1,0,2.2-0.5,2.9-1.2l7.5,7.5
		c0.4,0.4,0.6,0.9,0.6,1.5s-0.2,1.1-0.6,1.5l-14.9,14.9c-0.8,0.8-2.2,0.8-3,0l-7.4-7.5c0.7-0.7,1.2-1.7,1.2-2.8
		c0-1.2-0.4-2.4-1.3-3.2c-2.6-2.6-4.2-2.7-6.5-2.8c-0.7,0-1.5,0-2.6-0.2c-2.1-0.3-4.2-1.3-5.8-2.9l-9.1-9.1
		c4.5-5.8,4.2-13.7-0.9-18.9C113.2,53.8,108.1,51.7,102.4,51.1z M62.9,163.1c-0.9,0.9-2,1.3-3.2,1.4c-1.1,0-2.2-0.4-3-1.2l-3-3
		c-0.8-0.8-1.2-1.8-1.2-3c0-1.2,0.5-2.3,1.5-3.2l63.9-71.6l8.9,8.9l0,0l0.1,0.1l-6.8,7.6l0,0L106,114.8l0,0L62.9,163.1z
		 M113.4,118.9l-2.8-2.8l1.9-2.1l9.4-10.5l3.5,3.5L113.4,118.9z M123.9,114.4l35.5,35.5l-3,3l-35.5-35.5L123.9,114.4z M163.9,163.3
		l-4.8-7l3.5-3.5l6.9,4.7l0.9,6.7L163.9,163.3z"/>
	<path class="st1" d="M98.5,92.1c0.8-0.8,0.8-2.2,0-3L62.6,53.2c-0.8-0.8-2.2-0.8-3,0s-0.8,2.2,0,3l35.9,35.9c0.4,0.4,1,0.6,1.5,0.6
		S98,92.5,98.5,92.1z"/>
</g>
<g id="First_Tier_-_PrimaryPillars">
</g>
</svg>
