<?xml version="1.0" encoding="utf-8"?>
<!-- Generator: Adobe Illustrator 19.1.0, SVG Export Plug-In . SVG Version: 6.00 Build 0)  -->
<svg version="1.1" id="Layer_1" xmlns="http://www.w3.org/2000/svg" xmlns:xlink="http://www.w3.org/1999/xlink" x="0px" y="0px"
	 viewBox="0 0 60 60" style="enable-background:new 0 0 60 60;" xml:space="preserve">
<style type="text/css">
	.st0{fill:#FFFFFF;}
</style>
<g>
	<g>
		<path class="st0" d="M8.9,33.3c0.2,0,0.3,0,0.5-0.1c2.3-1.3,4.1-1.7,5.7-1.7c2.2,0,3.9,0.9,5.7,1.7c1.9,0.9,3.8,1.9,6.3,1.9
			c2,0,4.1-0.6,6.3-1.9c0.1-0.1,0.3-0.2,0.3-0.4c0-0.2,0-0.3-0.1-0.5c-0.1-0.1-0.2-0.3-0.4-0.3c-0.2,0-0.3,0-0.5,0.1
			c-5.3,3-8.3,1.5-11.4,0c-3.1-1.5-6.7-3.3-12.6,0c-0.1,0.1-0.3,0.2-0.3,0.4c0,0.2,0,0.3,0.1,0.5C8.6,33.2,8.7,33.3,8.9,33.3z"/>
		<path class="st0" d="M27.1,39.4c2,0,4.1-0.6,6.3-1.9c0.3-0.2,0.4-0.6,0.2-0.9c-0.1-0.1-0.2-0.3-0.4-0.3c-0.2,0-0.3,0-0.5,0.1
			c-5.3,3-8.3,1.5-11.4,0c-3.1-1.5-6.7-3.3-12.6,0c-0.1,0.1-0.3,0.2-0.3,0.4c0,0.2,0,0.3,0.1,0.5c0.2,0.3,0.6,0.4,0.9,0.2
			c2.3-1.3,4.1-1.7,5.7-1.7c2.2,0,3.9,0.9,5.7,1.7C22.7,38.5,24.6,39.4,27.1,39.4z"/>
		<path class="st0" d="M49.2,27.7L36.9,15l-2.9-3c-0.2-0.2-0.5-0.3-0.8-0.3c-0.3,0-0.6,0.1-0.8,0.3l-5.9,5.9v-2.2h-6.6v8.8L18,26.5
			c-0.1,0-0.1,0-0.1,0c-2.4-0.7-5.2-0.7-9.1,1.5c-0.1,0.1-0.3,0.2-0.3,0.4c0,0.2,0,0.3,0.1,0.5c0.1,0.1,0.2,0.3,0.4,0.3
			c0.2,0,0.3,0,0.5-0.1c2.3-1.3,4.1-1.7,5.7-1.7c2.2,0,3.9,0.9,5.7,1.7c1.9,0.9,3.8,1.9,6.3,1.9c2,0,4.1-0.6,6.3-1.9
			c0.1-0.1,0.3-0.2,0.3-0.4c0-0.2,0-0.3-0.1-0.5c-0.1-0.1-0.2-0.3-0.4-0.3c-0.2,0-0.3,0-0.5,0.1c-5.3,3-8.3,1.5-11.4,0
			c-0.6-0.3-1.1-0.5-1.7-0.8c0,0-0.2-0.1-0.4-0.1l1.8-2v-8h4v4l8-8l0.1,0.1l15,15.5c0.3,0.2,0.2,0.7-0.2,0.7l-2.9,0l0,14.6
			c0,0.2-0.2,0.5-0.5,0.5H21.7c-0.2,0-0.5-0.2-0.5-0.5v-4c-0.4-0.2-0.8-0.4-1.2-0.6l0,0v4.6c0,0.9,0.8,1.7,1.7,1.7h22.8
			c0.9,0,1.7-0.8,1.7-1.7l-0.1-13.3h1.9c0.9,0,1.6-0.3,1.8-0.9C50.1,28.9,50,28.6,49.2,27.7z"/>
	</g>
</g>
</svg>
