<?xml version="1.0" encoding="utf-8"?>
<!-- Generator: Adobe Illustrator 19.1.0, SVG Export Plug-In . SVG Version: 6.00 Build 0)  -->
<svg version="1.1" id="Layer_1" xmlns="http://www.w3.org/2000/svg" xmlns:xlink="http://www.w3.org/1999/xlink" x="0px" y="0px"
	 viewBox="0 0 60 60" style="enable-background:new 0 0 60 60;" xml:space="preserve">
<style type="text/css">
	.st0{fill:#FFFFFF;}
</style>
<g>
	<path class="st0" d="M43.5,42.1L33.1,31.7l1.8-1.8c1.6-1.6,1.6-3.1,1.6-4.5c0-1.1,0-2,0.9-2.9c1.2-1.2,1.9-2.4,2.2-3.6
		c0.3-1.4,0-2.5-0.9-3.4l-0.4-0.4L27.5,26l-2.2-2.2L36.1,13l-0.4-0.4c-1.7-1.7-4.5-1.2-7,1.4c-0.9,0.9-1.8,0.9-2.9,0.9
		c-1.4,0-2.9,0-4.5,1.6l-1.8,1.8l-1-1c-0.2-0.2-0.6-0.4-0.9-0.4s-0.7,0.1-0.9,0.4L11.8,22c-0.5,0.5-0.5,1.3,0,1.9l25,25
		c0.3,0.3,0.6,0.4,0.9,0.4c0.3,0,0.7-0.1,0.9-0.4l4.9-4.9C44,43.4,44,42.6,43.5,42.1z M27.5,27.6l0.8-0.8l10-10
		c0.3,0.5,0.4,1.2,0.2,2c-0.2,1-0.9,2.1-1.9,3.1c-1.2,1.2-1.2,2.4-1.2,3.7c0,1.2,0,2.4-1.3,3.7l-1.8,1.8l-0.8,0.8l-0.4,0.4L27.1,28
		L27.5,27.6z M19.6,19.7l0.8-0.8l1.8-1.8c1.3-1.3,2.4-1.3,3.7-1.3c1.2,0,2.5,0,3.7-1.2c1-1,2.1-1.7,3.1-1.9c0.8-0.2,1.4-0.1,2,0.2
		l-10,10l-0.8,0.8l-0.4,0.4l-4.1-4.1L19.6,19.7z M42.7,43.2l-4.9,4.9c-0.1,0.1-0.1,0.1-0.1,0.1h0h0c0,0-0.1,0-0.1-0.1l-1.1-1.1
		l2.1-2.1c0.2-0.2,0.2-0.6,0-0.8c-0.1-0.1-0.2-0.2-0.4-0.2s-0.3,0.1-0.4,0.2l-2.1,2.1h0h0l-2.9-2.9l2.1-2.1c0.2-0.2,0.2-0.6,0-0.8
		c-0.1-0.1-0.2-0.2-0.4-0.2c-0.1,0-0.3,0.1-0.4,0.2L32,42.5h0l0,0l-3-3l2.1-2.1c0.2-0.2,0.2-0.6,0-0.8c-0.1-0.1-0.2-0.2-0.4-0.2
		s-0.3,0.1-0.4,0.2l-2.1,2.1l0,0v0l-2.9-2.9l2.1-2.1c0.2-0.2,0.2-0.6,0-0.8c-0.1-0.1-0.2-0.2-0.4-0.2c-0.1,0-0.3,0.1-0.4,0.2
		l-2.1,2.1l-2.9-2.9l2.1-2.1c0.2-0.2,0.2-0.6,0-0.8c-0.1-0.1-0.2-0.2-0.4-0.2s-0.3,0.1-0.4,0.2L21,31.5l-3-3l0.7-0.7l1.4-1.4
		c0.2-0.2,0.2-0.6,0-0.8c-0.1-0.1-0.2-0.2-0.4-0.2s-0.3,0.1-0.4,0.2L17.9,27l-0.7,0.7l0,0l0,0l-2.9-2.9l1-1l1-1
		c0.2-0.2,0.2-0.6,0-0.8c-0.1-0.1-0.2-0.2-0.4-0.2c-0.1,0-0.3,0.1-0.4,0.2l-1,1l-1,1l0,0l0,0l-0.5-0.5l-0.5-0.5
		c-0.1-0.1-0.1-0.2,0-0.3l4.9-4.9c0.1-0.1,0.1-0.1,0.1-0.1h0h0c0,0,0.1,0,0.1,0.1l0.7,0.7l0.3,0.3l-0.4,0.4l-0.8,0.8l5.7,5.7
		l1.2-1.2h0l0,0l2.2,2.2L25.5,28l5.7,5.7l1.2-1.2h0l0,0l10.4,10.4c0.1,0.1,0.1,0.1,0.1,0.1S42.8,43.1,42.7,43.2z"/>
</g>
</svg>
