<?xml version="1.0" encoding="utf-8"?>
<!-- Generator: Adobe Illustrator 21.0.2, SVG Export Plug-In . SVG Version: 6.00 Build 0)  -->
<svg version="1.0" id="Layer_1" xmlns="http://www.w3.org/2000/svg" xmlns:xlink="http://www.w3.org/1999/xlink" x="0px" y="0px"
	 viewBox="0 0 214.1 214.1" style="enable-background:new 0 0 214.1 214.1;" xml:space="preserve">
<style type="text/css">
	.st0{fill:#FFFFFF;}
</style>
<g>
	<path class="st0" d="M55.8,51.1v24.4v3.9v89.8h102.5V79.4v-3.9V51.1H55.8z M154.4,165.3H59.8V79.4h94.6V165.3z M154.4,75.5H59.8V55
		h94.6V75.5z"/>
	<path class="st0" d="M150.4,122V118V84.2H63.7V118v3.9v39.4h86.7V122z M67.7,88.1h78.8V118h-11.8v-12c4.5-0.9,7.9-4.9,7.9-9.7v-2
		h-7.9h-3.9h-7.9v2c0,4.8,3.4,8.7,7.9,9.7v12H109v-12c4.5-0.9,7.9-4.9,7.9-9.7v-2H109h-3.9h-7.9v2c0,4.8,3.4,8.7,7.9,9.7v12H83.4
		v-12c4.5-0.9,7.9-4.9,7.9-9.7v-2h-7.9h-3.9h-7.9v2c0,4.8,3.4,8.7,7.9,9.7v12H67.7V88.1z M131.5,102.2c-2.1-0.4-3.7-1.9-4.4-3.8h3.6
		h3.9h3.6c-0.7,1.9-2.3,3.4-4.4,3.8l-1.2,0.2L131.5,102.2z M105.9,102.2c-2.1-0.4-3.7-1.9-4.4-3.8h3.6h3.9h3.6
		c-0.7,1.9-2.3,3.4-4.4,3.8l-1.2,0.2L105.9,102.2z M80.3,102.2c-2.1-0.4-3.7-1.9-4.4-3.8h3.6h3.9H87c-0.7,1.9-2.3,3.4-4.4,3.8
		l-1.2,0.2L80.3,102.2z M67.7,157.5V122h78.8v35.5H67.7z"/>
	<path class="st0" d="M71.2,71.9c3.7,0,6.7-3,6.7-6.7c0-3.7-3-6.7-6.7-6.7s-6.7,3-6.7,6.7C64.5,68.9,67.5,71.9,71.2,71.9z
		 M71.2,62.5c1.5,0,2.8,1.2,2.8,2.8c0,1.5-1.2,2.8-2.8,2.8s-2.8-1.2-2.8-2.8C68.5,63.7,69.7,62.5,71.2,62.5z"/>
	<path class="st0" d="M119.3,71.9c3.7,0,6.7-3,6.7-6.7c0-3.7-3-6.7-6.7-6.7c-3.7,0-6.7,3-6.7,6.7C112.6,68.9,115.6,71.9,119.3,71.9z
		 M119.3,62.5c1.5,0,2.8,1.2,2.8,2.8c0,1.5-1.2,2.8-2.8,2.8c-1.5,0-2.8-1.2-2.8-2.8C116.5,63.7,117.8,62.5,119.3,62.5z"/>
	<path class="st0" d="M94.9,71.9c3.7,0,6.7-3,6.7-6.7c0-3.7-3-6.7-6.7-6.7s-6.7,3-6.7,6.7C88.2,68.9,91.2,71.9,94.9,71.9z
		 M94.9,62.5c1.5,0,2.8,1.2,2.8,2.8c0,1.5-1.2,2.8-2.8,2.8c-1.5,0-2.8-1.2-2.8-2.8C92.1,63.7,93.3,62.5,94.9,62.5z"/>
	<path class="st0" d="M126.8,125.9c-8.7,0-15.8,7.1-15.8,15.8c0,8.7,7.1,15.8,15.8,15.8s15.8-7.1,15.8-15.8
		C142.5,133,135.5,125.9,126.8,125.9z M126.8,153.5c-6.5,0-11.8-5.3-11.8-11.8c0-6.5,5.3-11.8,11.8-11.8c6.5,0,11.8,5.3,11.8,11.8
		C138.6,148.2,133.3,153.5,126.8,153.5z"/>
	<path class="st0" d="M87.4,125.9c-8.7,0-15.8,7.1-15.8,15.8c0,8.7,7.1,15.8,15.8,15.8s15.8-7.1,15.8-15.8
		C103.1,133,96.1,125.9,87.4,125.9z M87.4,153.5c-6.5,0-11.8-5.3-11.8-11.8c0-6.5,5.3-11.8,11.8-11.8c6.5,0,11.8,5.3,11.8,11.8
		C99.2,148.2,93.9,153.5,87.4,153.5z"/>
	<path class="st0" d="M142.9,71.9c3.7,0,6.7-3,6.7-6.7c0-3.7-3-6.7-6.7-6.7c-3.7,0-6.7,3-6.7,6.7C136.2,68.9,139.2,71.9,142.9,71.9z
		 M142.9,62.5c1.5,0,2.8,1.2,2.8,2.8c0,1.5-1.2,2.8-2.8,2.8c-1.5,0-2.8-1.2-2.8-2.8C140.2,63.7,141.4,62.5,142.9,62.5z"/>
</g>
</svg>
