<?xml version="1.0" encoding="utf-8"?>
<!-- Generator: Adobe Illustrator 21.0.2, SVG Export Plug-In . SVG Version: 6.00 Build 0)  -->
<svg version="1.0" id="Layer_1" xmlns="http://www.w3.org/2000/svg" xmlns:xlink="http://www.w3.org/1999/xlink" x="0px" y="0px"
	 viewBox="0 0 214.1 214.1" style="enable-background:new 0 0 214.1 214.1;" xml:space="preserve">
<style type="text/css">
	.st0{fill:none;stroke:#FFFFFF;stroke-width:4.4123;stroke-linecap:round;stroke-linejoin:round;stroke-miterlimit:10;}
	.st1{fill:#FFFFFF;}
	.st2{fill:#FFFFFF;stroke:#FFFFFF;stroke-width:0.5;stroke-miterlimit:10;}
</style>
<g>
	<path class="st0" d="M62.6,171.7C41.7,157.5,28,133.5,28,106.4c0-43.7,35.4-79.1,79.1-79.1s79.1,35.4,79.1,79.1
		s-35.4,79.1-79.1,79.1"/>
	<g>
		<polygon class="st0" points="76.2,170.9 68.4,184.6 59.3,177.7 65.7,166.6 		"/>
		<g>
			<line class="st0" x1="70.3" y1="181.1" x2="76.9" y2="184.9"/>
			<line class="st0" x1="74.2" y1="174.4" x2="80.8" y2="178.1"/>
		</g>
	</g>
</g>
<path class="st1" d="M117.9,112v-0.5c0-1.3-1-2.3-2.3-2.3H98.5c-1.3,0-2.3,1-2.3,2.3v0.5c0,0.8,0.5,1.6,1.1,2
	c-0.7,0.4-1.1,1.1-1.1,2v0.5c0,0.8,0.5,1.6,1.1,2c-0.7,0.4-1.1,1.1-1.1,2v0.5c0,1.3,1,2.3,2.3,2.3h17.2c1.3,0,2.3-1,2.3-2.3v-0.5
	c0-0.8-0.5-1.6-1.1-2c0.7-0.4,1.1-1.1,1.1-2V116c0-0.8-0.5-1.6-1.1-2C117.5,113.6,117.9,112.8,117.9,112z"/>
<path class="st2" d="M124.3,59.9c-3.1-3.6-8.5-7.8-17-7.9c0,0-0.1,0-0.1,0c0,0-0.1,0-0.1,0c0,0-0.1,0-0.1,0c0,0-0.1,0-0.1,0
	c-8.5,0.1-14,4.3-17,7.9c-3.7,4.4-6,10.2-6,15.7c0,10,3.5,14.9,7,19.7c2.9,4.1,7,7.9,7,14.9v0.8h3.1v-0.8c0-8-4.5-12.4-7.6-16.7
	c-3.1-4.4-6.4-9-6.4-17.9c0-13.9,11.9-20.5,20-20.5c8.1,0,20,6.6,20,20.5c0,9-3.2,13.5-6.4,17.9c-3.1,4.3-7.6,8.7-7.6,16.7v0.8h3.1
	v-0.8c0-7,4.1-10.8,7-14.9c3.4-4.8,7-9.8,7-19.7C130.2,70.2,128,64.3,124.3,59.9z"/>
<path class="st1" d="M104.8,121.2V142c-4-8.5-12.6-14.3-22.4-14.3c0,0,0,0,0,0c-2.9,0-5.9,0.5-8.6,1.6c-1,0.4-1.6,1.4-1.5,2.4
	c1.4,12.6,12.1,22.1,24.7,22.1c0,0,0,0,0,0c2.7,0,5.3-0.5,7.8-1.3c0,0,0,32.7,0,33.2c0,0.5,0.5,1.2,0.5,1.2h4.1v-23.6
	c2.5,0.8,5.1,1.3,7.7,1.3c0,0,0,0,0,0c12.5,0,23.1-9.4,24.5-21.9c0.1-1.1-0.5-2-1.5-2.4c-2.7-1-5.6-1.5-8.5-1.6c0,0,0,0,0,0
	c-9.7,0-18.2,5.7-22.2,14.1v-31.7H104.8z M97,149.2c-9.6,0-17.5-6.8-19.5-16c1.6-0.4,3.2-0.9,4.9-0.9h0c9.6,0,17.5,6.8,19.5,16
	C100.3,148.7,98.7,149.2,97,149.2z M117.2,160c-1.6,0-3.2-0.5-4.8-0.9c2-9.1,9.8-15.8,19.3-15.8h0c1.6,0,3.2,0.5,4.8,0.9
	C134.4,153.3,126.6,159.9,117.2,160z"/>
</svg>
