<?xml version="1.0" encoding="utf-8"?>
<!-- Generator: Adobe Illustrator 21.0.2, SVG Export Plug-In . SVG Version: 6.00 Build 0)  -->
<svg version="1.0" id="Layer_1" xmlns="http://www.w3.org/2000/svg" xmlns:xlink="http://www.w3.org/1999/xlink" x="0px" y="0px"
	 viewBox="0 0 214.1 214.1" style="enable-background:new 0 0 214.1 214.1;" xml:space="preserve">
<style type="text/css">
	.st0{fill:#FFFFFF;}
</style>
<g>
	<path class="st0" d="M67.8,167.1c-0.5,0-0.9-0.2-1.4-0.5c-0.8-0.6-1.2-1.7-0.9-2.7l13.3-46.2c0.4-1.3,1.8-2.1,3.1-1.7
		c1.3,0.4,2.1,1.8,1.7,3.1l-11.5,39.6l34.7-22.8c0.8-0.6,1.9-0.5,2.8,0l34.5,22.8l-11.3-39.7c-0.3-1,0.1-2,0.8-2.6l32.7-26.1
		l-41.5-1.1c-1,0-1.9-0.7-2.3-1.6l-14.4-39.5L93.9,87.6c-0.3,1-1.3,1.6-2.3,1.7l-48.5,1.3c-1.4,0-2.5-1.1-2.6-2.4
		c0-1.4,1.1-2.5,2.4-2.6l46.8-1.3l16-44.4c0.4-1,1.3-1.6,2.3-1.7c1,0,2,0.7,2.4,1.6l16.2,44.4l46.7,1.3c1,0,2,0.7,2.3,1.7
		c0.3,1,0,2.1-0.8,2.7L138,119.4l12.7,44.6c0.3,1-0.1,2.1-0.9,2.7c-0.8,0.6-2,0.6-2.9,0.1l-38.8-25.6l-38.9,25.6
		C68.8,167,68.3,167.1,67.8,167.1z"/>
	<path class="st0" d="M33.8,126.8c-0.6,0-1.2-0.3-1.7-0.8c-1-1-0.9-2.6,0.1-3.5c33.6-32.4,75.4-21.4,75.8-21.3
		c1.3,0.4,2.1,1.7,1.7,3.1c-0.4,1.3-1.7,2.1-3.1,1.7c-0.5-0.1-39.5-10.3-71,20C35.1,126.7,34.5,126.9,33.8,126.8z"/>
</g>
</svg>
