<?xml version="1.0" encoding="utf-8"?>
<!-- Generator: Adobe Illustrator 21.0.2, SVG Export Plug-In . SVG Version: 6.00 Build 0)  -->
<svg version="1.0" id="Layer_1" xmlns="http://www.w3.org/2000/svg" xmlns:xlink="http://www.w3.org/1999/xlink" x="0px" y="0px"
	 viewBox="0 0 214.1 214.1" style="enable-background:new 0 0 214.1 214.1;" xml:space="preserve">
<style type="text/css">
	.st0{fill:#FFFFFF;}
</style>
<g>
	<path class="st0" d="M81.6,135c0.3,0.2,0.7,0.3,1.1,0.3c0.4,0,0.8-0.1,1.2-0.4c0.7-0.5,1-1.3,0.7-2.1L79.8,116l13.9-11.1
		c0.6-0.5,0.9-1.4,0.6-2.2c-0.3-0.8-1-1.3-1.8-1.4l-17.6-0.5l-6.1-16.8c-0.3-0.8-1-1.3-1.8-1.3c-0.8,0-1.6,0.5-1.9,1.3L59,100.9
		l-17.7,0.5c-0.5,0-1,0.2-1.4,0.6c-0.4,0.4-0.6,0.9-0.5,1.4c0,1.1,0.9,1.9,2,1.9c0,0,0,0,0,0l19.1-0.5c0.8,0,1.5-0.5,1.8-1.3
		l4.7-12.9l4.7,12.9c0.3,0.8,1,1.3,1.8,1.3l13.6,0.4l-10.7,8.6c-0.6,0.5-0.9,1.3-0.7,2.1l3.7,13L68,121.3c-0.7-0.4-1.5-0.4-2.2,0
		l-11.3,7.5l3.7-13c0.3-1-0.3-2.2-1.4-2.5c-0.5-0.1-1-0.1-1.5,0.2c-0.5,0.3-0.8,0.7-0.9,1.2l-5.2,18.1c-0.2,0.8,0.1,1.7,0.7,2.1
		c0.3,0.2,0.7,0.4,1.1,0.4c0.4,0,0.8-0.1,1.2-0.3l14.7-9.7L81.6,135z"/>
	<path class="st0" d="M66.1,111.4c0.5,0.1,1,0.1,1.5-0.2c0.5-0.3,0.8-0.7,0.9-1.2c0.1-0.5,0.1-1-0.2-1.5c-0.3-0.5-0.7-0.8-1.2-0.9
		c-0.2,0-17.1-4.6-30.7,8.6c-0.8,0.8-0.8,2-0.1,2.8c0.4,0.4,0.8,0.6,1.3,0.6h0c0,0,0.1,0,0.1,0c0.5,0,1-0.2,1.4-0.6
		C51,107.6,65.9,111.3,66.1,111.4z"/>
	<path class="st0" d="M171.1,99.5l-44.8-46.3l-10.7-11c-0.8-0.8-1.9-1.2-3-1.2c-1.1,0-2.2,0.4-3,1.2L88.3,63.5v-8H64.4v23.3L69,79
		V60.2h14.7v14.4l28.9-28.9L113,46l54.4,56.4c0.9,0.7,0.6,2.6-0.9,2.5l-10.6,0l-0.1,52.9c0,0.9-0.8,1.7-1.7,1.7H71.2
		c-0.9,0-1.7-0.8-1.7-1.7v-25l-4.6-0.1l0,25.1c0,3.4,2.8,6.2,6.2,6.2h82.9c3.4,0,6.2-2.8,6.2-6.2l-0.2-48.4h7.1c3.4,0,5.7-1,6.4-3.3
		C174.4,103.7,173.9,102.6,171.1,99.5z"/>
</g>
</svg>
