<?xml version="1.0" encoding="utf-8"?>
<!-- Generator: Adobe Illustrator 21.0.2, SVG Export Plug-In . SVG Version: 6.00 Build 0)  -->
<svg version="1.0" id="Layer_1" xmlns="http://www.w3.org/2000/svg" xmlns:xlink="http://www.w3.org/1999/xlink" x="0px" y="0px"
	 viewBox="0 0 214.1 214.1" style="enable-background:new 0 0 214.1 214.1;" xml:space="preserve">
<style type="text/css">
	.st0{fill:none;stroke:#FFFFFF;stroke-width:4;stroke-linejoin:round;stroke-miterlimit:10;}
	.st1{fill:none;stroke:#FFFFFF;stroke-width:4;stroke-linecap:round;stroke-linejoin:round;stroke-miterlimit:10;}
</style>
<g>
	<polygon class="st0" points="73.5,163.2 73.5,119.3 37.9,119.3 37.9,163.2 55.7,149.2 	"/>
	<polygon class="st0" points="55.7,63.3 65,60.7 71.3,67.9 80.5,70.7 82,80.2 88.2,87.5 84.3,96.3 85.6,105.8 77.5,111.1 
		73.5,119.8 63.9,119.9 55.7,125 47.6,119.9 38,119.8 33.9,111.1 25.9,105.8 27.1,96.3 23.2,87.5 29.5,80.2 30.9,70.7 40.1,67.9 
		46.5,60.7 	"/>
	<path class="st1" d="M68.8,103.4c-3.1,3.8-7.8,6.2-13,6.2c-9.3,0-16.8-7.5-16.8-16.8s7.5-16.8,16.8-16.8c1.1,0,2.1,0.1,3.1,0.3"/>
</g>
<g>
	<polygon class="st0" points="140.6,163.2 140.6,119.3 176.2,119.3 176.2,163.2 158.4,149.2 	"/>
	<polygon class="st0" points="158.4,63.3 149.1,60.7 142.8,67.9 133.6,70.7 132.1,80.2 125.9,87.5 129.8,96.3 128.5,105.8 
		136.6,111.1 140.6,119.8 150.2,119.9 158.4,125 166.5,119.9 176.1,119.8 180.2,111.1 188.2,105.8 187,96.3 190.9,87.5 184.6,80.2 
		183.2,70.7 174,67.9 167.6,60.7 	"/>
	<path class="st1" d="M145.4,103.4c3.1,3.8,7.8,6.2,13,6.2c9.3,0,16.8-7.5,16.8-16.8s-7.5-16.8-16.8-16.8c-1.1,0-2.1,0.1-3.1,0.3"/>
</g>
<g>
	<polygon class="st0" points="129.5,177.5 129.5,109.4 84.8,109.4 84.8,177.5 107.2,159.9 	"/>
	<g>
		<polygon class="st0" points="107.2,39.1 118.8,35.9 126.8,44.9 138.3,48.4 140.1,60.3 147.9,69.5 143,80.5 144.6,92.4 134.5,99.1 
			129.4,110 117.4,110.1 107.2,116.5 97,110.1 84.9,110 79.8,99.1 69.8,92.4 71.3,80.5 66.5,69.5 74.2,60.3 76.1,48.4 87.6,44.9 
			95.6,35.9 		"/>
		<circle class="st0" cx="107.2" cy="76.2" r="21"/>
	</g>
</g>
</svg>
