<?xml version="1.0" encoding="utf-8"?>
<!-- Generator: Adobe Illustrator 21.0.2, SVG Export Plug-In . SVG Version: 6.00 Build 0)  -->
<svg version="1.0" id="Layer_1" xmlns="http://www.w3.org/2000/svg" xmlns:xlink="http://www.w3.org/1999/xlink" x="0px" y="0px"
	 viewBox="0 0 214.1 214.1" style="enable-background:new 0 0 214.1 214.1;" xml:space="preserve">
<style type="text/css">
	.st0{fill:none;stroke:#FFFFFF;stroke-width:4;stroke-linejoin:round;stroke-miterlimit:10;}
	.st1{fill:none;stroke:#FFFFFF;stroke-width:4;stroke-linecap:round;stroke-linejoin:round;stroke-miterlimit:10;}
	.st2{fill:#FFFFFF;}
</style>
<polyline class="st0" points="47.1,103 106.6,70 166.1,103 "/>
<polygon class="st0" points="166.1,162 47.1,162 47.1,103 106.2,139.5 166.1,103 "/>
<polygon class="st0" points="156,52.9 57.1,52.9 57.1,109.4 106.2,139.5 156.1,109.3 "/>
<line class="st1" x1="133.4" y1="62" x2="147.4" y2="62"/>
<line class="st1" x1="133.4" y1="68.9" x2="147.4" y2="68.9"/>
<g>
	<path class="st2" d="M76.6,79.6c1.1,1,2.8,2,4.3,2c1,0,2.2-0.6,2.2-1.7c0-1.3-1.8-1.6-3.7-2.2c-1.8-0.7-3.7-1.7-3.7-4.6
		c0-2.8,1.9-5.3,4.8-5.5v-2.9h2.2v2.9c1.5,0.1,3,0.5,4.3,1.4l-1.7,3.4c-0.8-0.7-1.9-1.2-3-1.2c-1,0-2,0.4-2,1.3
		c0,1.1,1.5,1.6,2.3,1.8c2.7,0.9,5.1,1.9,5.1,5.2c0,3.3-1.9,5-4.9,5.7v2.9h-2.2v-2.8c-1,0-2-0.2-3-0.6c-1-0.4-2-0.8-2.8-1.6
		L76.6,79.6z"/>
</g>
<g>
	<path class="st2" d="M124,94.1c0,12.3-6.5,25.7-17.8,25.7s-17.8-13.4-17.8-25.7c0-10.2,5.2-25.8,17.8-25.8S124,83.8,124,94.1z
		 M93.9,94.3c0.1,7,3.1,20.3,12.3,20.3s12.2-13.3,12.3-20.3c0.1-7.1-2.9-20.9-12.3-20.9S93.8,87.3,93.9,94.3z"/>
</g>
</svg>
