<?xml version="1.0" encoding="utf-8"?>
<!-- Generator: Adobe Illustrator 21.0.2, SVG Export Plug-In . SVG Version: 6.00 Build 0)  -->
<svg version="1.0" id="Layer_1" xmlns="http://www.w3.org/2000/svg" xmlns:xlink="http://www.w3.org/1999/xlink" x="0px" y="0px"
	 viewBox="0 0 214.2 214.2" style="enable-background:new 0 0 214.2 214.2;" xml:space="preserve">
<style type="text/css">
	.st0{fill:#FFFFFF;}
</style>
<g>
	<path class="st0" d="M69.7,112.1H147c1.4,0,2.5-1.1,2.5-2.5s-1.1-2.5-2.5-2.5H69.7c-1.4,0-2.5,1.1-2.5,2.5S68.3,112.1,69.7,112.1z"
		/>
	<path class="st0" d="M69.7,100.8H147c1.4,0,2.5-1.1,2.5-2.5c0-21.7-17-39.6-38.3-41.1v-7.1c0-12.3,10.1-14.8,18.5-14.8
		c8.6,0,18.9,0.4,19,0.4c0.7,0,1.3-0.2,1.8-0.7c0.5-0.5,0.8-1.1,0.8-1.7c0-1.4-1-2.5-2.5-2.6c-1.8-0.1-11.3-0.4-19.1-0.4
		c-14.9,0-23.5,7.2-23.5,19.8v7.1c-21.7,1.1-39,19.1-39,41.1C67.2,99.6,68.3,100.8,69.7,100.8z M108.3,62.1
		c19,0,34.8,14.7,36.1,33.7H72.2C73.5,76.8,89.3,62.1,108.3,62.1z"/>
	<circle class="st0" cx="108.3" cy="135.6" r="4"/>
	<circle class="st0" cx="108.3" cy="156.9" r="4"/>
	<circle class="st0" cx="108.3" cy="178.3" r="4"/>
	<ellipse transform="matrix(0.9423 -0.3347 0.3347 0.9423 -34.9554 51.7642)" class="st0" cx="132.7" cy="127.3" rx="4" ry="4"/>
	<ellipse transform="matrix(0.9423 -0.3348 0.3348 0.9423 -41.2777 55.3244)" class="st0" cx="139.9" cy="147.4" rx="4" ry="4"/>
	<ellipse transform="matrix(0.9423 -0.3347 0.3347 0.9423 -47.5902 58.8655)" class="st0" cx="147" cy="167.5" rx="4" ry="4"/>
	<ellipse transform="matrix(0.3347 -0.9423 0.9423 0.3347 -64.1151 163.7881)" class="st0" cx="83.9" cy="127.3" rx="4" ry="4"/>
	<ellipse transform="matrix(0.3347 -0.9423 0.9423 0.3347 -87.8083 170.4362)" class="st0" cx="76.8" cy="147.4" rx="4" ry="4"/>
	<ellipse transform="matrix(0.3347 -0.9423 0.9423 0.3347 -111.5021 177.0812)" class="st0" cx="69.7" cy="167.5" rx="4" ry="4"/>
</g>
</svg>
