<?xml version="1.0" encoding="utf-8"?>
<!-- Generator: Adobe Illustrator 21.0.2, SVG Export Plug-In . SVG Version: 6.00 Build 0)  -->
<svg version="1.0" id="Layer_1" xmlns="http://www.w3.org/2000/svg" xmlns:xlink="http://www.w3.org/1999/xlink" x="0px" y="0px"
	 viewBox="0 0 214.2 214.2" style="enable-background:new 0 0 214.2 214.2;" xml:space="preserve">
<style type="text/css">
	.st0{fill:#FFFFFF;}
</style>
<g>
	<path class="st0" d="M30.4,119.2c0.6,0.2,1.2,0.1,1.8-0.2c8.2-4.6,14.9-6.3,20.7-6.3c7.9,0,14.3,3.1,20.8,6.3
		c6.8,3.3,13.8,6.8,22.8,6.8c7.2,0,14.7-2.2,23-6.8c0.5-0.3,0.9-0.8,1.1-1.4c0.2-0.6,0.1-1.2-0.2-1.8c-0.3-0.5-0.8-0.9-1.4-1.1
		c-0.6-0.2-1.2-0.1-1.8,0.2c-19.4,10.8-30.1,5.5-41.5-0.1c-11.4-5.6-24.3-11.9-45.8,0.1c-0.5,0.3-0.9,0.8-1.1,1.4
		c-0.2,0.6-0.1,1.2,0.2,1.8C29.3,118.7,29.8,119.1,30.4,119.2z"/>
	<path class="st0" d="M96.5,141.3c7.2,0,14.7-2.2,23-6.8c1.1-0.6,1.5-2,0.9-3.2c-0.3-0.5-0.8-0.9-1.4-1.1c-0.6-0.2-1.2-0.1-1.8,0.2
		c-19.4,10.8-30.1,5.5-41.5-0.1c-11.4-5.6-24.3-11.9-45.8,0.1c-0.5,0.3-0.9,0.8-1.1,1.4c-0.2,0.6-0.1,1.2,0.2,1.8
		c0.6,1.1,2,1.5,3.2,0.9c8.2-4.6,14.9-6.3,20.7-6.3c7.9,0,14.3,3.1,20.8,6.3C80.5,137.9,87.5,141.3,96.5,141.3z"/>
	<path class="st0" d="M176.8,98.8l-44.8-46.3l-10.7-11c-0.8-0.8-1.9-1.2-3-1.2c-1.1,0-2.2,0.4-3,1.2L94,62.9v-8H70.2v31.9l-6.8,7.5
		c-0.3-0.1-0.5-0.2-0.5-0.2c-8.7-2.5-19-2.4-33,5.4c-0.5,0.3-0.9,0.8-1.1,1.4c-0.2,0.6-0.1,1.2,0.2,1.8c0.3,0.5,0.8,0.9,1.4,1.1
		c0.6,0.2,1.2,0.1,1.8-0.2c8.2-4.6,14.9-6.3,20.7-6.3c7.9,0,14.3,3.1,20.8,6.3c6.8,3.3,13.8,6.8,22.8,6.8c7.2,0,14.7-2.2,23-6.8
		c0.5-0.3,0.9-0.8,1.1-1.4c0.2-0.6,0.1-1.2-0.2-1.8c-0.3-0.5-0.8-0.9-1.4-1.1c-0.6-0.2-1.2-0.1-1.8,0.2
		c-19.4,10.8-30.1,5.5-41.5-0.1c-2-1-4.1-2-6.2-2.9c0,0-0.7-0.2-1.5-0.5l6.7-7.4V59.5h14.7v14.4L118.4,45l0.4,0.4l54.4,56.4
		c0.9,0.7,0.6,2.6-0.9,2.5l-10.6,0l-0.1,52.9c0,0.9-0.8,1.7-1.7,1.7H76.9c-0.9,0-1.7-0.8-1.7-1.7v-14.6c-1.5-0.7-3-1.4-4.5-2.2
		l-0.1,0v16.8c0,3.4,2.8,6.2,6.2,6.2h82.9c3.4,0,6.2-2.8,6.2-6.2l-0.2-48.4h7.1c3.4,0,5.7-1,6.4-3.3
		C180.2,103,179.7,101.9,176.8,98.8z"/>
</g>
</svg>
