<?xml version="1.0" encoding="utf-8"?>
<!-- Generator: Adobe Illustrator 21.0.2, SVG Export Plug-In . SVG Version: 6.00 Build 0)  -->
<svg version="1.0" id="Layer_1" xmlns="http://www.w3.org/2000/svg" xmlns:xlink="http://www.w3.org/1999/xlink" x="0px" y="0px"
	 viewBox="0 0 214.2 214.2" style="enable-background:new 0 0 214.2 214.2;" xml:space="preserve">
<style type="text/css">
	.st0{fill:#FFFFFF;}
</style>
<path class="st0" d="M176.3,60.9c-6.7-10.1-15.4-16-25.6-17.5c-8.9-1.3-19.1,0.8-29.6,6.1c-5.7,2.9-10,5.9-12,7.4
	c-3.3-2.2-12.5-7.7-23.7-10.6c-18.8-4.8-34.2,0.2-44.7,14.4c-14,19.2-10.3,43,11,70.8c16.8,21.9,39.8,40.1,50.8,48.9l1.4,1.1
	c1.6,1.3,3.1,1.9,4.4,1.9c1.6,0,3.2-0.8,4.9-2.1c11.9-8.9,34.3-26.9,50.6-48C185.6,105.3,189.7,80.9,176.3,60.9z M101.8,104.8v30
	l-27.4,0l0-44.8l-8.3,0l43.1-27.8l0.1,0.1l0,0L150.6,90l-7.7-0.1l-0.1,44.8l-28.4,0v-30H101.8z M160.6,130.8
	c-15.9,20.7-38,38.4-49.7,47.1c-2.2,1.7-2.6,1.6-4.1,0.3l-1.4-1.1c-10.9-8.6-33.6-26.6-50.1-48.1c-20.1-26.1-23.7-48.3-11-65.7
	c7.1-9.7,16.4-14.5,27.8-14.5c3.8,0,7.9,0.5,12.2,1.6c9.3,2.4,17.2,6.7,21.1,9.1L58,90.2c-0.8,0.5-1.1,1.5-0.9,2.4
	c0.3,0.9,1.1,1.5,2,1.5l10.9,0.1l0,42.7c0,1.2,1,2.1,2.1,2.1l72.7,0c0,0,0,0,0,0c1.2,0,2.1-0.9,2.1-2.1l0.1-42.7l10.3,0.1
	c0,0,0,0,0,0c0.9,0,1.7-0.6,2-1.5c0.3-0.9,0-1.9-0.8-2.4l-45.9-31c5.7-4.1,21.6-14.1,37.3-11.9c9,1.3,16.7,6.6,22.7,15.6
	C185.1,81.6,181,104.3,160.6,130.8z"/>
</svg>
