<?xml version="1.0" encoding="utf-8"?>
<!-- Generator: Adobe Illustrator 21.0.2, SVG Export Plug-In . SVG Version: 6.00 Build 0)  -->
<svg version="1.0" id="Layer_1" xmlns="http://www.w3.org/2000/svg" xmlns:xlink="http://www.w3.org/1999/xlink" x="0px" y="0px"
	 viewBox="0 0 214.2 214.2" style="enable-background:new 0 0 214.2 214.2;" xml:space="preserve">
<style type="text/css">
	.st0{fill:none;stroke:#FFFFFF;stroke-width:3.429;stroke-linecap:round;stroke-miterlimit:10;}
	.st1{fill:none;stroke:#FFFFFF;stroke-width:3.429;stroke-miterlimit:10;}
	.st2{fill:none;stroke:#FFFFFF;stroke-width:3.429;stroke-linecap:round;stroke-linejoin:round;stroke-miterlimit:10;}
	.st3{fill:#9ECF7C;}
</style>
<path class="st0" d="M104.7,182.5c-0.6-0.2-14-5.1-27.4-16.4c-18.2-15.3-27.8-35-27.8-57v-54h7.2c26.8,0,46.3-12.7,46.5-12.8
	l4.1-2.7l4,2.8c0.2,0.1,18.6,12.7,46.3,12.7h7.2v54c0,22.6-9.6,42.5-27.9,57.5c-13.5,11.1-27,15.7-27.6,15.8l-2.4,0.8L104.7,182.5z"
	/>
<path class="st0" d="M107.1,175.8c0,0,50.5-16.6,50.5-66.5c0-13.2,0-45.3,0-46.8c-30.6,0-50.5-14-50.5-14s-21,14-50.5,14
	c0,1.9,0,33.5,0,46.8C56.6,157.7,107.1,175.8,107.1,175.8z"/>
<g>
	<g>
		<path class="st0" d="M132.4,112.1V99.6h7.1c0.3,0,0.5-0.4,0.3-0.7l-11.8-7.5V79.1h-8.9l0,6.6l-11.7-7.5c-0.2-0.2-0.4-0.2-0.5,0
			L76.1,97.5c-0.2,0.2-0.1,0.7,0.3,0.7h7.3v37.2c0,0.4,0.3,0.7,0.7,0.7h47.4c0.4,0,0.7-0.3,0.7-0.7v-3.7"/>
		<rect x="102.3" y="112.1" class="st1" width="12.5" height="24"/>
	</g>
	<polyline class="st2" points="124.7,116.6 132.6,124.7 147.2,101.5 	"/>
</g>
<path class="st3" d="M97.4,133.7c0.2-0.1,0.4-0.1,0.6-0.2L97.4,133.7z"/>
</svg>
