<?xml version="1.0" encoding="utf-8"?>
<!-- Generator: Adobe Illustrator 21.1.0, SVG Export Plug-In . SVG Version: 6.00 Build 0)  -->
<svg version="1.0" id="Layer_1" xmlns="http://www.w3.org/2000/svg" xmlns:xlink="http://www.w3.org/1999/xlink" x="0px" y="0px"
	 viewBox="0 0 214.1 214.1" style="enable-background:new 0 0 214.1 214.1;" xml:space="preserve">
<style type="text/css">
	.st0{fill:#FFFFFF;}
</style>
<g>
	<path class="st0" d="M137.3,108.2c-10.9,0-19.6-4.3-28.1-8.4c-8.7-4.2-17.6-8.6-28.9-8.6c-9,0-18.5,2.8-28.9,8.6
		c-0.4,0.2-0.8,0.3-1.3,0.3c-0.2,0-0.5,0-0.7-0.1c-0.7-0.2-1.3-0.7-1.6-1.3c-0.3-0.6-0.4-1.4-0.2-2c0.2-0.7,0.6-1.3,1.3-1.6
		c11.2-6.3,21.5-9.3,31.6-9.3c12.6,0,22.5,4.9,31.2,9.1c8.3,4.1,16.1,7.9,25.8,7.9c2.7,0,5.4-0.3,8.2-0.9c5.3-1.2,10.9-3.4,17.1-6.8
		c0.4-0.2,0.8-0.3,1.3-0.3c0.2,0,0.5,0,0.7,0.1c0.7,0.2,1.3,0.7,1.6,1.3c0.3,0.6,0.4,1.4,0.2,2s-0.6,1.3-1.3,1.6
		c-6.6,3.7-12.7,6.1-18.5,7.4C143.6,107.9,140.4,108.2,137.3,108.2z"/>
	<path class="st0" d="M137.3,134c-10.9,0-19.6-4.3-28-8.4c-8.7-4.2-17.6-8.6-28.9-8.6c-9,0-18.5,2.8-28.9,8.6
		c-0.4,0.2-0.9,0.3-1.3,0.3c-0.2,0-0.5,0-0.7-0.1c-0.7-0.2-1.3-0.7-1.6-1.3c-0.7-1.3-0.3-2.9,1-3.7c11.2-6.3,21.5-9.3,31.6-9.3
		c12.6,0,22.5,4.9,31.2,9.1c8.3,4,16.1,7.9,25.7,7.9c7.8,0,16-2.5,25.4-7.7c0.4-0.2,0.8-0.3,1.3-0.3c1,0,1.9,0.5,2.4,1.4
		c0.4,0.6,0.4,1.4,0.2,2c-0.2,0.7-0.6,1.3-1.3,1.6C155.2,131.2,146,134,137.3,134L137.3,134z"/>
	<path class="st0" d="M137.3,159.8c-10.9,0-19.6-4.3-28-8.4c-8.7-4.2-17.6-8.6-28.9-8.6c-9,0-18.5,2.8-28.9,8.6
		c-0.4,0.2-0.8,0.3-1.3,0.3c-1,0-1.9-0.5-2.4-1.4c-0.7-1.3-0.3-2.9,1-3.7c11.2-6.3,21.5-9.3,31.6-9.3c12.6,0,22.5,4.9,31.2,9.1
		c8.3,4,16.1,7.9,25.7,7.9c7.8,0,16-2.5,25.4-7.7c0.4-0.2,0.9-0.3,1.3-0.3c0.2,0,0.5,0,0.7,0.1c0.7,0.2,1.3,0.7,1.6,1.3
		c0.7,1.3,0.3,2.9-1,3.7C155.2,157,146,159.8,137.3,159.8L137.3,159.8z"/>
	<path class="st0" d="M156.2,63.2H140V47.3c0-1.2-1-2.3-2.3-2.3c-1.3,0-2.3,1-2.3,2.3v15.9h-16.1c-1.2,0-2.3,1-2.3,2.2
		c0,1.2,1,2.2,2.3,2.2h16.1v15.9c0,1.3,1,2.3,2.3,2.3c1.2,0,2.3-1,2.3-2.3V67.5h16.2c1.2,0,2.2-1,2.2-2.2
		C158.4,64.1,157.4,63.2,156.2,63.2z"/>
</g>
</svg>
