<?xml version="1.0" encoding="utf-8"?>
<!-- Generator: Adobe Illustrator 21.0.2, SVG Export Plug-In . SVG Version: 6.00 Build 0)  -->
<svg version="1.0" id="Layer_1" xmlns="http://www.w3.org/2000/svg" xmlns:xlink="http://www.w3.org/1999/xlink" x="0px" y="0px"
	 viewBox="0 0 214.1 214.1" style="enable-background:new 0 0 214.1 214.1;" xml:space="preserve">
<style type="text/css">
	.st0{fill:#FFFFFF;}
</style>
<g>
	<path class="st0" d="M150.8,166.5c0.1-0.3,0.1-0.6,0.1-0.8V48.2c0-2.5-2-4.5-4.5-4.5H66.9c-2.5,0-4.5,2-4.5,4.5v117.5
		c0,0.3,0,0.6,0.1,0.8h-8.2v4.5h105.6v-4.5H150.8z M66.9,109.6h37.6v56.1H66.9V109.6z M109,109.6h37.4v56.1H109V109.6z M116.4,68.5
		c-0.5-0.8-1.6-1.1-2.4-0.6l-5,3V56.1h2c1,0,1.8-0.8,1.8-1.8s-0.8-1.8-1.8-1.8h-2v-4.4h8.5c-0.3,1.6-0.5,3.2-0.5,4.9
		c0,13.5,11,24.5,24.5,24.5c1.7,0,3.3-0.2,5-0.5V105H109V75l6.8-4.1C116.7,70.4,116.9,69.3,116.4,68.5z M146.4,72.9
		c-1.6,0.4-3.3,0.6-5,0.6c-11.3,0-20.5-9.2-20.5-20.5c0-1.6,0.2-3.3,0.6-4.9h24.9V72.9z M104.5,48.2v4.4h-8c-1,0-1.8,0.8-1.8,1.8
		s0.8,1.8,1.8,1.8h8v17.5l-3.1,1.9c-0.8,0.5-1.1,1.6-0.6,2.4c0.3,0.5,0.9,0.8,1.5,0.8c0.3,0,0.6-0.1,0.9-0.3l1.3-0.8V105H66.9V48.2
		H104.5z"/>
	<path class="st0" d="M117.5,94.3c0.3,0.2,0.6,0.2,0.9,0.2c0.6,0,1.2-0.3,1.5-0.9l7.5-12.7c0.5-0.8,0.2-1.9-0.6-2.4
		c-0.8-0.5-1.9-0.2-2.4,0.6l-7.5,12.7C116.4,92.7,116.7,93.8,117.5,94.3z"/>
	<path class="st0" d="M140.7,100.3C140.8,100.3,140.8,100.3,140.7,100.3c1,0,1.8-0.8,1.8-1.8L142.4,84c0-1-0.8-1.7-1.8-1.7
		c-1,0-1.8,0.8-1.7,1.8l0.1,14.5C139,99.5,139.8,100.3,140.7,100.3z"/>
</g>
</svg>
