<?xml version="1.0" encoding="utf-8"?>
<!-- Generator: Adobe Illustrator 21.0.2, SVG Export Plug-In . SVG Version: 6.00 Build 0)  -->
<svg version="1.0" id="Layer_1" xmlns="http://www.w3.org/2000/svg" xmlns:xlink="http://www.w3.org/1999/xlink" x="0px" y="0px"
	 viewBox="0 0 214.2 214.2" style="enable-background:new 0 0 214.2 214.2;" xml:space="preserve">
<style type="text/css">
	.st0{fill:none;}
	.st1{fill:#FFFFFF;}
</style>
<g>
	<polygon class="st0" points="165.4,94.2 165.4,94.2 165.4,94.2 	"/>
	<path class="st1" d="M163.1,63.9l-8.7,0l0-8c0-1.4-0.6-2.8-1.6-3.8c-1-1-2.3-1.6-3.8-1.6l-90-0.4c-1.4,0-2.8,0.5-3.8,1.5
		c-1,1-1.5,2.3-1.5,3.8l0.1,24c0,1.4,0.6,2.7,1.6,3.8c1,1,2.4,1.6,3.8,1.6l90,0.4c1.4,0,2.8-0.5,3.8-1.5c1-1,1.6-2.3,1.5-3.8
		l-0.1-11.3l8.7,0c0.4,0,0.8,0.3,0.8,0.8l0.1,19.8c0,0.1,0,0.1,0,0.2l0,0.3l-0.3,0.4l-0.1,0l-60.3,22.5c-0.9,0.4-1.5,1.3-1.5,2.2
		l0.1,18.9l-5.7,0c-1.5,0-2.9,0.6-4,1.6c-1.1,1.1-1.7,2.5-1.6,4l0.2,37.2c0,3.1,2.6,5.7,5.7,5.7l16.2,0.1c1.5,0,2.9-0.6,4-1.6
		c1.1-1.1,1.7-2.5,1.6-4l-0.2-37.2c0-3.1-2.6-5.7-5.7-5.7l-5.7,0l-0.1-17.3l59.1-22c2-0.9,3.3-3.1,3.1-5.3l-0.1-19.8
		C168.6,66.4,166.1,64,163.1,63.9z M58.6,80.1L58.5,55l91.1,0.4l0.1,25.1L58.6,80.1z M112.3,138.6c0.5,0,0.9,0.4,0.9,0.9l0.2,37.2
		c0,0.2,0,0.4-0.3,0.6c-0.2,0.2-0.4,0.3-0.6,0.3l-4.9,0v-32.3c-0.2-0.2,0.1-1.8-1.3-1.8c-2-0.1-1.6,1.5-1.6,1.5v32.6l-8.4-0.1
		c-0.5,0-0.9-0.4-0.9-0.9l-0.2-37.2c0-0.2,0.1-0.5,0.3-0.6c0.2-0.2,0.4-0.3,0.6-0.3L112.3,138.6z M165.4,94.2L165.4,94.2L165.4,94.2
		L165.4,94.2z"/>
</g>
</svg>
