<?xml version="1.0" encoding="utf-8"?>
<!-- Generator: Adobe Illustrator 21.1.0, SVG Export Plug-In . SVG Version: 6.00 Build 0)  -->
<svg version="1.0" id="Layer_1" xmlns="http://www.w3.org/2000/svg" xmlns:xlink="http://www.w3.org/1999/xlink" x="0px" y="0px"
	 viewBox="0 0 252 251.9" style="enable-background:new 0 0 252 251.9;" xml:space="preserve">
<style type="text/css">
	.st0{fill:#FFFFFF;}
</style>
<path class="st0" d="M163.2,127.2c-9.9-9.6-23.4-15-37.3-15c-13.8,0-27.3,5.4-37.1,14.9l-6.9-6.9c12.6-11.7,27.8-17.8,44.1-17.8
	c16,0,32,6.5,44.2,17.9L163.2,127.2z"/>
<path class="st0" d="M125.9,135.6c7.7,0,15,2.9,20.7,8.2c1.7-1.7,5.2-5.2,7-7c-7.5-6.9-17.7-11-27.7-11c-10.1,0-20.1,3.9-27.5,10.8
	l6.9,7C111.2,138.5,118.4,135.6,125.9,135.6"/>
<path class="st0" d="M115.2,153.4c3.2-2.7,7.1-4.2,11.1-4.2c3.9,0,7.6,1.4,10.8,4.2l-10.9,10.9L115.2,153.4z"/>
<path class="st0" d="M125.7,49.7c-0.6,0-1.2,0.2-1.7,0.6l-65.6,58.4c-0.5,0.5-0.8,1.1-0.8,1.8V184c0,1.4,1.1,2.5,2.5,2.5h131.8
	c1.4,0,2.5-1.1,2.5-2.5v-73.4c0-0.7-0.3-1.4-0.8-1.9l-66.2-58.4C126.9,49.9,126.3,49.7,125.7,49.7 M60.1,192.7
	c-4.8,0-8.7-3.9-8.7-8.7v-73.5c0-2.6,1.2-5.1,3.2-6.8l65.6-58.4c1.5-1.2,3.4-1.9,5.4-1.9c2,0,3.9,0.7,5.5,1.9l66.1,58.3
	c2.2,1.7,3.4,4.2,3.4,6.9V184c0,4.8-3.9,8.7-8.8,8.7H60.1z"/>
</svg>
