<?xml version="1.0" encoding="utf-8"?>
<!-- Generator: Adobe Illustrator 21.0.2, SVG Export Plug-In . SVG Version: 6.00 Build 0)  -->
<svg version="1.0" id="Layer_1" xmlns="http://www.w3.org/2000/svg" xmlns:xlink="http://www.w3.org/1999/xlink" x="0px" y="0px"
	 viewBox="0 0 214.1 214.1" style="enable-background:new 0 0 214.1 214.1;" xml:space="preserve">
<style type="text/css">
	.st0{fill:#FFFFFF;}
</style>
<g>
	<g>
		<path class="st0" d="M66.4,50.9c0,3.3,18.7,6,41.7,6c23,0,41.7-2.7,41.7-6c0-3.3-18.7-6-41.7-6C85.1,44.9,66.4,47.6,66.4,50.9
			 M108.1,49.2c7.5,0,13.6,0.9,13.6,1.9c0,1-6.1,1.9-13.6,1.9c-7.5,0-13.6-0.9-13.6-1.9C94.6,50,100.6,49.2,108.1,49.2"/>
	</g>
	<g>
		<path class="st0" d="M103,77.1H76.4c-0.5,0-0.9-0.4-0.9-0.9c0-0.5,0.4-0.9,0.9-0.9H103c0.5,0,0.9,0.4,0.9,0.9
			C103.9,76.7,103.5,77.1,103,77.1z"/>
		<path class="st0" d="M103,83.6H76.4c-0.5,0-0.9-0.4-0.9-0.9c0-0.5,0.4-0.9,0.9-0.9H103c0.5,0,0.9,0.4,0.9,0.9
			C103.9,83.2,103.5,83.6,103,83.6z"/>
		<path class="st0" d="M103,90.1H76.4c-0.5,0-0.9-0.4-0.9-0.9c0-0.5,0.4-0.9,0.9-0.9H103c0.5,0,0.9,0.4,0.9,0.9
			C103.9,89.7,103.5,90.1,103,90.1z"/>
		<path class="st0" d="M103,96.5H76.4c-0.5,0-0.9-0.4-0.9-0.9s0.4-0.9,0.9-0.9H103c0.5,0,0.9,0.4,0.9,0.9S103.5,96.5,103,96.5z"/>
		<path class="st0" d="M103,103H76.4c-0.5,0-0.9-0.4-0.9-0.9c0-0.5,0.4-0.9,0.9-0.9H103c0.5,0,0.9,0.4,0.9,0.9
			C103.9,102.6,103.5,103,103,103z"/>
		<path class="st0" d="M103,109.5H76.4c-0.5,0-0.9-0.4-0.9-0.9c0-0.5,0.4-0.9,0.9-0.9H103c0.5,0,0.9,0.4,0.9,0.9
			C103.9,109.1,103.5,109.5,103,109.5z"/>
		<path class="st0" d="M103,116H76.4c-0.5,0-0.9-0.4-0.9-0.9c0-0.5,0.4-0.9,0.9-0.9H103c0.5,0,0.9,0.4,0.9,0.9
			C103.9,115.6,103.5,116,103,116z"/>
		<path class="st0" d="M103,122.5H76.4c-0.5,0-0.9-0.4-0.9-0.9c0-0.5,0.4-0.9,0.9-0.9H103c0.5,0,0.9,0.4,0.9,0.9
			C103.9,122.1,103.5,122.5,103,122.5z"/>
		<path class="st0" d="M103,128.9H76.4c-0.5,0-0.9-0.4-0.9-0.9c0-0.5,0.4-0.9,0.9-0.9H103c0.5,0,0.9,0.4,0.9,0.9
			C103.9,128.5,103.5,128.9,103,128.9z"/>
		<path class="st0" d="M103,135.4H76.4c-0.5,0-0.9-0.4-0.9-0.9c0-0.5,0.4-0.9,0.9-0.9H103c0.5,0,0.9,0.4,0.9,0.9
			C103.9,135,103.5,135.4,103,135.4z"/>
		<path class="st0" d="M103,141.9H76.4c-0.5,0-0.9-0.4-0.9-0.9c0-0.5,0.4-0.9,0.9-0.9H103c0.5,0,0.9,0.4,0.9,0.9
			C103.9,141.5,103.5,141.9,103,141.9z"/>
		<path class="st0" d="M103,148.4H76.4c-0.5,0-0.9-0.4-0.9-0.9c0-0.5,0.4-0.9,0.9-0.9H103c0.5,0,0.9,0.4,0.9,0.9
			C103.9,148,103.5,148.4,103,148.4z"/>
		<path class="st0" d="M103,154.8H76.4c-0.5,0-0.9-0.4-0.9-0.9s0.4-0.9,0.9-0.9H103c0.5,0,0.9,0.4,0.9,0.9S103.5,154.8,103,154.8z"
			/>
		<path class="st0" d="M103,161.3H76.4c-0.5,0-0.9-0.4-0.9-0.9c0-0.5,0.4-0.9,0.9-0.9H103c0.5,0,0.9,0.4,0.9,0.9
			C103.9,160.9,103.5,161.3,103,161.3z"/>
	</g>
	<g>
		<path class="st0" d="M139.8,77.1h-26.7c-0.5,0-0.9-0.4-0.9-0.9c0-0.5,0.4-0.9,0.9-0.9h26.7c0.5,0,0.9,0.4,0.9,0.9
			C140.6,76.7,140.2,77.1,139.8,77.1z"/>
		<path class="st0" d="M139.8,83.6h-26.7c-0.5,0-0.9-0.4-0.9-0.9c0-0.5,0.4-0.9,0.9-0.9h26.7c0.5,0,0.9,0.4,0.9,0.9
			C140.6,83.2,140.2,83.6,139.8,83.6z"/>
		<path class="st0" d="M139.8,90.1h-26.7c-0.5,0-0.9-0.4-0.9-0.9c0-0.5,0.4-0.9,0.9-0.9h26.7c0.5,0,0.9,0.4,0.9,0.9
			C140.6,89.7,140.2,90.1,139.8,90.1z"/>
		<path class="st0" d="M139.8,96.5h-26.7c-0.5,0-0.9-0.4-0.9-0.9c0-0.5,0.4-0.9,0.9-0.9h26.7c0.5,0,0.9,0.4,0.9,0.9
			C140.6,96.2,140.2,96.5,139.8,96.5z"/>
		<path class="st0" d="M139.8,103h-26.7c-0.5,0-0.9-0.4-0.9-0.9c0-0.5,0.4-0.9,0.9-0.9h26.7c0.5,0,0.9,0.4,0.9,0.9
			C140.6,102.6,140.2,103,139.8,103z"/>
		<path class="st0" d="M139.8,109.5h-26.7c-0.5,0-0.9-0.4-0.9-0.9c0-0.5,0.4-0.9,0.9-0.9h26.7c0.5,0,0.9,0.4,0.9,0.9
			C140.6,109.1,140.2,109.5,139.8,109.5z"/>
		<path class="st0" d="M139.8,116h-26.7c-0.5,0-0.9-0.4-0.9-0.9c0-0.5,0.4-0.9,0.9-0.9h26.7c0.5,0,0.9,0.4,0.9,0.9
			C140.6,115.6,140.2,116,139.8,116z"/>
		<path class="st0" d="M139.8,122.5h-26.7c-0.5,0-0.9-0.4-0.9-0.9c0-0.5,0.4-0.9,0.9-0.9h26.7c0.5,0,0.9,0.4,0.9,0.9
			C140.6,122.1,140.2,122.5,139.8,122.5z"/>
		<path class="st0" d="M139.8,128.9h-26.7c-0.5,0-0.9-0.4-0.9-0.9c0-0.5,0.4-0.9,0.9-0.9h26.7c0.5,0,0.9,0.4,0.9,0.9
			C140.6,128.5,140.2,128.9,139.8,128.9z"/>
		<path class="st0" d="M139.8,135.4h-26.7c-0.5,0-0.9-0.4-0.9-0.9c0-0.5,0.4-0.9,0.9-0.9h26.7c0.5,0,0.9,0.4,0.9,0.9
			C140.6,135,140.2,135.4,139.8,135.4z"/>
		<path class="st0" d="M139.8,141.9h-26.7c-0.5,0-0.9-0.4-0.9-0.9c0-0.5,0.4-0.9,0.9-0.9h26.7c0.5,0,0.9,0.4,0.9,0.9
			C140.6,141.5,140.2,141.9,139.8,141.9z"/>
		<path class="st0" d="M139.8,148.4h-26.7c-0.5,0-0.9-0.4-0.9-0.9c0-0.5,0.4-0.9,0.9-0.9h26.7c0.5,0,0.9,0.4,0.9,0.9
			C140.6,148,140.2,148.4,139.8,148.4z"/>
		<path class="st0" d="M139.8,154.8h-26.7c-0.5,0-0.9-0.4-0.9-0.9c0-0.5,0.4-0.9,0.9-0.9h26.7c0.5,0,0.9,0.4,0.9,0.9
			C140.6,154.5,140.2,154.8,139.8,154.8z"/>
		<path class="st0" d="M139.8,161.3h-26.7c-0.5,0-0.9-0.4-0.9-0.9c0-0.5,0.4-0.9,0.9-0.9h26.7c0.5,0,0.9,0.4,0.9,0.9
			C140.6,160.9,140.2,161.3,139.8,161.3z"/>
	</g>
	<path class="st0" d="M162.5,55.7l-4.6-12.9c-0.4-1.3-1.4-2.2-2.7-2.6l-9.1-2.9c-0.4-0.1-0.9-0.2-1.3-0.2H71.2
		c-0.5,0-0.9,0.1-1.3,0.2l-9,2.9c-1.3,0.4-2.3,1.4-2.7,2.6l-4.6,12.9c-0.2,0.5-0.2,0.9-0.2,1.4v108.9c0,1.5,0.8,3,2.2,3.7l9.9,5.6
		c0.6,0.4,1.4,0.6,2.1,0.6h81c0.7,0,1.5-0.2,2.1-0.6l9.9-5.6c1.3-0.8,2.2-2.2,2.2-3.7V57.2C162.7,56.7,162.6,56.2,162.5,55.7z
		 M62.2,44.3l9-2.9h73.7l9.1,2.9l4.5,12.8l-10.1,4.7H67.8l-10.1-4.7L62.2,44.3z M68.4,63.5h79.3v108.2H68.4V63.5z M57.7,166.1V59
		l9,4.2v108L57.7,166.1z M149.4,171.2v-108l9-4.2v107.1L149.4,171.2z"/>
</g>
</svg>
