<?xml version="1.0" encoding="utf-8"?>
<!-- Generator: Adobe Illustrator 21.0.2, SVG Export Plug-In . SVG Version: 6.00 Build 0)  -->
<svg version="1.0" id="Layer_1" xmlns="http://www.w3.org/2000/svg" xmlns:xlink="http://www.w3.org/1999/xlink" x="0px" y="0px"
	 viewBox="0 0 214.2 214.2" style="enable-background:new 0 0 214.2 214.2;" xml:space="preserve">
<style type="text/css">
	.st0{fill:none;stroke:#FFFFFF;stroke-width:5.2097;stroke-linecap:round;stroke-linejoin:round;stroke-miterlimit:10;}
	.st1{fill:#FFFFFF;}
</style>
<path class="st0" d="M24.6,131c16.1-6.6,47.7-17.1,83.9-17.1c34,0,63.9,9.3,80.8,15.8"/>
<path class="st0" d="M138.6,146.7c15.5-10,25.7-27.4,25.7-47.1c0-31-25.1-56.1-56.1-56.1S52.2,68.6,52.2,99.5
	c0,19.4,9.8,36.5,24.8,46.5c0.6,0.4,1.2,0.8,1.8,1.2c0,0,11.5-2.7,30.5-2.7S138.6,146.7,138.6,146.7z"/>
<g>
	<path class="st1" d="M109,68.4c1.7,0,3.1,1.4,3.1,3.1v1.6c4.2,0.5,7.8,1.9,11.2,4c1.2,0.6,2.2,1.7,2.2,3.5c0,2.2-1.8,4-4,4
		c-0.7,0-1.4-0.2-2.2-0.6c-2.5-1.5-5-2.6-7.4-3.2v13.8c10.9,2.7,15.6,7.1,15.6,14.8c0,7.9-6.2,13.2-15.3,14v4.3
		c0,1.7-1.4,3.1-3.1,3.1c-1.7,0-3.2-1.4-3.2-3.1v-4.5c-5.4-0.6-10.4-2.5-14.8-5.6c-1.2-0.8-1.9-1.9-1.9-3.5c0-2.2,1.7-4,4-4
		c0.9,0,1.7,0.3,2.4,0.8c3.4,2.4,6.7,4.1,10.7,4.8v-14.2c-10.5-2.7-15.4-6.7-15.4-14.8c0-7.7,6.1-13,15.1-13.8v-1.5
		C105.8,69.7,107.3,68.4,109,68.4z M106.1,92.9V80.2c-4.6,0.4-6.9,2.9-6.9,6C99.2,89.3,100.6,91.1,106.1,92.9z M111.8,102.9V116
		c4.6-0.5,7.1-2.8,7.1-6.3C118.9,106.6,117.3,104.7,111.8,102.9z"/>
</g>
<path class="st0" d="M149.9,138.1c11.6,2.5,17.3,5.7,17.3,5.7l6.5,13.8c0,0-30.7-13-64.4-13s-67.4,13-67.4,13l6.5-13.8
	c0,0,8.2-3.5,18.7-5.8"/>
</svg>
