<?xml version="1.0" encoding="utf-8"?>
<!-- Generator: Adobe Illustrator 21.0.2, SVG Export Plug-In . SVG Version: 6.00 Build 0)  -->
<svg version="1.0" id="Layer_1" xmlns="http://www.w3.org/2000/svg" xmlns:xlink="http://www.w3.org/1999/xlink" x="0px" y="0px"
	 viewBox="0 0 214.2 214.2" style="enable-background:new 0 0 214.2 214.2;" xml:space="preserve">
<style type="text/css">
	.st0{fill:#FFFFFF;}
</style>
<g>
	<path class="st0" d="M51,75.9v62.4c0,1.2,1,2.3,2.3,2.3c1.2,0,2.3-1,2.3-2.3V75.9c0-1.2-1-2.3-2.3-2.3C52,73.7,51,74.7,51,75.9z"/>
	<path class="st0" d="M67.5,75.9v62.4c0,1.2,1,2.3,2.3,2.3s2.3-1,2.3-2.3V75.9c0-1.2-1-2.3-2.3-2.3S67.5,74.7,67.5,75.9z"/>
	<path class="st0" d="M84.1,75.9v62.4c0,1.2,1,2.3,2.3,2.3s2.3-1,2.3-2.3V75.9c0-1.2-1-2.3-2.3-2.3S84.1,74.7,84.1,75.9z"/>
	<path class="st0" d="M100.6,75.9v62.4c0,1.2,1,2.3,2.3,2.3c1.2,0,2.3-1,2.3-2.3V75.9c0-1.2-1-2.3-2.3-2.3
		C101.7,73.7,100.6,74.7,100.6,75.9z"/>
	<path class="st0" d="M117.2,75.9v62.4c0,1.2,1,2.3,2.3,2.3s2.3-1,2.3-2.3V75.9c0-1.2-1-2.3-2.3-2.3S117.2,74.7,117.2,75.9z"/>
	<path class="st0" d="M138.3,83.3v-7.4c0-1.2-1-2.3-2.3-2.3c-1.2,0-2.3,1-2.3,2.3v7.4c0,1.2,1,2.3,2.3,2.3
		C137.3,85.6,138.3,84.5,138.3,83.3z"/>
	<path class="st0" d="M154.8,85.9v-9.9c0-1.2-1-2.3-2.3-2.3s-2.3,1-2.3,2.3v9.9c0,1.2,1,2.3,2.3,2.3S154.8,87.1,154.8,85.9z"/>
	<path class="st0" d="M138.3,138.3v-7.6c0-1.2-1-2.3-2.3-2.3c-1.2,0-2.3,1-2.3,2.3v7.6c0,1.2,1,2.3,2.3,2.3
		C137.3,140.6,138.3,139.6,138.3,138.3z"/>
	<path class="st0" d="M154.8,138.3v-5.9c0-1.2-1-2.3-2.3-2.3s-2.3,1-2.3,2.3v5.9c0,1.2,1,2.3,2.3,2.3S154.8,139.6,154.8,138.3z"/>
	<path class="st0" d="M130.4,88.6c-0.4-0.2-0.7-0.3-1.1-0.3c-0.2,0-0.4,0-0.6,0.1c-0.6,0.2-1.1,0.6-1.4,1.1
		c-0.3,0.5-0.4,1.2-0.2,1.8c0.2,0.6,0.6,1.1,1.1,1.4c7,3.9,13.4,5.8,19.6,5.8c7.7,0,14-3.1,19.5-5.8c9.5-4.7,18.6-9.1,34.8-0.1
		c1.1,0.6,2.6,0.2,3.2-0.9c0.3-0.5,0.4-1.2,0.2-1.8c-0.2-0.6-0.6-1.1-1.1-1.4c-18.4-10.2-29.4-4.8-39.1-0.1
		C155.6,93.2,146.6,97.6,130.4,88.6z"/>
	<path class="st0" d="M204.3,102.7c-18.4-10.2-29.4-4.8-39.1-0.1c-9.5,4.7-18.5,9.1-34.8,0.1c-0.4-0.2-0.7-0.3-1.1-0.3
		c-0.2,0-0.4,0-0.6,0.1c-0.6,0.2-1.1,0.6-1.4,1.1c-0.3,0.5-0.4,1.2-0.2,1.8c0.2,0.6,0.6,1.1,1.1,1.4c7,3.9,13.4,5.8,19.6,5.8
		c7.7,0,14-3.1,19.5-5.8c9.5-4.7,18.6-9.1,34.8-0.1c1.1,0.6,2.6,0.2,3.2-0.9c0.3-0.5,0.4-1.2,0.2-1.8
		C205.2,103.5,204.8,103,204.3,102.7z"/>
	<path class="st0" d="M204.3,117.1c-18.4-10.2-29.4-4.8-39.1-0.1c-9.5,4.7-18.5,9.1-34.8,0.1c-0.4-0.2-0.7-0.3-1.1-0.3
		c-0.2,0-0.4,0-0.6,0.1c-0.6,0.2-1.1,0.6-1.4,1.1c-0.3,0.5-0.4,1.2-0.2,1.8s0.6,1.1,1.1,1.4c7,3.9,13.4,5.8,19.6,5.8
		c7.7,0,14-3.1,19.5-5.8c0.1-0.1,0.3-0.1,0.4-0.2c0.1,0,0.2-0.1,0.3-0.1c0.1,0,0.2-0.1,0.3-0.1v0.3v0.3v25c0,1.8-1.5,3.8-3.6,3.8
		H42.1c-2.1,0-3.6-2-3.6-3.8V68.8c0-1.8,1.5-3.8,3.6-3.8h122.6c2.1,0,3.6,2,3.6,3.8V82l4.3-2.1V69.1c0-6.1-4.1-8.3-7.9-8.3H42.2
		c-3.8,0-7.9,2.2-7.9,8.3v77.1c0,6.1,4.1,8.3,7.9,8.3h122.4c3.8,0,7.9-2.2,7.9-8.3v-26.7v-0.3v-0.3c0.1,0,0.2-0.1,0.3-0.1
		c0.1,0,0.2-0.1,0.3-0.1c7.7-3.2,16-4.5,28.9,2.7c1.1,0.6,2.6,0.2,3.2-0.9c0.3-0.5,0.4-1.2,0.2-1.8
		C205.2,117.9,204.8,117.4,204.3,117.1z"/>
</g>
</svg>
