<?xml version="1.0" encoding="utf-8"?>
<!-- Generator: Adobe Illustrator 21.0.2, SVG Export Plug-In . SVG Version: 6.00 Build 0)  -->
<svg version="1.0" id="Layer_1" xmlns="http://www.w3.org/2000/svg" xmlns:xlink="http://www.w3.org/1999/xlink" x="0px" y="0px"
	 viewBox="0 0 214.1 214.1" style="enable-background:new 0 0 214.1 214.1;" xml:space="preserve">
<style type="text/css">
	.st0{fill:#FFFFFF;}
</style>
<g>
	<path class="st0" d="M190,115.9l-43.3-32.2c-1-0.7-2.3-0.7-3.2,0.1l-23,18.8l-9-7.9c-0.9-0.8-2.3-0.9-3.3-0.1l-10.8,8.1L74.1,83.7
		c-0.9-0.8-2.3-0.8-3.2-0.1l-43.3,32.2c-1.2,0.9-1.4,2.5-0.5,3.7c0.5,0.7,1.3,1.1,2.1,1.1c0.5,0,1.1-0.2,1.6-0.5l8.3-6.2v44.3
		c0,1.4,1.2,2.6,2.6,2.6h24.7c1.4,0,2.6-1.2,2.6-2.6s-1.2-2.6-2.6-2.6H44.2V110l28.2-21l20.5,16.7l-28.2,20.9
		c-1.2,0.9-1.4,2.5-0.5,3.7c0.5,0.7,1.3,1.1,2.1,1.1c0.5,0,1.1-0.2,1.6-0.5l8-5.9v43.9c0,1.4,1.2,2.6,2.6,2.6h57.8
		c1.4,0,2.6-1.2,2.6-2.6v-43.3l5.9,5.2c1.1,1,2.7,0.8,3.7-0.2c1-1.1,0.8-2.7-0.2-3.7L124.4,106L145.2,89l28.2,21v45.6h-22.1
		c-1.4,0-2.6,1.2-2.6,2.6s1.2,2.6,2.6,2.6H176c1.4,0,2.6-1.2,2.6-2.6v-44.3l8.3,6.2c0.5,0.3,1,0.5,1.6,0.5c0.8,0,1.6-0.4,2.1-1.1
		C191.4,118.4,191.1,116.7,190,115.9z M113.3,166.3h-10.5V145h10.5V166.3z M133.6,122.1v44.1h-15.1v-23.8c0-1.4-1.2-2.6-2.6-2.6
		h-15.7c-1.4,0-2.6,1.2-2.6,2.6v23.8H81.1v-45.2l17-12.7c0.5-0.2,0.9-0.4,1.2-0.8c0,0,0.1-0.1,0.1-0.1l10.1-7.5l8.7,7.7c0,0,0,0,0,0
		c0.2,0.2,0.4,0.4,0.6,0.5l14.9,13C133.6,121.4,133.6,121.8,133.6,122.1z"/>
	<path class="st0" d="M44.5,79c0.5,0,1.1-0.2,1.6-0.5L73.6,58l19.6,15.4c0,0,0,0,0,0L82.7,82c-1.1,0.9-1.3,2.6-0.4,3.7
		c0.5,0.6,1.3,1,2,1c0.6,0,1.2-0.2,1.7-0.6l23.2-18.9l21.5,16c1.2,0.9,2.8,0.6,3.7-0.5c0.9-1.2,0.6-2.8-0.5-3.7l-8.4-6.2L144.4,58
		l27.5,20.5c0.5,0.3,1,0.5,1.6,0.5c0.8,0,1.6-0.4,2.1-1.1c0.9-1.2,0.6-2.8-0.5-3.7l-29.1-21.7c-0.9-0.7-2.3-0.7-3.2,0l-21.2,16.6
		c-0.1,0.1-0.2,0.2-0.3,0.2l-10.5-7.8c-1-0.7-2.3-0.7-3.2,0.1l-10.3,8.4c-0.2-0.3-0.4-0.7-0.7-0.9L75.3,52.7c-0.9-0.7-2.2-0.7-3.2,0
		L43,74.3c-1.2,0.9-1.4,2.5-0.5,3.7C42.9,78.6,43.7,79,44.5,79z"/>
	<path class="st0" d="M87.5,50l19.8-15.5l21.6,16c0.5,0.3,1,0.5,1.6,0.5c0.8,0,1.6-0.4,2.1-1.1c0.9-1.2,0.6-2.8-0.5-3.7L108.8,29
		c-0.9-0.7-2.3-0.7-3.2,0L84.2,45.8c-1.1,0.9-1.3,2.5-0.4,3.7C84.7,50.6,86.3,50.8,87.5,50z"/>
</g>
</svg>
