<?xml version="1.0" encoding="utf-8"?>
<!-- Generator: Adobe Illustrator 21.0.2, SVG Export Plug-In . SVG Version: 6.00 Build 0)  -->
<svg version="1.0" id="Layer_1" xmlns="http://www.w3.org/2000/svg" xmlns:xlink="http://www.w3.org/1999/xlink" x="0px" y="0px"
	 viewBox="0 0 214.2 214.2" style="enable-background:new 0 0 214.2 214.2;" xml:space="preserve">
<style type="text/css">
	.st0{fill:#FFFFFF;}
</style>
<g>
	<path class="st0" d="M169.5,83.7L157.4,76V54.4c0-3.6-3-6.6-6.6-6.6h-15.7v-6.6c0-1.4-1.1-2.5-2.5-2.5c-1.4,0-2.5,1.1-2.5,2.5v6.6
		H83.9v-6.6c0-1.4-1.1-2.5-2.5-2.5c-1.4,0-2.5,1.1-2.5,2.5v6.6H63.2c-3.6,0-6.6,3-6.6,6.6v105.8c0,3.6,3,6.6,6.6,6.6H98l-1.6,16.3
		c-0.1,1.3,0.4,2,1.2,2c0.4,0,0.8-0.1,1.3-0.4l14.5-8.7c1.6-0.9,3.6-3,4.6-4.5l2.9-4.6h30c3.6,0,6.6-3,6.6-6.6V109l13.1-20.7
		C171.5,86.7,171.1,84.7,169.5,83.7z M63.2,52.7h15.7v5c0,1.4,1.1,2.5,2.5,2.5c1.4,0,2.5-1.1,2.5-2.5v-5h46.3v5
		c0,1.4,1.1,2.5,2.5,2.5c1.4,0,2.5-1.1,2.5-2.5v-5h15.7c0.9,0,1.7,0.8,1.7,1.7v10.7H61.6V54.4C61.6,53.5,62.3,52.7,63.2,52.7z
		 M61.6,160.2V70.1h90.9v7.4l-3.3,5.3l-2.5-1.6c-1-0.6-2-0.9-3.1-0.9c-1.9,0-3.8,0.9-4.9,2.7l-15.1,23.8c-0.7,1.2-0.4,2.7,0.8,3.4
		c1.2,0.7,2.7,0.4,3.4-0.8l15.1-23.8c0.1-0.2,0.4-0.4,0.7-0.4c0.2,0,0.3,0,0.4,0.1l2.5,1.6l-46.3,73.2c-0.3,0.5-0.6,1-0.8,1.6H63.2
		C62.3,161.8,61.6,161.1,61.6,160.2z M110.7,171.7L102,177l1-10.2c0.1-0.6,0.3-1.6,0.7-2.5l9,5.7
		C112.1,170.7,111.3,171.4,110.7,171.7z M115.5,165.9l-9.4-5.9l38.9-61.5l9.4,5.9L115.5,165.9z M152.5,160.2c0,0.9-0.8,1.7-1.7,1.7
		H124l28.5-45V160.2z M157.1,100.2l-9.4-5.9l8.4-13.2l9.4,5.9L157.1,100.2z"/>
	<path class="st0" d="M82.3,99.3c0.5,0.4,1.2,0.6,1.8,0.6c0.7-0.1,1.3-0.4,1.7-0.9l5.8-7.2c0.9-1.1,0.7-2.6-0.4-3.5
		c-1.1-0.9-2.6-0.7-3.5,0.4l-4.2,5.2L81.3,92c-1.1-0.9-2.6-0.7-3.5,0.3c-0.9,1.1-0.7,2.6,0.3,3.5L82.3,99.3z"/>
	<path class="st0" d="M82.3,139.2c0.5,0.4,1.2,0.6,1.8,0.6c0.7-0.1,1.3-0.4,1.7-0.9l5.8-7.2c0.9-1.1,0.7-2.6-0.4-3.5
		c-1.1-0.9-2.6-0.7-3.5,0.4l-4.2,5.2l-2.2-1.8c-1.1-0.9-2.6-0.7-3.5,0.3c-0.9,1.1-0.7,2.6,0.3,3.5L82.3,139.2z"/>
	<path class="st0" d="M76.4,108.9H93c3.6,0,6.6-3,6.6-6.6V85.8c0-3.6-3-6.6-6.6-6.6H76.4c-3.6,0-6.6,3-6.6,6.6v16.5
		C69.8,106,72.8,108.9,76.4,108.9z M74.8,85.8c0-0.9,0.8-1.7,1.7-1.7H93c0.9,0,1.7,0.8,1.7,1.7v16.5c0,0.9-0.8,1.7-1.7,1.7H76.4
		c-0.9,0-1.7-0.8-1.7-1.7V85.8z"/>
	<path class="st0" d="M99.6,142v-16.5c0-3.6-3-6.6-6.6-6.6H76.4c-3.6,0-6.6,3-6.6,6.6V142c0,3.6,3,6.6,6.6,6.6H93
		C96.6,148.6,99.6,145.6,99.6,142z M94.6,142c0,0.9-0.8,1.7-1.7,1.7H76.4c-0.9,0-1.7-0.8-1.7-1.7v-16.5c0-0.9,0.8-1.7,1.7-1.7H93
		c0.9,0,1.7,0.8,1.7,1.7V142z"/>
</g>
</svg>
