<?xml version="1.0" encoding="utf-8"?>
<!-- Generator: Adobe Illustrator 21.0.2, SVG Export Plug-In . SVG Version: 6.00 Build 0)  -->
<svg version="1.0" id="Layer_1" xmlns="http://www.w3.org/2000/svg" xmlns:xlink="http://www.w3.org/1999/xlink" x="0px" y="0px"
	 viewBox="0 0 214.2 214.2" style="enable-background:new 0 0 214.2 214.2;" xml:space="preserve">
<style type="text/css">
	.st0{fill:#FFFFFF;}
</style>
<g>
	<path class="st0" d="M114.7,145.5L88.3,189l-11.8-18.9l12-20.5c0,0,0.5-1.3-1-1.9c-1.5-0.7-2.1,1.1-2.1,1.1l-11.5,20l-22.2,0.4
		L69,139.4c0.5-1,0.2-2.2-0.8-2.7c-1-0.5-2.2-0.2-2.7,0.8L46.7,170c-0.3,0.6-0.3,1.3,0,1.9c0.3,0.6,0.9,1,1.6,1.1l25.3-0.2L87.1,194
		c0.4,0.5,1,0.8,1.6,0.8c0.1,0,0.1,0,0.2,0c0.7-0.1,1.3-0.5,1.6-1.1l27.8-46.2c0,0,0.3-1-1.3-1.9
		C115.3,144.7,114.7,145.5,114.7,145.5z"/>
	<path class="st0" d="M168.5,166.9L147,127.7c-0.1-0.1-0.2-0.3-0.3-0.4l0.9-3.4l6-1.7c0.8-0.2,1.4-1,1.5-1.8l0.3-6.3l5.5-3
		c0.8-0.4,1.2-1.3,1-2.1l-1.1-6.2l4.7-4.1c0.6-0.6,0.9-1.5,0.5-2.3l-2.5-5.8l3.7-5.1c0.5-0.7,0.5-1.6,0-2.3l-3.7-5.1l2.5-5.8
		c0.3-0.8,0.1-1.7-0.5-2.3l-4.7-4.1l1.1-6.2c0.2-0.8-0.3-1.7-1-2.1l-5.5-3l-0.3-6.3c0-0.9-0.6-1.6-1.5-1.8l-6-1.7l-1.7-6
		c-0.2-0.8-1-1.4-1.8-1.5l-6.3-0.3l-3-5.5c-0.4-0.8-1.3-1.2-2.1-1l-6.2,1.1l-4.1-4.7c-0.6-0.7-1.5-0.9-2.3-0.5l-5.8,2.5l-5.1-3.7
		c-0.7-0.5-1.6-0.5-2.3,0l-5.1,3.7l-5.8-2.5c-0.8-0.3-1.7-0.1-2.3,0.5l-4.1,4.7l-6.2-1.1c-0.9-0.2-1.7,0.3-2.1,1l-3,5.5l-6.3,0.3
		c-0.9,0-1.6,0.6-1.8,1.5l-1.7,6l-6,1.7c-0.8,0.2-1.4,1-1.5,1.8L61,54.7l-5.5,3c-0.8,0.4-1.2,1.3-1,2.1l1.1,6.2l-4.7,4.1
		c-0.6,0.6-0.9,1.5-0.5,2.3l2.5,5.8l-3.7,5.1c-0.5,0.7-0.5,1.6,0,2.3l3.7,5.1l-2.5,5.8c-0.3,0.8-0.1,1.7,0.5,2.3l4.7,4.1l-1.1,6.2
		c-0.2,0.8,0.3,1.7,1,2.1l5.5,3l0.3,6.3c0,0.9,0.6,1.6,1.5,1.8l6,1.7l1.7,6c0.2,0.8,1,1.4,1.8,1.5l6.3,0.3l3,5.5
		c0.4,0.8,1.3,1.2,2.1,1l6.2-1.1l4.1,4.7c0.6,0.7,1.5,0.9,2.3,0.5l5.8-2.5l5.1,3.7c0.4,0.3,0.8,0.4,1.2,0.4s0.8-0.1,1.2-0.4l5.3-4.1
		l5.6,2.9c0.8,0.3,1.7,0.1,2.3-0.5l4.1-4.7l6.2,1.1c0.8,0.2,1.7-0.3,2.1-1l3-5.5l6.3-0.3c0.1,0,0.2,0,0.3-0.1l19.1,34.9l-21.7,0.7
		l-11.4-20.1c0,0-0.9-0.2-1.7,0.5c-0.8,0.8-0.2,1.9-0.2,1.9l10.8,19.1l-12.3,17.6l-9.8-19.8c-0.5-1-1.7-1.4-2.7-0.9
		c-1,0.5-1.4,1.7-0.9,2.7l11.3,22.7c0.3,0.6,0.9,1,1.6,1.1c0.1,0,0.1,0,0.2,0c0.6,0,1.2-0.3,1.6-0.8l14.3-20.2l24.5-0.9
		c0.7-0.1,1.2-0.5,1.6-1.1C168.8,168.2,168.8,167.5,168.5,166.9z M136.6,127.7c-0.7,0-1.3,0.4-1.7,1l-2.8,5.2l-5.9-1.1
		c-0.7-0.1-1.4,0.1-1.9,0.7l-3.9,4.5l-5.5-2.3c-0.6-0.3-1.4-0.2-2,0.2l-4.8,3.5l-4.8-3.5c-0.3-0.3-0.8-0.4-1.2-0.4
		c-0.3,0-0.5,0.1-0.8,0.2l-5.5,2.3l-3.9-4.5c-0.5-0.5-1.2-0.8-1.9-0.7l-5.9,1.1l-2.8-5.2c-0.3-0.6-1-1-1.7-1l-5.9-0.3l-1.6-5.7
		c-0.2-0.7-0.7-1.2-1.4-1.4l-5.7-1.6l-0.3-5.9c0-0.7-0.4-1.3-1-1.7l-5.2-2.8l1.1-5.9c0.1-0.7-0.1-1.4-0.6-1.9l-4.5-3.9l2.3-5.5
		c0.3-0.6,0.2-1.4-0.2-2l-3.5-4.8l3.5-4.8c0.4-0.6,0.5-1.3,0.2-2l-2.3-5.5l4.5-3.9c0.5-0.5,0.8-1.2,0.6-1.9l-1.1-5.9l5.2-2.8
		c0.6-0.3,1-1,1-1.7l0.3-5.9l5.7-1.6c0.7-0.2,1.2-0.7,1.4-1.4l1.6-5.7l5.9-0.3c0.7,0,1.3-0.4,1.7-1l2.8-5.2l5.9,1.1
		c0.7,0.1,1.4-0.1,1.9-0.7l3.9-4.5l5.5,2.3c0.6,0.3,1.4,0.2,2-0.2l4.8-3.5l4.8,3.5c0.6,0.4,1.3,0.5,2,0.2l5.5-2.3l3.9,4.5
		c0.5,0.5,1.2,0.8,1.9,0.7l5.9-1.1l2.8,5.2c0.3,0.6,1,1,1.7,1l5.9,0.3l1.6,5.7c0.2,0.7,0.7,1.2,1.4,1.4l5.7,1.6l0.3,5.9
		c0,0.7,0.4,1.3,1,1.7l5.2,2.8l-1.1,5.9c-0.1,0.7,0.1,1.4,0.6,1.9l4.5,3.9l-2.3,5.5c-0.3,0.6-0.2,1.4,0.2,2l3.5,4.8l-3.5,4.8
		c-0.4,0.6-0.5,1.3-0.2,2l2.3,5.5l-4.5,3.9c-0.5,0.5-0.8,1.2-0.6,1.9l1.1,5.9l-5.2,2.8c-0.6,0.3-1,1-1,1.7l-0.3,5.9l-5.7,1.6
		c-0.7,0.2-1.2,0.7-1.4,1.4l-1.6,5.7L136.6,127.7z"/>
	<g>
		<path class="st0" d="M147.6,81.5c-1.6-21.5-20.5-37.7-42-36c-9.2,0.7-17.9,4.6-24.4,11.1c-0.6,0.6-0.6,1.5,0,2.1
			c0.6,0.6,1.5,0.6,2.1,0c6.1-6,14.1-9.6,22.5-10.2c19.8-1.5,37.2,13.4,38.7,33.2c1.5,19.8-13.4,37.2-33.2,38.7
			c-0.8,0.1-1.5,0.8-1.4,1.6c0.1,0.8,0.8,1.5,1.6,1.4C133.1,121.8,149.2,103,147.6,81.5z"/>
		<path class="st0" d="M90.5,116c-11.3-7.2-18.1-19.4-18.1-32.8c0-0.9-0.7-1.6-1.6-1.6s-1.6,0.7-1.6,1.6c0,14.5,7.3,27.8,19.6,35.5
			c0.3,0.2,0.6,0.3,0.9,0.3c0.5,0,1.1-0.3,1.4-0.8C91.5,117.5,91.3,116.5,90.5,116z"/>
	</g>
</g>
</svg>
