<?xml version="1.0" encoding="utf-8"?>
<!-- Generator: Adobe Illustrator 21.0.2, SVG Export Plug-In . SVG Version: 6.00 Build 0)  -->
<svg version="1.0" id="Layer_1" xmlns="http://www.w3.org/2000/svg" xmlns:xlink="http://www.w3.org/1999/xlink" x="0px" y="0px"
	 viewBox="0 0 214.2 214.2" style="enable-background:new 0 0 214.2 214.2;" xml:space="preserve">
<style type="text/css">
	.st0{fill:#FFFFFF;}
</style>
<g>
	<path class="st0" d="M183.4,105.1h-15.9c-1.1,0-2.1-0.6-2.5-1.7c-0.4-1-0.2-2.2,0.6-2.9l9.7-9.7c0.3-0.3,0.5-0.8,0.5-1.3
		c0-0.5-0.2-1-0.5-1.3c-0.7-0.7-1.9-0.7-2.6,0l-16.1,16.1c-0.5,0.5-1.2,0.8-1.9,0.8h-27.5c-1.1,0-2.1-0.7-2.5-1.7
		c-0.4-1-0.2-2.1,0.6-2.9l20-20c0.5-0.5,1.2-0.8,1.9-0.8h19.4c1,0,1.8-0.8,1.8-1.9c0-1-0.8-1.9-1.8-1.9h-10.3
		c-1.1,0-2.1-0.7-2.5-1.7c-0.4-1-0.2-2.1,0.6-2.9l10.4-10.4c0.4-0.4,0.5-0.8,0.5-1.3c0-0.5-0.2-1-0.5-1.3c-0.7-0.7-1.9-0.7-2.6,0
		l-10.4,10.4c-0.7,0.7-1.9,1-2.9,0.6c-1-0.4-1.7-1.4-1.7-2.5V56.8c0-1-0.8-1.9-1.9-1.9s-1.9,0.8-1.9,1.9V76c0,0.7-0.3,1.4-0.8,1.9
		l-20.1,20c-0.8,0.8-1.9,1-2.9,0.6c-1-0.4-1.7-1.4-1.7-2.5v-29c0-0.7,0.3-1.4,0.8-1.9L135,49c0.4-0.4,0.5-0.8,0.5-1.3
		c0-0.5-0.2-1-0.5-1.3c-0.7-0.7-1.9-0.7-2.6,0l-9.7,9.7c-0.8,0.8-2,1-2.9,0.6c-1-0.4-1.7-1.4-1.7-2.5V39.8c0-1-0.8-1.9-1.9-1.9
		c-1,0-1.9,0.8-1.9,1.9v134.4c0,1,0.8,1.9,1.9,1.9c1,0,1.9-0.8,1.9-1.9v-17.4c0-1.1,0.7-2.1,1.7-2.5c1-0.4,2.2-0.2,2.9,0.6l9.7,9.7
		c0.7,0.7,1.9,0.7,2.6,0c0.4-0.4,0.5-0.8,0.5-1.3c0-0.5-0.2-1-0.5-1.3l-16.1-16.1c-0.5-0.5-0.8-1.2-0.8-1.9v-26
		c0-1.1,0.7-2.1,1.7-2.5c1-0.4,2.2-0.2,2.9,0.6l20.3,20.3c0.5,0.5,0.8,1.2,0.8,1.9v19.2c0,1,0.8,1.9,1.9,1.9c1,0,1.9-0.8,1.9-1.9
		v-10.2c0-1.1,0.7-2.1,1.7-2.5c1-0.4,2.2-0.2,2.9,0.6l10.6,10.6c0.7,0.7,1.9,0.7,2.6,0c0.4-0.4,0.5-0.8,0.5-1.3s-0.2-1-0.5-1.3
		l-10.6-10.6c-0.8-0.8-1-1.9-0.6-2.9c0.4-1,1.4-1.7,2.5-1.7h10.3c1,0,1.9-0.8,1.9-1.9c0-1-0.8-1.9-1.9-1.9h-19.3
		c-0.7,0-1.4-0.3-1.9-0.8l-20.2-20.2c-0.8-0.8-1-1.9-0.6-2.9c0.4-1,1.4-1.7,2.5-1.7h27.5c0.7,0,1.4,0.3,1.9,0.8l16.1,16.1
		c0.7,0.7,1.9,0.7,2.6,0c0.3-0.4,0.5-0.8,0.5-1.3c0-0.5-0.2-1-0.5-1.3l-9.7-9.7c-0.8-0.8-1-1.9-0.6-2.9c0.4-1,1.4-1.7,2.5-1.7h15.9
		c1,0,1.9-0.8,1.9-1.9C185.3,106,184.5,105.1,183.4,105.1z"/>
	<path class="st0" d="M102.2,40.3c0.2-0.8-0.1-1.6-0.6-2.2c-0.9-0.9-2.4-0.9-3.3,0L83.4,52.9c-0.5,0.5-1.1,0.7-1.9,0.6l-20.6-3.3
		c-0.1,0-0.3,0-0.4,0c-1.2,0-2.1,0.8-2.3,2l-3.3,20.6c-0.1,0.7-0.5,1.3-1.2,1.6l-18.6,9.5c-0.6,0.3-1,0.8-1.2,1.4
		c-0.2,0.6-0.1,1.2,0.1,1.8l9.5,18.6c0.3,0.6,0.3,1.4,0,2l-9.5,18.6c-0.3,0.6-0.3,1.2-0.1,1.8c0.2,0.6,0.6,1.1,1.2,1.4l18.6,9.5
		c0.6,0.3,1,0.9,1.2,1.6l3.3,20.6c0.2,1.2,1.2,2,2.3,2c0.1,0,0.3,0,0.4,0l20.6-3.3c0.1,0,0.2,0,0.3,0c0.6,0,1.1,0.2,1.5,0.6
		l14.8,14.8c0.7,0.7,1.7,0.9,2.6,0.5c0.9-0.4,1.5-1.2,1.5-2.2V41.9C102.3,41.7,102.1,40.7,102.2,40.3z M97.6,70.3
		c0,1.1-0.9,2.1-2,2.2C77.4,73.7,63.2,88.8,63.2,107c0,18.2,14.2,33.3,32.3,34.5c1.1,0.1,2,1,2,2.2v19c0,0.9-0.5,1.7-1.3,2
		c-0.3,0.1-0.5,0.2-0.8,0.2c-0.6,0-1.1-0.2-1.5-0.6l-8.7-8.7c-0.5-0.5-1.3-0.8-2-0.7l-18.4,2.9c-1.2,0.2-2.3-0.6-2.5-1.8l-2.9-18.4
		c-0.1-0.7-0.6-1.4-1.3-1.7l-16.6-8.5c-0.5-0.3-0.9-0.7-1.1-1.3c-0.2-0.6-0.1-1.1,0.1-1.7l8.5-16.6c0.3-0.7,0.3-1.5,0-2.1L40.4,89
		c-0.3-0.5-0.3-1.1-0.1-1.7c0.2-0.6,0.6-1,1.1-1.3L58,77.6c0.7-0.3,1.1-1,1.3-1.7l2.9-18.4c0.2-1.2,1.3-2,2.5-1.8l18.4,2.9
		c0.8,0.1,1.5-0.1,2-0.7l8.7-8.7c0.6-0.6,1.6-0.8,2.4-0.5c0.8,0.3,1.3,1.1,1.3,2V70.3z M97.4,136.2c0,0.6-0.3,1.2-0.7,1.6
		c-0.4,0.4-0.9,0.6-1.5,0.6c-0.1,0-0.2,0-0.2,0c-16-1.6-28.1-15-28.1-31.1c0-15.9,12-29.3,28-31.1c0.6-0.1,1.2,0.1,1.7,0.5
		c0.5,0.4,0.7,1,0.7,1.6L97.4,136.2z"/>
</g>
</svg>
