<?xml version="1.0" encoding="utf-8"?>
<!-- Generator: Adobe Illustrator 21.0.2, SVG Export Plug-In . SVG Version: 6.00 Build 0)  -->
<svg version="1.0" id="Layer_1" xmlns="http://www.w3.org/2000/svg" xmlns:xlink="http://www.w3.org/1999/xlink" x="0px" y="0px"
	 viewBox="0 0 214.1 214.1" style="enable-background:new 0 0 214.1 214.1;" xml:space="preserve">
<style type="text/css">
	.st0{fill:#FFFFFF;}
</style>
<g>
	<path class="st0" d="M163.4,42.8h-4.5v-4.6h-14.6c-0.2-0.6-0.8-1.1-1.4-1.1s-1.3,0.5-1.4,1.1h-36.9l-0.3-0.7
		c-0.4-0.7-1.3-1.1-2-0.7c-0.5,0.3-0.9,0.8-0.9,1.4c-5.6,0.1-10.9,1.9-15.4,5.3c-1,0.8-2,1.6-2.9,2.5c-5,5-7.7,11.6-7.8,18.6
		c-0.5,0-1.1,0.3-1.3,0.8c-0.4,0.7,0,1.6,0.7,2l0.6,0.3v34.8h0c-0.8,0-1.5,0.7-1.5,1.5s0.7,1.5,1.5,1.5h0v12.9H58.1v56.5h86v-56.5
		h-15.7v-12.9c0.6-0.2,1.1-0.8,1.1-1.4s-0.4-1.2-1.1-1.4v-9.5c0.3,0,0.7-0.2,0.9-0.4c0.4-0.4,0.5-0.8,0.4-1.3h11.8
		c0.3,0.5,0.7,0.8,1.3,0.8s1.1-0.3,1.3-0.8h14.8v-5.2h4.5V42.8z M141.3,40.9v47.6h-12.8l-22.7-47.6H141.3z M84.9,47.9
		c0.8-0.8,1.7-1.6,2.6-2.3c4.1-3.1,9.1-4.7,14.2-4.7h0.6L125,88.4L78,65.7v-0.9C78,58.4,80.4,52.4,84.9,47.9z M78,69l47.6,23v10.5
		H78V69z M141.7,172.2H60.8v-51.4h80.8V172.2z M78,118.4v-12.9h47.6v12.9H78z M156.1,88.6h-11.8V40.9h11.8V88.6z"/>
	<g>
		<g>
			<g>
				<path class="st0" d="M110.9,168.8c-0.9,0-1.6-0.7-1.6-1.6v-41.4c0-0.9,0.7-1.6,1.6-1.6c0.9,0,1.6,0.7,1.6,1.6v41.4
					C112.5,168.1,111.8,168.8,110.9,168.8z"/>
			</g>
		</g>
		<g>
			<g>
				<path class="st0" d="M118.7,168.8c-0.9,0-1.6-0.7-1.6-1.6v-41.4c0-0.9,0.7-1.6,1.6-1.6c0.9,0,1.6,0.7,1.6,1.6v41.4
					C120.3,168.1,119.6,168.8,118.7,168.8z"/>
			</g>
		</g>
		<g>
			<g>
				<path class="st0" d="M126.5,168.8c-0.9,0-1.6-0.7-1.6-1.6v-41.4c0-0.9,0.7-1.6,1.6-1.6c0.9,0,1.6,0.7,1.6,1.6v41.4
					C128.1,168.1,127.4,168.8,126.5,168.8z"/>
			</g>
		</g>
		<g>
			<g>
				<path class="st0" d="M134.3,168.8c-0.9,0-1.6-0.7-1.6-1.6v-41.4c0-0.9,0.7-1.6,1.6-1.6c0.9,0,1.6,0.7,1.6,1.6v41.4
					C135.9,168.1,135.2,168.8,134.3,168.8z"/>
			</g>
		</g>
		<g>
			<g>
				<path class="st0" d="M67.1,168.8c-0.9,0-1.6-0.7-1.6-1.6v-41.4c0-0.9,0.7-1.6,1.6-1.6c0.9,0,1.6,0.7,1.6,1.6v41.4
					C68.7,168.1,68,168.8,67.1,168.8z"/>
			</g>
		</g>
		<g>
			<g>
				<path class="st0" d="M74.9,168.8c-0.9,0-1.6-0.7-1.6-1.6v-41.4c0-0.9,0.7-1.6,1.6-1.6c0.9,0,1.6,0.7,1.6,1.6v41.4
					C76.5,168.1,75.8,168.8,74.9,168.8z"/>
			</g>
		</g>
		<g>
			<g>
				<path class="st0" d="M82.7,168.8c-0.9,0-1.6-0.7-1.6-1.6v-41.4c0-0.9,0.7-1.6,1.6-1.6c0.9,0,1.6,0.7,1.6,1.6v41.4
					C84.3,168.1,83.6,168.8,82.7,168.8z"/>
			</g>
		</g>
		<g>
			<g>
				<path class="st0" d="M90.5,168.8c-0.9,0-1.6-0.7-1.6-1.6v-41.4c0-0.9,0.7-1.6,1.6-1.6c0.9,0,1.6,0.7,1.6,1.6v41.4
					C92.1,168.1,91.4,168.8,90.5,168.8z"/>
			</g>
		</g>
		<g>
			<g>
				<circle class="st0" cx="100.9" cy="126.9" r="1.6"/>
			</g>
		</g>
		<g>
			<g>
				<circle class="st0" cx="100.9" cy="166.9" r="1.6"/>
			</g>
		</g>
	</g>
</g>
</svg>
