<?xml version="1.0" encoding="utf-8"?>
<!-- Generator: Adobe Illustrator 21.1.0, SVG Export Plug-In . SVG Version: 6.00 Build 0)  -->
<svg version="1.0" id="Layer_1" xmlns="http://www.w3.org/2000/svg" xmlns:xlink="http://www.w3.org/1999/xlink" x="0px" y="0px"
	 viewBox="0 0 252 252" style="enable-background:new 0 0 252 252;" xml:space="preserve">
<style type="text/css">
	.st0{fill:#FFFFFF;}
</style>
<path class="st0" d="M178,190.7H76.7c-6.5,0-11.8-5.2-11.8-11.7l0-61.2h-3.1c-4.7,0-8.3-2.1-9.5-5.6c-1.4-4.1-0.1-7.7,3.9-10.1
	c2.2-1.3,45.2-30.1,67.7-45.1c2.1-1.7,5.7-1.7,8,0.2c21.9,14.7,64.4,43.2,66.6,44.5c3.9,2.4,5.3,6,3.9,10.1
	c-1.2,3.5-4.8,5.6-9.5,5.6h-3.1l0.1,61.5C189.8,185.5,184.5,190.7,178,190.7z M127.7,63.1c-6.4,4.3-65,43.4-67.7,45.1
	c-1.2,0.8-1.2,1-0.9,1.8c0.1,0.3,1,0.8,2.7,0.8h10.3l0,68.3c0,2.5,2.1,4.5,4.6,4.5H178c2.5,0,4.6-2,4.6-4.5l-0.1-68.6h10.3
	c1.7,0,2.6-0.5,2.7-0.8c0.3-0.8,0.3-1-0.9-1.8C191.9,106.2,132,66,127.7,63.1z M127.5,63C127.5,63,127.5,63,127.5,63
	C127.5,63,127.5,63,127.5,63z M128.1,62.8c0,0-0.1,0.1-0.2,0.1C128,62.9,128.1,62.8,128.1,62.8z"/>
<path class="st0" d="M127.3,161.2c-7.3,0-14.1-2.8-19.2-7.9c-5.1-5.1-8-11.8-8-19c0-7.2,2.8-13.9,8-19c1.1-1.1,2.9-1.1,4,0
	c1.1,1.1,1.1,2.9,0,4c-4.1,4-6.3,9.3-6.3,15c0,5.7,2.2,11,6.3,15c4.1,4,9.4,6.2,15.2,6.2c5.7,0,11.1-2.2,15.2-6.2
	c4.1-4,6.3-9.3,6.3-15c0-5.7-2.2-11-6.3-15c-1.1-1.1-1.1-2.9,0-4c1.1-1.1,2.9-1.1,4,0c5.1,5.1,8,11.8,8,19c0,7.2-2.8,13.9-8,19
	C141.4,158.5,134.5,161.2,127.3,161.2z M127.3,140.7c-1.6,0-2.8-1.3-2.8-2.8v-35.8c0-1.6,1.3-2.8,2.8-2.8c1.6,0,2.8,1.3,2.8,2.8
	v35.8C130.1,139.5,128.9,140.7,127.3,140.7z"/>
</svg>
