<?xml version="1.0" encoding="utf-8"?>
<!-- Generator: Adobe Illustrator 21.1.0, SVG Export Plug-In . SVG Version: 6.00 Build 0)  -->
<svg version="1.0" id="Layer_1" xmlns="http://www.w3.org/2000/svg" xmlns:xlink="http://www.w3.org/1999/xlink" x="0px" y="0px"
	 viewBox="0 0 214.1 214.1" style="enable-background:new 0 0 214.1 214.1;" xml:space="preserve">
<style type="text/css">
	.st0{fill:#FFFFFF;}
</style>
<g>
	<path class="st0" d="M130.4,52.7c0.2,0.1,0.4,0.1,0.5,0.1c0.6,0,1.1-0.4,1.3-1l3.9-11.2c0.3-0.8-0.1-1.6-0.9-1.9
		c-0.8-0.3-1.6,0.1-1.9,0.9l-3.9,11.2C129.2,51.6,129.6,52.5,130.4,52.7z"/>
	<path class="st0" d="M93.1,54.8l10,6.3c0.2,0.1,0.3,0.2,0.5,0.2c0.6,0.1,1.2-0.1,1.5-0.7c0.4-0.7,0.2-1.6-0.5-2l-10-6.3
		c-0.7-0.4-1.6-0.2-2,0.5C92.2,53.4,92.4,54.3,93.1,54.8z"/>
	<path class="st0" d="M143.2,61.2c0.2,0,0.3-0.1,0.5-0.2l10-6.3c0.7-0.4,0.9-1.3,0.5-2c-0.4-0.7-1.3-0.9-2-0.5l-10,6.3
		c-0.7,0.4-0.9,1.3-0.5,2C142,61.1,142.6,61.3,143.2,61.2z"/>
	<path class="st0" d="M114.6,51.5c0.2,0.6,0.7,1,1.3,1c0.2,0,0.4,0,0.6-0.1c0.8-0.2,1.2-1.1,0.9-1.8l-3.6-11.3
		c-0.2-0.8-1.1-1.2-1.8-0.9c-0.8,0.2-1.2,1.1-0.9,1.8L114.6,51.5z"/>
	<path class="st0" d="M178.5,106.8l-33.3-39c-0.3-0.3-0.7-0.5-1.2-0.5h-4.8l-0.1-0.3c-1-3.9-5.5-11.2-15.4-11.2
		c-9.8,0-14.3,7.3-15.4,11.2l-0.1,0.3H71.8v0c-0.2,0-0.4,0-0.5,0.1c-0.3,0.1-0.5,0.3-0.7,0.5l-30.5,36.3l-2.4,2.7
		c-0.4,0.5-0.5,1.1-0.2,1.7c0.3,0.6,0.8,0.9,1.4,0.9c0,0,0,0,0,0l5.9,0v46.1c0,0.9,0.7,1.6,1.6,1.6h25.5h98.5c0.9,0,1.6-0.7,1.6-1.6
		v-46.2l5.5,0c0.6,0,1.2-0.4,1.4-0.9C179,107.9,178.9,107.2,178.5,106.8z M172.6,106.2C172.6,106.2,172.6,106.2,172.6,106.2l-12.5,0
		L145.6,89h13.7l14.7,17.2L172.6,106.2z M142.6,106.2L128.1,89h13.4l14.5,17.2H142.6z M125.1,106.2L110.6,89H124l14.5,17.2H125.1z
		 M105.3,106.2l-1.8-2.1L90.8,89h15.7l14.5,17.2H105.3z M90.8,70.3l13.2,15.6H88.2L75.1,70.3H90.8z M108.2,70.3l13.2,15.6H108
		L94.8,70.3H108.2z M125.7,70.3l13.2,15.6h-13.4l-13.2-15.6H125.7z M156.6,85.9h-13.7l-13.2-15.6h13.5L156.6,85.9z M123.7,58.8
		c8.6,0,11.5,6.5,12.2,8.4h-24.4C112.2,65.3,115.1,58.8,123.7,58.8z M47.4,106.7c-0.3-0.3-0.7-0.5-1.1-0.5l-4,0l29.5-35.1l29.4,35
		l0,0.1h-3.9c-0.9,0-1.6,0.7-1.6,1.6v46.2H79.9c0-0.1,0-0.2,0-0.3v-24.6c0-1.2-1-2.2-2.2-2.2H65.3c-1.2,0-2.2,1-2.2,2.2v24.6
		c0,0.1,0,0.2,0,0.3H47.8v-46.1C47.8,107.4,47.7,107,47.4,106.7z M98.8,153.9v-44.6h5.4h0.4h64.1v44.6H98.8z"/>
	<path class="st0" d="M71.5,113.4c4.6,0,8.3-3.7,8.3-8.3c0-4.6-3.7-8.3-8.3-8.3s-8.3,3.7-8.3,8.3C63.2,109.6,66.9,113.4,71.5,113.4z
		 M71.5,99.9c2.9,0,5.2,2.3,5.2,5.2s-2.3,5.2-5.2,5.2c-2.9,0-5.2-2.3-5.2-5.2S68.6,99.9,71.5,99.9z"/>
</g>
</svg>
