<?xml version="1.0" encoding="utf-8"?>
<!-- Generator: Adobe Illustrator 21.0.2, SVG Export Plug-In . SVG Version: 6.00 Build 0)  -->
<svg version="1.0" id="Layer_1" xmlns="http://www.w3.org/2000/svg" xmlns:xlink="http://www.w3.org/1999/xlink" x="0px" y="0px"
	 viewBox="0 0 214.2 214.2" style="enable-background:new 0 0 214.2 214.2;" xml:space="preserve">
<style type="text/css">
	.st0{fill:#FFFFFF;}
</style>
<g>
	<g>
		<g>
			<g>
				<path class="st0" d="M118.8,177.9H98c-3.2,0-5.8-2.6-5.8-5.8v-14.4c0-3.2,2.6-5.8,5.8-5.8h20.8c3.2,0,5.8,2.6,5.8,5.8v14.4
					C124.6,175.3,122,177.9,118.8,177.9z M98,156.7c-0.6,0-1.1,0.5-1.1,1v14.4c0,0.5,0.5,1,1.1,1h20.8c0.6,0,1.1-0.5,1.1-1v-14.4
					c0-0.6-0.5-1-1.1-1H98z M108.3,146.5c-5,0-9.1-4-9.1-9c0-4.9,4.1-8.9,9.1-8.9c5,0,9.1,4,9.1,8.9
					C117.3,142.5,113.3,146.5,108.3,146.5z M108.3,133.4c-2.4,0-4.3,1.9-4.3,4.2c0,2.3,1.9,4.2,4.3,4.2c2.4,0,4.3-1.9,4.3-4.2
					C112.6,135.3,110.6,133.4,108.3,133.4z M120.9,119.9c-5,0-9.1-4-9.1-9c0-4.9,4.1-9,9.1-9s9.1,4,9.1,9
					C130,115.9,125.9,119.9,120.9,119.9z M120.9,106.8c-2.4,0-4.3,1.9-4.3,4.2c0,2.3,1.9,4.2,4.3,4.2s4.3-1.9,4.3-4.2
					C125.2,108.7,123.3,106.8,120.9,106.8z M95.6,119.9c-5,0-9.1-4-9.1-9c0-4.9,4.1-9,9.1-9c5,0,9.1,4,9.1,9
					C104.7,115.9,100.6,119.9,95.6,119.9z M95.6,106.8c-2.4,0-4.3,1.9-4.3,4.2c0,2.3,1.9,4.2,4.3,4.2c2.4,0,4.3-1.9,4.3-4.2
					C99.9,108.7,98,106.8,95.6,106.8z M133.6,93.3c-5,0-9.1-4-9.1-8.9c0-4.9,4.1-9,9.1-9c5,0,9.1,4,9.1,9
					C142.7,89.3,138.6,93.3,133.6,93.3z M133.6,80.2c-2.4,0-4.3,1.9-4.3,4.2c0,2.3,1.9,4.2,4.3,4.2c2.4,0,4.3-1.9,4.3-4.2
					C137.9,82.1,136,80.2,133.6,80.2z M108.3,93.3c-5,0-9.1-4-9.1-8.9c0-4.9,4.1-9,9.1-9s9,4,9,9C117.3,89.3,113.3,93.3,108.3,93.3z
					 M108.3,80.2c-2.4,0-4.3,1.9-4.3,4.2c0,2.3,1.9,4.2,4.3,4.2c2.4,0,4.3-1.9,4.3-4.2C112.6,82.1,110.6,80.2,108.3,80.2z M83,93.3
					c-5,0-9.1-4-9.1-8.9c0-4.9,4.1-9,9.1-9c5,0,9.1,4,9.1,9C92,89.3,87.9,93.3,83,93.3z M83,80.2c-2.4,0-4.3,1.9-4.3,4.2
					c0,2.3,1.9,4.2,4.3,4.2c2.4,0,4.3-1.9,4.3-4.2C87.3,82.1,85.3,80.2,83,80.2z M146.2,66.8c-5,0-9.1-4-9.1-9c0-4.9,4.1-9,9.1-9
					c5,0,9.1,4,9.1,9C155.3,62.7,151.2,66.8,146.2,66.8z M146.2,53.6c-2.4,0-4.3,1.9-4.3,4.2c0,2.3,1.9,4.2,4.3,4.2
					c2.4,0,4.3-1.9,4.3-4.2C150.5,55.5,148.6,53.6,146.2,53.6z M120.9,66.8c-5,0-9.1-4-9.1-9c0-4.9,4.1-9,9.1-9s9.1,4,9.1,9
					C130,62.7,125.9,66.8,120.9,66.8z M120.9,53.6c-2.4,0-4.3,1.9-4.3,4.2c0,2.3,1.9,4.2,4.3,4.2s4.3-1.9,4.3-4.2
					C125.2,55.5,123.3,53.6,120.9,53.6z M95.6,66.8c-5,0-9.1-4-9.1-9c0-4.9,4.1-9,9.1-9c5,0,9.1,4,9.1,9
					C104.7,62.7,100.6,66.8,95.6,66.8z M95.6,53.6c-2.4,0-4.3,1.9-4.3,4.2c0,2.3,1.9,4.2,4.3,4.2c2.4,0,4.3-1.9,4.3-4.2
					C99.9,55.5,98,53.6,95.6,53.6z M70.3,66.8c-5,0-9.1-4-9.1-9c0-4.9,4.1-9,9.1-9c5,0,9.1,4,9.1,9C79.4,62.7,75.3,66.8,70.3,66.8z
					 M70.3,53.6c-2.4,0-4.3,1.9-4.3,4.2c0,2.3,1.9,4.2,4.3,4.2c2.4,0,4.3-1.9,4.3-4.2C74.6,55.5,72.7,53.6,70.3,53.6z"/>
			</g>
		</g>
	</g>
</g>
</svg>
