<?xml version="1.0" encoding="utf-8"?>
<!-- Generator: Adobe Illustrator 21.0.2, SVG Export Plug-In . SVG Version: 6.00 Build 0)  -->
<svg version="1.0" id="Layer_1" xmlns="http://www.w3.org/2000/svg" xmlns:xlink="http://www.w3.org/1999/xlink" x="0px" y="0px"
	 viewBox="0 0 214.2 214.2" style="enable-background:new 0 0 214.2 214.2;" xml:space="preserve">
<style type="text/css">
	.st0{fill:#FFFFFF;}
</style>
<g>
	<path class="st0" d="M160.9,159.4c4.7,0,8.6-3.9,8.6-8.6l-0.1-54.9h7.1c3.4,0,5.7-1.2,6.4-3.4c0.8-2.4,0.4-4.5-2.5-6.3
		c-2.9-1.8-70.4-46.7-70.4-46.7c-1.1-0.9-2.8-0.9-3.9,0c0,0-68.3,45.2-71.2,47s-3.3,3.9-2.5,6.3c0.7,2.1,3,3.4,6.4,3.4h7.1l0,54.6
		c0,4.7,3.9,8.6,8.6,8.6H160.9z M54.5,155.1c-2.4,0-4.4-2-4.4-4.4L50.1,92l-11.2,0c-1.5,0-1.8-1.7-0.9-2.4l69.7-46.4
		c0.2,0.1,0.4,0.1,0.4,0.1l69.2,46c0.9,0.7,0.6,2.4-0.9,2.4l-11.2,0.1l0.1,59c0,2.4-2,4.4-4.4,4.4H54.5z"/>
	<path class="st0" d="M152.9,144.6L152.9,144.6l-89.5,0c-1.1,0-2-0.9-2-2V88.4c0-0.7,0.3-1.3,0.9-1.7l44.5-29.4
		c0.7-0.4,1.5-0.4,2.2,0l45,28.3c0.6,0.4,0.9,1,0.9,1.7v55.2c0,0.5-0.2,1-0.6,1.4S153.5,144.6,152.9,144.6z M65.4,140.6l85.5,0V88.5
		l-43-27L65.4,89.5V140.6z"/>
</g>
<g>
	<path class="st0" d="M89.5,98c3.2-1.9,7-2.9,10.8-3l0.3,0c5.7,0.1,10.9,2.3,14.9,6.4l-4.2,4l-0.1,0.1c-0.5,0.5-0.6,1.1-0.5,1.6
		c0.1,0.3,0.4,0.7,1.3,0.9l21.8,1.7l-1.4-21.7l0-0.1c-0.1-0.6-0.5-0.9-0.9-1.1c-0.5-0.1-1.1,0.1-1.6,0.6l-4.5,4.3
		c-4.5-3.9-10.2-6.1-16.1-6.2l-0.3,0c0,0,0,0,0,0c-8.2,0-15.9,4-20.5,10.7c-0.4,0.6-0.2,1.2,0.1,1.5C88.7,98.2,89.2,98.2,89.5,98z
		 M115.8,105.3l3.8-3.7l-1.6-1.7c-4.6-4.9-10.8-7.7-17.5-7.8l-0.3,0c-1.1,0-2.2,0.1-3.2,0.2c3.5-2.3,7.6-3.5,11.8-3.5l0.3,0
		c5.4,0.1,10.6,2.1,14.5,5.8l1.7,1.6l4.2-4.1l0.9,14.4L115.8,105.3z"/>
	<path class="st0" d="M126.9,117.8c-3.2,1.9-7,2.9-10.8,3l-0.3,0c-5.7-0.1-10.9-2.3-14.9-6.4l4.2-4l0.1-0.1c0.5-0.5,0.6-1.1,0.5-1.6
		c-0.1-0.3-0.4-0.7-1.3-0.9l-21.8-1.7l1.4,21.7l0,0.1c0.1,0.6,0.5,0.9,0.9,1.1c0.5,0.1,1.1-0.1,1.6-0.6l4.5-4.3
		c4.5,3.9,10.2,6.1,16.1,6.2l0.3,0c0,0,0,0,0,0c8.2,0,15.9-4,20.5-10.7c0.4-0.6,0.2-1.2-0.1-1.5
		C127.7,117.6,127.2,117.6,126.9,117.8z M100.5,110.6l-3.8,3.7l1.6,1.7c4.6,4.9,10.8,7.7,17.5,7.8l0.3,0c1.1,0,2.2-0.1,3.2-0.2
		c-3.5,2.3-7.6,3.5-11.8,3.5l-0.3,0c-5.4-0.1-10.6-2.1-14.5-5.8l-1.7-1.6l-4.2,4.1l-0.9-14.4L100.5,110.6z"/>
</g>
</svg>
