<?xml version="1.0" encoding="utf-8"?>
<!-- Generator: Adobe Illustrator 21.0.2, SVG Export Plug-In . SVG Version: 6.00 Build 0)  -->
<svg version="1.0" id="Layer_1" xmlns="http://www.w3.org/2000/svg" xmlns:xlink="http://www.w3.org/1999/xlink" x="0px" y="0px"
	 viewBox="0 0 214.2 214.2" style="enable-background:new 0 0 214.2 214.2;" xml:space="preserve">
<style type="text/css">
	.st0{fill:#FFFFFF;}
</style>
<g>
	<path class="st0" d="M80.8,82.7c-14.4-8.1-23.5-3.6-30.7-0.1c-4.9,2.4-9.5,4.7-15.8,3.3c-2.5-0.5-5.1-1.6-8-3.2
		c-0.5-0.3-1-0.3-1.5-0.2c-0.5,0.1-0.9,0.5-1.2,0.9c-0.3,0.5-0.3,1-0.2,1.5c0.1,0.5,0.5,0.9,0.9,1.2c3.2,1.8,6.2,3,9.1,3.6
		c1.6,0.3,3.1,0.5,4.7,0.5c5.4,0,9.6-2.1,13.7-4.1c7.1-3.5,14.4-7.1,27,0c0.5,0.3,1,0.3,1.5,0.2s0.9-0.5,1.2-0.9
		C82.1,84.4,81.8,83.2,80.8,82.7z"/>
	<path class="st0" d="M80.8,104.6c-14.4-8.1-23.4-3.6-30.7-0.1c-6.8,3.4-12.8,6.2-23.8,0.1c-1-0.5-2.2-0.2-2.7,0.8
		c-0.3,0.5-0.3,1-0.2,1.5c0.1,0.5,0.5,0.9,0.9,1.2c5,2.8,9.5,4.1,13.7,4.1c5.4,0,9.6-2.1,13.7-4.1c7.1-3.5,14.4-7,27,0
		c0.5,0.3,1,0.3,1.5,0.2c0.5-0.1,0.9-0.5,1.2-0.9C82.1,106.3,81.8,105.1,80.8,104.6z"/>
	<path class="st0" d="M80.8,127.9c-14.4-8.1-23.4-3.6-30.7-0.1c-6.8,3.4-12.8,6.2-23.8,0.1c-0.5-0.3-1-0.3-1.5-0.2
		c-0.5,0.1-0.9,0.5-1.2,0.9c-0.5,1-0.2,2.2,0.8,2.7c5,2.8,9.5,4.1,13.7,4.1c5.4,0,9.6-2.1,13.7-4.1c7.1-3.5,14.4-7,27,0
		c1,0.5,2.2,0.2,2.7-0.8C82.1,129.7,81.8,128.4,80.8,127.9z"/>
	<path class="st0" d="M97.6,53.3h-9c-0.8,0-1.5,0.7-1.5,1.5v105.9c0,0.8,0.7,1.5,1.5,1.5h9c0.8,0,1.5-0.7,1.5-1.5V54.7
		C99,53.9,98.4,53.3,97.6,53.3z M96.1,159.1h-6V56.2h6V159.1z"/>
	<path class="st0" d="M133.5,86.3c0.5,0.1,1,0.1,1.5-0.2c12.6-7,20-3.5,27,0c4.1,2,8.4,4.1,13.7,4.1c1.5,0,3.1-0.2,4.7-0.5
		c2.9-0.6,5.8-1.8,9.1-3.6c1-0.5,1.3-1.7,0.8-2.7c-0.3-0.5-0.7-0.8-1.2-0.9c-0.5-0.1-1-0.1-1.5,0.2c-2.9,1.6-5.5,2.6-8,3.2
		c-6.3,1.4-10.9-0.9-15.8-3.3c-7.2-3.5-16.2-8-30.7,0.1c-1,0.5-1.3,1.7-0.8,2.7C132.6,85.8,133,86.2,133.5,86.3z"/>
	<path class="st0" d="M187.6,104.6c-11,6.2-17,3.3-23.8-0.1c-7.2-3.5-16.2-8-30.7,0.1c-1,0.5-1.3,1.7-0.8,2.7
		c0.3,0.5,0.7,0.8,1.2,0.9c0.5,0.1,1,0.1,1.5-0.2c12.6-7,20-3.5,27,0c4.1,2,8.4,4.1,13.7,4.1c4.3,0,8.8-1.3,13.7-4.1
		c0.5-0.3,0.8-0.7,0.9-1.2c0.1-0.5,0.1-1-0.2-1.5C189.8,104.4,188.6,104.1,187.6,104.6z"/>
	<path class="st0" d="M189.1,127.7c-0.5-0.1-1-0.1-1.5,0.2c-11,6.2-17,3.3-23.8-0.1c-7.2-3.5-16.2-8-30.7,0.1
		c-1,0.5-1.3,1.7-0.8,2.7c0.5,0.9,1.7,1.3,2.7,0.8c12.6-7,20-3.5,27,0c4.1,2,8.4,4.1,13.7,4.1c4.3,0,8.8-1.3,13.7-4.1
		c1-0.5,1.3-1.7,0.8-2.7C190,128.2,189.6,127.9,189.1,127.7z"/>
	<path class="st0" d="M125.3,53.3h-9c-0.8,0-1.5,0.7-1.5,1.5v105.9c0,0.8,0.7,1.5,1.5,1.5h9c0.8,0,1.5-0.7,1.5-1.5V54.7
		C126.8,53.9,126.2,53.3,125.3,53.3z M123.9,159.1h-6V56.2h6V159.1z"/>
</g>
</svg>
