<?xml version="1.0" encoding="utf-8"?>
<!-- Generator: Adobe Illustrator 21.1.0, SVG Export Plug-In . SVG Version: 6.00 Build 0)  -->
<svg version="1.0" id="Layer_1" xmlns="http://www.w3.org/2000/svg" xmlns:xlink="http://www.w3.org/1999/xlink" x="0px" y="0px"
	 viewBox="0 0 214.1 214.1" style="enable-background:new 0 0 214.1 214.1;" xml:space="preserve">
<style type="text/css">
	.st0{fill:#FFFFFF;}
</style>
<g>
	<g>
		<path class="st0" d="M108.6,171.8h-0.5c-11.3,0-21-4-27.4-11.1C73,152,70.1,139.4,72,123c1.1-9.8,4.3-20.4,9.4-31.4
			c0.3-0.7,1.1-1.2,1.9-1.2c0.8,0,1.5,0.5,1.8,1.3c0.9,2.2,6.8,7,13.1,12.1c10.2,8.3,24.1,19.6,33.3,32.7c1.3,1.9,6.5,9.9,7.5,14.1
			c1.3,5.8-2.5,11.8-10.4,16.4C123.2,170.2,116.5,171.8,108.6,171.8z M83.6,96.5c-4.1,9.5-6.7,18.5-7.6,27
			c-1.8,15.2,0.8,26.8,7.7,34.5c5.6,6.3,14.3,9.8,24.4,9.8h0.5c7.1,0,13.2-1.4,17.9-4.2c3-1.7,9.8-6.4,8.5-12.1
			c-0.6-2.7-4.4-9.2-6.8-12.7c-8.9-12.6-22.5-23.7-32.5-31.9C89.9,102.3,85.9,99.1,83.6,96.5z"/>
	</g>
	<g>
		<path class="st0" d="M140.4,140c-0.8,0-1.6-0.5-1.9-1.3c-4.7-11.7-20-24.7-33.6-36.3c-7-5.9-13-11-15.3-14.2
			c-5.4-7.4-3.2-14.4-1.9-17.1c0,0,0-0.1,0-0.1c7.7-14.5,16.1-27,19.4-31.7c0.4-0.5,1-0.9,1.6-0.9h0c0.7,0,1.3,0.3,1.6,0.9
			c9.1,13.1,30.7,46.5,33.7,72.1c1.3,11.3-0.2,20-1.8,26.9c-0.2,0.8-0.9,1.5-1.8,1.5C140.5,140,140.4,140,140.4,140z M91.4,72.9
			c-0.9,2.1-2.6,7.3,1.5,13c2.1,2.8,8.2,8,14.7,13.5c12,10.2,25.4,21.5,32,32.6c1-5.5,1.5-12.1,0.6-20c-0.9-8.1-5.9-30.7-31.4-67.9
			C104.9,49.8,97.9,60.6,91.4,72.9z"/>
	</g>
</g>
</svg>
