<?xml version="1.0" encoding="utf-8"?>
<!-- Generator: Adobe Illustrator 21.0.2, SVG Export Plug-In . SVG Version: 6.00 Build 0)  -->
<svg version="1.0" id="Layer_1" xmlns="http://www.w3.org/2000/svg" xmlns:xlink="http://www.w3.org/1999/xlink" x="0px" y="0px"
	 viewBox="0 0 214.2 214.2" style="enable-background:new 0 0 214.2 214.2;" xml:space="preserve">
<style type="text/css">
	.st0{fill:#FFFFFF;}
</style>
<g>
	<path class="st0" d="M171.2,95h-62.4V56.8c0-5.4,4.4-9.9,9.9-9.9c5.4,0,9.9,4.4,9.9,9.9v3.6c0,1.2,1,2.2,2.2,2.2s2.2-1,2.2-2.2
		v-3.6c0-7.9-6.4-14.4-14.4-14.4c-7.9,0-14.4,6.4-14.4,14.4V95h-5.7V82c0-0.5-0.2-1-0.5-1.4l-9-11.6c-0.8-1-2.2-1.2-3.2-0.4
		s-1.2,2.2-0.4,3.2l8.5,11V95H41.8C37,95,33,99,33,103.8v0.7c0,4.9,3.9,8.8,8.8,8.8h2.7c2,6.1,9,27.7,10.3,31.5
		c2.1,6.2,6.6,7.4,13.6,7.4h18.3h7.7V163c0,5.9,4.8,10.7,10.7,10.7S116,168.9,116,163v-10.9H126h18.3c7,0,11.5-1.2,13.6-7.4
		c1.3-3.8,8.3-25.4,10.3-31.5h2.9c4.9,0,8.8-3.9,8.8-8.8v-0.7C180,99,176,95,171.2,95z M111.7,162.8c0,3.8-2.9,6.8-6.5,6.8
		s-6.5-3.1-6.5-6.8v-10.7h13V162.8z M153.7,143.3c-0.9,2.7-2,4.3-9.4,4.3H126H86.8H68.5c-7.3,0-8.4-1.6-9.4-4.3
		c-1.2-3.4-7.4-22.5-9.8-30h114.2C161.1,120.7,154.8,139.8,153.7,143.3z M175.4,104.5c0,2.4-1.9,4.3-4.3,4.3H41.8
		c-2.4,0-4.3-1.9-4.3-4.3v-0.7c0-2.4,1.9-4.3,4.3-4.3h129.3c2.4,0,4.3,1.9,4.3,4.3V104.5z"/>
	<circle class="st0" cx="130.8" cy="72.4" r="2.7"/>
	<circle class="st0" cx="130.8" cy="84.7" r="2.7"/>
	<path class="st0" d="M71.8,138.9c4.1,0,7.3-2,9.1-3.5c1.5,1.5,4.2,3.5,8.3,3.5c4.2,0,7.3-2,9.1-3.5c1.5,1.5,4.2,3.5,8.4,3.5
		c4.1,0,7.3-2,9.1-3.5c1.5,1.5,4.2,3.5,8.3,3.5c4.1,0,7.3-2,9.1-3.5c1.5,1.5,4.2,3.5,8.3,3.5c6.4,0,10.5-4.8,10.6-5
		c0.6-0.8,0.6-1.9-0.2-2.5c-0.8-0.6-1.9-0.6-2.5,0.2c0,0-3.2,3.7-7.9,3.7c-4.4,0-6.5-3.3-6.6-3.5c0,0-0.1-0.1-0.1-0.1
		c0,0,0-0.1-0.1-0.1c-0.1-0.1-0.1-0.1-0.2-0.2c0,0,0,0,0,0c0,0,0,0,0,0c-0.1-0.1-0.2-0.1-0.2-0.2c0,0,0,0-0.1,0
		c-0.1,0-0.2-0.1-0.3-0.1c0,0,0,0-0.1,0c-0.1,0-0.2-0.1-0.3-0.1c0,0,0,0,0,0c-0.1,0-0.2,0-0.3,0c0,0,0,0,0,0c-0.1,0-0.2,0-0.3,0.1
		c0,0,0,0-0.1,0c-0.1,0-0.2,0.1-0.2,0.1c0,0-0.1,0-0.1,0c0,0-0.1,0-0.1,0c0,0-0.1,0.1-0.1,0.1c0,0-0.1,0.1-0.1,0.1
		c-0.1,0-0.1,0.1-0.2,0.1c0,0,0,0-0.1,0.1c0,0-3.2,3.7-7.9,3.7c-4.4,0-6.5-3.3-6.6-3.5c0,0,0,0-0.1-0.1c0-0.1-0.1-0.1-0.1-0.2
		c0,0-0.1-0.1-0.1-0.1c0,0,0-0.1-0.1-0.1c0,0,0,0-0.1,0c-0.1,0-0.1-0.1-0.2-0.1c0,0-0.1-0.1-0.1-0.1c-0.1,0-0.1-0.1-0.2-0.1
		c0,0-0.1,0-0.1,0c-0.1,0-0.1,0-0.2,0c0,0-0.1,0-0.1,0c-0.1,0-0.1,0-0.2,0c0,0-0.1,0-0.1,0c-0.1,0-0.1,0-0.2,0c0,0-0.1,0-0.1,0
		c-0.1,0-0.1,0-0.2,0.1c-0.1,0-0.1,0-0.2,0.1c0,0,0,0-0.1,0c0,0-0.1,0-0.1,0.1c-0.1,0-0.1,0.1-0.2,0.1c0,0-0.1,0.1-0.1,0.1
		c0,0-0.1,0-0.1,0.1c0,0-3.2,3.7-7.9,3.7c-4.4,0-6.5-3.3-6.6-3.5c-0.3-0.5-0.8-0.8-1.3-0.9c0,0,0,0-0.1,0c-0.1,0-0.1,0-0.2,0
		c-0.1,0-0.1,0-0.2,0c0,0-0.1,0-0.1,0c-0.1,0-0.2,0-0.3,0.1c0,0,0,0,0,0c-0.3,0.1-0.6,0.3-0.8,0.5c0,0-3.2,3.7-7.9,3.7
		c-4.4,0-6.5-3.3-6.6-3.5c0,0,0-0.1-0.1-0.1c0-0.1-0.1-0.1-0.1-0.2c0,0-0.1-0.1-0.1-0.1c0,0,0-0.1-0.1-0.1c0,0,0,0-0.1,0
		c-0.1,0-0.1-0.1-0.2-0.1c0,0-0.1-0.1-0.1-0.1c-0.1,0-0.1-0.1-0.2-0.1c0,0-0.1,0-0.1-0.1c-0.1,0-0.1,0-0.2,0c0,0-0.1,0-0.1,0
		c-0.1,0-0.1,0-0.2,0c0,0-0.1,0-0.1,0c-0.1,0-0.1,0-0.2,0c0,0-0.1,0-0.1,0c-0.1,0-0.1,0-0.2,0.1c-0.1,0-0.1,0-0.2,0.1c0,0,0,0-0.1,0
		c0,0-0.1,0-0.1,0.1c-0.1,0-0.1,0.1-0.2,0.1c0,0-0.1,0.1-0.1,0.1c0,0-0.1,0-0.1,0.1c0,0-3.2,3.7-7.9,3.7c-4.4,0-6.5-3.3-6.6-3.5
		c-0.5-0.8-1.6-1.1-2.5-0.6c-0.9,0.5-1.1,1.6-0.6,2.5C62.2,133.9,65.3,138.9,71.8,138.9z"/>
</g>
</svg>
