<?xml version="1.0" encoding="utf-8"?>
<!-- Generator: Adobe Illustrator 21.1.0, SVG Export Plug-In . SVG Version: 6.00 Build 0)  -->
<svg version="1.0" id="Layer_1" xmlns="http://www.w3.org/2000/svg" xmlns:xlink="http://www.w3.org/1999/xlink" x="0px" y="0px"
	 viewBox="0 0 214.1 214.1" style="enable-background:new 0 0 214.1 214.1;" xml:space="preserve">
<style type="text/css">
	.st0{fill:#FFFFFF;}
</style>
<g>
	<path class="st0" d="M146,118.8c-3.6-31.2-35-74.5-36.3-76.4l-0.2-0.3c-0.4-0.6-1.1-0.9-1.8-0.9s-1.3,0.3-1.8,0.9l-0.3,0.4
		c-0.1,0.1-8.2,11.3-16.7,26.2c-11.5,20.1-18,37-19.6,50.1c-2,16.9,1.1,30,9.2,39c6.8,7.6,17,11.8,28.9,11.8h0.5
		c11.9,0,22.1-4.2,28.9-11.8C144.9,148.8,148,135.7,146,118.8z M133.5,154.9c-5.9,6.7-15,10.3-25.6,10.3h-0.5
		c-10.6,0-19.7-3.7-25.6-10.3c-7.2-8-9.9-20-8.1-35.6c3-26.3,27.5-62.9,33.9-72.1c6.4,9.2,30.9,45.9,33.9,72.1
		C143.4,134.9,140.7,146.8,133.5,154.9z"/>
	<path class="st0" d="M115.8,80.9c-1.1,0.6-1.4,2-0.8,3c0.1,0.2,13.1,22.4,13.4,36.7c0,1.2,1,2.2,2.2,2.2c0,0,0,0,0,0
		c1.2,0,2.2-1,2.2-2.3c-0.3-15.4-13.5-37.9-14-38.8C118.2,80.6,116.8,80.3,115.8,80.9z"/>
</g>
</svg>
