<?xml version="1.0" encoding="utf-8"?>
<!-- Generator: Adobe Illustrator 19.2.1, SVG Export Plug-In . SVG Version: 6.00 Build 0)  -->
<svg version="1.1" id="Layer_1" xmlns="http://www.w3.org/2000/svg" xmlns:xlink="http://www.w3.org/1999/xlink" x="0px" y="0px"
	 viewBox="0 0 70.2 64" style="enable-background:new 0 0 70.2 64;" xml:space="preserve">
<style type="text/css">
	.st0{fill:#BBDC96;}
	.st1{fill:none;stroke:#BBDC96;stroke-width:2;stroke-miterlimit:10;}
	.st2{fill:none;}
</style>
<g>
	<path class="st0" d="M35.1,40.9l0.3,0.1c0.1,0,0.1,0,0.2,0c0.2,0,0.4-0.1,0.5-0.3c0.8-1.8,5.2-10.8,13.1-11.1
		c0.3,0,0.6-0.3,0.6-0.6v-0.4c0-0.2-0.1-0.3-0.2-0.4c-0.1-0.1-0.3-0.2-0.4-0.2c-4.1,0.1-7.9,2.3-11,6.3c-1.9,2.4-3.1,4.9-3.5,5.8
		c-0.1,0.1-0.1,0.3,0,0.5C34.9,40.7,35,40.8,35.1,40.9z"/>
	<path class="st0" d="M63.7,32.2 M36.4,2.1c-0.5-0.4-1.3-0.4-1.8,0c0,0-31.5,24.7-32.8,25.7c-1.3,1.1-1.2,2.5-0.9,3.2
		c0.5,0.9,1.2,1.2,2.7,1.2h3.2c0,0-0.1,27-0.1,27.3c0,1,0.8,1.7,1.7,1.7H62c1,0,1.7-0.8,1.7-1.7V36.5l0-4.2h3.2
		c1.5,0,2.2-0.3,2.7-1.2c0.4-0.7,0.5-2.2-0.9-3.2L36.4,2.1z M35.6,4l31.9,25.2c0.4,0.3,0.4,1.1-0.4,1.1h-4.3c-0.5,0-1,0.4-1,1
		l0,24.4l0,3.6h-29l0-14.1c0-0.1,0.1-0.1,0.1-0.1c7.3-0.4,13-2.6,16.8-6.7c5.3-5.6,5.1-12.5,5.1-12.8c0-0.5-0.4-0.9-0.9-1
		c-7.5-1.2-13.3,0.1-17.3,3.7c-6.4,5.8-5.9,15.4-5.9,15.8V48c-0.8-1-1.8-1.9-3-2.3c-0.4-1-1.4-3.3-3.4-5c-2.5-2.2-5.6-2.8-9.2-1.8
		c-0.5,0.1-0.8,0.6-0.8,1.1c0,0.2,0.5,4.5,3.9,6.8c2.2,1.5,5.1,1.8,8.6,0.9c1.9,0.6,3.3,3.4,3.8,4.7v7H8.8V31.3c0-0.5-0.4-1-1-1H3.5
		c-0.7,0-0.8-0.8-0.4-1.1L35.6,4z M61.8,31.2 M61.8,31.1 M32.7,42.8c0.1-2.6,0.8-8.9,5.2-12.9c2.6-2.4,6.3-3.6,10.7-3.6
		c1.2,0,2.5,0.1,3.8,0.3c0.1,0,0.1,0.1,0.1,0.2c-0.1,1.8-0.9,6.4-4.5,10.2c-3.4,3.6-8.5,5.6-15.2,6c0,0-0.1,0-0.1,0
		C32.7,42.9,32.7,42.9,32.7,42.8z M25.4,45.8c-2.5,0.5-4.5,0.2-6-0.8c-1.8-1.2-2.5-3.2-2.8-4.3C22,39.7,24.5,43.8,25.4,45.8z"/>
</g>
</svg>
