<?xml version="1.0" encoding="utf-8"?>
<!-- Generator: Adobe Illustrator 19.2.1, SVG Export Plug-In . SVG Version: 6.00 Build 0)  -->
<svg version="1.1" id="Layer_1" xmlns="http://www.w3.org/2000/svg" xmlns:xlink="http://www.w3.org/1999/xlink" x="0px" y="0px"
	 viewBox="0 0 70.2 53" style="enable-background:new 0 0 70.2 53;" xml:space="preserve">
<style type="text/css">
	.st0{fill:#BBDC96;}
	.st1{fill:none;stroke:#BBDC96;stroke-width:2;stroke-miterlimit:10;}
	.st2{fill:none;}
</style>
<g>
	<g>
		<g>
			<path class="st0" d="M35.9,13c0.7,0,1.2,0.6,1.2,1.2v0.6c1.7,0.2,3.2,0.8,4.5,1.6c0.5,0.3,0.9,0.7,0.9,1.4c0,0.9-0.7,1.6-1.6,1.6
				c-0.3,0-0.6-0.1-0.9-0.3c-1-0.6-2-1-3-1.3v5.6c4.4,1.1,6.3,2.9,6.3,6c0,3.2-2.5,5.3-6.2,5.7v1.7c0,0.7-0.6,1.2-1.2,1.2
				c-0.7,0-1.3-0.6-1.3-1.2v-1.8c-2.2-0.2-4.2-1-6-2.3c-0.5-0.3-0.8-0.8-0.8-1.4c0-0.9,0.7-1.6,1.6-1.6c0.3,0,0.7,0.1,1,0.3
				c1.4,1,2.7,1.7,4.3,1.9v-5.7c-4.2-1.1-6.2-2.7-6.2-6c0-3.1,2.5-5.3,6.1-5.5v-0.6C34.7,13.6,35.2,13,35.9,13z M34.8,22.9v-5.1
				c-1.9,0.2-2.8,1.2-2.8,2.4C32,21.4,32.5,22.2,34.8,22.9z M37.1,26.9v5.3c1.9-0.2,2.9-1.1,2.9-2.5C39.9,28.4,39.3,27.6,37.1,26.9z
				"/>
		</g>
		<path class="st0" d="M68.7,36.8c-3-1.2-6.6-2.4-10.7-3.5c0.8-2.5,1.3-5.1,1.3-7.7c0-13.1-10.6-23.7-23.7-23.7
			C22.6,1.9,12,12.5,12,25.6c0,2.7,0.5,5.3,1.3,7.8c-4.9,1.3-9,2.8-11.8,3.9c-0.5,0.2-0.8,0.8-0.6,1.4c0.2,0.4,0.6,0.7,1,0.7
			c0.1,0,0.3,0,0.4-0.1c2.8-1.1,6.9-2.6,11.8-3.9c0.8,1.8,1.9,3.5,3.1,5.1c-3.5,0.9-6,2-6.1,2c-0.2,0.1-0.4,0.3-0.5,0.5l-2.6,5.6
			c-0.2,0.4-0.1,0.8,0.2,1.2C8.3,49.9,8.6,50,8.9,50C9,50,9.1,50,9.3,50c0.1-0.1,13.6-5.2,26.8-5.2c13.2,0,25.4,5.1,25.6,5.2
			c0.4,0.2,0.9,0.1,1.2-0.2c0.3-0.3,0.4-0.8,0.2-1.2L60.4,43c-0.1-0.2-0.2-0.4-0.4-0.5c-0.1-0.1-2-1.1-5.9-2.1
			c1.3-1.6,2.3-3.3,3.1-5.1c4.1,1.1,7.8,2.3,10.7,3.5c0.5,0.2,1.2-0.1,1.4-0.6C69.6,37.6,69.3,37,68.7,36.8z M35.6,4
			c11.9,0,21.6,9.7,21.6,21.6c0,7.2-3.6,13.9-9.5,17.9c-1.3-0.2-5.2-0.8-11.6-0.8c-6.5,0-10.8,0.8-12.1,1c-0.1-0.1-0.2-0.2-0.3-0.2
			c-6-4-9.5-10.7-9.5-17.9C14.1,13.7,23.8,4,35.6,4z M12.3,44.2c0.9-0.4,3.5-1.3,6.5-2c0.8,0.8,1.6,1.5,2.4,2.2
			c-4.4,0.9-8.1,2-10.3,2.8L12.3,44.2z M60,47.1c-2.2-0.8-5.6-1.9-9.8-2.8c0.8-0.6,1.6-1.3,2.3-2.1c3.4,0.7,5.4,1.6,6.1,2L60,47.1z"
			/>
	</g>
</g>
</svg>
