<?xml version="1.0" encoding="utf-8"?>
<!-- Generator: Adobe Illustrator 19.2.1, SVG Export Plug-In . SVG Version: 6.00 Build 0)  -->
<svg version="1.1" id="Layer_1" xmlns="http://www.w3.org/2000/svg" xmlns:xlink="http://www.w3.org/1999/xlink" x="0px" y="0px"
	 viewBox="0 0 70.2 61.3" style="enable-background:new 0 0 70.2 61.3;" xml:space="preserve">
<style type="text/css">
	.st0{fill:#BBDC96;}
	.st1{fill:none;stroke:#BBDC96;stroke-width:2;stroke-miterlimit:10;}
	.st2{fill:none;}
</style>
<g>
	<path class="st0" d="M68.5,21.9l-32-19.6c-0.2-0.1-0.4-0.2-0.7-0.2c-0.3,0-0.5,0.1-0.7,0.2l-14.6,8.9c-0.1,0.1-0.3,0.1-0.4,0.1
		c-0.3,0-0.5-0.2-0.5-0.6l0-6.1c0-0.5-0.4-0.8-0.8-0.8H7c-0.5,0-0.8,0.4-0.8,0.8V19c0,0.5-0.4,1.2-0.8,1.4L3,21.9
		c-0.4,0.2-0.7,0.8-0.7,1.3v35.1c0,0.5,0.4,0.8,0.8,0.8l10.3,0c0.5,0,0.8-0.4,0.8-0.8V36c0-0.5,0.4-1,1-1h13.6c0.5,0,1,0.4,1,1v22.3
		c0,0.5,0.4,0.8,0.8,0.8l37.8,0c0.5,0,0.8-0.4,0.8-0.8V23.2C69.2,22.7,68.9,22.1,68.5,21.9z M9,7.5c0-0.5,0.4-1,1-1h5.8
		c0.5,0,1,0.4,1,1v4.9c0,0.5-0.4,1.2-0.8,1.4l-6.1,3.7c-0.1,0.1-0.3,0.1-0.4,0.1c-0.3,0-0.5-0.2-0.5-0.6V7.5z M11.5,55.4
		c0,0.5-0.4,1-1,1H6.1c-0.5,0-1-0.4-1-1V27.7c0-0.5,0.4-1,1-1h4.4c0.5,0,1,0.4,1,1V55.4z M20.6,31.3c0,0.5-0.4,1-1,1h-4.4
		c-0.5,0-1-0.4-1-1v-3.6c0-0.5,0.4-1,1-1h4.4c0.5,0,1,0.4,1,1V31.3z M29.8,31.3c0,0.5-0.4,1-1,1h-4.4c-0.5,0-1-0.4-1-1v-3.6
		c0-0.5,0.4-1,1-1h4.4c0.5,0,1,0.4,1,1V31.3z M6.2,23.9c-0.3,0-0.5-0.1-0.5-0.2c0-0.1,0.1-0.3,0.3-0.4L34.9,5.6
		c0.2-0.1,0.5-0.2,0.8-0.2s0.6,0.1,0.8,0.2l28.9,17.7c0.2,0.2,0.4,0.3,0.3,0.4c0,0.1-0.2,0.2-0.5,0.2H6.2z M42.7,35.1h13.6
		c0.5,0,1,0.4,1,1v6.6c0,0.5-0.4,1-1,1H42.7c-0.5,0-1-0.4-1-1V36C41.7,35.5,42.2,35.1,42.7,35.1z M41.7,31.3v-3.6c0-0.5,0.4-1,1-1
		h4.4c0.5,0,1,0.4,1,1v3.6c0,0.5-0.4,1-1,1h-4.4C42.2,32.3,41.7,31.8,41.7,31.3z M56.3,32.3h-4.4c-0.5,0-1-0.4-1-1v-3.6
		c0-0.5,0.4-1,1-1h4.4c0.5,0,1,0.4,1,1v3.6C57.3,31.8,56.8,32.3,56.3,32.3z M38.9,55.4c0,0.5-0.4,1-1,1h-4.4c-0.5,0-1-0.4-1-1V27.7
		c0-0.5,0.4-1,1-1H38c0.5,0,1,0.4,1,1V55.4z M48.1,55.4c0,0.5-0.4,1-1,1h-4.4c-0.5,0-1-0.4-1-1v-8c0-0.5,0.4-1,1-1h4.4
		c0.5,0,1,0.4,1,1V55.4z M57.3,55.4c0,0.5-0.4,1-1,1h-4.4c-0.5,0-1-0.4-1-1v-8c0-0.5,0.4-1,1-1h4.4c0.5,0,1,0.4,1,1V55.4z
		 M66.4,55.4c0,0.5-0.4,1-1,1H61c-0.5,0-1-0.4-1-1V27.7c0-0.5,0.4-1,1-1h4.4c0.5,0,1,0.4,1,1V55.4z"/>
</g>
</svg>
