<?xml version="1.0" encoding="utf-8"?>
<!-- Generator: Adobe Illustrator 19.2.1, SVG Export Plug-In . SVG Version: 6.00 Build 0)  -->
<svg version="1.1" id="Layer_1" xmlns="http://www.w3.org/2000/svg" xmlns:xlink="http://www.w3.org/1999/xlink" x="0px" y="0px"
	 viewBox="0 0 55.7 70.5" style="enable-background:new 0 0 55.7 70.5;" xml:space="preserve">
<style type="text/css">
	.st0{fill:#BBDC96;}
	.st1{fill:none;stroke:#BBDC96;stroke-width:2;stroke-miterlimit:10;}
	.st2{fill:none;}
</style>
<g>
	<path class="st0" d="M47.3,2.2c-2-0.1-4.1,0-6.1,0c-4.5,0-8.9,0-13.4,0c-4.5,0-9,0-13.5,0c-2.2,0-4.3,0-6.5,0
		C4.5,2.2,1.9,4.8,1.9,8c0,0.5,0,0.9,0,1.4c0,2.9,0,5.8,0,8.7c0,4.5,0,9,0,13.4c0,4.8,0,9.6,0,14.4c0,3.9,0,7.7,0,11.6
		c0,1.7,0,3.3,0,5c0,3.2,2.7,5.9,5.9,5.9c0.6,0,1.3,0,1.9,0c3.6,0,7.3,0,10.9,0c4.8,0,9.6,0,14.4,0c3.5,0,7.1,0,10.6,0
		c0.6,0,1.1,0,1.7,0c3.2,0,5.8-2.7,5.9-5.9c0,0,0,0,0,0c0,0,0,0,0,0c0-1.5,0-3.1,0-4.6c0-3.8,0-7.6,0-11.4c0-4.8,0-9.6,0-14.3
		c0-4.5,0-9,0-13.6c0-3,0-6,0-9c0-0.5,0-1.1,0-1.6C53,4.9,50.4,2.3,47.3,2.2z M50.4,64.6c-0.3,0.6-0.9,1-1.5,1.4
		c-0.6,0.3-1.2,0.4-1.9,0.4c-0.8,0-1.7,0-2.5,0c-3.9,0-7.7,0-11.6,0c-4.8,0-9.5,0-14.3,0c-3.3,0-6.5,0-9.8,0c-0.3,0-0.6,0-0.9,0
		c0,0-0.1,0-0.1,0c-0.1,0-0.1,0-0.2,0c-0.1,0-0.2,0-0.3,0c0.1,0-0.2,0-0.2,0c-0.2,0-0.4-0.1-0.6-0.1c-0.1,0-0.2-0.1-0.3-0.1
		c0.2,0.1-0.2-0.1-0.2-0.1c-0.2-0.1-0.3-0.2-0.5-0.3c0,0-0.1-0.1-0.2-0.1c-0.1,0-0.1-0.1-0.2-0.1c-0.1-0.1-0.3-0.3-0.4-0.4
		c-0.1-0.1-0.1-0.1-0.2-0.2c0.1,0.2-0.1-0.2-0.1-0.2c-0.1-0.2-0.2-0.3-0.3-0.5c0,0-0.1-0.1-0.1-0.2c0-0.1-0.1-0.1-0.1-0.2
		C4,63.7,4,63.5,4,63.3c0,0,0-0.1,0-0.2c0-0.1,0-0.2,0-0.3c0-0.1,0-0.3,0-0.4c0-2.2,0-4.4,0-6.6c0-4.1,0-8.3,0-12.4
		c0-4.8,0-9.7,0-14.5c0-4.3,0-8.5,0-12.8c0-2.4,0-4.9,0-7.3c0-0.2,0-0.4,0-0.5c0,0,0,0,0,0c0,0,0,0,0,0c0-0.1,0-0.2,0-0.3
		c0-0.1,0-0.1,0-0.2c0,0.1,0,0.1,0,0C4,7.3,4,7.1,4.1,6.9c0-0.1,0.1-0.2,0.1-0.3c0,0,0-0.1,0-0.1c0,0,0,0,0,0C4.3,6.4,4.4,6.2,4.5,6
		c0-0.1,0.1-0.2,0.2-0.2c0,0,0.1-0.1,0.1-0.1c0,0,0-0.1,0.1-0.1C4.9,5.5,5,5.3,5.2,5.2C5.2,5.2,5.3,5.1,5.4,5c0,0,0,0,0,0
		c0,0,0,0,0.1-0.1C5.6,4.8,5.8,4.8,6,4.7c0.1,0,0.2-0.1,0.3-0.1c0.1,0,0.1-0.1,0,0c0.1,0,0.1,0,0.2-0.1C6.6,4.4,6.8,4.3,7,4.3
		c0.1,0,0.2,0,0.3,0c-0.1,0,0.1,0,0.2,0c0.1,0,0.2,0,0.3,0c0.2,0,0.4,0,0.6,0c3,0,6,0,9,0c4.7,0,9.5,0,14.2,0c4.1,0,8.1,0,12.2,0
		c1,0,2,0,3.1,0c0.2,0,0.5,0,0.7,0c0,0,0.2,0,0.2,0c0.1,0,0.1,0,0.2,0c0.2,0,0.4,0.1,0.6,0.2c0,0,0.2,0.1,0.2,0.1
		c0.1,0,0.1,0.1,0.2,0.1C49,4.7,49.2,4.8,49.4,5c0,0,0,0,0.1,0c0,0,0,0,0,0c0.1,0.1,0.1,0.1,0.2,0.2c0.1,0.1,0.3,0.3,0.4,0.4
		c0,0,0.1,0.1,0.1,0.1c0,0.1,0.1,0.1,0.1,0.2c0.1,0.2,0.2,0.4,0.3,0.6c0,0,0,0,0,0c0,0,0,0,0,0.1c0,0.1,0.1,0.2,0.1,0.3
		c0.1,0.2,0.1,0.4,0.1,0.6c0,0,0,0,0,0c0,0,0,0,0,0.1c0,0.1,0,0.2,0,0.3C51,8,51,8,51,8c0,0,0,0.1,0,0.1c0,0.2,0,0.5,0,0.7
		c0,1,0,2,0,3c0,3.6,0,7.3,0,10.9c0,4.7,0,9.5,0,14.2c0,4.6,0,9.2,0,13.8c0,3.2,0,6.4,0,9.6c0,0.7,0,1.5,0,2.2
		C50.9,63.4,50.8,64,50.4,64.6z"/>
	<path class="st0" d="M45.1,9.6c-2.2,0-4.4,0-6.6,0c-4.6,0-9.2,0-13.9,0c-4.1,0-8.1,0-12.2,0c-0.9,0-1.8,0-2.8,0c-0.6,0-1,0.5-1,1
		c0,3.6,0,7.3,0,10.9c0,0.4,0,0.8,0,1.3c0,0.6,0.5,1,1,1c2.2,0,4.4,0,6.6,0c4.6,0,9.2,0,13.9,0c4.1,0,8.1,0,12.2,0
		c0.9,0,1.8,0,2.8,0c0.6,0,1-0.5,1-1c0-3.6,0-7.3,0-10.9c0-0.4,0-0.8,0-1.3C46.2,10.1,45.7,9.6,45.1,9.6z"/>
	<path class="st0" d="M18,28c-2.8,0-5.5,0-8.3,0c-0.6,0-1,0.5-1,1c0,2.3,0,4.6,0,6.8c0,0.6,0.5,1,1,1c2.8,0,5.5,0,8.3,0
		c0.6,0,1-0.5,1-1c0-2.3,0-4.6,0-6.8C19.1,28.5,18.6,28,18,28z M17,30.1c0,1.6,0,3.2,0,4.8c-2.1,0-4.2,0-6.3,0c0-1.6,0-3.2,0-4.8
		C12.8,30.1,14.9,30.1,17,30.1z"/>
	<path class="st0" d="M31.6,28c-2.8,0-5.5,0-8.3,0c-0.6,0-1,0.5-1,1c0,2.3,0,4.6,0,6.8c0,0.6,0.5,1,1,1c2.8,0,5.5,0,8.3,0
		c0.6,0,1-0.5,1-1c0-2.3,0-4.6,0-6.8C32.6,28.5,32.2,28,31.6,28z M30.6,30.1c0,1.6,0,3.2,0,4.8c-2.1,0-4.2,0-6.3,0
		c0-1.6,0-3.2,0-4.8C26.4,30.1,28.5,30.1,30.6,30.1z"/>
	<path class="st0" d="M45.1,28c-2.8,0-5.5,0-8.3,0c-0.6,0-1,0.5-1,1c0,2.3,0,4.6,0,6.8c0,0.6,0.5,1,1,1c2.8,0,5.5,0,8.3,0
		c0.6,0,1-0.5,1-1c0-2.3,0-4.6,0-6.8C46.2,28.5,45.7,28,45.1,28z M44.1,30.1c0,1.6,0,3.2,0,4.8c-2.1,0-4.2,0-6.3,0
		c0-1.6,0-3.2,0-4.8C39.9,30.1,42,30.1,44.1,30.1z"/>
	<path class="st0" d="M18,40.4c-2.8,0-5.5,0-8.3,0c-0.6,0-1,0.5-1,1c0,2.3,0,4.6,0,6.8c0,0.6,0.5,1,1,1c2.8,0,5.5,0,8.3,0
		c0.6,0,1-0.5,1-1c0-2.3,0-4.6,0-6.8C19.1,40.9,18.6,40.4,18,40.4z M17,42.5c0,1.6,0,3.2,0,4.8c-2.1,0-4.2,0-6.3,0
		c0-1.6,0-3.2,0-4.8C12.8,42.5,14.9,42.5,17,42.5z"/>
	<path class="st0" d="M31.6,40.4c-2.8,0-5.5,0-8.3,0c-0.6,0-1,0.5-1,1c0,2.3,0,4.6,0,6.8c0,0.6,0.5,1,1,1c2.8,0,5.5,0,8.3,0
		c0.6,0,1-0.5,1-1c0-2.3,0-4.6,0-6.8C32.6,40.9,32.2,40.4,31.6,40.4z M30.6,42.5c0,1.6,0,3.2,0,4.8c-2.1,0-4.2,0-6.3,0
		c0-1.6,0-3.2,0-4.8C26.4,42.5,28.5,42.5,30.6,42.5z"/>
	<path class="st0" d="M18,52.8c-2.8,0-5.5,0-8.3,0c-0.6,0-1,0.5-1,1c0,2.3,0,4.6,0,6.8c0,0.6,0.5,1,1,1c2.8,0,5.5,0,8.3,0
		c0.6,0,1-0.5,1-1c0-2.3,0-4.6,0-6.8C19.1,53.3,18.6,52.8,18,52.8z M17,54.8c0,1.6,0,3.2,0,4.8c-2.1,0-4.2,0-6.3,0
		c0-1.6,0-3.2,0-4.8C12.8,54.8,14.9,54.8,17,54.8z"/>
	<path class="st0" d="M31.6,52.8c-2.8,0-5.5,0-8.3,0c-0.6,0-1,0.5-1,1c0,2.3,0,4.6,0,6.8c0,0.6,0.5,1,1,1c2.8,0,5.5,0,8.3,0
		c0.6,0,1-0.5,1-1c0-2.3,0-4.6,0-6.8C32.6,53.3,32.2,52.8,31.6,52.8z M30.6,54.8c0,1.6,0,3.2,0,4.8c-2.1,0-4.2,0-6.3,0
		c0-1.6,0-3.2,0-4.8C26.4,54.8,28.5,54.8,30.6,54.8z"/>
	<path class="st0" d="M45.1,40.4c-2.8,0-5.5,0-8.3,0c-0.6,0-1,0.5-1,1c0,3.3,0,6.6,0,9.8c0,3.1,0,6.3,0,9.4c0,0.6,0.5,1,1,1
		c2.8,0,5.5,0,8.3,0c0.6,0,1-0.5,1-1c0-3.3,0-6.6,0-9.8c0-3.1,0-6.3,0-9.4C46.2,40.9,45.7,40.4,45.1,40.4z M44.1,59.6
		c-2.1,0-4.2,0-6.3,0c0-2.9,0-5.9,0-8.8c0-2.8,0-5.6,0-8.4c2.1,0,4.2,0,6.3,0c0,2.9,0,5.9,0,8.8C44.1,54.1,44.1,56.8,44.1,59.6z"/>
</g>
</svg>
