<?xml version="1.0" encoding="utf-8"?>
<!-- Generator: Adobe Illustrator 19.1.0, SVG Export Plug-In . SVG Version: 6.00 Build 0)  -->
<svg version="1.1" id="Layer_1" xmlns="http://www.w3.org/2000/svg" xmlns:xlink="http://www.w3.org/1999/xlink" x="0px" y="0px"
	 viewBox="0 0 70 70" style="enable-background:new 0 0 70 70;" xml:space="preserve">
<style type="text/css">
	.st0{fill:#BCDB96;}
	.st1{fill:#FFFFFF;}
	.st2{fill:#124B86;}
	.st3{fill:none;stroke:#124B86;stroke-width:2;stroke-miterlimit:10;}
</style>
<g>
	<path class="st0" d="M63.4,42.8L45.1,26.1v-8.4c0-0.6-0.5-1.2-1.2-1.2h-8.2V0h-2.3v16.5h-8c-0.6,0-1.2,0.5-1.2,1.2v8.6L5.7,42.8
		c-0.4,0.3-0.5,0.9-0.3,1.2c0.2,0.5,0.6,0.7,1.1,0.7h20.9c0.6,3.4,3.6,6.1,7.2,6.1c3.6,0,6.6-2.7,7.2-6.1h20.9
		c0.6,0,1.2-0.5,1.2-1.2C63.9,43.4,63.8,43,63.4,42.8z M34.6,48.7c-2.3,0-4.3-1.6-4.8-3.8h9.7C38.9,47.1,36.9,48.7,34.6,48.7z
		 M9.4,42.6l1.5-1.3h35.9c0.3,0,0.5-0.2,0.5-0.5c0-0.3-0.2-0.6-0.5-0.6H12.2L25.8,28h17.9l16.1,14.6H9.4z"/>
	<path class="st0" d="M34.6,55.3c-0.3,0-0.5,0.2-0.5,0.5v6c0,0.3,0.2,0.5,0.5,0.5c0.3,0,0.5-0.2,0.5-0.5v-6
		C35.1,55.5,34.9,55.3,34.6,55.3z"/>
	<path class="st0" d="M24.8,49.5l-4.2,4.2c-0.2,0.2-0.2,0.6,0,0.8c0.1,0.1,0.2,0.2,0.4,0.2c0.2,0,0.3-0.1,0.4-0.2l4.2-4.2
		c0.2-0.2,0.2-0.6,0-0.8C25.4,49.3,25,49.3,24.8,49.5z"/>
	<path class="st0" d="M29.6,54.2c-0.3-0.2-0.6-0.1-0.8,0.2l-3,5.2c-0.2,0.3-0.1,0.6,0.2,0.8c0.1,0,0.2,0,0.2,0
		c0.2,0,0.4-0.1,0.5-0.3l3-5.2C30,54.7,29.9,54.3,29.6,54.2z"/>
	<path class="st0" d="M40.2,54.4c-0.2-0.3-0.5-0.4-0.8-0.2c-0.3,0.2-0.4,0.5-0.2,0.8l3,5.2c0.1,0.2,0.3,0.3,0.5,0.3
		c0.1,0,0.2,0,0.3-0.1c0.3-0.2,0.4-0.5,0.2-0.8L40.2,54.4z"/>
	<path class="st0" d="M44.4,49.5c-0.2-0.2-0.6-0.2-0.8,0c-0.2,0.2-0.2,0.6,0,0.8l4.2,4.2c0.1,0.1,0.2,0.2,0.4,0.2
		c0.2,0,0.3-0.1,0.4-0.2c0.2-0.2,0.2-0.6,0-0.8L44.4,49.5z"/>
</g>
<rect x="26.6" y="18.4" class="st1" width="16.2" height="3.6"/>
</svg>
