<?xml version="1.0" encoding="utf-8"?>
<!-- Generator: Adobe Illustrator 19.1.0, SVG Export Plug-In . SVG Version: 6.00 Build 0)  -->
<svg version="1.1" id="Layer_1" xmlns="http://www.w3.org/2000/svg" xmlns:xlink="http://www.w3.org/1999/xlink" x="0px" y="0px"
	 viewBox="0 0 70 70" style="enable-background:new 0 0 70 70;" xml:space="preserve">
<style type="text/css">
	.st0{fill:#BCDB96;}
	.st1{fill:#FFFFFF;}
	.st2{fill:#124B86;}
	.st3{fill:none;stroke:#124B86;stroke-width:2;stroke-miterlimit:10;}
</style>
<g transform="translate(0,-1020.3622)">
	<path class="st0" d="M56,1054.5v1.9h4v-1.9H56z M58.8,1047.2l-3.9,1l0.5,1.8l3.9-1L58.8,1047.2z M55.8,1040.5l-3.5,2l1,1.6l3.5-2
		L55.8,1040.5z M51.1,1034.8l-2.8,2.8l1.3,1.3l2.8-2.8L51.1,1034.8z M45.2,1030.5l-2,3.5l1.6,0.9l2-3.5L45.2,1030.5z"/>
	<path class="st0" d="M51.6,1061.5l-4.1-7.1c2.7-2.1,3.5-5.9,1.8-9c-1.8-3-5.5-4.2-8.6-2.9l-4.1-7.1c-0.2-0.3-0.5-0.5-0.9-0.5
		c-0.2,0-0.3,0.1-0.4,0.1l-3.5,2c-0.5,0.3-0.6,0.8-0.3,1.3l0.5,0.8c0,0,0,0,0,0c1.7,2.9,0.7,6.7-2.2,8.3l-3.7,2.2l-4.9,2.9l-0.8,0.5
		c0,0,0,0-0.1,0l-1.7,1l-4.3,2.5c-1.9,1.1-2.5,3.5-1.4,5.4l0,0.1l-1.8,1c-0.9,0.5-1.2,1.7-0.7,2.7l2,3.5c0.5,0.9,1.7,1.2,2.7,0.7
		l1.8-1l0,0c0.9,1.6,2.8,2.3,4.4,1.8l1.8,6.2l1,3.5l1,3.5c0.2,0.5,0.7,0.7,1.1,0.4h0l6.1-3.5c0.5-0.3,0.7-0.9,0.5-1.4l-3.9-12.9
		l0.1-0.1l4.9-2.9l3.7-2.2c2.9-1.7,6.6-0.7,8.3,2.2l0.5,0.9c0.3,0.4,0.8,0.6,1.3,0.3v0l3.5-2C51.7,1062.5,51.8,1061.9,51.6,1061.5z
		 M43.4,1044c1.7,0,3.3,0.7,4.2,2.3c0.8,1.4,0.1,3.9-1.6,5.5l-2-3.4l-2.3-4.1C42.3,1044.1,42.9,1044,43.4,1044z M18.3,1068l-0.5-0.8
		c0,0,0,0,0,0l0,0l-3-5.2c0,0,0,0,0,0l-0.5-0.8c-0.6-1-0.2-2.3,0.8-2.8l4.3-2.5l0.9-0.5l6.1,10.6l-0.9,0.5l-4.3,2.5
		C20.2,1069.3,18.9,1069,18.3,1068z M30.9,1079.4l-4.4,2.6l-0.8-2.5l-1-3.5l-1-3.4l-0.8-2.6l3.6-2.1l0.8-0.5L30.9,1079.4z
		 M36.8,1059.7l-3.7,2.2l-4.9,2.9l0,0l-6.1-10.6l0,0l4.9-2.9l3.7-2.2c2.1-1.2,3.4-3.4,3.8-5.7l9.1,15.8
		C41.4,1058.4,38.9,1058.4,36.8,1059.7z M47.6,1062.6L47.6,1062.6C47.6,1062.6,47.6,1062.6,47.6,1062.6l-14-24.4l0-0.1l1.8-1.1l4,7
		c0,0,0,0,0,0l3,5.2l0.3,0.6l2.7,4.7c0,0,0,0,0,0.1l4,6.9L47.6,1062.6z"/>
</g>
<path class="st0" d="M30.1,43.9c0,0,2.1,3.6-0.3,5.1c-1.2,0-1.2,0-1.2,0l-1.1-3.5L30.1,43.9z"/>
</svg>
