<?xml version="1.0" encoding="utf-8"?>
<!-- Generator: Adobe Illustrator 19.1.0, SVG Export Plug-In . SVG Version: 6.00 Build 0)  -->
<svg version="1.1" id="Layer_1" xmlns="http://www.w3.org/2000/svg" xmlns:xlink="http://www.w3.org/1999/xlink" x="0px" y="0px"
	 viewBox="0 0 70 70" style="enable-background:new 0 0 70 70;" xml:space="preserve">
<style type="text/css">
	.st0{fill:#BCDB96;}
	.st1{fill:#FFFFFF;}
	.st2{fill:#124B86;}
	.st3{fill:none;stroke:#124B86;stroke-width:2;stroke-miterlimit:10;}
</style>
<g>
	<path class="st0" d="M44.2,12.3l-18.5,6.9l-19-7c-0.4-0.2-0.8,0.2-0.8,0.6v37.7c0,0.5,0.3,0.9,0.7,1.1l18.6,6.9l0.2,0.1l0.5,0
		l18.8-6.9l18.1,6.7c0.7,0.3,1.5-0.3,1.5-1.1v-37c0-0.5-0.3-0.9-0.7-1.1l-18.5-6.9C44.7,12.2,44.4,12.2,44.2,12.3z M24.5,56.3
		L8,50.2c-0.3-0.1-0.5-0.4-0.5-0.7V15c0-0.3,0.3-0.6,0.6-0.4l16.2,6c0.2,0.1,0.3,0.2,0.3,0.4v35.1C24.7,56.2,24.6,56.3,24.5,56.3z
		 M26.8,20.5l16.7-6.1c0.1,0,0.2,0,0.2,0.1V50l-17,6.3c-0.1,0-0.2,0-0.2-0.2V20.9C26.4,20.7,26.6,20.6,26.8,20.5z M62,56.2
		l-16.4-6.1c-0.1,0-0.2-0.2-0.2-0.3V14.5c0-0.1,0.1-0.2,0.2-0.1l16.5,6.1c0.2,0.1,0.3,0.2,0.3,0.4v34.9C62.5,56.1,62.2,56.2,62,56.2
		z"/>
	<path class="st0" d="M7.3,44.3c-0.5-0.1-0.8-0.2-0.8-0.2l0.4-1.4c0,0,0.3,0.1,0.6,0.1L7.3,44.3z"/>
	<path class="st0" d="M8.9,44.4l0-1.4c0.5,0,0.9-0.1,1.3-0.1l0.3,1.4C10,44.3,9.4,44.4,8.9,44.4z M12,43.7l-0.6-1.3
		c0.4-0.2,0.7-0.4,1-0.7l1,1C13,43.1,12.5,43.5,12,43.7z M14.4,41.5l-1.2-0.7c0.2-0.3,0.4-0.7,0.5-1.2L15,40
		C14.9,40.5,14.6,41,14.4,41.5z M57.3,41.1c-0.2-0.4-0.4-0.9-0.5-1.4l1.4-0.5c0.2,0.5,0.3,0.9,0.5,1.3L57.3,41.1z M15.4,38.6
		l-1.4-0.5c0.2-0.5,0.4-1,0.6-1.4l1.3,0.6C15.7,37.7,15.6,38.2,15.4,38.6z M56.3,38.3c-0.2-0.5-0.3-0.9-0.4-1.4l1.4-0.4
		c0.1,0.5,0.3,0.9,0.4,1.4L56.3,38.3z M38.5,37.7L38,36.4c0.4-0.1,0.8-0.3,1.3-0.5l0.6,1.3C39.3,37.4,38.9,37.6,38.5,37.7z
		 M36.5,37.7c-0.3-0.2-0.8-0.3-1.2-0.5l0.5-1.4c0.6,0.2,1.1,0.4,1.5,0.6L36.5,37.7z M33.9,36.7c-0.4-0.2-0.9-0.4-1.4-0.6l0.6-1.3
		c0.5,0.2,0.9,0.4,1.3,0.5L33.9,36.7z M41.2,36.4l-0.7-1.3c0.4-0.2,0.8-0.5,1.3-0.7l0.7,1.2C42,35.9,41.6,36.2,41.2,36.4z
		 M16.5,36.1l-1.2-0.7c0.3-0.5,0.5-0.9,0.8-1.3l1.2,0.9C17,35.3,16.8,35.7,16.5,36.1z M55.5,35.5l-0.4-1.4l1.4-0.4l0.4,1.4
		L55.5,35.5z M31.1,35.5c-0.4-0.2-0.8-0.5-1.3-0.8l0.8-1.2c0.4,0.3,0.8,0.5,1.2,0.8L31.1,35.5z M43.7,35L43,33.7l1.3-0.7l0.7,1.2
		L43.7,35z M18.2,33.9l-1.1-1c0.4-0.4,0.7-0.7,1.1-1.1l0.9,1.1C18.8,33.2,18.5,33.5,18.2,33.9z M28.7,33.7c-0.1-0.1-0.3-0.2-0.4-0.4
		c-0.2-0.2-0.4-0.4-0.7-0.6l0.9-1.1c0.2,0.2,0.5,0.4,0.8,0.6c0.1,0.1,0.2,0.2,0.4,0.3L28.7,33.7z M46.2,33.6l-0.7-1.3
		c0.5-0.3,0.9-0.5,1.3-0.7l0.6,1.3C47.1,33.1,46.7,33.3,46.2,33.6z M54.7,32.9c-0.1-0.3-0.4-0.5-0.7-0.6l0.6-1.3
		c0.6,0.3,1.1,0.7,1.4,1.3L54.7,32.9z M48.7,32.5l-0.4-1.4c0.5-0.1,0.9-0.2,1.5-0.3l0.3,1.4C49.6,32.3,49.2,32.4,48.7,32.5z
		 M20.2,32.2L19.5,31c0.4-0.2,1-0.5,1.5-0.6l0.3,1.4l-0.2,0C21,31.8,20.7,32,20.2,32.2z M26.5,32c-0.4-0.2-0.8-0.4-1.2-0.5l0.4-1.4
		c0.5,0.1,1,0.3,1.5,0.6L26.5,32z M51.5,32l-0.1-1.4c0.3,0,0.7,0,1,0c0.2,0,0.4,0,0.6,0L52.8,32c-0.2,0-0.4,0-0.5,0
		C52,31.9,51.7,31.9,51.5,32z M22.8,31.5l-0.3-1.4c0.5-0.1,1-0.2,1.5-0.2l0.1,0.7l0,0.7C23.6,31.4,23.2,31.4,22.8,31.5z"/>
	<path class="st0" d="M58.5,43.2c-0.2-0.2-0.3-0.4-0.5-0.7l1.3-0.7c0.2,0.3,0.3,0.4,0.3,0.4L58.5,43.2z"/>
	<path class="st0" d="M61.6,43.7l-1-1l-1.8,1.8L57,42.7l-1,1l1.8,1.8L56,47.3l1,1l1.8-1.8l1.8,1.8l1-1l-1.8-1.8L61.6,43.7z"/>
</g>
</svg>
