<?xml version="1.0" encoding="utf-8"?>
<!-- Generator: Adobe Illustrator 19.1.0, SVG Export Plug-In . SVG Version: 6.00 Build 0)  -->
<svg version="1.1" id="Layer_1" xmlns="http://www.w3.org/2000/svg" xmlns:xlink="http://www.w3.org/1999/xlink" x="0px" y="0px"
	 viewBox="0 0 70 70" style="enable-background:new 0 0 70 70;" xml:space="preserve">
<style type="text/css">
	.st0{fill:#BCDB96;}
	.st1{fill:#FFFFFF;}
	.st2{fill:#124B86;}
	.st3{fill:none;stroke:#124B86;stroke-width:2;stroke-miterlimit:10;}
</style>
<path class="st0" d="M37.6,19.9l6-6l-2.5-2.5l-7,7v13h-3.5V35h3.5v3.5h3.5V35h22.9v28.1H37.6V45.6h-3.5v3.5H20v3.5h14.1v10.6H9.5
	V52.6H13v-3.5H9.5V35h14.1v-3.5H9.5V6.9h24.6v3.5h3.5V5.8c0-1.4-1.1-2.5-2.5-2.5H8.4C7.1,3.3,6,4.4,6,5.8v58.4
	c0,1.4,1.1,2.5,2.5,2.5h53.1c1.4,0,2.5-1.1,2.5-2.5V34c0-1.4-1.1-2.5-2.5-2.5H40.1c-1.4,0-2.5-1.1-2.5-2.5V19.9z"/>
</svg>
