<?xml version="1.0" encoding="utf-8"?>
<!-- Generator: Adobe Illustrator 19.1.0, SVG Export Plug-In . SVG Version: 6.00 Build 0)  -->
<svg version="1.1" id="Layer_1" xmlns="http://www.w3.org/2000/svg" xmlns:xlink="http://www.w3.org/1999/xlink" x="0px" y="0px"
	 viewBox="0 0 70 70" style="enable-background:new 0 0 70 70;" xml:space="preserve">
<style type="text/css">
	.st0{fill:#BCDB96;}
	.st1{fill:#FFFFFF;}
	.st2{fill:#124B86;}
	.st3{fill:none;stroke:#124B86;stroke-width:2;stroke-miterlimit:10;}
</style>
<path class="st0" d="M52.4,24.1C52.4,24.1,52.4,24.1,52.4,24.1c0.2-1.1,0.3-2.2,0.3-3.4c0.1-8-5.2-15-13-16.9
	c-11.4-2.8-21.5,6-21.5,16.8c0,1.1-0.6,7,5.1,13c-0.4,1.3-0.8,2.9-0.8,4.2c0,1.2,1.4,6.5,1.4,6.5l-0.7,0.7h-2.9
	c-1.6,0-2.9,1.3-2.9,2.9v2.2h-2.9c-1.6,0-2.9,1.3-2.9,2.9v5c0,2,1.6,3.6,3.6,3.6h3.6c0.8,0,3.1-0.9,3.6-1.4l10.1-9.4
	c2.2,0.7,5,0,6.5-0.7v0l2.9,4.7L39.7,58c-0.8,1-0.8,1.8,0,2.9l3.6,4.3c0.5,0.7,1.3,1.4,2.2,1.4c0.9,0,1.6-0.8,2.2-1.4l3.6-4.1
	c0.4-0.5,0.7-1.2,0.7-1.8V45.8c1.4-1,3.3-2.7,4.3-4.3C60.1,35.6,58.3,28,52.4,24.1z M22.1,27.7C22.1,27.7,22.1,27.7,22.1,27.7
	c-1.1-2.2-1.3-4.3-1.3-6.8c0-7.7,6.3-15.1,14.7-15.1c8.1,0,14.7,6.3,14.7,14.7c0,0.8-0.1,1.6-0.2,2.3c-1.5-0.6-3.1-0.9-4.8-0.9
	c-3.1,0-6,1.1-8.2,3.1c-0.3,0-0.9-0.1-1.8-0.1c-0.7,0-1.6,0.1-2.5,0.3c-3.9,0.8-6.6,3.1-8.1,5.8C23.4,29.8,22.6,28.7,22.1,27.7z
	 M31.8,47.2L19.6,58.8h-3.4c-0.9,0-1.6-0.7-1.6-1.6V53h5.8v-5h4.4l2.7-2.9c-1.1-1.2-1.5-3.3-1.9-5.1c-1.1-5.3,2.3-10.6,7.6-11.8
	c0.5-0.1,1-0.2,1.4-0.2c-3.7,5.9-2.7,15.7,5.8,17.8C39,49.4,31.8,47.2,31.8,47.2z M54.1,40c-1.1,1.8-3.6,3.6-5,4.3v15l-2.5,3.1
	c-0.6,0.7-1.7,0.7-2.3,0l-2.5-3.1l3.7-4.5l-3.6-4.7l2.9-3.6v-1.4c-1.5-0.1-2.6-0.5-3.6-1.1c-3.8-2.1-6.1-6.1-5.8-10.4
	c0.5-5.9,5.4-8.7,10-8.7c1.4,0,2.7,0.3,4,0.8c-0.5,1.2-1.1,2.3-1.9,3.4c-0.1-0.1-0.1-0.1-0.2-0.2c-1.9-1.2-4.5-0.4-5.3,1.8
	c-0.5,1.2-0.2,2.7,0.8,3.7c1.7,1.8,4.4,1.4,5.6-0.5c0.6-0.9,0.7-2,0.4-3c1.1-1.2,1.9-2.6,2.6-4C55.5,30,57,35.7,54.1,40z"/>
</svg>
