<?xml version="1.0" encoding="utf-8"?>
<!-- Generator: Adobe Illustrator 19.1.0, SVG Export Plug-In . SVG Version: 6.00 Build 0)  -->
<svg version="1.1" id="Layer_1" xmlns="http://www.w3.org/2000/svg" xmlns:xlink="http://www.w3.org/1999/xlink" x="0px" y="0px"
	 viewBox="0 0 70 70" style="enable-background:new 0 0 70 70;" xml:space="preserve">
<style type="text/css">
	.st0{fill:#BCDB96;}
	.st1{fill:#FFFFFF;}
	.st2{fill:#124B86;}
	.st3{fill:none;stroke:#124B86;stroke-width:2;stroke-miterlimit:10;}
</style>
<g>
	<path class="st2" d="M30.8,32.2L30.8,32.2c-0.5,0-1-0.1-1.6-0.4C29.7,32.2,30.3,32.2,30.8,32.2z"/>
	<path class="st2" d="M45,30.3c-0.4,0.9-1,2-1.9,2.5c-0.5,0.2-0.9,0.3-1.4,0.2c0.5,0.1,1,0,1.4-0.2C44,32.3,44.6,31.2,45,30.3
		L45,30.3L45,30.3z"/>
	<path class="st2" d="M34.7,24.5c0.2,1,0.8,2,1.6,2.8C35.4,26.4,34.9,25.5,34.7,24.5z"/>
	<path class="st2" d="M37.8,24.5c-0.1,0.8-0.4,1.5-0.9,2.1C37.4,26,37.7,25.3,37.8,24.5z"/>
	<path class="st0" d="M47.7,55.8c-7.5,0-15.1,0-22.6,0c-1.6,0-1.6,2.5,0,2.5c7.5,0,15.1,0,22.6,0C49.3,58.3,49.3,55.8,47.7,55.8z"/>
	<path class="st0" d="M47.7,60c-7.5,0-15.1,0-22.6,0c-1.6,0-1.6,2.5,0,2.5c7.5,0,15.1,0,22.6,0C49.3,62.4,49.3,60,47.7,60z"/>
	<path class="st0" d="M47.7,51.3H37.3V37.2l3.2-2.3c1.6,0.5,2.8,0.2,3.5-0.2c2.6-1.3,3.4-5.1,3.4-5.3c0.1-0.3,0-0.6-0.2-0.9
		c-0.2-0.3-0.5-0.4-0.7-0.5c-0.1,0-3.6-0.4-5.7,1.6c-0.9,0.9-1.4,2-1.5,3.4l-2,1.4v-5.5c1.4-1.1,2.2-2.6,2.5-4.3
		c0.7-4.3-2.6-8.6-2.8-8.8c-0.2-0.3-0.5-0.4-0.8-0.4s-0.7,0.1-0.9,0.4c-0.1,0.1-3.4,4-3,8.2c0.2,1.9,1.1,3.6,2.7,4.9v6.3L32.7,33
		c0.2-1.6-0.1-3-1.1-4c-1.8-2-5.2-1.9-5.3-1.8c-0.5,0.1-1,0.5-1,1c-0.1,2.2,0.5,3.8,1.8,4.9c1.4,1.3,3.2,1.3,4,1.3l4,4v1.4h-1.9
		c-0.5-0.5-1.3-1.2-2.5-1.4c-1.4-0.2-3,0.3-4.5,1.6c-0.2,0.2-0.3,0.5-0.4,0.7c-0.1,0.3,0.1,0.6,0.3,0.8c0.2,0.2,1.9,1.9,4,1.9h0.3
		c0.7-0.1,1.8-0.4,2.7-1.6H35v9.4H25c-1.6,0-1.6,2.5,0,2.5h22.6C49.3,53.8,49.3,51.3,47.7,51.3z"/>
	<path class="st0" d="M36.4,67.6c3.2,0,5.8-1.7,5.8-3.8H30.6C30.6,66,33.3,67.6,36.4,67.6z"/>
	<path class="st0" d="M44.5,6.1c-7.8-2.8-19.2-1.4-24.5,5.5c-4.7,6-4,14.5-2.5,21.5c1.2,5.6,3.1,11.2,5.7,16.3
		c0.7,1.4,2.8,0.1,2.1-1.2c-4.4-8.8-8.6-20.9-5.7-30.8C22.2,9.1,31.3,6.7,39.3,7.4c8.4,0.9,13.2,6.9,14,15c0.9,8.7-1.5,18-5.5,25.7
		c-0.7,1.4,1.4,2.6,2.1,1.2C56.2,37.2,61.7,12.3,44.5,6.1z"/>
	<path class="st1" d="M44,32.7c-0.9,0.7-2.1,0.8-2.6,0.8c-0.1,0-0.2-0.1-0.2-0.2c0-0.5,0.2-1.8,1.1-2.5c0.9-0.7,2.2-0.7,2.7-0.7
		c0.1,0,0.2,0.1,0.2,0.2C45.1,30.8,44.9,31.9,44,32.7z"/>
	<path class="st1" d="M38.1,23.1c0,1.5-0.9,2.8-1.4,3.4c-0.2,0.2-0.6,0.3-0.8,0c-0.6-0.6-1.5-1.9-1.5-3.3c0-1.5,1-2.8,1.6-3.4
		c0.2-0.2,0.6-0.2,0.8,0C37.2,20.4,38.1,21.6,38.1,23.1z"/>
	<path class="st1" d="M27.2,29.4c0-0.1,0.1-0.2,0.2-0.2c0.5,0,1.8,0,2.7,0.7c0.9,0.7,1,2,1.1,2.5c0,0.1-0.1,0.2-0.2,0.2
		c-0.5,0-1.8-0.1-2.6-0.8C27.5,31,27.2,29.9,27.2,29.4z"/>
	<path class="st1" d="M30.1,42.2c-1,0.1-2-0.5-2.3-0.8c-0.1-0.1-0.1-0.2,0-0.3c0.3-0.3,1.1-1.2,2.1-1.2c1-0.1,2,0.6,2.3,0.9
		c0.1,0.1,0.1,0.2,0,0.3C31.9,41.4,31.1,42.1,30.1,42.2z"/>
</g>
</svg>
