<?xml version="1.0" encoding="utf-8"?>
<!-- Generator: Adobe Illustrator 19.1.0, SVG Export Plug-In . SVG Version: 6.00 Build 0)  -->
<svg version="1.1" id="Layer_1" xmlns="http://www.w3.org/2000/svg" xmlns:xlink="http://www.w3.org/1999/xlink" x="0px" y="0px"
	 viewBox="0 0 18 20" style="enable-background:new 0 0 18 20;" xml:space="preserve">
<style type="text/css">
	.st0{fill:#104B87;}
	.st1{fill:#010101;}
	.st2{fill:#104B87;stroke:#104B87;stroke-width:0.12;stroke-miterlimit:10;}
	.st3{fill:#104B87;stroke:#104B87;stroke-width:0.18;stroke-miterlimit:10;}
</style>
<g>
	<path class="st0" d="M12,17.1c-1.1,0-2.4-0.4-3.5-0.8c-1.8-0.6-3.5-1.1-4.6-0.2c-0.2,0.2-0.5,0.2-0.6,0c-0.2-0.2-0.2-0.5,0-0.6
		c1.5-1.3,3.5-0.7,5.5,0c2.1,0.7,4,1.3,5.3-0.2c0.2-0.2,0.4-0.2,0.6-0.1c0.2,0.2,0.2,0.4,0.1,0.6C14,16.8,13.1,17.1,12,17.1z"/>
	<path class="st0" d="M12,15.4c-1.1,0-2.4-0.4-3.5-0.8C6.7,14,5,13.5,3.9,14.4c-0.2,0.2-0.5,0.2-0.6,0s-0.2-0.5,0-0.6
		c1.5-1.3,3.5-0.7,5.5,0c2.1,0.7,4,1.3,5.3-0.2c0.2-0.2,0.4-0.2,0.6-0.1c0.2,0.2,0.2,0.4,0.1,0.6C14,15,13.1,15.4,12,15.4z"/>
	<path class="st0" d="M14.5,9.6h-2V4.3c0-0.1,0-0.2-0.1-0.2c-0.9-1.4-1.3-1.2-1.5-1.2c-0.3,0.1-0.5,0.4-0.5,0.9
		c0,0.2,0.2,0.4,0.4,0.4c0.2,0,0.3-0.1,0.4-0.2c0.1,0.1,0.2,0.3,0.3,0.4v1.1H8.4V4.3c0-0.1,0-0.2-0.1-0.2C7.5,2.7,7,2.8,6.8,2.9
		C6.5,3,6.4,3.3,6.4,3.7c0,0.2,0.2,0.4,0.4,0.4C7,4.2,7.1,4.1,7.2,4c0.1,0.1,0.2,0.3,0.3,0.4v5.2H3.6c-0.2,0-0.4,0.2-0.4,0.4
		s0.2,0.4,0.4,0.4h3.9v2.1c0,0.2,0.2,0.4,0.4,0.4s0.4-0.2,0.4-0.4V12h3.2v0.7c0,0.2,0.2,0.4,0.4,0.4s0.4-0.2,0.4-0.4v-2.1h2
		c0.2,0,0.4-0.2,0.4-0.4C14.9,9.8,14.7,9.6,14.5,9.6z M11.6,6.5v1.9H8.4V6.5L11.6,6.5z M8.4,11.1V9.2h3.2v1.9H8.4z"/>
</g>
</svg>
