<?xml version="1.0" encoding="utf-8"?>
<!-- Generator: Adobe Illustrator 19.1.0, SVG Export Plug-In . SVG Version: 6.00 Build 0)  -->
<svg version="1.1" id="Layer_1" xmlns="http://www.w3.org/2000/svg" xmlns:xlink="http://www.w3.org/1999/xlink" x="0px" y="0px"
	 viewBox="0 0 18 20" style="enable-background:new 0 0 18 20;" xml:space="preserve">
<style type="text/css">
	.st0{fill:#104B87;}
	.st1{fill:#010101;}
	.st2{fill:#104B87;stroke:#104B87;stroke-width:0.12;stroke-miterlimit:10;}
	.st3{fill:#104B87;stroke:#104B87;stroke-width:0.18;stroke-miterlimit:10;}
</style>
<g>
	<path class="st0" d="M15.5,9.4H3.7V3.3c0-0.2,0.2-0.4,0.4-0.4c0.4,0,0.8,0.1,1.1,0.4L5,3.4C5,3.5,4.9,3.6,4.9,3.7V4
		c0,0.5,0.2,0.9,0.5,1.3c0.1,0.1,0.2,0.1,0.3,0.1c0.1,0,0.2,0,0.3-0.1l1.6-1.6c0.2-0.2,0.2-0.4,0-0.6C7.3,2.7,6.9,2.5,6.4,2.5H6.1
		c-0.1,0-0.2,0-0.3,0.1L5.7,2.7c-0.4-0.4-1-0.7-1.6-0.7c-0.7,0-1.2,0.6-1.2,1.2v6.2c-0.5,0.2-0.8,0.6-0.8,1.2c0,0.6,0.4,1,0.9,1.2
		l1,2.9c0.2,0.5,0.6,0.8,1.1,0.8h0.1l-0.2,0.7c-0.1,0.2,0,0.4,0.3,0.5c0,0,0.1,0,0.1,0c0.2,0,0.3-0.1,0.4-0.3L6,15.5h6.7l0.3,0.9
		c0.1,0.2,0.2,0.3,0.4,0.3c0,0,0.1,0,0.1,0c0.2-0.1,0.3-0.3,0.3-0.5l-0.2-0.7h0.1c0.5,0,1-0.3,1.1-0.8l1-2.9
		c0.5-0.1,0.9-0.6,0.9-1.2C16.7,10,16.2,9.4,15.5,9.4z M5.6,3.9l0.7-0.7h0.1c0.1,0,0.3,0,0.4,0.1L5.7,4.4C5.6,4.3,5.6,4.1,5.6,3.9
		L5.6,3.9L5.6,3.9z M14.1,14.4c0,0.2-0.2,0.3-0.4,0.3H5.1c-0.2,0-0.3-0.1-0.4-0.3l-0.8-2.6h11.1L14.1,14.4z M15.5,11.2H3.1
		c-0.2,0-0.4-0.3-0.4-0.6S2.9,10,3.1,10h12.4c0.2,0,0.4,0.3,0.4,0.6S15.7,11.2,15.5,11.2z"/>
	<path class="st0" d="M6.9,5.7c0-0.1,0-0.2-0.1-0.3c-0.1-0.1-0.4-0.1-0.6,0C6.2,5.5,6.1,5.6,6.1,5.7c0,0.1,0,0.2,0.1,0.3
		c0.1,0.1,0.2,0.1,0.3,0.1c0.1,0,0.2,0,0.3-0.1C6.9,6,6.9,5.9,6.9,5.7z"/>
	<path class="st0" d="M6.9,7.1c0,0,0.1,0,0.2,0C7.3,7,7.4,6.7,7.3,6.5C7.2,6.3,7,6.2,6.8,6.3C6.6,6.4,6.5,6.6,6.6,6.9
		C6.6,7,6.8,7.1,6.9,7.1z"/>
	<path class="st0" d="M7.4,8.1c0,0,0.1,0,0.2,0c0.2-0.1,0.3-0.3,0.2-0.5C7.6,7.3,7.4,7.2,7.2,7.3C7,7.4,6.9,7.6,7,7.8
		C7,8,7.2,8.1,7.4,8.1z"/>
	<path class="st0" d="M7.8,9C7.9,9,8,9,8.1,8.9c0.1-0.1,0.1-0.2,0.1-0.3c0-0.1,0-0.2-0.1-0.3c-0.1-0.1-0.4-0.1-0.6,0
		C7.4,8.4,7.4,8.5,7.4,8.6c0,0.1,0,0.2,0.1,0.3C7.5,9,7.6,9,7.8,9z"/>
	<path class="st0" d="M7.1,4.6C7,4.7,6.9,4.8,6.9,4.9s0,0.2,0.1,0.3c0.1,0.1,0.2,0.1,0.3,0.1s0.2,0,0.3-0.1C7.7,5.1,7.8,5,7.8,4.9
		c0-0.1,0-0.2-0.1-0.3C7.5,4.5,7.2,4.5,7.1,4.6z"/>
	<path class="st0" d="M8.6,7.1C8.8,7,8.8,6.8,8.7,6.6C8.6,6.4,8.4,6.3,8.2,6.4C8,6.5,7.9,6.8,8,7c0.1,0.1,0.2,0.2,0.4,0.2
		C8.4,7.2,8.5,7.1,8.6,7.1z"/>
	<path class="st0" d="M8.9,8.1c0.1,0,0.1,0,0.2,0c0.2-0.1,0.3-0.4,0.2-0.6C9.1,7.3,8.9,7.2,8.7,7.3C8.5,7.4,8.4,7.7,8.5,7.9
		C8.6,8,8.7,8.1,8.9,8.1z"/>
	<path class="st0" d="M7.5,6c0.1,0.1,0.2,0.2,0.4,0.2c0.1,0,0.1,0,0.2,0c0.2-0.1,0.3-0.4,0.2-0.6C8.1,5.5,7.9,5.4,7.7,5.5
		C7.5,5.6,7.4,5.8,7.5,6z"/>
	<path class="st0" d="M9.4,9c0.1,0,0.2,0,0.3-0.1c0.1-0.1,0.1-0.2,0.1-0.3c0-0.1,0-0.2-0.1-0.3c-0.1-0.1-0.4-0.1-0.6,0
		C9,8.4,9,8.5,9,8.6c0,0.1,0,0.2,0.1,0.3C9.2,9,9.3,9,9.4,9z"/>
	<path class="st0" d="M7.9,4.4C8,4.5,8.1,4.5,8.2,4.5c0.1,0,0.2,0,0.3-0.1c0.1-0.1,0.1-0.2,0.1-0.3c0-0.1,0-0.2-0.1-0.3
		C8.3,3.7,8,3.7,7.9,3.8C7.8,3.9,7.8,4,7.8,4.1C7.8,4.2,7.8,4.3,7.9,4.4z"/>
	<path class="st0" d="M8.4,5.2c0.1,0.1,0.2,0.2,0.3,0.2c0.1,0,0.1,0,0.2-0.1C9.1,5.2,9.2,5,9.1,4.8C9,4.6,8.7,4.5,8.5,4.7
		C8.3,4.8,8.3,5,8.4,5.2z"/>
	<path class="st0" d="M9.5,7c0.1,0.1,0.2,0.2,0.3,0.2c0.1,0,0.1,0,0.2-0.1c0.2-0.1,0.2-0.4,0.1-0.6c-0.1-0.2-0.4-0.2-0.6-0.1
		C9.5,6.6,9.4,6.8,9.5,7z"/>
	<path class="st0" d="M9,6.1C9,6.3,9.2,6.3,9.3,6.3c0.1,0,0.1,0,0.2-0.1c0.2-0.1,0.2-0.4,0.1-0.6C9.5,5.5,9.3,5.4,9.1,5.6
		C8.9,5.7,8.8,5.9,9,6.1z"/>
	<path class="st0" d="M10.1,7.9c0.1,0.1,0.2,0.2,0.3,0.2c0.1,0,0.1,0,0.2-0.1c0.2-0.1,0.2-0.4,0.1-0.6c-0.1-0.2-0.4-0.2-0.6-0.1
		C10,7.5,10,7.7,10.1,7.9z"/>
	<path class="st0" d="M10.6,8.6c0,0.1,0,0.2,0.1,0.3C10.8,9,10.9,9,11,9c0.1,0,0.2,0,0.3-0.1c0.1-0.1,0.1-0.2,0.1-0.3
		c0-0.1,0-0.2-0.1-0.3c-0.1-0.1-0.4-0.1-0.6,0C10.7,8.4,10.6,8.5,10.6,8.6z"/>
</g>
</svg>
