<?xml version="1.0" encoding="utf-8"?>
<!-- Generator: Adobe Illustrator 19.1.0, SVG Export Plug-In . SVG Version: 6.00 Build 0)  -->
<svg version="1.1" id="Layer_1" xmlns="http://www.w3.org/2000/svg" xmlns:xlink="http://www.w3.org/1999/xlink" x="0px" y="0px"
	 viewBox="0 0 18 20" style="enable-background:new 0 0 18 20;" xml:space="preserve">
<style type="text/css">
	.st0{fill:#104B87;}
	.st1{fill:#010101;}
	.st2{fill:#104B87;stroke:#104B87;stroke-width:0.12;stroke-miterlimit:10;}
	.st3{fill:#104B87;stroke:#104B87;stroke-width:0.18;stroke-miterlimit:10;}
</style>
<g>
	<path class="st0" d="M16.1,8.7L15,8.1l0.9-0.9c0.1-0.1,0.1-0.3,0-0.5c-0.1-0.1-0.3-0.1-0.5,0l-0.7,0.7L14,5.2
		c-0.2-0.8-0.9-1.3-1.7-1.3H5.7C4.9,3.8,4.2,4.4,4,5.1L3.3,7.5L2.6,6.8c-0.1-0.1-0.3-0.1-0.5,0S2,7.1,2.1,7.2L3,8.1L1.9,8.7
		C1.8,9,1.7,9.2,1.7,9.5v3.9c0,0.5,0.4,0.8,0.8,0.8h0.4v1.1c0,0.6,0.4,1,1,1H5c0.6,0,1-0.4,1-1v-1.1H12v1.1c0,0.6,0.4,1,1,1h1.1
		c0.6,0,1-0.4,1-1v-1.1h0.4c0.5,0,0.8-0.4,0.8-0.8V9.5C16.3,9.2,16.2,9,16.1,8.7z M3.6,8.4h10.8l1,0.5H2.6L3.6,8.4z M4.6,5.3
		c0.1-0.5,0.6-0.8,1-0.8h6.6c0.5,0,0.9,0.3,1,0.8l0.7,2.4H3.9L4.6,5.3z M5.3,15.2c0,0.2-0.1,0.3-0.3,0.3H3.9c-0.2,0-0.3-0.1-0.3-0.3
		v-1.1h1.7V15.2z M14.4,15.2c0,0.2-0.1,0.3-0.3,0.3H13c-0.2,0-0.3-0.1-0.3-0.3v-1.1h1.7V15.2z M15.4,13.5H2.5
		c-0.1,0-0.2-0.1-0.2-0.2V9.6h13.3v3.8C15.6,13.4,15.5,13.5,15.4,13.5z"/>
	<path class="st0" d="M13.4,10.1c-0.8,0-1.5,0.6-1.5,1.5c0,0.8,0.6,1.5,1.5,1.5c0.8,0,1.5-0.6,1.5-1.5
		C14.9,10.8,14.2,10.1,13.4,10.1z M13.4,12.4c-0.5,0-0.8-0.4-0.8-0.8c0-0.5,0.4-0.8,0.8-0.8c0.5,0,0.8,0.4,0.8,0.8
		C14.2,12,13.9,12.4,13.4,12.4z"/>
	<path class="st0" d="M4.6,10.1c-0.8,0-1.5,0.6-1.5,1.5c0,0.8,0.6,1.5,1.5,1.5S6,12.3,6,11.5C6,10.8,5.4,10.1,4.6,10.1z M4.6,12.4
		c-0.5,0-0.8-0.4-0.8-0.8c0-0.5,0.4-0.8,0.8-0.8s0.8,0.4,0.8,0.8C5.4,12,5,12.4,4.6,12.4z"/>
	<path class="st0" d="M10.8,10.6H7.2c-0.2,0-0.3,0.1-0.3,0.3c0,0.2,0.1,0.3,0.3,0.3h3.5c0.2,0,0.3-0.1,0.3-0.3
		C11.1,10.8,10.9,10.6,10.8,10.6z"/>
	<path class="st0" d="M10,11.8H8c-0.2,0-0.3,0.1-0.3,0.3c0,0.2,0.1,0.3,0.3,0.3h2c0.2,0,0.3-0.1,0.3-0.3S10.1,11.8,10,11.8z"/>
</g>
</svg>
