<?xml version="1.0" encoding="utf-8"?>
<!-- Generator: Adobe Illustrator 19.1.0, SVG Export Plug-In . SVG Version: 6.00 Build 0)  -->
<svg version="1.1" id="Layer_1" xmlns="http://www.w3.org/2000/svg" xmlns:xlink="http://www.w3.org/1999/xlink" x="0px" y="0px"
	 viewBox="0 0 18 20" style="enable-background:new 0 0 18 20;" xml:space="preserve">
<style type="text/css">
	.st0{fill:#104B87;}
	.st1{fill:#010101;}
	.st2{fill:#104B87;stroke:#104B87;stroke-width:0.12;stroke-miterlimit:10;}
	.st3{fill:#104B87;stroke:#104B87;stroke-width:0.18;stroke-miterlimit:10;}
</style>
<path class="st0" d="M17.3,8.3L9.2,4.3C9,4.2,8.9,4.2,8.8,4.3L0.6,8.3C0.4,8.4,0.3,8.6,0.4,8.8c0,0.2,0.2,0.3,0.4,0.3H2v6.2
	c0,0.2,0.2,0.4,0.4,0.4h13c0.2,0,0.4-0.2,0.4-0.4V9.1h1.2c0.2,0,0.4-0.1,0.4-0.3C17.6,8.6,17.5,8.4,17.3,8.3z M13.6,12.5H4.2v-0.7
	h9.3L13.6,12.5L13.6,12.5z M4.2,13h9.3v0.7H4.2V13z M13.6,11.1H4.2v-0.7h9.3L13.6,11.1L13.6,11.1z M4.2,14.3h9.3v0.6H4.2V14.3z
	 M15,8.7v6.2h-0.9v-4.8c0-0.2-0.1-0.3-0.3-0.3H4c-0.2,0-0.3,0.1-0.3,0.3v4.8H2.9V8.7c0-0.2-0.1-0.4-0.3-0.4L9,5.1l6.4,3.2
	C15.2,8.3,15,8.5,15,8.7z"/>
</svg>
