<?xml version="1.0" encoding="utf-8"?>
<!-- Generator: Adobe Illustrator 19.1.0, SVG Export Plug-In . SVG Version: 6.00 Build 0)  -->
<svg version="1.1" id="Layer_1" xmlns="http://www.w3.org/2000/svg" xmlns:xlink="http://www.w3.org/1999/xlink" x="0px" y="0px"
	 viewBox="0 0 18 20" style="enable-background:new 0 0 18 20;" xml:space="preserve">
<style type="text/css">
	.st0{fill:#104B87;}
	.st1{fill:#010101;}
	.st2{fill:#104B87;stroke:#104B87;stroke-width:0.12;stroke-miterlimit:10;}
	.st3{fill:#104B87;stroke:#104B87;stroke-width:0.18;stroke-miterlimit:10;}
</style>
<g>
	<path class="st0" d="M7.8,9.7v1.7h2.5V9.7H7.8z M9.8,10.8H8.4v-0.6h1.4V10.8z"/>
	<path class="st0" d="M3.1,8.9v1.7h2.5V8.9H3.1z M5.1,10H3.7V9.5h1.4V10z"/>
	<path class="st0" d="M12.6,8.9v1.7h2.5V8.9H12.6z M14.5,10h-1.4V9.5h1.4V10z"/>
	<path class="st0" d="M3.1,11.3v2.5h2.5v-2.5H3.1z M4.1,13.3H3.7v-1.4h0.4V13.3z M5.1,13.3H4.6v-1.4h0.4V13.3z"/>
	<path class="st0" d="M12.6,11.3v2.5h2.5v-2.5H12.6z M13.6,13.3h-0.4v-1.4h0.4V13.3z M14.5,13.3h-0.4v-1.4h0.4V13.3z"/>
	<path class="st0" d="M15.4,5H2.8C2.6,5,2.4,5.1,2.3,5.3L0.6,8.4h1.2l0,6.8c0,0.1,0.1,0.2,0.2,0.2h4.1v0.8H12v-0.8h4.1
		c0.1,0,0.2-0.1,0.2-0.2V8.4h1.2l-1.7-3.1C15.8,5.1,15.6,5,15.4,5z M6.1,8.9v6H2.3V8.4h4.6L6.1,8.9z M11.5,15.7h-1.2v-3.4H7.9v3.4
		H6.7V9.2l2.4-1.8l2.4,1.8V15.7z M15.9,14.9h-3.8v-6l-0.8-0.6h4.6V14.9z M10.6,7.8L9.4,7C9.2,6.8,9,6.8,8.8,7L7.6,7.8H1.5l1.2-2.3
		h12.6l1.2,2.3H10.6z"/>
</g>
</svg>
