<?xml version="1.0" encoding="utf-8"?>
<!-- Generator: Adobe Illustrator 19.1.0, SVG Export Plug-In . SVG Version: 6.00 Build 0)  -->
<svg version="1.1" id="Layer_1" xmlns="http://www.w3.org/2000/svg" xmlns:xlink="http://www.w3.org/1999/xlink" x="0px" y="0px"
	 viewBox="0 0 18 20" style="enable-background:new 0 0 18 20;" xml:space="preserve">
<style type="text/css">
	.st0{fill:#104B87;}
	.st1{fill:#010101;}
	.st2{fill:#104B87;stroke:#104B87;stroke-width:0.12;stroke-miterlimit:10;}
	.st3{fill:#104B87;stroke:#104B87;stroke-width:0.18;stroke-miterlimit:10;}
</style>
<g>
	<path class="st0" d="M15.9,4.8h-1.7V3.3c0-0.2-0.1-0.3-0.3-0.3h-1.2c-0.2,0-0.3,0.1-0.3,0.3v1.5h-0.9V3.3c0-0.2-0.1-0.3-0.3-0.3
		H9.9C9.7,3,9.5,3.1,9.5,3.3v1.5H8.6V3.3C8.6,3.1,8.5,3,8.3,3H7.1C6.9,3,6.8,3.1,6.8,3.3v1.5H5.9V3.3C5.9,3.1,5.7,3,5.5,3H4.3
		C4.1,3,4,3.1,4,3.3v1.5H2.3C2.1,4.8,2,5,2,5.1v11c0,0.2,0.1,0.3,0.3,0.3h13.6c0.2,0,0.3-0.1,0.3-0.3v-11C16.2,5,16,4.8,15.9,4.8z
		 M13,3.6h0.6v2.9H13V3.6z M10.2,3.6h0.6v2.9h-0.6V3.6z M7.4,3.6H8v2.9H7.4V3.6z M4.6,3.6h0.6v2.9H4.6V3.6z M15.5,15.8H2.6V5.5H4
		v1.4c0,0.2,0.1,0.3,0.3,0.3h1.2c0.2,0,0.3-0.1,0.3-0.3V5.5h0.9v1.4c0,0.2,0.1,0.3,0.3,0.3h1.2c0.2,0,0.3-0.1,0.3-0.3V5.5h0.9v1.4
		c0,0.2,0.1,0.3,0.3,0.3h1.2c0.2,0,0.3-0.1,0.3-0.3V5.5h0.9v1.4c0,0.2,0.1,0.3,0.3,0.3h1.2c0.2,0,0.3-0.1,0.3-0.3V5.5h1.3
		C15.5,5.5,15.5,15.8,15.5,15.8z"/>
	<path class="st0" d="M6.8,11.2H4.5c-0.2,0-0.3-0.1-0.3-0.3V8.6c0-0.2,0.1-0.3,0.3-0.3h2.3c0.2,0,0.3,0.1,0.3,0.3v2.3
		C7.1,11.1,7,11.2,6.8,11.2z M4.8,10.6h1.7V8.9H4.8C4.8,8.9,4.8,10.6,4.8,10.6z"/>
	<path class="st0" d="M13.9,12.8H4.5c-0.2,0-0.3-0.1-0.3-0.3c0-0.2,0.1-0.3,0.3-0.3h9.4c0.2,0,0.3,0.1,0.3,0.3
		C14.2,12.7,14.1,12.8,13.9,12.8z"/>
	<path class="st0" d="M13.9,9.3H8.6C8.4,9.3,8.3,9.2,8.3,9s0.1-0.3,0.3-0.3h5.3c0.2,0,0.3,0.1,0.3,0.3S14.1,9.3,13.9,9.3z"/>
	<path class="st0" d="M13.9,10.8H8.6c-0.2,0-0.3-0.1-0.3-0.3c0-0.2,0.1-0.3,0.3-0.3h5.3c0.2,0,0.3,0.1,0.3,0.3
		C14.2,10.7,14.1,10.8,13.9,10.8z"/>
	<path class="st0" d="M13.9,14.4H4.5c-0.2,0-0.3-0.1-0.3-0.3c0-0.2,0.1-0.3,0.3-0.3h9.4c0.2,0,0.3,0.1,0.3,0.3
		C14.2,14.2,14.1,14.4,13.9,14.4z"/>
</g>
</svg>
