<?xml version="1.0" encoding="utf-8"?>
<!-- Generator: Adobe Illustrator 19.1.0, SVG Export Plug-In . SVG Version: 6.00 Build 0)  -->
<svg version="1.1" id="Layer_1" xmlns="http://www.w3.org/2000/svg" xmlns:xlink="http://www.w3.org/1999/xlink" x="0px" y="0px"
	 viewBox="0 0 18 20" style="enable-background:new 0 0 18 20;" xml:space="preserve">
<style type="text/css">
	.st0{fill:#104B87;}
	.st1{fill:#010101;}
	.st2{fill:#104B87;stroke:#104B87;stroke-width:0.12;stroke-miterlimit:10;}
	.st3{fill:#104B87;stroke:#104B87;stroke-width:0.18;stroke-miterlimit:10;}
</style>
<g>
	<path class="st0" d="M13,14.1h1c0.2,0,0.3-0.1,0.3-0.3s-0.1-0.3-0.3-0.3h-0.7v-0.8c0-0.2-0.1-0.3-0.3-0.3s-0.3,0.1-0.3,0.3v1.1
		C12.7,13.9,12.9,14.1,13,14.1z"/>
	<path class="st0" d="M14.3,11.5V6.4c0-0.1-0.1-0.3-0.2-0.3L8.5,3.9c-0.1,0-0.1,0-0.2,0L2.7,6.1c-0.1,0-0.2,0.1-0.2,0.3v7
		c0,0.1,0.1,0.3,0.2,0.3l5.6,2.5c0.1,0,0.1,0,0.2,0c0.1,0,0.1,0,0.1,0l2.9-1.3c0.4,0.5,1,0.8,1.7,0.8c1.2,0,2.3-1,2.3-2.3
		C15.5,12.6,15,11.9,14.3,11.5z M3.1,13.3V6.8l5.1,2v6.7L3.1,13.3z M11.1,10c0.1,0.1,0.3,0.1,0.4,0c0.1-0.1,0.1-0.1,0.1-0.2V7.7
		l2.3-0.9v4.4c-0.2,0-0.4-0.1-0.6-0.1c-1.2,0-2.3,1-2.3,2.3c0,0.3,0.1,0.7,0.2,1l-2.5,1.1V8.9L11,8v1.8C11,9.9,11,9.9,11.1,10z
		 M13.2,11.8c0.9,0,1.7,0.8,1.7,1.7s-0.8,1.7-1.7,1.7s-1.7-0.8-1.7-1.7S12.3,11.8,13.2,11.8z M11.3,7.2L6.4,5.3l2.1-0.8l4.9,2
		L11.3,7.2z M5.6,5.6l4.9,2L8.4,8.4L3.6,6.4L5.6,5.6z"/>
</g>
</svg>
