<?xml version="1.0" encoding="utf-8"?>
<!-- Generator: Adobe Illustrator 19.1.0, SVG Export Plug-In . SVG Version: 6.00 Build 0)  -->
<svg version="1.1" id="Layer_1" xmlns="http://www.w3.org/2000/svg" xmlns:xlink="http://www.w3.org/1999/xlink" x="0px" y="0px"
	 viewBox="0 0 18 20" style="enable-background:new 0 0 18 20;" xml:space="preserve">
<style type="text/css">
	.st0{fill:#104B87;}
	.st1{fill:#010101;}
	.st2{fill:#104B87;stroke:#104B87;stroke-width:0.12;stroke-miterlimit:10;}
	.st3{fill:#104B87;stroke:#104B87;stroke-width:0.18;stroke-miterlimit:10;}
</style>
<g transform="matrix(1,0,0,1,-550,-70)">
	<path class="st0" d="M565,75.6h-6.3c-0.2-0.9-1-1.6-2-1.6s-1.8,0.7-2,1.6H553c-0.2,0-0.4,0.2-0.4,0.4c0,0.2,0.2,0.4,0.4,0.4h1.7
		c0.2,0.9,1,1.6,2,1.6s1.8-0.7,2-1.6h6.3c0.2,0,0.4-0.2,0.4-0.4C565.4,75.7,565.3,75.6,565,75.6z M556.7,77.2
		c-0.7,0-1.2-0.5-1.2-1.2c0-0.7,0.6-1.2,1.2-1.2s1.2,0.5,1.2,1.2C557.9,76.6,557.4,77.2,556.7,77.2z M565,79.6h-1.7
		c-0.2-0.9-1-1.6-2-1.6c-1,0-1.8,0.7-2,1.6H553c-0.2,0-0.4,0.2-0.4,0.4c0,0.2,0.2,0.4,0.4,0.4h6.3c0.2,0.9,1,1.6,2,1.6
		c1,0,1.8-0.7,2-1.6h1.7c0.2,0,0.4-0.2,0.4-0.4C565.4,79.8,565.3,79.6,565,79.6z M561.3,81.3c-0.7,0-1.2-0.5-1.2-1.2
		c0-0.7,0.5-1.2,1.2-1.2c0.7,0,1.2,0.5,1.2,1.2C562.6,80.7,562,81.3,561.3,81.3z M565,83.7h-6.3c-0.2-0.9-1-1.6-2-1.6
		s-1.8,0.7-2,1.6H553c-0.2,0-0.4,0.2-0.4,0.4c0,0.2,0.2,0.4,0.4,0.4h1.7c0.2,0.9,1,1.6,2,1.6s1.8-0.7,2-1.6h6.3
		c0.2,0,0.4-0.2,0.4-0.4C565.4,83.9,565.3,83.7,565,83.7z M556.7,85.4c-0.7,0-1.2-0.5-1.2-1.2c0-0.7,0.6-1.2,1.2-1.2
		s1.2,0.5,1.2,1.2C557.9,84.8,557.4,85.4,556.7,85.4z"/>
</g>
</svg>
