<?xml version="1.0" encoding="utf-8"?>
<!-- Generator: Adobe Illustrator 19.1.0, SVG Export Plug-In . SVG Version: 6.00 Build 0)  -->
<svg version="1.1" id="Layer_1" xmlns="http://www.w3.org/2000/svg" xmlns:xlink="http://www.w3.org/1999/xlink" x="0px" y="0px"
	 viewBox="0 0 18 20" style="enable-background:new 0 0 18 20;" xml:space="preserve">
<style type="text/css">
	.st0{fill:#104B87;}
	.st1{fill:#010101;}
	.st2{fill:#104B87;stroke:#104B87;stroke-width:0.12;stroke-miterlimit:10;}
	.st3{fill:#104B87;stroke:#104B87;stroke-width:0.18;stroke-miterlimit:10;}
</style>
<g>
	<g>
		<g>
			<path class="st0" d="M3.2,7H2.5C2.2,7,2,7.2,2,7.5v0.9c0,0.3,0.2,0.5,0.6,0.5h0.6c0.3,0,0.6-0.2,0.6-0.5V7.5C3.7,7.2,3.5,7,3.2,7
				z M3.3,8.4c0,0.1-0.1,0.2-0.2,0.2H2.5c-0.1,0-0.2-0.1-0.2-0.2V7.5c0-0.1,0.1-0.2,0.2-0.2h0.6c0.1,0,0.2,0.1,0.2,0.2V8.4z"/>
			<path class="st0" d="M5.6,7H4.9C4.6,7,4.4,7.2,4.4,7.5v0.9c0,0.3,0.2,0.5,0.5,0.5h0.6c0.3,0,0.5-0.2,0.5-0.5V7.5
				C6.1,7.2,5.9,7,5.6,7z M5.7,8.4c0,0.1-0.1,0.2-0.2,0.2H4.9c-0.1,0-0.2-0.1-0.2-0.2V7.5c0-0.1,0.1-0.2,0.2-0.2h0.6
				c0.1,0,0.2,0.1,0.2,0.2V8.4z"/>
			<path class="st0" d="M7.9,7H7.3C7,7,6.7,7.2,6.7,7.5v0.9c0,0.3,0.2,0.6,0.6,0.6h0.6c0.3,0,0.6-0.2,0.6-0.6V7.5
				C8.5,7.2,8.2,7,7.9,7z M8.1,8.4c0,0.1-0.1,0.2-0.2,0.2H7.3c-0.1,0-0.2-0.1-0.2-0.2V7.5c0-0.1,0.1-0.2,0.2-0.2h0.6
				c0.1,0,0.2,0.1,0.2,0.2V8.4z"/>
			<path class="st0" d="M7.1,12l5.5,0c0.2,0,0.3,0.1,0.3,0.3l0,0c0,0.2-0.1,0.3-0.3,0.3H7.1c-0.2,0-0.3-0.2-0.3-0.3
				C6.8,12.1,7,12,7.1,12z"/>
			<path class="st0" d="M17.6,9.7v0.8h-0.1V12c0,0.4-0.3,0.6-0.6,0.6h-0.7c0,0,0.4,0,0.2,0c-0.2,0-0.2-0.3-0.2-0.3
				c0-0.2,0.1-0.3,0.3-0.3h0.4c0,0,0,0,0-0.1V9.7c0-0.1-0.1-0.1-0.1-0.1l-2.2-0.4C14.3,9,14,8.7,13.9,8.4l-0.3-1.7
				c0-0.1-0.1-0.1-0.1-0.1H1.4c0,0-0.1,0-0.1,0.1V12c0,0,0,0.1,0.1,0.1h1.9c0.1,0,0.3,0.1,0.3,0.2c0,0.2-0.1,0.3-0.3,0.3H1.4
				c-0.4,0-0.6-0.3-0.6-0.6V6.6C0.8,6.3,1.1,6,1.4,6h12.1c0.3,0,0.6,0.3,0.7,0.6l0.3,1.7c0,0.1,0.1,0.2,0.2,0.2l2.2,0.4
				c0.3,0.1,0.6,0.4,0.6,0.7v0H17.6z"/>
			<path class="st0" d="M13.4,7.3c0-0.3-0.3-0.5-0.6-0.5H12c-0.3,0-0.5,0.2-0.5,0.6v1.2c0,0.3,0.2,0.6,0.5,0.6h1
				c0.1,0,0.3-0.1,0.4-0.2c0.1-0.1,0.1-0.3,0.1-0.4L13.4,7.3z M13.1,8.7C13.1,8.7,13,8.7,13.1,8.7l-1.1,0c-0.1,0-0.2-0.1-0.2-0.2
				V7.3c0-0.1,0.1-0.2,0.2-0.2h0.8c0.1,0,0.2,0.1,0.2,0.2L13.1,8.7C13.1,8.6,13.1,8.6,13.1,8.7z"/>
			<path class="st0" d="M10.6,6.7h-1C9.3,6.7,9.1,7,9.1,7.3v3.9c0,0.3,0.2,0.6,0.6,0.6h1c0.3,0,0.5-0.2,0.5-0.6V7.3
				C11.1,7,10.9,6.7,10.6,6.7z M10.7,11.2c0,0.1-0.1,0.2-0.2,0.2h-1c-0.1,0-0.2-0.1-0.2-0.2v-0.1h1.3V11.2z M10.7,10.7H9.5v-0.2h1.3
				V10.7z M10.7,10.1H9.5V7.3c0-0.1,0.1-0.2,0.2-0.2h1c0.1,0,0.2,0.1,0.2,0.2V10.1z"/>
		</g>
	</g>
	<g>
		<path class="st0" d="M5.3,14c-0.8,0-1.5-0.7-1.5-1.5S4.4,11,5.3,11s1.5,0.7,1.5,1.5S6.1,14,5.3,14z M5.3,11.7
			c-0.5,0-0.9,0.4-0.9,0.9c0,0.5,0.4,0.9,0.9,0.9s0.9-0.4,0.9-0.9C6.1,12,5.7,11.7,5.3,11.7z"/>
	</g>
	<g>
		<path class="st0" d="M14.6,14c-0.8,0-1.5-0.7-1.5-1.5s0.7-1.5,1.5-1.5c0.8,0,1.5,0.7,1.5,1.5S15.4,14,14.6,14z M14.6,11.7
			c-0.5,0-0.9,0.4-0.9,0.9c0,0.5,0.4,0.9,0.9,0.9c0.5,0,0.9-0.4,0.9-0.9C15.5,12,15.1,11.7,14.6,11.7z"/>
	</g>
</g>
</svg>
