<?xml version="1.0" encoding="utf-8"?>
<!-- Generator: Adobe Illustrator 19.1.0, SVG Export Plug-In . SVG Version: 6.00 Build 0)  -->
<svg version="1.1" id="Layer_1" xmlns="http://www.w3.org/2000/svg" xmlns:xlink="http://www.w3.org/1999/xlink" x="0px" y="0px"
	 viewBox="0 0 18 20" style="enable-background:new 0 0 18 20;" xml:space="preserve">
<style type="text/css">
	.st0{fill:#104B87;}
	.st1{fill:#010101;}
	.st2{fill:#104B87;stroke:#104B87;stroke-width:0.12;stroke-miterlimit:10;}
	.st3{fill:#104B87;stroke:#104B87;stroke-width:0.18;stroke-miterlimit:10;}
</style>
<path class="st3" d="M14.6,15.6c0,0-0.1,0-0.1,0c-0.8-0.6-0.9-1.1-0.9-1.4c0-0.1,0-0.2-0.1-0.2c-0.1-0.1-0.5-0.1-0.8-0.2
	c-0.2,0-0.4,0-0.6,0c0,0-0.1,0-0.1,0c-0.1,0-0.2,0-0.2,0c0,0,0,0.1,0,0.1c0,0,0,0.1,0,0.1c0,0.1-0.1,0.2-0.2,0.2c0,0,0,0,0,0
	c-0.4-0.1-0.7-0.1-1-0.1c-0.4,0-0.5,0.1-0.7,0.2c-0.1,0.1-0.3,0.2-0.5,0.3C9.1,14.6,9,14.7,9,14.8c-0.1,0.2,0,0.4,0,0.5
	c0,0,0,0.1,0,0.1c0,0.1-0.1,0.2-0.2,0.2c0,0,0,0,0,0c-0.7,0-0.9-0.5-1.1-1c-0.1-0.2-0.1-0.3-0.2-0.5C7.3,14,7.2,14,7.2,14
	c-0.1,0-0.2,0.1-0.3,0.3c0,0-0.1,0.1-0.1,0.1c-0.1,0-0.1,0-0.2,0l0,0c-0.3-0.2-0.3-0.2-0.6-0.7l0-0.1c-0.1-0.2-0.3-0.3-0.5-0.3
	c-0.1,0-0.3,0.1-0.3,0.1c0,0-0.1,0-0.1,0c-1.9-0.5-3.3-1.5-3.9-2.7C0.8,9.7,0.7,8.9,1,8.1c0.5-1.5,0.6-2.6,0.6-2.6
	c0-0.1,0-0.1,0.1-0.2c0.1,0,0.1,0,0.2,0l0.2,0.1l0,0c0-0.1,0-0.1,0.1-0.2c0.1,0,0.1-0.1,0.2,0C5,6.1,8.2,6.2,9.1,6.2
	c0.2,0,0.2,0,0.2,0c0,0,0.1,0,0.1,0c0.2,0.1,0.9,0.2,1.3,0.3c0.1,0,0.1,0,0.2,0.1c0.1,0.1,0,0.3-0.1,0.4c0.1,0,0.1,0,0.2,0
	c0.2,0,0.3-0.1,0.5-0.1c0.3,0,0.4,0.2,0.4,0.3c0,0.2,0,0.4,0,0.7c0,0,0,0,0,0c0.1-0.3,0.4-0.4,0.7-0.4c0.2,0,0.3,0.1,0.5,0.2
	c0.2,0.3,0.3,0.8,0.2,1.2c0.4-0.2,0.5-0.6,0.5-0.7c0-0.1,0.1-0.2,0.2-0.2c0.5,0,0.7-0.6,0.7-0.6c0-0.1,0.1-0.1,0.2-0.2
	c0.7-0.1,1.1-0.4,1.1-0.6c0-0.7,0.4-0.9,0.6-0.9c0.1,0,0.2,0,0.3,0.1c0.1,0.1,0.1,0.2,0.1,0.3c0,0.3,0.1,0.5,0.2,0.6
	c0.1,0.1,0.1,0.2,0.1,0.3c0,0.1-0.1,0.2-0.1,0.2c-0.6,0.5-0.4,1-0.4,1c0,0.1,0,0.1,0,0.2c0,0.1-0.1,0.1-0.1,0.1
	c-0.3,0.1-0.6,0.3-0.8,0.7c-0.2,0.3-0.2,0.6-0.1,0.9c0.2,0.7,0,1.5-0.8,2.2c-0.5,0.5-0.7,0.8-0.2,1.5c0.7,1,0.2,1.7,0.2,1.8
	C14.7,15.6,14.7,15.6,14.6,15.6C14.6,15.6,14.6,15.6,14.6,15.6z M7.2,13.5c0.2,0,0.4,0.1,0.5,0.4c0.1,0.2,0.2,0.4,0.3,0.5
	c0.2,0.4,0.3,0.6,0.5,0.7c0-0.1,0-0.3,0.1-0.5c0.1-0.2,0.3-0.4,0.6-0.5c0.2-0.1,0.3-0.1,0.4-0.2c0.2-0.1,0.4-0.2,0.9-0.2
	c0.2,0,0.5,0,0.8,0.1c0-0.1,0-0.1,0.1-0.2c0.1-0.2,0.3-0.2,0.5-0.2c0,0,0.1,0,0.1,0c0.2,0,0.4,0,0.6,0c0.5,0,0.9,0,1.1,0.3
	c0.1,0.1,0.2,0.3,0.2,0.4c0,0.2,0.1,0.5,0.6,1c0.1-0.2,0.1-0.6-0.3-1.1c-0.3-0.5-0.5-0.8-0.4-1.2c0.1-0.3,0.3-0.6,0.6-0.9
	c0.5-0.4,1-1,0.7-1.7c-0.1-0.4-0.1-0.8,0.2-1.3c0.2-0.4,0.5-0.7,0.9-0.8c0-0.1,0-0.2,0-0.3c0-0.2,0.1-0.6,0.5-1
	c-0.1-0.1-0.3-0.3-0.3-0.8c-0.1,0-0.1,0.2-0.1,0.5c0,0.5-0.6,0.8-1.3,1c-0.1,0.3-0.4,0.7-0.9,0.8c-0.1,0.3-0.5,0.8-1.1,0.9
	c-0.1,0-0.1,0-0.2-0.1c0,0-0.1-0.1-0.1-0.2c0.1-0.3,0.1-1-0.1-1.2c0,0-0.1-0.1-0.2-0.1c-0.3,0-0.4,0.2-0.4,0.8c0,0.2,0,0.3-0.1,0.5
	c-0.1,0.3-0.2,0.3-0.4,0.3c-0.1,0-0.2,0-0.3-0.1c-0.2-0.2-0.1-0.6,0-1.2c0-0.3,0.1-0.6,0.1-0.7c0,0,0,0,0,0c-0.1,0-0.2,0-0.4,0.1
	c-0.2,0-0.4,0.1-0.6,0.1c-0.1,0-0.2,0-0.3,0c-0.1,0-0.1-0.1-0.1-0.2c0-0.1,0-0.2,0.1-0.2c0.1-0.1,0.2-0.1,0.2-0.2
	c-0.3,0-0.8-0.1-1.1-0.3c0,0-0.1,0-0.2,0c-0.9,0-3.9-0.1-6.5-0.9l0,0.1c0,0.1,0,0.1-0.1,0.2C2.4,6,2.3,6,2.3,6L2,5.8
	C1.9,6.3,1.7,7.2,1.3,8.3c-0.2,0.6-0.1,1.4,0.2,2.1c0.6,1.1,1.9,2,3.6,2.5c0.1,0,0.2-0.1,0.4-0.1c0.4,0,0.6,0.2,0.8,0.5l0,0.1
	c0.1,0.2,0.2,0.4,0.3,0.4c0,0,0,0,0,0C6.8,13.7,7,13.5,7.2,13.5z"/>
</svg>
