<?xml version="1.0" encoding="utf-8"?>
<!-- Generator: Adobe Illustrator 19.1.0, SVG Export Plug-In . SVG Version: 6.00 Build 0)  -->
<svg version="1.1" id="Layer_1" xmlns="http://www.w3.org/2000/svg" xmlns:xlink="http://www.w3.org/1999/xlink" x="0px" y="0px"
	 viewBox="0 0 18 20" style="enable-background:new 0 0 18 20;" xml:space="preserve">
<style type="text/css">
	.st0{fill:#104B87;}
	.st1{fill:#010101;}
	.st2{fill:#104B87;stroke:#104B87;stroke-width:0.12;stroke-miterlimit:10;}
	.st3{fill:#104B87;stroke:#104B87;stroke-width:0.18;stroke-miterlimit:10;}
</style>
<path class="st0" d="M17.5,12.9h-1.4V9.2c0-0.1,0-0.2-0.1-0.2l-3-3c-0.1-0.1-0.3-0.1-0.4,0l-1.7,1.7L9.2,6C9.2,6,9.1,5.9,9,5.9
	C8.9,5.9,8.8,6,8.8,6L7.1,7.7L5.4,6C5.3,5.9,5.1,5.9,5,6L2,9C1.9,9.1,1.9,9.1,1.9,9.2v3.7H0.5c-0.2,0-0.3,0.1-0.3,0.3
	c0,0.2,0.1,0.3,0.3,0.3h1.7h6h1.7h6h1.7c0.2,0,0.3-0.1,0.3-0.3C17.8,13,17.6,12.9,17.5,12.9z M9,6.7l1.5,1.5L9.6,9
	C9.6,9.1,9.5,9.1,9.5,9.2v3.7h-1V9.2c0-0.1,0-0.2-0.1-0.2L7.5,8.1L9,6.7z M2.5,9.3l2.7-2.7l2.7,2.7v3.6H2.5V9.3z M10.1,9.3l1-1
	c0,0,0,0,0,0c0,0,0,0,0,0l1.7-1.7l2.7,2.7v3.6h-5.4V9.3z"/>
<rect x="4.4" y="11.1" class="st0" width="1.3" height="2"/>
<rect x="12.2" y="11.1" class="st0" width="1.3" height="2"/>
</svg>
