<?xml version="1.0" encoding="utf-8"?>
<!-- Generator: Adobe Illustrator 19.1.0, SVG Export Plug-In . SVG Version: 6.00 Build 0)  -->
<svg version="1.1" id="Layer_1" xmlns="http://www.w3.org/2000/svg" xmlns:xlink="http://www.w3.org/1999/xlink" x="0px" y="0px"
	 viewBox="0 0 18 20" style="enable-background:new 0 0 18 20;" xml:space="preserve">
<style type="text/css">
	.st0{fill:#104B87;}
	.st1{fill:#010101;}
	.st2{fill:#104B87;stroke:#104B87;stroke-width:0.12;stroke-miterlimit:10;}
	.st3{fill:#104B87;stroke:#104B87;stroke-width:0.18;stroke-miterlimit:10;}
</style>
<g transform="translate(0,-952.36218)">
	<path class="st0" d="M9.1,955.3c-2.7,0-4.9,2.2-4.9,4.9c0,1.9,1.2,4.1,2.3,5.8s2.3,3,2.3,3c0.2,0.2,0.5,0.2,0.6,0c0,0,0,0,0,0
		c0,0,1.1-1.3,2.3-3s2.3-3.8,2.3-5.8C14,957.5,11.8,955.3,9.1,955.3z M9.1,956.3c2.2,0,4,1.8,4,4c0,1.6-1.1,3.6-2.1,5.3
		c-0.8,1.2-1.5,2-1.8,2.4c-0.4-0.4-1-1.2-1.8-2.4c-1.1-1.6-2.1-3.7-2.1-5.3C5.1,958,6.9,956.3,9.1,956.3z M9.1,957.2
		c-1.7,0-3.1,1.4-3.1,3.1s1.4,3.1,3.1,3.1s3.1-1.4,3.1-3.1S10.8,957.2,9.1,957.2z M9.1,958.1c1.2,0,2.1,1,2.1,2.1s-1,2.1-2.1,2.1
		s-2.1-1-2.1-2.1S7.9,958.1,9.1,958.1z"/>
</g>
</svg>
