<?xml version="1.0" encoding="utf-8"?>
<!-- Generator: Adobe Illustrator 19.1.0, SVG Export Plug-In . SVG Version: 6.00 Build 0)  -->
<svg version="1.1" id="Layer_1" xmlns="http://www.w3.org/2000/svg" xmlns:xlink="http://www.w3.org/1999/xlink" x="0px" y="0px"
	 viewBox="0 0 18 20" style="enable-background:new 0 0 18 20;" xml:space="preserve">
<style type="text/css">
	.st0{fill:#104B87;}
	.st1{fill:#010101;}
	.st2{fill:#104B87;stroke:#104B87;stroke-width:0.12;stroke-miterlimit:10;}
	.st3{fill:#104B87;stroke:#104B87;stroke-width:0.18;stroke-miterlimit:10;}
</style>
<path class="st0" d="M9.8,6.3c0-0.1,0-0.1,0.1-0.1l1.3-1.3l-0.6-0.6L9.1,5.8C9,5.9,9,5.9,9,6v2.9H8.2v0.8H9v0.8h0.8V9.7h5.1
	c0.1,0,0.2,0.1,0.2,0.2V16c0,0.1-0.1,0.2-0.2,0.2H10c-0.1,0-0.2-0.1-0.2-0.2v-3.9H9V13H5.8v0.8h3.1C8.9,13.8,9,13.9,9,14v2
	c0,0.1-0.1,0.2-0.2,0.2H3.5c-0.1,0-0.2-0.1-0.2-0.2v-2.2h0.8V13H3.3V9.9c0-0.1,0.1-0.2,0.2-0.2h3.1V8.9H3.5c-0.1,0-0.2-0.1-0.2-0.2
	V3.4c0-0.1,0.1-0.2,0.2-0.2H9V4h0.8V2.6c0-0.1-0.1-0.2-0.2-0.2H2.7c-0.1,0-0.2,0.1-0.2,0.2v14.3c0,0.1,0.1,0.2,0.2,0.2h13.1
	c0.1,0,0.2-0.1,0.2-0.2V9.1c0-0.1-0.1-0.2-0.2-0.2H10c-0.1,0-0.2-0.1-0.2-0.2V6.3z"/>
</svg>
