<?xml version="1.0" encoding="utf-8"?>
<!-- Generator: Adobe Illustrator 19.1.0, SVG Export Plug-In . SVG Version: 6.00 Build 0)  -->
<svg version="1.1" id="Layer_1" xmlns="http://www.w3.org/2000/svg" xmlns:xlink="http://www.w3.org/1999/xlink" x="0px" y="0px"
	 viewBox="0 0 18 20" style="enable-background:new 0 0 18 20;" xml:space="preserve">
<style type="text/css">
	.st0{fill:#104B87;}
	.st1{fill:#010101;}
	.st2{fill:#104B87;stroke:#104B87;stroke-width:0.12;stroke-miterlimit:10;}
	.st3{fill:#104B87;stroke:#104B87;stroke-width:0.18;stroke-miterlimit:10;}
</style>
<g>
	<path class="st0" d="M15.3,6.5L9,1.8c-0.1-0.1-0.3-0.1-0.4,0L2.3,6.5C2,6.8,2.2,7.2,2.5,7.2h0.9v10.2c0,0.1,0.1,0.1,0.1,0.1h10.5
		c0.1,0,0.1-0.1,0.1-0.1V7.2h0.9C15.4,7.2,15.6,6.8,15.3,6.5z M8.6,16.9H7.3v-2.8h1.2V16.9z M9.2,16.9v-2.8h1.2v2.8H9.2z M13.5,16.9
		h-2.4v-3.4H6.6v3.4H4.1V12h9.4V16.9z M13.5,11.3H4.1V7.2h9.4V11.3z M3.4,6.5l5.4-4l5.4,4H3.4z"/>
</g>
<path class="st0" d="M5.2,10.3h2.5v-2H5.2V10.3z M5.8,8.9h1.4v0.7H5.8V8.9z"/>
<path class="st0" d="M9.8,10.3h2.5v-2H9.8V10.3z M10.4,8.9h1.4v0.7h-1.4V8.9z"/>
</svg>
