<?xml version="1.0" encoding="utf-8"?>
<!-- Generator: Adobe Illustrator 19.2.1, SVG Export Plug-In . SVG Version: 6.00 Build 0)  -->
<svg version="1.1" id="Layer_1" xmlns="http://www.w3.org/2000/svg" xmlns:xlink="http://www.w3.org/1999/xlink" x="0px" y="0px"
	 viewBox="0 0 70.2 70.5" style="enable-background:new 0 0 70.2 70.5;" xml:space="preserve">
<style type="text/css">
	.st0{fill:#BBDC96;}
	.st1{fill:none;stroke:#BBDC96;stroke-miterlimit:10;}
</style>
<path class="st0" d="M2.9,68.5h64.5c1,0,1.8-0.8,1.8-1.8V8.1c0-1-0.8-1.8-1.8-1.8H2.9c-1,0-1.8,0.8-1.8,1.8v58.6
	C1.1,67.7,1.9,68.5,2.9,68.5z M4.9,63.7V30c0-1,0.8-1.8,1.8-1.8h57.7c1,0,1.8,0.8,1.8,1.8v33.8c0,1-0.8,1.8-1.8,1.8H6.7
	C5.7,65.6,4.9,64.8,4.9,63.7z M66.1,11.3v11.6c0,1.3-0.8,2.4-1.9,2.4H6.1c-1,0-1.9-1.1-1.9-2.4V11.3C4.2,10,5,8.9,6.1,8.9h58.1
	C65.2,8.9,66.1,10,66.1,11.3z"/>
<circle class="st0" cx="16.5" cy="17.1" r="3.6"/>
<circle class="st0" cx="53.8" cy="17.1" r="3.6"/>
<rect x="15" y="2" class="st0" width="2.9" height="15.1"/>
<rect x="52.4" y="2" class="st0" width="2.9" height="15.1"/>
<g>
	<path class="st0" d="M24.6,44v-1.4c0.7,0,1.1-0.1,1.4-0.2c0.4-0.3,0.6-0.7,0.6-1.3c0-0.5-0.2-0.8-0.5-1.1c-0.3-0.3-0.7-0.4-1.2-0.4
		c-0.4,0-0.8,0.1-1,0.3c-0.2,0.2-0.4,0.6-0.5,1.1h-1.6c0.2-1,0.5-1.7,1-2.2c0.5-0.5,1.2-0.7,2.2-0.7c0.9,0,1.7,0.3,2.3,0.8
		c0.6,0.5,0.9,1.2,0.9,2.1c0,1-0.4,1.7-1.2,2.3c0.9,0.5,1.3,1.4,1.3,2.5c0,1-0.3,1.7-1,2.3c-0.6,0.6-1.5,0.9-2.5,0.9
		c-1.3,0-2.2-0.5-2.8-1.4c-0.3-0.4-0.4-0.9-0.5-1.6h1.5c0.1,0.5,0.3,0.9,0.6,1.2c0.3,0.3,0.7,0.4,1.2,0.4c0.5,0,0.9-0.2,1.3-0.5
		c0.3-0.4,0.5-0.8,0.5-1.3c0-0.7-0.3-1.2-0.8-1.5C25.7,44.1,25.2,44,24.6,44z"/>
	<path class="st0" d="M34,44.9h3.1v1.3H34V44.9z"/>
	<path class="st0" d="M46.9,38l1.2,0.9l-2.5,3.5c0.1,0,0.3,0,0.4,0c0.1,0,0.2,0,0.2,0c0.9,0,1.6,0.3,2.2,1c0.6,0.7,0.9,1.4,0.9,2.4
		c0,1-0.3,1.8-1,2.5c-0.7,0.7-1.5,1-2.5,1c-1,0-1.8-0.3-2.5-1c-0.7-0.7-1.1-1.5-1.1-2.4c0-0.8,0.3-1.7,1-2.7L46.9,38z M47.8,45.7
		c0-0.6-0.2-1-0.6-1.4c-0.4-0.4-0.9-0.6-1.4-0.6c-0.6,0-1,0.2-1.4,0.6c-0.4,0.4-0.6,0.9-0.6,1.4c0,0.6,0.2,1,0.6,1.4
		c0.4,0.4,0.9,0.6,1.4,0.6c0.5,0,1-0.2,1.4-0.6C47.6,46.7,47.8,46.2,47.8,45.7z"/>
</g>
<rect x="14.4" y="55" class="st0" width="45.7" height="2.2"/>
</svg>
