<?xml version="1.0" encoding="utf-8"?>
<!-- Generator: Adobe Illustrator 19.2.1, SVG Export Plug-In . SVG Version: 6.00 Build 0)  -->
<svg version="1.1" id="Layer_1" xmlns="http://www.w3.org/2000/svg" xmlns:xlink="http://www.w3.org/1999/xlink" x="0px" y="0px"
	 viewBox="0 0 70.2 70.5" style="enable-background:new 0 0 70.2 70.5;" xml:space="preserve">
<style type="text/css">
	.st0{fill:#BBDC96;}
	.st1{fill:none;stroke:#BBDC96;stroke-width:2;stroke-miterlimit:10;}
	.st2{fill:none;}
</style>
<path class="st0" d="M3,67.5h64.5c1,0,1.8-0.8,1.8-1.8V8.1c0-1-0.8-1.8-1.8-1.8H3c-1,0-1.8,0.8-1.8,1.8v57.6C1.2,66.7,2,67.5,3,67.5
	z M5,62.7V27c0-1,0.8-1.8,1.8-1.8h57.7c1,0,1.8,0.8,1.8,1.8v35.8c0,1-0.8,1.8-1.8,1.8H6.8C5.8,64.6,5,63.8,5,62.7z M66.2,11.3v8.6
	c0,1.3-0.8,2.4-1.9,2.4H6.2c-1,0-1.9-1.1-1.9-2.4v-8.6c0-1.3,0.8-2.4,1.9-2.4h58.1C65.3,8.9,66.2,10,66.2,11.3z"/>
<path class="st0" d="M18,17.1h-2.9V3.5c0-0.8,0.7-1.5,1.5-1.5h0C17.4,2,18,2.7,18,3.5V17.1z"/>
<path class="st0" d="M55.4,17.1h-2.9V3.5C52.5,2.7,53.2,2,54,2h0c0.8,0,1.5,0.7,1.5,1.5V17.1z"/>
<rect x="24.6" y="33.5" class="st0" width="9.1" height="4.3"/>
<circle class="st1" cx="16.3" cy="35.4" r="3.6"/>
<rect x="37.5" y="33.5" class="st0" width="9.1" height="4.3"/>
<rect x="49.8" y="33.5" class="st0" width="9.1" height="4.3"/>
<rect x="24.6" y="43.9" class="st0" width="9.1" height="4.3"/>
<rect x="37.5" y="43.9" class="st0" width="9.1" height="4.3"/>
<rect x="49.8" y="43.9" class="st0" width="9.1" height="4.3"/>
<rect x="12.4" y="43.9" class="st0" width="9.1" height="4.3"/>
<rect x="24.6" y="54" class="st0" width="9.1" height="4.3"/>
<rect x="37.5" y="54" class="st0" width="9.1" height="4.3"/>
<rect x="12.4" y="54" class="st0" width="9.1" height="4.3"/>
</svg>
