<?xml version="1.0" encoding="utf-8"?>
<!-- Generator: Adobe Illustrator 19.2.1, SVG Export Plug-In . SVG Version: 6.00 Build 0)  -->
<svg version="1.1" id="Layer_1" xmlns="http://www.w3.org/2000/svg" xmlns:xlink="http://www.w3.org/1999/xlink" x="0px" y="0px"
	 viewBox="0 0 70.2 70.5" style="enable-background:new 0 0 70.2 70.5;" xml:space="preserve">
<style type="text/css">
	.st0{fill:#BBDC96;}
	.st1{fill:none;stroke:#BBDC96;stroke-miterlimit:10;}
</style>
<path class="st0" d="M2.9,68.5h64.5c1,0,1.8-0.8,1.8-1.8V8.1c0-1-0.8-1.8-1.8-1.8H2.9c-1,0-1.8,0.8-1.8,1.8v58.6
	C1.1,67.7,1.9,68.5,2.9,68.5z M4.9,63.7V30c0-1,0.8-1.8,1.8-1.8h57.7c1,0,1.8,0.8,1.8,1.8v33.8c0,1-0.8,1.8-1.8,1.8H6.7
	C5.7,65.6,4.9,64.8,4.9,63.7z M66.1,11.3v11.6c0,1.3-0.8,2.4-1.9,2.4H6.1c-1,0-1.9-1.1-1.9-2.4V11.3C4.2,10,5,8.9,6.1,8.9h58.1
	C65.2,8.9,66.1,10,66.1,11.3z"/>
<circle class="st0" cx="16.5" cy="17.1" r="3.6"/>
<circle class="st0" cx="53.8" cy="17.1" r="3.6"/>
<rect x="15" y="2" class="st0" width="2.9" height="15.1"/>
<rect x="52.4" y="2" class="st0" width="2.9" height="15.1"/>
<g>
	<path class="st0" d="M14.9,37.8v5.9c0,0.7,0,1.2-0.1,1.6c-0.1,0.4-0.3,0.7-0.5,1c-0.5,0.5-1.1,0.8-1.8,0.8c-0.6,0-1.1-0.1-1.6-0.4
		l0.7-1.2c0.3,0.2,0.6,0.3,0.9,0.3c0.4,0,0.7-0.2,0.8-0.5c0.2-0.3,0.2-0.8,0.2-1.6v-5.9H14.9z"/>
	<path class="st0" d="M21.1,41.1h1.3v5.7h-1.3v-0.6c-0.5,0.5-1.1,0.8-1.8,0.8c-0.8,0-1.4-0.3-2-0.9c-0.5-0.6-0.8-1.3-0.8-2.2
		c0-0.9,0.3-1.6,0.8-2.1s1.2-0.9,1.9-0.9c0.7,0,1.3,0.3,1.8,0.8V41.1z M17.9,44c0,0.5,0.1,1,0.4,1.3c0.3,0.3,0.7,0.5,1.1,0.5
		c0.5,0,0.9-0.2,1.2-0.5c0.3-0.3,0.5-0.8,0.5-1.3s-0.2-1-0.5-1.3c-0.3-0.3-0.7-0.5-1.2-0.5c-0.5,0-0.8,0.2-1.1,0.5
		C18.1,43,17.9,43.4,17.9,44z"/>
	<path class="st0" d="M24.1,41.1h1.3v0.5c0.5-0.5,1-0.7,1.6-0.7c0.7,0,1.2,0.2,1.6,0.6c0.3,0.4,0.5,0.9,0.5,1.7v3.5h-1.3v-3.2
		c0-0.6-0.1-1-0.2-1.2c-0.2-0.2-0.4-0.3-0.8-0.3c-0.4,0-0.7,0.1-0.9,0.4c-0.2,0.3-0.3,0.8-0.3,1.5v2.8h-1.3V41.1z"/>
	<path class="st0" d="M33.5,43.4h2.6v1.1h-2.6V43.4z"/>
	<path class="st0" d="M40.9,46.8v-9h1.9c0.9,0,1.6,0.1,2.2,0.3c0.6,0.2,1.1,0.5,1.5,0.9c0.9,0.9,1.4,2,1.4,3.4
		c0,1.4-0.5,2.5-1.5,3.4c-0.5,0.4-1,0.7-1.5,0.9c-0.5,0.2-1.2,0.3-2.1,0.3H40.9z M42.3,45.5h0.6c0.6,0,1.1-0.1,1.5-0.2
		c0.4-0.1,0.8-0.4,1.1-0.7c0.7-0.6,1-1.4,1-2.4c0-1-0.3-1.8-1-2.4c-0.6-0.6-1.5-0.8-2.6-0.8h-0.6V45.5z"/>
	<path class="st0" d="M54.6,44.3h-4.1c0,0.5,0.2,0.8,0.5,1.1c0.3,0.3,0.6,0.4,1,0.4c0.3,0,0.6-0.1,0.8-0.2c0.2-0.2,0.5-0.4,0.7-0.9
		l1.1,0.6c-0.2,0.3-0.4,0.5-0.5,0.8s-0.4,0.4-0.6,0.5s-0.5,0.2-0.7,0.3S52.2,47,51.9,47c-0.9,0-1.5-0.3-2.1-0.8
		c-0.5-0.6-0.8-1.3-0.8-2.2c0-0.9,0.2-1.6,0.8-2.2c0.5-0.6,1.2-0.8,2-0.8c0.8,0,1.5,0.3,2,0.8c0.5,0.5,0.7,1.3,0.7,2.2L54.6,44.3z
		 M53.2,43.2c-0.2-0.7-0.6-1.1-1.3-1.1c-0.2,0-0.3,0-0.5,0.1s-0.3,0.1-0.4,0.2s-0.2,0.2-0.3,0.3s-0.1,0.3-0.2,0.4H53.2z"/>
	<path class="st0" d="M60.4,41.4v1.8c-0.3-0.4-0.6-0.6-0.8-0.8c-0.2-0.1-0.5-0.2-0.8-0.2c-0.5,0-0.9,0.2-1.2,0.5s-0.5,0.8-0.5,1.3
		c0,0.5,0.2,1,0.5,1.3c0.3,0.3,0.7,0.5,1.2,0.5c0.3,0,0.6-0.1,0.8-0.2c0.2-0.1,0.5-0.4,0.8-0.8v1.7c-0.5,0.3-1.1,0.4-1.6,0.4
		c-0.9,0-1.6-0.3-2.2-0.9c-0.6-0.6-0.9-1.3-0.9-2.1s0.3-1.6,0.9-2.2S58,41,58.9,41C59.4,41,59.9,41.1,60.4,41.4z"/>
</g>
<rect x="12.7" y="55" class="st0" width="45.7" height="2.2"/>
</svg>
