<?xml version="1.0" encoding="utf-8"?>
<!-- Generator: Adobe Illustrator 19.1.0, SVG Export Plug-In . SVG Version: 6.00 Build 0)  -->
<svg version="1.1" xmlns="http://www.w3.org/2000/svg" xmlns:xlink="http://www.w3.org/1999/xlink" x="0px" y="0px"
	 viewBox="0 0 226 260.1" style="enable-background:new 0 0 226 260.1;" xml:space="preserve">
<style type="text/css">
	.st0{display:none;}
	.st1{display:inline;}
	.st2{fill:none;stroke:#004987;stroke-width:4;stroke-miterlimit:10;}
	.st3{fill:#004987;}
	.st4{display:inline;fill:none;stroke:#004987;stroke-width:3.114;stroke-linejoin:round;stroke-miterlimit:10;}
	
		.st5{display:inline;fill:none;stroke:#004987;stroke-width:3.114;stroke-linecap:round;stroke-linejoin:round;stroke-miterlimit:10;}
	.st6{display:inline;fill:#004987;}
	.st7{fill:none;stroke:#FFFFFF;stroke-width:4;stroke-linecap:round;stroke-linejoin:round;stroke-miterlimit:10;}
	.st8{fill:none;stroke:#FFFFFF;stroke-width:4;stroke-linecap:round;stroke-linejoin:round;}
	.st9{fill:none;stroke:#FFFFFF;stroke-width:4;stroke-linecap:round;stroke-linejoin:round;stroke-dasharray:0,11.3326;}
	.st10{fill:#FFFFFF;}
	.st11{fill:none;stroke:#FFFFFF;stroke-width:4;stroke-linejoin:round;stroke-miterlimit:10;}
	.st12{display:inline;fill:#004987;stroke:#FFFFFF;stroke-width:4;stroke-linejoin:round;stroke-miterlimit:10;}
	.st13{display:inline;fill:none;stroke:#FFFFFF;stroke-width:2;stroke-linecap:round;stroke-linejoin:round;stroke-miterlimit:10;}
	.st14{display:inline;fill:none;stroke:#FFFFFF;stroke-width:4;stroke-linejoin:round;stroke-miterlimit:10;}
	.st15{display:inline;fill:#A9A8A9;}
	.st16{display:inline;fill:#FFFFFF;}
	.st17{fill:#A9A8A9;stroke:#FFFFFF;stroke-width:3.1943;stroke-linejoin:round;stroke-miterlimit:10;}
	.st18{fill:none;stroke:#A9A8A9;stroke-width:3.1943;stroke-linecap:round;stroke-linejoin:round;stroke-miterlimit:10;}
	.st19{display:inline;fill:#A9A8A9;stroke:#FFFFFF;stroke-width:5.9435;stroke-linejoin:round;stroke-miterlimit:10;}
	.st20{fill:#A9A8A9;stroke:#FFFFFF;stroke-width:5.9435;stroke-linejoin:round;stroke-miterlimit:10;}
	.st21{fill:#A9A8A9;}
	.st22{display:inline;fill:none;stroke:#FFFFFF;stroke-width:5.0435;stroke-linecap:round;stroke-miterlimit:10;}
	.st23{fill:none;stroke:#FFFFFF;stroke-width:5.0435;stroke-linecap:round;stroke-miterlimit:10;}
	.st24{display:inline;fill:none;stroke:#58595B;stroke-width:3;stroke-miterlimit:10;}
	.st25{display:inline;fill:none;stroke:#FFFFFF;stroke-width:5.0435;stroke-miterlimit:10;}
	.st26{display:inline;fill:#FFFFFF;stroke:#FFFFFF;stroke-width:0.75;stroke-miterlimit:10;}
	.st27{display:inline;fill:none;stroke:#FFFFFF;stroke-width:5;stroke-linecap:round;stroke-linejoin:round;stroke-miterlimit:10;}
	.st28{display:inline;fill:none;stroke:#FFFFFF;stroke-width:3.6286;stroke-miterlimit:10;}
	
		.st29{display:inline;fill:none;stroke:#FFFFFF;stroke-width:3.6286;stroke-linecap:round;stroke-linejoin:round;stroke-miterlimit:10;}
	.st30{fill:none;stroke:#FFFFFF;stroke-width:4.0259;stroke-miterlimit:10;}
	
		.st31{display:inline;fill:none;stroke:#FFFFFF;stroke-width:4.0186;stroke-linecap:round;stroke-linejoin:round;stroke-miterlimit:10;}
	.st32{display:inline;fill:none;stroke:#FFFFFF;stroke-width:3.429;stroke-linecap:round;stroke-miterlimit:10;}
	.st33{fill:none;stroke:#FFFFFF;stroke-width:3.429;stroke-linecap:round;stroke-miterlimit:10;}
	.st34{fill:none;stroke:#FFFFFF;stroke-width:3.429;stroke-miterlimit:10;}
	.st35{fill:none;stroke:#FFFFFF;stroke-width:3.429;stroke-linecap:round;stroke-linejoin:round;stroke-miterlimit:10;}
	.st36{fill:none;stroke:#FFFFFF;stroke-width:4;stroke-linecap:round;stroke-miterlimit:10;}
	.st37{display:inline;fill:#9ECF7C;}
	.st38{fill:#A9A8A9;stroke:#FFFFFF;stroke-width:4.0369;stroke-linecap:round;stroke-miterlimit:10;}
	
		.st39{display:inline;fill:none;stroke:#FFFFFF;stroke-width:3.966;stroke-linecap:round;stroke-linejoin:round;stroke-miterlimit:10;}
	.st40{fill:#A9A8A9;stroke:#FFFFFF;stroke-width:3.1476;stroke-linecap:round;stroke-miterlimit:10;}
	
		.st41{display:inline;fill:none;stroke:#FFFFFF;stroke-width:2.876;stroke-linecap:round;stroke-linejoin:round;stroke-miterlimit:10;}
	.st42{fill:none;stroke:#FFFFFF;stroke-width:4.3508;stroke-linecap:round;stroke-linejoin:round;stroke-miterlimit:10;}
	.st43{fill:none;stroke:#FFFFFF;stroke-width:5.2742;stroke-linecap:round;stroke-miterlimit:10;}
	.st44{fill:none;stroke:#FFFFFF;stroke-width:1.904;stroke-linecap:round;stroke-linejoin:round;stroke-miterlimit:10;}
	.st45{display:inline;fill:none;stroke:#FFFFFF;stroke-width:2.3081;stroke-linecap:round;stroke-miterlimit:10;}
	
		.st46{display:inline;fill:#A9A8A9;stroke:#FFFFFF;stroke-width:6;stroke-linecap:round;stroke-linejoin:round;stroke-miterlimit:10;}
	.st47{fill:none;stroke:#FFFFFF;stroke-width:6;stroke-linecap:round;stroke-linejoin:round;stroke-miterlimit:10;}
	.st48{fill:#A9A8A9;stroke:#FFFFFF;stroke-width:4.36;stroke-linejoin:round;stroke-miterlimit:10;}
	.st49{fill:#A9A8A9;stroke:#FFFFFF;stroke-width:4.36;stroke-linecap:round;stroke-linejoin:round;stroke-miterlimit:10;}
	.st50{fill:none;stroke:#A9A8A9;stroke-width:4;stroke-linecap:round;stroke-linejoin:round;stroke-miterlimit:10;}
	.st51{display:inline;fill:none;stroke:#FFFFFF;stroke-width:4;stroke-linecap:round;stroke-linejoin:round;stroke-miterlimit:10;}
	.st52{fill:#004987;stroke:#FFFFFF;stroke-width:4;stroke-linejoin:round;stroke-miterlimit:10;}
	.st53{fill:#6D6E71;}
	.st54{display:inline;fill:none;stroke:#FFFFFF;stroke-width:3.2247;stroke-linejoin:round;stroke-miterlimit:10;}
	.st55{display:inline;fill:none;stroke:#FFFFFF;stroke-width:3.6491;stroke-linejoin:round;stroke-miterlimit:10;}
	.st56{fill:#004987;stroke:#FFFFFF;stroke-width:4;stroke-linecap:round;stroke-linejoin:round;stroke-miterlimit:10;}
	.st57{fill:#A9A8A9;stroke:#FFFFFF;stroke-width:4;stroke-linejoin:round;stroke-miterlimit:10;}
	.st58{fill:#A9A8A9;stroke:#FFFFFF;stroke-width:4;stroke-linecap:round;stroke-linejoin:round;stroke-miterlimit:10;}
	.st59{display:inline;fill:#A9A8A9;stroke:#FFFFFF;stroke-width:4;stroke-linejoin:round;stroke-miterlimit:10;}
	.st60{display:inline;fill:#40B4E5;}
	.st61{display:inline;fill:#A4D55D;}
	.st62{display:inline;opacity:0.15;}
	.st63{opacity:0.15;}
	.st64{clip-path:url(#SVGID_2_);}
	.st65{clip-path:url(#SVGID_4_);}
	.st66{clip-path:url(#SVGID_6_);}
	.st67{fill:#004987;stroke:#FFFFFF;stroke-width:5.2097;stroke-linecap:round;stroke-linejoin:round;stroke-miterlimit:10;}
	.st68{fill:none;stroke:#FFFFFF;stroke-width:5.2097;stroke-linecap:round;stroke-linejoin:round;stroke-miterlimit:10;}
	.st69{clip-path:url(#SVGID_8_);}
	.st70{fill:#0065A4;}
	.st71{fill:#A4D55D;}
	.st72{fill:none;}
	.st73{fill:none;stroke:#FFFFFF;stroke-width:4.4123;stroke-linecap:round;stroke-linejoin:round;stroke-miterlimit:10;}
	.st74{display:inline;fill:#FFFFFF;stroke:#FFFFFF;stroke-width:0.5;stroke-miterlimit:10;}
	
		.st75{display:inline;fill:#004987;stroke:#FFFFFF;stroke-width:5.2097;stroke-linecap:round;stroke-linejoin:round;stroke-miterlimit:10;}
	
		.st76{display:inline;fill:none;stroke:#FFFFFF;stroke-width:5.2097;stroke-linecap:round;stroke-linejoin:round;stroke-miterlimit:10;}
	.st77{display:inline;fill:#6D6E71;}
	.st78{display:none;fill:#6D6E71;}
	.st79{font-family:'FuturaStd-Book';}
	.st80{font-size:12px;}
	.st81{fill:#40B4E5;}
	.st82{fill:none;stroke:#FFFFFF;stroke-width:3;stroke-linecap:round;stroke-linejoin:round;stroke-miterlimit:10;}
	.st83{fill:none;stroke:#FFFFFF;stroke-width:3.1061;stroke-linecap:round;stroke-linejoin:round;stroke-miterlimit:10;}
	.st84{fill:#FFFFFF;stroke:#FFFFFF;stroke-width:0.5;stroke-miterlimit:10;}
	.st85{display:none;fill:#A9A8A9;stroke:#FFFFFF;stroke-width:3.1943;stroke-linejoin:round;stroke-miterlimit:10;}
	.st86{fill:#9ECF7C;}
	.st87{fill:none;stroke:#FFFFFF;stroke-width:4.0465;stroke-linecap:round;stroke-miterlimit:10;}
	.st88{fill:none;stroke:#FFFFFF;stroke-width:4.0465;stroke-linecap:round;stroke-linejoin:round;stroke-miterlimit:10;}
	.st89{display:none;fill:#004987;}
	.st90{fill:none;stroke:#FFFFFF;stroke-width:4;stroke-miterlimit:10;}
	.st91{display:inline;fill:none;stroke:#FFFFFF;stroke-width:4;stroke-linecap:round;stroke-miterlimit:10;}
	
		.st92{display:none;fill:none;stroke:#FFFFFF;stroke-width:4.4123;stroke-linecap:round;stroke-linejoin:round;stroke-miterlimit:10;}
	.st93{display:none;fill:#FFFFFF;stroke:#FFFFFF;stroke-width:2.2464;stroke-miterlimit:10;}
	
		.st94{display:inline;fill:none;stroke:#FFFFFF;stroke-width:4.4123;stroke-linecap:round;stroke-linejoin:round;stroke-miterlimit:10;}
</style>
<g id="WorkableArtwork" class="st0">
</g>
<g id="Labels">
	<rect x="27.9" y="236" class="st72" width="174" height="21.1"/>
	<text transform="matrix(1 0 0 1 75.5321 245.9364)" class="st78 st79 st80">Proven Success</text>
</g>
<g id="Icons">
</g>
<g id="Fourth_Tier_-_Optional_Features">
</g>
<g id="Third_Tier_-_Features">
</g>
<g id="SecondTier_-_Benefits">
	<circle class="st21" cx="114.5" cy="132" r="107.1"/>
	<g>
		<path class="st10" d="M122.1,170.4l-26.3,43.5l-11.8-18.9l12-20.5c0,0,0.5-1.3-1-1.9c-1.5-0.7-2.1,1.1-2.1,1.1l-11.5,20L59,194.1
			l17.3-29.8c0.5-1,0.2-2.2-0.8-2.7c-1-0.5-2.2-0.2-2.7,0.8l-18.8,32.4c-0.3,0.6-0.3,1.3,0,1.9c0.3,0.6,0.9,1,1.6,1.1l25.3-0.2
			l13.6,21.3c0.4,0.5,1,0.8,1.6,0.8c0.1,0,0.1,0,0.2,0c0.7-0.1,1.3-0.5,1.6-1.1l27.8-46.2c0,0,0.3-1-1.3-1.9
			C122.7,169.6,122.1,170.4,122.1,170.4z"/>
		<path class="st10" d="M175.9,191.8l-21.5-39.2c-0.1-0.1-0.2-0.3-0.3-0.4l0.9-3.4l6-1.7c0.8-0.2,1.4-1,1.5-1.8l0.3-6.3l5.5-3
			c0.8-0.4,1.2-1.3,1-2.1l-1.1-6.2l4.7-4.1c0.6-0.6,0.9-1.5,0.5-2.3l-2.5-5.8l3.7-5.1c0.5-0.7,0.5-1.6,0-2.3l-3.7-5.1l2.5-5.8
			c0.3-0.8,0.1-1.7-0.5-2.3l-4.7-4.1l1.1-6.2c0.2-0.8-0.3-1.7-1-2.1l-5.5-3l-0.3-6.3c0-0.9-0.6-1.6-1.5-1.8l-6-1.7l-1.7-6
			c-0.2-0.8-1-1.4-1.8-1.5l-6.3-0.3l-3-5.5c-0.4-0.8-1.3-1.2-2.1-1l-6.2,1.1l-4.1-4.7c-0.6-0.7-1.5-0.9-2.3-0.5l-5.8,2.5l-5.1-3.7
			c-0.7-0.5-1.6-0.5-2.3,0l-5.1,3.7l-5.8-2.5c-0.8-0.3-1.7-0.1-2.3,0.5l-4.1,4.7L91,55.5c-0.9-0.2-1.7,0.3-2.1,1l-3,5.5l-6.3,0.3
			c-0.9,0-1.6,0.6-1.8,1.5l-1.7,6l-6,1.7c-0.8,0.2-1.4,1-1.5,1.8l-0.3,6.3l-5.5,3c-0.8,0.4-1.2,1.3-1,2.1l1.1,6.2L58.2,95
			c-0.6,0.6-0.9,1.5-0.5,2.3l2.5,5.8l-3.7,5.1c-0.5,0.7-0.5,1.6,0,2.3l3.7,5.1l-2.5,5.8c-0.3,0.8-0.1,1.7,0.5,2.3l4.7,4.1l-1.1,6.2
			c-0.2,0.8,0.3,1.7,1,2.1l5.5,3l0.3,6.3c0,0.9,0.6,1.6,1.5,1.8l6,1.7l1.7,6c0.2,0.8,1,1.4,1.8,1.5l6.3,0.3l3,5.5
			c0.4,0.8,1.3,1.2,2.1,1l6.2-1.1l4.1,4.7c0.6,0.7,1.5,0.9,2.3,0.5l5.8-2.5l5.1,3.7c0.4,0.3,0.8,0.4,1.2,0.4s0.8-0.1,1.2-0.4
			l5.3-4.1l5.6,2.9c0.8,0.3,1.7,0.1,2.3-0.5l4.1-4.7l6.2,1.1c0.8,0.2,1.7-0.3,2.1-1l3-5.5l6.3-0.3c0.1,0,0.2,0,0.3-0.1l19.1,34.9
			l-21.7,0.7l-11.4-20.1c0,0-0.9-0.2-1.7,0.5c-0.8,0.8-0.2,1.9-0.2,1.9l10.8,19.1l-12.3,17.6l-9.8-19.8c-0.5-1-1.7-1.4-2.7-0.9
			c-1,0.5-1.4,1.7-0.9,2.7l11.3,22.7c0.3,0.6,0.9,1,1.6,1.1c0.1,0,0.1,0,0.2,0c0.6,0,1.2-0.3,1.6-0.8l14.3-20.2l24.5-0.9
			c0.7-0.1,1.2-0.5,1.6-1.1C176.2,193.1,176.2,192.4,175.9,191.8z M144,152.6c-0.7,0-1.3,0.4-1.7,1l-2.8,5.2l-5.9-1.1
			c-0.7-0.1-1.4,0.1-1.9,0.7l-3.9,4.5l-5.5-2.3c-0.6-0.3-1.4-0.2-2,0.2l-4.8,3.5l-4.8-3.5c-0.3-0.3-0.8-0.4-1.2-0.4
			c-0.3,0-0.5,0.1-0.8,0.2l-5.5,2.3l-3.9-4.5c-0.5-0.5-1.2-0.8-1.9-0.7l-5.9,1.1l-2.8-5.2c-0.3-0.6-1-1-1.7-1l-5.9-0.3l-1.6-5.7
			c-0.2-0.7-0.7-1.2-1.4-1.4l-5.7-1.6l-0.3-5.9c0-0.7-0.4-1.3-1-1.7l-5.2-2.8l1.1-5.9c0.1-0.7-0.1-1.4-0.6-1.9l-4.5-3.9l2.3-5.5
			c0.3-0.6,0.2-1.4-0.2-2l-3.5-4.8l3.5-4.8c0.4-0.6,0.5-1.3,0.2-2L61.9,97l4.5-3.9c0.5-0.5,0.8-1.2,0.6-1.9L66,85.4l5.2-2.8
			c0.6-0.3,1-1,1-1.7l0.3-5.9l5.7-1.6c0.7-0.2,1.2-0.7,1.4-1.4l1.6-5.7l5.9-0.3c0.7,0,1.3-0.4,1.7-1l2.8-5.2l5.9,1.1
			c0.7,0.1,1.4-0.1,1.9-0.7l3.9-4.5l5.5,2.3c0.6,0.3,1.4,0.2,2-0.2l4.8-3.5l4.8,3.5c0.6,0.4,1.3,0.5,2,0.2l5.5-2.3l3.9,4.5
			c0.5,0.5,1.2,0.8,1.9,0.7l5.9-1.1l2.8,5.2c0.3,0.6,1,1,1.7,1l5.9,0.3l1.6,5.7c0.2,0.7,0.7,1.2,1.4,1.4l5.7,1.6l0.3,5.9
			c0,0.7,0.4,1.3,1,1.7l5.2,2.8l-1.1,5.9c-0.1,0.7,0.1,1.4,0.6,1.9l4.5,3.9l-2.3,5.5c-0.3,0.6-0.2,1.4,0.2,2l3.5,4.8l-3.5,4.8
			c-0.4,0.6-0.5,1.3-0.2,2l2.3,5.5l-4.5,3.9c-0.5,0.5-0.8,1.2-0.6,1.9l1.1,5.9L160,136c-0.6,0.3-1,1-1,1.7l-0.3,5.9l-5.7,1.6
			c-0.7,0.2-1.2,0.7-1.4,1.4l-1.6,5.7L144,152.6z"/>
		<g>
			<path class="st10" d="M155,106.4c-1.6-21.5-20.5-37.7-42-36c-9.2,0.7-17.9,4.6-24.4,11.1C88,82,88,83,88.6,83.6
				c0.6,0.6,1.5,0.6,2.1,0c6.1-6,14.1-9.6,22.5-10.2c19.8-1.5,37.2,13.4,38.7,33.2c1.5,19.8-13.4,37.2-33.2,38.7
				c-0.8,0.1-1.5,0.8-1.4,1.6c0.1,0.8,0.8,1.5,1.6,1.4C140.5,146.7,156.6,127.9,155,106.4z"/>
			<path class="st10" d="M97.9,140.9c-11.3-7.2-18.1-19.4-18.1-32.8c0-0.9-0.7-1.6-1.6-1.6s-1.6,0.7-1.6,1.6
				c0,14.5,7.3,27.8,19.6,35.5c0.3,0.2,0.6,0.3,0.9,0.3c0.5,0,1.1-0.3,1.4-0.8C98.9,142.4,98.7,141.4,97.9,140.9z"/>
		</g>
	</g>
</g>
<g id="First_Tier_-_PrimaryPillars">
</g>
</svg>
