<?xml version="1.0" encoding="utf-8"?>
<!-- Generator: Adobe Illustrator 19.1.0, SVG Export Plug-In . SVG Version: 6.00 Build 0)  -->
<svg version="1.1" xmlns="http://www.w3.org/2000/svg" xmlns:xlink="http://www.w3.org/1999/xlink" x="0px" y="0px"
	 viewBox="0 0 226 265.4" style="enable-background:new 0 0 226 265.4;" xml:space="preserve">
<style type="text/css">
	.st0{display:none;}
	.st1{display:inline;}
	.st2{fill:none;stroke:#004987;stroke-width:4;stroke-miterlimit:10;}
	.st3{fill:#004987;}
	.st4{display:inline;fill:none;stroke:#004987;stroke-width:3.114;stroke-linejoin:round;stroke-miterlimit:10;}
	
		.st5{display:inline;fill:none;stroke:#004987;stroke-width:3.114;stroke-linecap:round;stroke-linejoin:round;stroke-miterlimit:10;}
	.st6{display:inline;fill:#004987;}
	.st7{fill:none;stroke:#FFFFFF;stroke-width:4;stroke-linecap:round;stroke-linejoin:round;stroke-miterlimit:10;}
	.st8{fill:none;stroke:#FFFFFF;stroke-width:4;stroke-linecap:round;stroke-linejoin:round;}
	.st9{fill:none;stroke:#FFFFFF;stroke-width:4;stroke-linecap:round;stroke-linejoin:round;stroke-dasharray:0,11.3326;}
	.st10{fill:#FFFFFF;}
	.st11{fill:none;stroke:#FFFFFF;stroke-width:4;stroke-linejoin:round;stroke-miterlimit:10;}
	.st12{display:inline;fill:#004987;stroke:#FFFFFF;stroke-width:4;stroke-linejoin:round;stroke-miterlimit:10;}
	.st13{display:inline;fill:none;stroke:#FFFFFF;stroke-width:2;stroke-linecap:round;stroke-linejoin:round;stroke-miterlimit:10;}
	.st14{display:inline;fill:none;stroke:#FFFFFF;stroke-width:4;stroke-linejoin:round;stroke-miterlimit:10;}
	.st15{display:inline;fill:#A9A8A9;}
	.st16{display:inline;fill:#FFFFFF;}
	.st17{fill:#A9A8A9;stroke:#FFFFFF;stroke-width:3.1943;stroke-linejoin:round;stroke-miterlimit:10;}
	.st18{fill:none;stroke:#A9A8A9;stroke-width:3.1943;stroke-linecap:round;stroke-linejoin:round;stroke-miterlimit:10;}
	.st19{display:inline;fill:#A9A8A9;stroke:#FFFFFF;stroke-width:5.9435;stroke-linejoin:round;stroke-miterlimit:10;}
	.st20{fill:#A9A8A9;stroke:#FFFFFF;stroke-width:5.9435;stroke-linejoin:round;stroke-miterlimit:10;}
	.st21{fill:#A9A8A9;}
	.st22{display:inline;fill:none;stroke:#FFFFFF;stroke-width:5.0435;stroke-linecap:round;stroke-miterlimit:10;}
	.st23{fill:none;stroke:#FFFFFF;stroke-width:5.0435;stroke-linecap:round;stroke-miterlimit:10;}
	.st24{display:inline;fill:none;stroke:#58595B;stroke-width:3;stroke-miterlimit:10;}
	.st25{display:inline;fill:none;stroke:#FFFFFF;stroke-width:5.0435;stroke-miterlimit:10;}
	.st26{display:inline;fill:#FFFFFF;stroke:#FFFFFF;stroke-width:0.75;stroke-miterlimit:10;}
	.st27{display:inline;fill:none;stroke:#FFFFFF;stroke-width:5;stroke-linecap:round;stroke-linejoin:round;stroke-miterlimit:10;}
	.st28{display:inline;fill:none;stroke:#FFFFFF;stroke-width:3.6286;stroke-miterlimit:10;}
	
		.st29{display:inline;fill:none;stroke:#FFFFFF;stroke-width:3.6286;stroke-linecap:round;stroke-linejoin:round;stroke-miterlimit:10;}
	.st30{fill:none;stroke:#FFFFFF;stroke-width:4.0259;stroke-miterlimit:10;}
	
		.st31{display:inline;fill:none;stroke:#FFFFFF;stroke-width:4.0186;stroke-linecap:round;stroke-linejoin:round;stroke-miterlimit:10;}
	.st32{display:inline;fill:none;stroke:#FFFFFF;stroke-width:3.429;stroke-linecap:round;stroke-miterlimit:10;}
	.st33{fill:none;stroke:#FFFFFF;stroke-width:3.429;stroke-linecap:round;stroke-miterlimit:10;}
	.st34{fill:none;stroke:#FFFFFF;stroke-width:3.429;stroke-miterlimit:10;}
	.st35{fill:none;stroke:#FFFFFF;stroke-width:3.429;stroke-linecap:round;stroke-linejoin:round;stroke-miterlimit:10;}
	.st36{fill:none;stroke:#FFFFFF;stroke-width:4;stroke-linecap:round;stroke-miterlimit:10;}
	.st37{display:inline;fill:#9ECF7C;}
	.st38{fill:#A9A8A9;stroke:#FFFFFF;stroke-width:4.0369;stroke-linecap:round;stroke-miterlimit:10;}
	
		.st39{display:inline;fill:none;stroke:#FFFFFF;stroke-width:3.966;stroke-linecap:round;stroke-linejoin:round;stroke-miterlimit:10;}
	.st40{fill:#A9A8A9;stroke:#FFFFFF;stroke-width:3.1476;stroke-linecap:round;stroke-miterlimit:10;}
	
		.st41{display:inline;fill:none;stroke:#FFFFFF;stroke-width:2.876;stroke-linecap:round;stroke-linejoin:round;stroke-miterlimit:10;}
	.st42{fill:none;stroke:#FFFFFF;stroke-width:4.3508;stroke-linecap:round;stroke-linejoin:round;stroke-miterlimit:10;}
	.st43{fill:none;stroke:#FFFFFF;stroke-width:5.2742;stroke-linecap:round;stroke-miterlimit:10;}
	.st44{fill:none;stroke:#FFFFFF;stroke-width:1.904;stroke-linecap:round;stroke-linejoin:round;stroke-miterlimit:10;}
	.st45{display:inline;fill:none;stroke:#FFFFFF;stroke-width:2.3081;stroke-linecap:round;stroke-miterlimit:10;}
	
		.st46{display:inline;fill:#A9A8A9;stroke:#FFFFFF;stroke-width:6;stroke-linecap:round;stroke-linejoin:round;stroke-miterlimit:10;}
	.st47{fill:none;stroke:#FFFFFF;stroke-width:6;stroke-linecap:round;stroke-linejoin:round;stroke-miterlimit:10;}
	.st48{fill:#A9A8A9;stroke:#FFFFFF;stroke-width:4.36;stroke-linejoin:round;stroke-miterlimit:10;}
	.st49{fill:#A9A8A9;stroke:#FFFFFF;stroke-width:4.36;stroke-linecap:round;stroke-linejoin:round;stroke-miterlimit:10;}
	.st50{fill:none;stroke:#A9A8A9;stroke-width:4;stroke-linecap:round;stroke-linejoin:round;stroke-miterlimit:10;}
	.st51{display:inline;fill:none;stroke:#FFFFFF;stroke-width:4;stroke-linecap:round;stroke-linejoin:round;stroke-miterlimit:10;}
	.st52{fill:#004987;stroke:#FFFFFF;stroke-width:4;stroke-linejoin:round;stroke-miterlimit:10;}
	.st53{fill:#6D6E71;}
	.st54{display:inline;fill:none;stroke:#FFFFFF;stroke-width:3.2247;stroke-linejoin:round;stroke-miterlimit:10;}
	.st55{display:inline;fill:none;stroke:#FFFFFF;stroke-width:3.6491;stroke-linejoin:round;stroke-miterlimit:10;}
	.st56{fill:#004987;stroke:#FFFFFF;stroke-width:4;stroke-linecap:round;stroke-linejoin:round;stroke-miterlimit:10;}
	.st57{fill:#A9A8A9;stroke:#FFFFFF;stroke-width:4;stroke-linejoin:round;stroke-miterlimit:10;}
	.st58{fill:#A9A8A9;stroke:#FFFFFF;stroke-width:4;stroke-linecap:round;stroke-linejoin:round;stroke-miterlimit:10;}
	.st59{display:inline;fill:#A9A8A9;stroke:#FFFFFF;stroke-width:4;stroke-linejoin:round;stroke-miterlimit:10;}
	.st60{display:inline;fill:#40B4E5;}
	.st61{display:inline;fill:#A4D55D;}
	.st62{display:inline;opacity:0.15;}
	.st63{opacity:0.15;}
	.st64{clip-path:url(#SVGID_2_);}
	.st65{clip-path:url(#SVGID_4_);}
	.st66{clip-path:url(#SVGID_6_);}
	.st67{fill:#004987;stroke:#FFFFFF;stroke-width:5.2097;stroke-linecap:round;stroke-linejoin:round;stroke-miterlimit:10;}
	.st68{fill:none;stroke:#FFFFFF;stroke-width:5.2097;stroke-linecap:round;stroke-linejoin:round;stroke-miterlimit:10;}
	.st69{clip-path:url(#SVGID_8_);}
	.st70{fill:#0065A4;}
	.st71{fill:#A4D55D;}
	.st72{fill:none;}
	.st73{fill:none;stroke:#FFFFFF;stroke-width:4.4123;stroke-linecap:round;stroke-linejoin:round;stroke-miterlimit:10;}
	.st74{display:inline;fill:#FFFFFF;stroke:#FFFFFF;stroke-width:0.5;stroke-miterlimit:10;}
	
		.st75{display:inline;fill:#004987;stroke:#FFFFFF;stroke-width:5.2097;stroke-linecap:round;stroke-linejoin:round;stroke-miterlimit:10;}
	
		.st76{display:inline;fill:none;stroke:#FFFFFF;stroke-width:5.2097;stroke-linecap:round;stroke-linejoin:round;stroke-miterlimit:10;}
	.st77{display:inline;fill:#6D6E71;}
	.st78{display:none;fill:#6D6E71;}
	.st79{font-family:'FuturaStd-Book';}
	.st80{font-size:12px;}
	.st81{fill:#40B4E5;}
	.st82{fill:none;stroke:#FFFFFF;stroke-width:3;stroke-linecap:round;stroke-linejoin:round;stroke-miterlimit:10;}
	.st83{fill:none;stroke:#FFFFFF;stroke-width:3.1061;stroke-linecap:round;stroke-linejoin:round;stroke-miterlimit:10;}
	.st84{fill:#FFFFFF;stroke:#FFFFFF;stroke-width:0.5;stroke-miterlimit:10;}
	.st85{display:none;fill:#A9A8A9;stroke:#FFFFFF;stroke-width:3.1943;stroke-linejoin:round;stroke-miterlimit:10;}
	.st86{fill:#9ECF7C;}
	.st87{fill:none;stroke:#FFFFFF;stroke-width:4.0465;stroke-linecap:round;stroke-miterlimit:10;}
	.st88{fill:none;stroke:#FFFFFF;stroke-width:4.0465;stroke-linecap:round;stroke-linejoin:round;stroke-miterlimit:10;}
	.st89{display:none;fill:#004987;}
	.st90{fill:none;stroke:#FFFFFF;stroke-width:4;stroke-miterlimit:10;}
	.st91{display:inline;fill:none;stroke:#FFFFFF;stroke-width:4;stroke-linecap:round;stroke-miterlimit:10;}
	
		.st92{display:none;fill:none;stroke:#FFFFFF;stroke-width:4.4123;stroke-linecap:round;stroke-linejoin:round;stroke-miterlimit:10;}
	.st93{display:none;fill:#FFFFFF;stroke:#FFFFFF;stroke-width:2.2464;stroke-miterlimit:10;}
	
		.st94{display:inline;fill:none;stroke:#FFFFFF;stroke-width:4.4123;stroke-linecap:round;stroke-linejoin:round;stroke-miterlimit:10;}
</style>
<g id="WorkableArtwork" class="st0">
</g>
<g id="Labels">
	<rect y="242.1" class="st72" width="226" height="12.4"/>
	<text transform="matrix(1 0 0 1 51.6931 252.0001)" class="st78 st79 st80">Merv 8 HVAC Filtration</text>
</g>
<g id="Icons">
</g>
<g id="Fourth_Tier_-_Optional_Features">
</g>
<g id="Third_Tier_-_Features">
	<g>
		<circle class="st71" cx="113.7" cy="128.1" r="107.1"/>
		<g>
			<path class="st10" d="M51.1,99.4v62.4c0,1.2,1,2.3,2.3,2.3c1.2,0,2.3-1,2.3-2.3V99.4c0-1.2-1-2.3-2.3-2.3
				C52.1,97.1,51.1,98.1,51.1,99.4z"/>
			<path class="st10" d="M67.7,99.4v62.4c0,1.2,1,2.3,2.3,2.3s2.3-1,2.3-2.3V99.4c0-1.2-1-2.3-2.3-2.3S67.7,98.1,67.7,99.4z"/>
			<path class="st10" d="M84.2,99.4v62.4c0,1.2,1,2.3,2.3,2.3s2.3-1,2.3-2.3V99.4c0-1.2-1-2.3-2.3-2.3S84.2,98.1,84.2,99.4z"/>
			<path class="st10" d="M100.8,99.4v62.4c0,1.2,1,2.3,2.3,2.3c1.2,0,2.3-1,2.3-2.3V99.4c0-1.2-1-2.3-2.3-2.3
				C101.8,97.1,100.8,98.1,100.8,99.4z"/>
			<path class="st10" d="M117.3,99.4v62.4c0,1.2,1,2.3,2.3,2.3s2.3-1,2.3-2.3V99.4c0-1.2-1-2.3-2.3-2.3S117.3,98.1,117.3,99.4z"/>
			<path class="st10" d="M138.4,106.7v-7.4c0-1.2-1-2.3-2.3-2.3c-1.2,0-2.3,1-2.3,2.3v7.4c0,1.2,1,2.3,2.3,2.3
				C137.4,109,138.4,108,138.4,106.7z"/>
			<path class="st10" d="M155,109.3v-9.9c0-1.2-1-2.3-2.3-2.3s-2.3,1-2.3,2.3v9.9c0,1.2,1,2.3,2.3,2.3S155,110.6,155,109.3z"/>
			<path class="st10" d="M138.4,161.7v-7.6c0-1.2-1-2.3-2.3-2.3c-1.2,0-2.3,1-2.3,2.3v7.6c0,1.2,1,2.3,2.3,2.3
				C137.4,164,138.4,163,138.4,161.7z"/>
			<path class="st10" d="M155,161.7v-5.9c0-1.2-1-2.3-2.3-2.3s-2.3,1-2.3,2.3v5.9c0,1.2,1,2.3,2.3,2.3S155,163,155,161.7z"/>
			<path class="st10" d="M130.6,112.1c-0.4-0.2-0.7-0.3-1.1-0.3c-0.2,0-0.4,0-0.6,0.1c-0.6,0.2-1.1,0.6-1.4,1.1
				c-0.3,0.5-0.4,1.2-0.2,1.8c0.2,0.6,0.6,1.1,1.1,1.4c7,3.9,13.4,5.8,19.6,5.8c7.7,0,14-3.1,19.5-5.8c9.5-4.7,18.6-9.1,34.8-0.1
				c1.1,0.6,2.6,0.2,3.2-0.9c0.3-0.5,0.4-1.2,0.2-1.8c-0.2-0.6-0.6-1.1-1.1-1.4c-18.4-10.2-29.4-4.8-39.1-0.1
				C155.8,116.7,146.8,121.1,130.6,112.1z"/>
			<path class="st10" d="M204.4,126.1c-18.4-10.2-29.4-4.8-39.1-0.1c-9.5,4.7-18.5,9.1-34.8,0.1c-0.4-0.2-0.7-0.3-1.1-0.3
				c-0.2,0-0.4,0-0.6,0.1c-0.6,0.2-1.1,0.6-1.4,1.1c-0.3,0.5-0.4,1.2-0.2,1.8c0.2,0.6,0.6,1.1,1.1,1.4c7,3.9,13.4,5.8,19.6,5.8
				c7.7,0,14-3.1,19.5-5.8c9.5-4.7,18.6-9.1,34.8-0.1c1.1,0.6,2.6,0.2,3.2-0.9c0.3-0.5,0.4-1.2,0.2-1.8
				C205.4,126.9,205,126.4,204.4,126.1z"/>
			<path class="st10" d="M204.4,140.5c-18.4-10.2-29.4-4.8-39.1-0.1c-9.5,4.7-18.5,9.1-34.8,0.1c-0.4-0.2-0.7-0.3-1.1-0.3
				c-0.2,0-0.4,0-0.6,0.1c-0.6,0.2-1.1,0.6-1.4,1.1c-0.3,0.5-0.4,1.2-0.2,1.8s0.6,1.1,1.1,1.4c7,3.9,13.4,5.8,19.6,5.8
				c7.7,0,14-3.1,19.5-5.8c0.1-0.1,0.3-0.1,0.4-0.2c0.1,0,0.2-0.1,0.3-0.1c0.1,0,0.2-0.1,0.3-0.1v0.3v0.3v25c0,1.8-1.5,3.8-3.6,3.8
				H42.2c-2.1,0-3.6-2-3.6-3.8V92.3c0-1.8,1.5-3.8,3.6-3.8h122.6c2.1,0,3.6,2,3.6,3.8v13.2l4.3-2.1V92.5c0-6.1-4.1-8.3-7.9-8.3H42.3
				c-3.8,0-7.9,2.2-7.9,8.3v77.1c0,6.1,4.1,8.3,7.9,8.3h122.4c3.8,0,7.9-2.2,7.9-8.3v-26.7v-0.3v-0.3c0.1,0,0.2-0.1,0.3-0.1
				c0.1,0,0.2-0.1,0.3-0.1c7.7-3.2,16-4.5,28.9,2.7c1.1,0.6,2.6,0.2,3.2-0.9c0.3-0.5,0.4-1.2,0.2-1.8
				C205.4,141.3,205,140.8,204.4,140.5z"/>
		</g>
	</g>
</g>
<g id="SecondTier_-_Benefits">
</g>
<g id="First_Tier_-_PrimaryPillars">
</g>
</svg>
