<?xml version="1.0" encoding="utf-8"?>
<!-- Generator: Adobe Illustrator 19.1.0, SVG Export Plug-In . SVG Version: 6.00 Build 0)  -->
<svg version="1.1" xmlns="http://www.w3.org/2000/svg" xmlns:xlink="http://www.w3.org/1999/xlink" x="0px" y="0px"
	 viewBox="0 0 226 265.4" style="enable-background:new 0 0 226 265.4;" xml:space="preserve">
<style type="text/css">
	.st0{display:none;}
	.st1{display:inline;}
	.st2{fill:none;stroke:#004987;stroke-width:4;stroke-miterlimit:10;}
	.st3{fill:#004987;}
	.st4{display:inline;fill:none;stroke:#004987;stroke-width:3.114;stroke-linejoin:round;stroke-miterlimit:10;}
	
		.st5{display:inline;fill:none;stroke:#004987;stroke-width:3.114;stroke-linecap:round;stroke-linejoin:round;stroke-miterlimit:10;}
	.st6{display:inline;fill:#004987;}
	.st7{fill:none;stroke:#FFFFFF;stroke-width:4;stroke-linecap:round;stroke-linejoin:round;stroke-miterlimit:10;}
	.st8{fill:none;stroke:#FFFFFF;stroke-width:4;stroke-linecap:round;stroke-linejoin:round;}
	.st9{fill:none;stroke:#FFFFFF;stroke-width:4;stroke-linecap:round;stroke-linejoin:round;stroke-dasharray:0,11.3326;}
	.st10{fill:#FFFFFF;}
	.st11{fill:none;stroke:#FFFFFF;stroke-width:4;stroke-linejoin:round;stroke-miterlimit:10;}
	.st12{display:inline;fill:#004987;stroke:#FFFFFF;stroke-width:4;stroke-linejoin:round;stroke-miterlimit:10;}
	.st13{display:inline;fill:none;stroke:#FFFFFF;stroke-width:2;stroke-linecap:round;stroke-linejoin:round;stroke-miterlimit:10;}
	.st14{display:inline;fill:none;stroke:#FFFFFF;stroke-width:4;stroke-linejoin:round;stroke-miterlimit:10;}
	.st15{display:inline;fill:#A9A8A9;}
	.st16{display:inline;fill:#FFFFFF;}
	.st17{fill:#A9A8A9;stroke:#FFFFFF;stroke-width:3.1943;stroke-linejoin:round;stroke-miterlimit:10;}
	.st18{fill:none;stroke:#A9A8A9;stroke-width:3.1943;stroke-linecap:round;stroke-linejoin:round;stroke-miterlimit:10;}
	.st19{display:inline;fill:#A9A8A9;stroke:#FFFFFF;stroke-width:5.9435;stroke-linejoin:round;stroke-miterlimit:10;}
	.st20{fill:#A9A8A9;stroke:#FFFFFF;stroke-width:5.9435;stroke-linejoin:round;stroke-miterlimit:10;}
	.st21{fill:#A9A8A9;}
	.st22{display:inline;fill:none;stroke:#FFFFFF;stroke-width:5.0435;stroke-linecap:round;stroke-miterlimit:10;}
	.st23{fill:none;stroke:#FFFFFF;stroke-width:5.0435;stroke-linecap:round;stroke-miterlimit:10;}
	.st24{display:inline;fill:none;stroke:#58595B;stroke-width:3;stroke-miterlimit:10;}
	.st25{display:inline;fill:none;stroke:#FFFFFF;stroke-width:5.0435;stroke-miterlimit:10;}
	.st26{display:inline;fill:#FFFFFF;stroke:#FFFFFF;stroke-width:0.75;stroke-miterlimit:10;}
	.st27{display:inline;fill:none;stroke:#FFFFFF;stroke-width:5;stroke-linecap:round;stroke-linejoin:round;stroke-miterlimit:10;}
	.st28{display:inline;fill:none;stroke:#FFFFFF;stroke-width:3.6286;stroke-miterlimit:10;}
	
		.st29{display:inline;fill:none;stroke:#FFFFFF;stroke-width:3.6286;stroke-linecap:round;stroke-linejoin:round;stroke-miterlimit:10;}
	.st30{fill:none;stroke:#FFFFFF;stroke-width:4.0259;stroke-miterlimit:10;}
	
		.st31{display:inline;fill:none;stroke:#FFFFFF;stroke-width:4.0186;stroke-linecap:round;stroke-linejoin:round;stroke-miterlimit:10;}
	.st32{display:inline;fill:none;stroke:#FFFFFF;stroke-width:3.429;stroke-linecap:round;stroke-miterlimit:10;}
	.st33{fill:none;stroke:#FFFFFF;stroke-width:3.429;stroke-linecap:round;stroke-miterlimit:10;}
	.st34{fill:none;stroke:#FFFFFF;stroke-width:3.429;stroke-miterlimit:10;}
	.st35{fill:none;stroke:#FFFFFF;stroke-width:3.429;stroke-linecap:round;stroke-linejoin:round;stroke-miterlimit:10;}
	.st36{fill:none;stroke:#FFFFFF;stroke-width:4;stroke-linecap:round;stroke-miterlimit:10;}
	.st37{display:inline;fill:#9ECF7C;}
	.st38{fill:#A9A8A9;stroke:#FFFFFF;stroke-width:4.0369;stroke-linecap:round;stroke-miterlimit:10;}
	
		.st39{display:inline;fill:none;stroke:#FFFFFF;stroke-width:3.966;stroke-linecap:round;stroke-linejoin:round;stroke-miterlimit:10;}
	.st40{fill:#A9A8A9;stroke:#FFFFFF;stroke-width:3.1476;stroke-linecap:round;stroke-miterlimit:10;}
	
		.st41{display:inline;fill:none;stroke:#FFFFFF;stroke-width:2.876;stroke-linecap:round;stroke-linejoin:round;stroke-miterlimit:10;}
	.st42{fill:none;stroke:#FFFFFF;stroke-width:4.3508;stroke-linecap:round;stroke-linejoin:round;stroke-miterlimit:10;}
	.st43{fill:none;stroke:#FFFFFF;stroke-width:5.2742;stroke-linecap:round;stroke-miterlimit:10;}
	.st44{fill:none;stroke:#FFFFFF;stroke-width:1.904;stroke-linecap:round;stroke-linejoin:round;stroke-miterlimit:10;}
	.st45{display:inline;fill:none;stroke:#FFFFFF;stroke-width:2.3081;stroke-linecap:round;stroke-miterlimit:10;}
	
		.st46{display:inline;fill:#A9A8A9;stroke:#FFFFFF;stroke-width:6;stroke-linecap:round;stroke-linejoin:round;stroke-miterlimit:10;}
	.st47{fill:none;stroke:#FFFFFF;stroke-width:6;stroke-linecap:round;stroke-linejoin:round;stroke-miterlimit:10;}
	.st48{fill:#A9A8A9;stroke:#FFFFFF;stroke-width:4.36;stroke-linejoin:round;stroke-miterlimit:10;}
	.st49{fill:#A9A8A9;stroke:#FFFFFF;stroke-width:4.36;stroke-linecap:round;stroke-linejoin:round;stroke-miterlimit:10;}
	.st50{fill:none;stroke:#A9A8A9;stroke-width:4;stroke-linecap:round;stroke-linejoin:round;stroke-miterlimit:10;}
	.st51{display:inline;fill:none;stroke:#FFFFFF;stroke-width:4;stroke-linecap:round;stroke-linejoin:round;stroke-miterlimit:10;}
	.st52{fill:#004987;stroke:#FFFFFF;stroke-width:4;stroke-linejoin:round;stroke-miterlimit:10;}
	.st53{fill:#6D6E71;}
	.st54{display:inline;fill:none;stroke:#FFFFFF;stroke-width:3.2247;stroke-linejoin:round;stroke-miterlimit:10;}
	.st55{display:inline;fill:none;stroke:#FFFFFF;stroke-width:3.6491;stroke-linejoin:round;stroke-miterlimit:10;}
	.st56{fill:#004987;stroke:#FFFFFF;stroke-width:4;stroke-linecap:round;stroke-linejoin:round;stroke-miterlimit:10;}
	.st57{fill:#A9A8A9;stroke:#FFFFFF;stroke-width:4;stroke-linejoin:round;stroke-miterlimit:10;}
	.st58{fill:#A9A8A9;stroke:#FFFFFF;stroke-width:4;stroke-linecap:round;stroke-linejoin:round;stroke-miterlimit:10;}
	.st59{display:inline;fill:#A9A8A9;stroke:#FFFFFF;stroke-width:4;stroke-linejoin:round;stroke-miterlimit:10;}
	.st60{display:inline;fill:#40B4E5;}
	.st61{display:inline;fill:#A4D55D;}
	.st62{display:inline;opacity:0.15;}
	.st63{opacity:0.15;}
	.st64{clip-path:url(#SVGID_2_);}
	.st65{clip-path:url(#SVGID_4_);}
	.st66{clip-path:url(#SVGID_6_);}
	.st67{fill:#004987;stroke:#FFFFFF;stroke-width:5.2097;stroke-linecap:round;stroke-linejoin:round;stroke-miterlimit:10;}
	.st68{fill:none;stroke:#FFFFFF;stroke-width:5.2097;stroke-linecap:round;stroke-linejoin:round;stroke-miterlimit:10;}
	.st69{clip-path:url(#SVGID_8_);}
	.st70{fill:#0065A4;}
	.st71{fill:#A4D55D;}
	.st72{fill:none;}
	.st73{fill:none;stroke:#FFFFFF;stroke-width:4.4123;stroke-linecap:round;stroke-linejoin:round;stroke-miterlimit:10;}
	.st74{display:inline;fill:#FFFFFF;stroke:#FFFFFF;stroke-width:0.5;stroke-miterlimit:10;}
	
		.st75{display:inline;fill:#004987;stroke:#FFFFFF;stroke-width:5.2097;stroke-linecap:round;stroke-linejoin:round;stroke-miterlimit:10;}
	
		.st76{display:inline;fill:none;stroke:#FFFFFF;stroke-width:5.2097;stroke-linecap:round;stroke-linejoin:round;stroke-miterlimit:10;}
	.st77{display:inline;fill:#6D6E71;}
	.st78{display:none;fill:#6D6E71;}
	.st79{font-family:'FuturaStd-Book';}
	.st80{font-size:12px;}
	.st81{fill:#40B4E5;}
	.st82{fill:none;stroke:#FFFFFF;stroke-width:3;stroke-linecap:round;stroke-linejoin:round;stroke-miterlimit:10;}
	.st83{fill:none;stroke:#FFFFFF;stroke-width:3.1061;stroke-linecap:round;stroke-linejoin:round;stroke-miterlimit:10;}
	.st84{fill:#FFFFFF;stroke:#FFFFFF;stroke-width:0.5;stroke-miterlimit:10;}
	.st85{display:none;fill:#A9A8A9;stroke:#FFFFFF;stroke-width:3.1943;stroke-linejoin:round;stroke-miterlimit:10;}
	.st86{fill:#9ECF7C;}
	.st87{fill:none;stroke:#FFFFFF;stroke-width:4.0465;stroke-linecap:round;stroke-miterlimit:10;}
	.st88{fill:none;stroke:#FFFFFF;stroke-width:4.0465;stroke-linecap:round;stroke-linejoin:round;stroke-miterlimit:10;}
	.st89{display:none;fill:#004987;}
	.st90{fill:none;stroke:#FFFFFF;stroke-width:4;stroke-miterlimit:10;}
	.st91{display:inline;fill:none;stroke:#FFFFFF;stroke-width:4;stroke-linecap:round;stroke-miterlimit:10;}
	
		.st92{display:none;fill:none;stroke:#FFFFFF;stroke-width:4.4123;stroke-linecap:round;stroke-linejoin:round;stroke-miterlimit:10;}
	.st93{display:none;fill:#FFFFFF;stroke:#FFFFFF;stroke-width:2.2464;stroke-miterlimit:10;}
	
		.st94{display:inline;fill:none;stroke:#FFFFFF;stroke-width:4.4123;stroke-linecap:round;stroke-linejoin:round;stroke-miterlimit:10;}
</style>
<g id="WorkableArtwork" class="st0">
</g>
<g id="Labels">
	<rect y="242.1" class="st72" width="226" height="12.4"/>
	<text transform="matrix(1 0 0 1 65.2523 252.0001)" class="st78 st79 st80">Conditioned Attics</text>
</g>
<g id="Icons">
</g>
<g id="Fourth_Tier_-_Optional_Features">
</g>
<g id="Third_Tier_-_Features">
	<circle class="st81" cx="113" cy="128.1" r="107.1"/>
	<g>
		<circle class="st10" cx="87" cy="98.7" r="3.3"/>
		<circle class="st10" cx="149.9" cy="105.4" r="3.3"/>
		<circle class="st10" cx="161.1" cy="105.2" r="3.3"/>
		<circle class="st10" cx="76.3" cy="107.4" r="3.3"/>
		<circle class="st10" cx="66" cy="107.4" r="3.3"/>
		<circle class="st10" cx="110.8" cy="82.6" r="3.3"/>
		<circle class="st10" cx="144.3" cy="93.1" r="3.3"/>
		<path class="st10" d="M188.4,111.4c-2.9-1.8-70.4-46.7-70.4-46.7c-1.1-0.9-2.8-0.9-3.9,0c0,0-68.3,45.2-71.2,47
			c-2.9,1.8-3.3,3.9-2.5,6.3c0.7,2.1,3,3.4,6.4,3.4h7.1l0,54.6c0,4.7,3.9,8.6,8.6,8.6h106.4c4.7,0,8.6-3.9,8.6-8.6l-0.1-54.9h7.1
			c3.4,0,5.7-1.2,6.4-3.4C191.7,115.3,191.3,113.2,188.4,111.4z M72.9,180.4H62.5c-2.4,0-4.4-2-4.4-4.4l0-47.2l14.8-9.4V180.4z
			 M153.7,180.4H76.9v-63.4L116,92.1l37.8,24.6V180.4z M168.9,180.4h-11.2v-61.1l15.2,9.9c0.1,0.1,0.2,0.1,0.3,0.1l0.1,46.7
			C173.3,178.4,171.3,180.4,168.9,180.4z M184.4,116.9l-2,0c0.3-1.5-0.4-3-1.9-3.6c-1.7-0.8-3.7,0-4.4,1.6c-0.3,0.7-0.4,1.4-0.2,2.1
			l-2.8,0l0,7.6l-8.7-5.7c0.6-0.5,1.1-1.2,1.3-2c0.4-1.8-0.8-3.6-2.6-3.9c-1.8-0.4-3.5,0.8-3.9,2.5l-26.7-17.4
			c0.2,0.1,0.4,0.1,0.6,0.2c1.8,0.4,3.6-0.8,3.9-2.6c0.4-1.8-0.8-3.6-2.6-3.9c-1.8-0.4-3.6,0.8-3.9,2.6c-0.2,1.1,0.2,2.2,0.9,3
			l-7-4.5c1.3-0.5,2.2-1.7,2.2-3.1c0-1.8-1.5-3.3-3.3-3.3c-1.8,0-3.3,1.5-3.3,3.3c0,0.1,0,0.2,0,0.2l-2.9-1.9
			c-0.7-0.4-1.5-0.4-2.2,0l-10,6.4c0.2-0.3,0.4-0.7,0.5-1.2c0.4-1.8-0.8-3.6-2.6-3.9c-1.8-0.4-3.6,0.8-3.9,2.6s0.8,3.6,2.6,3.9
			c0.4,0.1,0.7,0.1,1.1,0l-34.7,22c0.2-1.4-0.6-2.8-1.9-3.4c-1.7-0.8-3.7,0-4.4,1.6c-0.8,1.7,0,3.7,1.6,4.4c0.1,0.1,0.2,0.1,0.3,0.1
			l-5.5,3.5l0-6.9l-11.2,0c-1.5,0-1.8-1.7-0.9-2.4l4.2-2.8c0.1,1.1,0.8,2.2,1.9,2.7c1.7,0.8,3.7,0,4.4-1.6c0.7-1.6,0.1-3.5-1.5-4.3
			l16.6-11c0.2,1.4,1.2,2.6,2.6,2.8c1.8,0.4,3.6-0.8,3.9-2.6c0.3-1.4-0.4-2.8-1.6-3.5L89.3,86c-0.8,1.7,0,3.6,1.6,4.4
			c1.7,0.8,3.7,0,4.4-1.6c0.8-1.7,0-3.7-1.6-4.4c-0.5-0.2-1-0.3-1.5-0.3l7.7-5.2c0.5,1.2,1.7,2,3.1,2c1.8,0,3.3-1.5,3.3-3.3
			c0-0.9-0.4-1.7-1-2.3l4.9-3.2c0,1.3,0.7,2.6,1.9,3.1c1.7,0.8,3.7,0,4.4-1.6c0.8-1.7,0-3.7-1.6-4.4c-0.1,0-0.2-0.1-0.2-0.1l0.9-0.6
			c0.2,0.1,0.4,0.1,0.4,0.1l7.2,4.8c-1.6,0.3-2.8,1.6-2.8,3.3c0,1.8,1.5,3.3,3.3,3.3s3.3-1.5,3.3-3.3c0-0.3,0-0.5-0.1-0.7l6.3,4.2
			c-1.5,0.3-2.6,1.7-2.6,3.2c0,1.8,1.5,3.3,3.3,3.3s3.3-1.5,3.3-3.3c0-0.2,0-0.4-0.1-0.6l15.4,10.2c-0.4,0.3-0.7,0.7-0.9,1.1
			c-0.8,1.7,0,3.7,1.6,4.4c1.7,0.8,3.7,0,4.4-1.6c0.1-0.1,0.1-0.3,0.1-0.4l12.3,8.2c-0.7,0.5-1.3,1.2-1.5,2.1
			c-0.4,1.8,0.8,3.6,2.6,3.9c1.8,0.4,3.6-0.8,3.9-2.6c0,0,0,0,0-0.1l9.8,6.5C186.2,115.2,185.9,116.9,184.4,116.9z"/>
	</g>
</g>
<g id="SecondTier_-_Benefits">
</g>
<g id="First_Tier_-_PrimaryPillars">
</g>
</svg>
