<?xml version="1.0" encoding="utf-8"?>
<!-- Generator: Adobe Illustrator 19.1.0, SVG Export Plug-In . SVG Version: 6.00 Build 0)  -->
<svg version="1.1" xmlns="http://www.w3.org/2000/svg" xmlns:xlink="http://www.w3.org/1999/xlink" x="0px" y="0px"
	 viewBox="0 0 226 261.3" style="enable-background:new 0 0 226 261.3;" xml:space="preserve">
<style type="text/css">
	.st0{display:none;}
	.st1{display:inline;}
	.st2{fill:none;stroke:#004987;stroke-width:4;stroke-miterlimit:10;}
	.st3{fill:#004987;}
	.st4{display:inline;fill:none;stroke:#004987;stroke-width:3.114;stroke-linejoin:round;stroke-miterlimit:10;}
	
		.st5{display:inline;fill:none;stroke:#004987;stroke-width:3.114;stroke-linecap:round;stroke-linejoin:round;stroke-miterlimit:10;}
	.st6{display:inline;fill:#004987;}
	.st7{fill:none;stroke:#FFFFFF;stroke-width:4;stroke-linecap:round;stroke-linejoin:round;stroke-miterlimit:10;}
	.st8{fill:none;stroke:#FFFFFF;stroke-width:4;stroke-linecap:round;stroke-linejoin:round;}
	.st9{fill:none;stroke:#FFFFFF;stroke-width:4;stroke-linecap:round;stroke-linejoin:round;stroke-dasharray:0,11.3326;}
	.st10{fill:#FFFFFF;}
	.st11{fill:none;stroke:#FFFFFF;stroke-width:4;stroke-linejoin:round;stroke-miterlimit:10;}
	.st12{display:inline;fill:#004987;stroke:#FFFFFF;stroke-width:4;stroke-linejoin:round;stroke-miterlimit:10;}
	.st13{display:inline;fill:none;stroke:#FFFFFF;stroke-width:2;stroke-linecap:round;stroke-linejoin:round;stroke-miterlimit:10;}
	.st14{display:inline;fill:none;stroke:#FFFFFF;stroke-width:4;stroke-linejoin:round;stroke-miterlimit:10;}
	.st15{display:inline;fill:#A9A8A9;}
	.st16{display:inline;fill:#FFFFFF;}
	.st17{fill:#A9A8A9;stroke:#FFFFFF;stroke-width:3.1943;stroke-linejoin:round;stroke-miterlimit:10;}
	.st18{fill:none;stroke:#A9A8A9;stroke-width:3.1943;stroke-linecap:round;stroke-linejoin:round;stroke-miterlimit:10;}
	.st19{display:inline;fill:#A9A8A9;stroke:#FFFFFF;stroke-width:5.9435;stroke-linejoin:round;stroke-miterlimit:10;}
	.st20{fill:#A9A8A9;stroke:#FFFFFF;stroke-width:5.9435;stroke-linejoin:round;stroke-miterlimit:10;}
	.st21{fill:#A9A8A9;}
	.st22{display:inline;fill:none;stroke:#FFFFFF;stroke-width:5.0435;stroke-linecap:round;stroke-miterlimit:10;}
	.st23{fill:none;stroke:#FFFFFF;stroke-width:5.0435;stroke-linecap:round;stroke-miterlimit:10;}
	.st24{display:inline;fill:none;stroke:#58595B;stroke-width:3;stroke-miterlimit:10;}
	.st25{display:inline;fill:none;stroke:#FFFFFF;stroke-width:5.0435;stroke-miterlimit:10;}
	.st26{display:inline;fill:#FFFFFF;stroke:#FFFFFF;stroke-width:0.75;stroke-miterlimit:10;}
	.st27{display:inline;fill:none;stroke:#FFFFFF;stroke-width:5;stroke-linecap:round;stroke-linejoin:round;stroke-miterlimit:10;}
	.st28{display:inline;fill:none;stroke:#FFFFFF;stroke-width:3.6286;stroke-miterlimit:10;}
	
		.st29{display:inline;fill:none;stroke:#FFFFFF;stroke-width:3.6286;stroke-linecap:round;stroke-linejoin:round;stroke-miterlimit:10;}
	.st30{fill:none;stroke:#FFFFFF;stroke-width:4.0259;stroke-miterlimit:10;}
	
		.st31{display:inline;fill:none;stroke:#FFFFFF;stroke-width:4.0186;stroke-linecap:round;stroke-linejoin:round;stroke-miterlimit:10;}
	.st32{display:inline;fill:none;stroke:#FFFFFF;stroke-width:3.429;stroke-linecap:round;stroke-miterlimit:10;}
	.st33{fill:none;stroke:#FFFFFF;stroke-width:3.429;stroke-linecap:round;stroke-miterlimit:10;}
	.st34{fill:none;stroke:#FFFFFF;stroke-width:3.429;stroke-miterlimit:10;}
	.st35{fill:none;stroke:#FFFFFF;stroke-width:3.429;stroke-linecap:round;stroke-linejoin:round;stroke-miterlimit:10;}
	.st36{fill:none;stroke:#FFFFFF;stroke-width:4;stroke-linecap:round;stroke-miterlimit:10;}
	.st37{display:inline;fill:#9ECF7C;}
	.st38{fill:#A9A8A9;stroke:#FFFFFF;stroke-width:4.0369;stroke-linecap:round;stroke-miterlimit:10;}
	
		.st39{display:inline;fill:none;stroke:#FFFFFF;stroke-width:3.966;stroke-linecap:round;stroke-linejoin:round;stroke-miterlimit:10;}
	.st40{fill:#A9A8A9;stroke:#FFFFFF;stroke-width:3.1476;stroke-linecap:round;stroke-miterlimit:10;}
	
		.st41{display:inline;fill:none;stroke:#FFFFFF;stroke-width:2.876;stroke-linecap:round;stroke-linejoin:round;stroke-miterlimit:10;}
	.st42{fill:none;stroke:#FFFFFF;stroke-width:4.3508;stroke-linecap:round;stroke-linejoin:round;stroke-miterlimit:10;}
	.st43{fill:none;stroke:#FFFFFF;stroke-width:5.2742;stroke-linecap:round;stroke-miterlimit:10;}
	.st44{fill:none;stroke:#FFFFFF;stroke-width:1.904;stroke-linecap:round;stroke-linejoin:round;stroke-miterlimit:10;}
	.st45{display:inline;fill:none;stroke:#FFFFFF;stroke-width:2.3081;stroke-linecap:round;stroke-miterlimit:10;}
	
		.st46{display:inline;fill:#A9A8A9;stroke:#FFFFFF;stroke-width:6;stroke-linecap:round;stroke-linejoin:round;stroke-miterlimit:10;}
	.st47{fill:none;stroke:#FFFFFF;stroke-width:6;stroke-linecap:round;stroke-linejoin:round;stroke-miterlimit:10;}
	.st48{fill:#A9A8A9;stroke:#FFFFFF;stroke-width:4.36;stroke-linejoin:round;stroke-miterlimit:10;}
	.st49{fill:#A9A8A9;stroke:#FFFFFF;stroke-width:4.36;stroke-linecap:round;stroke-linejoin:round;stroke-miterlimit:10;}
	.st50{fill:none;stroke:#A9A8A9;stroke-width:4;stroke-linecap:round;stroke-linejoin:round;stroke-miterlimit:10;}
	.st51{display:inline;fill:none;stroke:#FFFFFF;stroke-width:4;stroke-linecap:round;stroke-linejoin:round;stroke-miterlimit:10;}
	.st52{fill:#004987;stroke:#FFFFFF;stroke-width:4;stroke-linejoin:round;stroke-miterlimit:10;}
	.st53{fill:#6D6E71;}
	.st54{display:inline;fill:none;stroke:#FFFFFF;stroke-width:3.2247;stroke-linejoin:round;stroke-miterlimit:10;}
	.st55{display:inline;fill:none;stroke:#FFFFFF;stroke-width:3.6491;stroke-linejoin:round;stroke-miterlimit:10;}
	.st56{fill:#004987;stroke:#FFFFFF;stroke-width:4;stroke-linecap:round;stroke-linejoin:round;stroke-miterlimit:10;}
	.st57{fill:#A9A8A9;stroke:#FFFFFF;stroke-width:4;stroke-linejoin:round;stroke-miterlimit:10;}
	.st58{fill:#A9A8A9;stroke:#FFFFFF;stroke-width:4;stroke-linecap:round;stroke-linejoin:round;stroke-miterlimit:10;}
	.st59{display:inline;fill:#A9A8A9;stroke:#FFFFFF;stroke-width:4;stroke-linejoin:round;stroke-miterlimit:10;}
	.st60{display:inline;fill:#40B4E5;}
	.st61{display:inline;fill:#A4D55D;}
	.st62{display:inline;opacity:0.15;}
	.st63{opacity:0.15;}
	.st64{clip-path:url(#SVGID_2_);}
	.st65{clip-path:url(#SVGID_4_);}
	.st66{clip-path:url(#SVGID_6_);}
	.st67{fill:#004987;stroke:#FFFFFF;stroke-width:5.2097;stroke-linecap:round;stroke-linejoin:round;stroke-miterlimit:10;}
	.st68{fill:none;stroke:#FFFFFF;stroke-width:5.2097;stroke-linecap:round;stroke-linejoin:round;stroke-miterlimit:10;}
	.st69{clip-path:url(#SVGID_8_);}
	.st70{fill:#0065A4;}
	.st71{fill:#A4D55D;}
	.st72{fill:none;}
	.st73{fill:none;stroke:#FFFFFF;stroke-width:4.4123;stroke-linecap:round;stroke-linejoin:round;stroke-miterlimit:10;}
	.st74{display:inline;fill:#FFFFFF;stroke:#FFFFFF;stroke-width:0.5;stroke-miterlimit:10;}
	
		.st75{display:inline;fill:#004987;stroke:#FFFFFF;stroke-width:5.2097;stroke-linecap:round;stroke-linejoin:round;stroke-miterlimit:10;}
	
		.st76{display:inline;fill:none;stroke:#FFFFFF;stroke-width:5.2097;stroke-linecap:round;stroke-linejoin:round;stroke-miterlimit:10;}
	.st77{display:inline;fill:#6D6E71;}
	.st78{display:none;fill:#6D6E71;}
	.st79{font-family:'FuturaStd-Book';}
	.st80{font-size:12px;}
	.st81{fill:#40B4E5;}
	.st82{fill:none;stroke:#FFFFFF;stroke-width:3;stroke-linecap:round;stroke-linejoin:round;stroke-miterlimit:10;}
	.st83{fill:none;stroke:#FFFFFF;stroke-width:3.1061;stroke-linecap:round;stroke-linejoin:round;stroke-miterlimit:10;}
	.st84{fill:#FFFFFF;stroke:#FFFFFF;stroke-width:0.5;stroke-miterlimit:10;}
	.st85{display:none;fill:#A9A8A9;stroke:#FFFFFF;stroke-width:3.1943;stroke-linejoin:round;stroke-miterlimit:10;}
	.st86{fill:#9ECF7C;}
	.st87{fill:none;stroke:#FFFFFF;stroke-width:4.0465;stroke-linecap:round;stroke-miterlimit:10;}
	.st88{fill:none;stroke:#FFFFFF;stroke-width:4.0465;stroke-linecap:round;stroke-linejoin:round;stroke-miterlimit:10;}
	.st89{display:none;fill:#004987;}
	.st90{fill:none;stroke:#FFFFFF;stroke-width:4;stroke-miterlimit:10;}
	.st91{display:inline;fill:none;stroke:#FFFFFF;stroke-width:4;stroke-linecap:round;stroke-miterlimit:10;}
	
		.st92{display:none;fill:none;stroke:#FFFFFF;stroke-width:4.4123;stroke-linecap:round;stroke-linejoin:round;stroke-miterlimit:10;}
	.st93{display:none;fill:#FFFFFF;stroke:#FFFFFF;stroke-width:2.2464;stroke-miterlimit:10;}
	
		.st94{display:inline;fill:none;stroke:#FFFFFF;stroke-width:4.4123;stroke-linecap:round;stroke-linejoin:round;stroke-miterlimit:10;}
</style>
<g id="WorkableArtwork" class="st0">
	<circle class="st6" cx="112.5" cy="112.2" r="107.1"/>
	<g class="st1">
		<path class="st10" d="M129.4,146.2h-27.7c-1.2,0-2.1,0.9-2.1,2.1v0.9c0,1.2,0.9,2.1,2.1,2.1h27.7c1.2,0,2.1-0.9,2.1-2.1v-0.9
			C131.6,147.2,130.6,146.2,129.4,146.2z"/>
		<path class="st10" d="M129.4,153.5h-27.7c-1.2,0-2.1,0.9-2.1,2.1v0.9c0,1.2,0.9,2.1,2.1,2.1h27.7c1.2,0,2.1-0.9,2.1-2.1v-0.9
			C131.6,154.4,130.6,153.5,129.4,153.5z"/>
		<path class="st10" d="M129.4,160.7h-27.7c-1.2,0-2.1,0.9-2.1,2.1v0.9c0,1.2,0.9,2.1,2.1,2.1h27.7c1.2,0,2.1-0.9,2.1-2.1v-0.9
			C131.6,161.7,130.6,160.7,129.4,160.7z"/>
		<path class="st10" d="M123,169.4h-14.9c-0.6,0-1.1,0.2-1.5,0.6c-0.4,0.4-0.5,0.9-0.5,1.4c0.5,4.5,4.5,7.9,9.4,7.9
			c4.9,0,8.9-3.4,9.4-7.9c0.1-0.5-0.1-1-0.5-1.4C124.1,169.6,123.6,169.4,123,169.4z"/>
		<path class="st10" d="M143.4,60.8c-4.9-5.8-13.7-12.6-27.5-12.8c-0.1,0-0.1,0-0.2,0c0,0-0.1,0-0.1,0c0,0-0.1,0-0.1,0
			c-0.1,0-0.1,0-0.2,0c-13.8,0.1-22.6,7-27.5,12.8c-6,7.1-9.6,16.5-9.6,25.4c0,16.1,5.7,24.1,11.2,31.9c4.7,6.6,11.3,12.8,11.3,24
			v1.3h5.1V142c0-12.8-7.3-20-12.2-26.9c-5.1-7.1-10.3-14.5-10.3-28.9c0-22.5,19.3-33,32.4-33.1c13.1,0.1,32.4,10.6,32.4,33.1
			c0,14.5-5.2,21.8-10.3,28.9c-4.9,6.9-12.2,14.1-12.2,26.9v1.3h5.1V142c0-11.2,6.6-17.4,11.3-24c5.5-7.8,11.2-15.8,11.2-31.9
			C153,77.3,149.4,67.8,143.4,60.8z"/>
		<path class="st10" d="M105.2,64.8c-0.2-0.5-0.6-0.8-1.1-1c-0.5-0.2-1-0.2-1.5,0.1c-0.1,0.1-13.5,6.4-12.6,21.2
			c0,0.5,0.3,1,0.7,1.4c0.4,0.4,0.9,0.5,1.4,0.5c0.1,0,0.2,0,0.4-0.1c0.9-0.2,1.6-1.1,1.5-2c-0.7-12.1,9.9-17.2,10.4-17.4
			C105.2,67,105.6,65.8,105.2,64.8z"/>
	</g>
</g>
<g id="Labels">
	<rect y="232.2" class="st72" width="226" height="29.1"/>
	<text transform="matrix(1 0 0 1 51.0985 242.1309)" class="st78 st79 st80">Energy Efficient Lighting</text>
</g>
<g id="Icons">
</g>
<g id="Fourth_Tier_-_Optional_Features">
</g>
<g id="Third_Tier_-_Features">
	<circle class="st3" cx="112" cy="134.4" r="107.1"/>
	<g>
		<path class="st73" d="M67.5,199.1c-20.9-14.2-34.6-38.2-34.6-65.4c0-43.7,35.4-79.1,79.1-79.1S191,90.1,191,133.7
			s-35.4,79.1-79.1,79.1"/>
		<g>
			<polygon class="st73" points="81.1,198.3 73.3,211.9 64.2,205 70.6,194 			"/>
			<g>
				<line class="st73" x1="75.2" y1="208.5" x2="81.8" y2="212.3"/>
				<line class="st73" x1="79.1" y1="201.7" x2="85.7" y2="205.5"/>
			</g>
		</g>
	</g>
	<path class="st10" d="M122.9,139.3v-0.5c0-1.3-1-2.3-2.3-2.3h-17.2c-1.3,0-2.3,1-2.3,2.3v0.5c0,0.8,0.5,1.6,1.1,2
		c-0.7,0.4-1.1,1.1-1.1,2v0.5c0,0.8,0.5,1.6,1.1,2c-0.7,0.4-1.1,1.1-1.1,2v0.5c0,1.3,1,2.3,2.3,2.3h17.2c1.3,0,2.3-1,2.3-2.3v-0.5
		c0-0.8-0.5-1.6-1.1-2c0.7-0.4,1.1-1.1,1.1-2v-0.5c0-0.8-0.5-1.6-1.1-2C122.4,140.9,122.9,140.2,122.9,139.3z"/>
	<path class="st84" d="M129.2,87.3c-3.1-3.6-8.5-7.8-17-7.9c0,0-0.1,0-0.1,0c0,0-0.1,0-0.1,0c0,0-0.1,0-0.1,0c0,0-0.1,0-0.1,0
		c-8.5,0.1-14,4.3-17,7.9c-3.7,4.4-6,10.2-6,15.7c0,10,3.5,14.9,7,19.7c2.9,4.1,7,7.9,7,14.9v0.8h3.1v-0.8c0-8-4.5-12.4-7.6-16.7
		c-3.1-4.4-6.4-9-6.4-17.9c0-13.9,11.9-20.5,20-20.5c8.1,0,20,6.6,20,20.5c0,9-3.2,13.5-6.4,17.9c-3.1,4.3-7.6,8.7-7.6,16.7v0.8h3.1
		v-0.8c0-7,4.1-10.8,7-14.9c3.4-4.8,7-9.8,7-19.7C135.2,97.5,132.9,91.6,129.2,87.3z"/>
	<path class="st10" d="M109.7,148.5v20.8c-4-8.5-12.6-14.3-22.4-14.3c0,0,0,0,0,0c-2.9,0-5.9,0.5-8.6,1.6c-1,0.4-1.6,1.4-1.5,2.4
		c1.4,12.6,12.1,22.1,24.7,22.1c0,0,0,0,0,0c2.7,0,5.3-0.5,7.8-1.3c0,0,0,32.7,0,33.2s0.5,1.2,0.5,1.2h4.1v-23.6
		c2.5,0.8,5.1,1.3,7.7,1.3c0,0,0,0,0,0c12.5,0,23.1-9.4,24.5-21.9c0.1-1.1-0.5-2-1.5-2.4c-2.7-1-5.6-1.5-8.5-1.6c0,0,0,0,0,0
		c-9.7,0-18.2,5.7-22.2,14.1v-31.7H109.7z M101.9,176.5c-9.6,0-17.5-6.8-19.5-16c1.6-0.4,3.2-0.9,4.9-0.9h0c9.6,0,17.5,6.8,19.5,16
		C105.2,176.1,103.6,176.5,101.9,176.5z M122.1,187.3c-1.6,0-3.2-0.5-4.8-0.9c2-9.1,9.8-15.8,19.3-15.8h0c1.6,0,3.2,0.5,4.8,0.9
		C139.3,180.6,131.5,187.3,122.1,187.3z"/>
</g>
<g id="SecondTier_-_Benefits">
</g>
<g id="First_Tier_-_PrimaryPillars">
</g>
</svg>
