<?xml version="1.0" encoding="utf-8"?>
<!-- Generator: Adobe Illustrator 19.1.0, SVG Export Plug-In . SVG Version: 6.00 Build 0)  -->
<svg version="1.1" xmlns="http://www.w3.org/2000/svg" xmlns:xlink="http://www.w3.org/1999/xlink" x="0px" y="0px"
	 viewBox="0 0 226 261.3" style="enable-background:new 0 0 226 261.3;" xml:space="preserve">
<style type="text/css">
	.st0{display:none;}
	.st1{display:inline;}
	.st2{fill:none;stroke:#004987;stroke-width:4;stroke-miterlimit:10;}
	.st3{fill:#004987;}
	.st4{display:inline;fill:none;stroke:#004987;stroke-width:3.114;stroke-linejoin:round;stroke-miterlimit:10;}
	
		.st5{display:inline;fill:none;stroke:#004987;stroke-width:3.114;stroke-linecap:round;stroke-linejoin:round;stroke-miterlimit:10;}
	.st6{display:inline;fill:#004987;}
	.st7{fill:none;stroke:#FFFFFF;stroke-width:4;stroke-linecap:round;stroke-linejoin:round;stroke-miterlimit:10;}
	.st8{fill:none;stroke:#FFFFFF;stroke-width:4;stroke-linecap:round;stroke-linejoin:round;}
	.st9{fill:none;stroke:#FFFFFF;stroke-width:4;stroke-linecap:round;stroke-linejoin:round;stroke-dasharray:0,11.3326;}
	.st10{fill:#FFFFFF;}
	.st11{fill:none;stroke:#FFFFFF;stroke-width:4;stroke-linejoin:round;stroke-miterlimit:10;}
	.st12{display:inline;fill:#004987;stroke:#FFFFFF;stroke-width:4;stroke-linejoin:round;stroke-miterlimit:10;}
	.st13{display:inline;fill:none;stroke:#FFFFFF;stroke-width:2;stroke-linecap:round;stroke-linejoin:round;stroke-miterlimit:10;}
	.st14{display:inline;fill:none;stroke:#FFFFFF;stroke-width:4;stroke-linejoin:round;stroke-miterlimit:10;}
	.st15{display:inline;fill:#A9A8A9;}
	.st16{display:inline;fill:#FFFFFF;}
	.st17{fill:#A9A8A9;stroke:#FFFFFF;stroke-width:3.1943;stroke-linejoin:round;stroke-miterlimit:10;}
	.st18{fill:none;stroke:#A9A8A9;stroke-width:3.1943;stroke-linecap:round;stroke-linejoin:round;stroke-miterlimit:10;}
	.st19{display:inline;fill:#A9A8A9;stroke:#FFFFFF;stroke-width:5.9435;stroke-linejoin:round;stroke-miterlimit:10;}
	.st20{fill:#A9A8A9;stroke:#FFFFFF;stroke-width:5.9435;stroke-linejoin:round;stroke-miterlimit:10;}
	.st21{fill:#A9A8A9;}
	.st22{display:inline;fill:none;stroke:#FFFFFF;stroke-width:5.0435;stroke-linecap:round;stroke-miterlimit:10;}
	.st23{fill:none;stroke:#FFFFFF;stroke-width:5.0435;stroke-linecap:round;stroke-miterlimit:10;}
	.st24{display:inline;fill:none;stroke:#58595B;stroke-width:3;stroke-miterlimit:10;}
	.st25{display:inline;fill:none;stroke:#FFFFFF;stroke-width:5.0435;stroke-miterlimit:10;}
	.st26{display:inline;fill:#FFFFFF;stroke:#FFFFFF;stroke-width:0.75;stroke-miterlimit:10;}
	.st27{display:inline;fill:none;stroke:#FFFFFF;stroke-width:5;stroke-linecap:round;stroke-linejoin:round;stroke-miterlimit:10;}
	.st28{display:inline;fill:none;stroke:#FFFFFF;stroke-width:3.6286;stroke-miterlimit:10;}
	
		.st29{display:inline;fill:none;stroke:#FFFFFF;stroke-width:3.6286;stroke-linecap:round;stroke-linejoin:round;stroke-miterlimit:10;}
	.st30{fill:none;stroke:#FFFFFF;stroke-width:4.0259;stroke-miterlimit:10;}
	
		.st31{display:inline;fill:none;stroke:#FFFFFF;stroke-width:4.0186;stroke-linecap:round;stroke-linejoin:round;stroke-miterlimit:10;}
	.st32{display:inline;fill:none;stroke:#FFFFFF;stroke-width:3.429;stroke-linecap:round;stroke-miterlimit:10;}
	.st33{fill:none;stroke:#FFFFFF;stroke-width:3.429;stroke-linecap:round;stroke-miterlimit:10;}
	.st34{fill:none;stroke:#FFFFFF;stroke-width:3.429;stroke-miterlimit:10;}
	.st35{fill:none;stroke:#FFFFFF;stroke-width:3.429;stroke-linecap:round;stroke-linejoin:round;stroke-miterlimit:10;}
	.st36{fill:none;stroke:#FFFFFF;stroke-width:4;stroke-linecap:round;stroke-miterlimit:10;}
	.st37{display:inline;fill:#9ECF7C;}
	.st38{fill:#A9A8A9;stroke:#FFFFFF;stroke-width:4.0369;stroke-linecap:round;stroke-miterlimit:10;}
	
		.st39{display:inline;fill:none;stroke:#FFFFFF;stroke-width:3.966;stroke-linecap:round;stroke-linejoin:round;stroke-miterlimit:10;}
	.st40{fill:#A9A8A9;stroke:#FFFFFF;stroke-width:3.1476;stroke-linecap:round;stroke-miterlimit:10;}
	
		.st41{display:inline;fill:none;stroke:#FFFFFF;stroke-width:2.876;stroke-linecap:round;stroke-linejoin:round;stroke-miterlimit:10;}
	.st42{fill:none;stroke:#FFFFFF;stroke-width:4.3508;stroke-linecap:round;stroke-linejoin:round;stroke-miterlimit:10;}
	.st43{fill:none;stroke:#FFFFFF;stroke-width:5.2742;stroke-linecap:round;stroke-miterlimit:10;}
	.st44{fill:none;stroke:#FFFFFF;stroke-width:1.904;stroke-linecap:round;stroke-linejoin:round;stroke-miterlimit:10;}
	.st45{display:inline;fill:none;stroke:#FFFFFF;stroke-width:2.3081;stroke-linecap:round;stroke-miterlimit:10;}
	
		.st46{display:inline;fill:#A9A8A9;stroke:#FFFFFF;stroke-width:6;stroke-linecap:round;stroke-linejoin:round;stroke-miterlimit:10;}
	.st47{fill:none;stroke:#FFFFFF;stroke-width:6;stroke-linecap:round;stroke-linejoin:round;stroke-miterlimit:10;}
	.st48{fill:#A9A8A9;stroke:#FFFFFF;stroke-width:4.36;stroke-linejoin:round;stroke-miterlimit:10;}
	.st49{fill:#A9A8A9;stroke:#FFFFFF;stroke-width:4.36;stroke-linecap:round;stroke-linejoin:round;stroke-miterlimit:10;}
	.st50{fill:none;stroke:#A9A8A9;stroke-width:4;stroke-linecap:round;stroke-linejoin:round;stroke-miterlimit:10;}
	.st51{display:inline;fill:none;stroke:#FFFFFF;stroke-width:4;stroke-linecap:round;stroke-linejoin:round;stroke-miterlimit:10;}
	.st52{fill:#004987;stroke:#FFFFFF;stroke-width:4;stroke-linejoin:round;stroke-miterlimit:10;}
	.st53{fill:#6D6E71;}
	.st54{display:inline;fill:none;stroke:#FFFFFF;stroke-width:3.2247;stroke-linejoin:round;stroke-miterlimit:10;}
	.st55{display:inline;fill:none;stroke:#FFFFFF;stroke-width:3.6491;stroke-linejoin:round;stroke-miterlimit:10;}
	.st56{fill:#004987;stroke:#FFFFFF;stroke-width:4;stroke-linecap:round;stroke-linejoin:round;stroke-miterlimit:10;}
	.st57{fill:#A9A8A9;stroke:#FFFFFF;stroke-width:4;stroke-linejoin:round;stroke-miterlimit:10;}
	.st58{fill:#A9A8A9;stroke:#FFFFFF;stroke-width:4;stroke-linecap:round;stroke-linejoin:round;stroke-miterlimit:10;}
	.st59{display:inline;fill:#A9A8A9;stroke:#FFFFFF;stroke-width:4;stroke-linejoin:round;stroke-miterlimit:10;}
	.st60{display:inline;fill:#40B4E5;}
	.st61{display:inline;fill:#A4D55D;}
	.st62{display:inline;opacity:0.15;}
	.st63{opacity:0.15;}
	.st64{clip-path:url(#SVGID_2_);}
	.st65{clip-path:url(#SVGID_4_);}
	.st66{clip-path:url(#SVGID_6_);}
	.st67{fill:#004987;stroke:#FFFFFF;stroke-width:5.2097;stroke-linecap:round;stroke-linejoin:round;stroke-miterlimit:10;}
	.st68{fill:none;stroke:#FFFFFF;stroke-width:5.2097;stroke-linecap:round;stroke-linejoin:round;stroke-miterlimit:10;}
	.st69{clip-path:url(#SVGID_8_);}
	.st70{fill:#0065A4;}
	.st71{fill:#A4D55D;}
	.st72{fill:none;}
	.st73{fill:none;stroke:#FFFFFF;stroke-width:4.4123;stroke-linecap:round;stroke-linejoin:round;stroke-miterlimit:10;}
	.st74{display:inline;fill:#FFFFFF;stroke:#FFFFFF;stroke-width:0.5;stroke-miterlimit:10;}
	
		.st75{display:inline;fill:#004987;stroke:#FFFFFF;stroke-width:5.2097;stroke-linecap:round;stroke-linejoin:round;stroke-miterlimit:10;}
	
		.st76{display:inline;fill:none;stroke:#FFFFFF;stroke-width:5.2097;stroke-linecap:round;stroke-linejoin:round;stroke-miterlimit:10;}
	.st77{display:inline;fill:#6D6E71;}
	.st78{display:none;fill:#6D6E71;}
	.st79{font-family:'FuturaStd-Book';}
	.st80{font-size:12px;}
	.st81{fill:#40B4E5;}
	.st82{fill:none;stroke:#FFFFFF;stroke-width:3;stroke-linecap:round;stroke-linejoin:round;stroke-miterlimit:10;}
	.st83{fill:none;stroke:#FFFFFF;stroke-width:3.1061;stroke-linecap:round;stroke-linejoin:round;stroke-miterlimit:10;}
	.st84{fill:#FFFFFF;stroke:#FFFFFF;stroke-width:0.5;stroke-miterlimit:10;}
	.st85{display:none;fill:#A9A8A9;stroke:#FFFFFF;stroke-width:3.1943;stroke-linejoin:round;stroke-miterlimit:10;}
	.st86{fill:#9ECF7C;}
	.st87{fill:none;stroke:#FFFFFF;stroke-width:4.0465;stroke-linecap:round;stroke-miterlimit:10;}
	.st88{fill:none;stroke:#FFFFFF;stroke-width:4.0465;stroke-linecap:round;stroke-linejoin:round;stroke-miterlimit:10;}
	.st89{display:none;fill:#004987;}
	.st90{fill:none;stroke:#FFFFFF;stroke-width:4;stroke-miterlimit:10;}
	.st91{display:inline;fill:none;stroke:#FFFFFF;stroke-width:4;stroke-linecap:round;stroke-miterlimit:10;}
	
		.st92{display:none;fill:none;stroke:#FFFFFF;stroke-width:4.4123;stroke-linecap:round;stroke-linejoin:round;stroke-miterlimit:10;}
	.st93{display:none;fill:#FFFFFF;stroke:#FFFFFF;stroke-width:2.2464;stroke-miterlimit:10;}
	
		.st94{display:inline;fill:none;stroke:#FFFFFF;stroke-width:4.4123;stroke-linecap:round;stroke-linejoin:round;stroke-miterlimit:10;}
</style>
<g id="WorkableArtwork" class="st0">
</g>
<g id="Labels">
	<rect y="236.3" class="st72" width="226" height="21"/>
	<text transform="matrix(1 0 0 1 46.5507 246.1839)" class="st78 st79 st80">Minimum SEER 14 HVAC</text>
</g>
<g id="Icons">
</g>
<g id="Fourth_Tier_-_Optional_Features">
</g>
<g id="Third_Tier_-_Features">
	<circle class="st81" cx="113" cy="133.7" r="107.1"/>
	<g>
		<g>
			<path class="st10" d="M72.3,77.5c0,3.3,18.7,6,41.7,6c23,0,41.7-2.7,41.7-6c0-3.3-18.7-6-41.7-6C91,71.5,72.3,74.2,72.3,77.5
				 M114,75.9c7.5,0,13.6,0.9,13.6,1.9c0,1-6.1,1.9-13.6,1.9c-7.5,0-13.6-0.9-13.6-1.9C100.5,76.7,106.5,75.9,114,75.9"/>
		</g>
		<g>
			<path class="st10" d="M109,103.8H82.3c-0.5,0-0.9-0.4-0.9-0.9s0.4-0.9,0.9-0.9H109c0.5,0,0.9,0.4,0.9,0.9S109.4,103.8,109,103.8z
				"/>
			<path class="st10" d="M109,110.3H82.3c-0.5,0-0.9-0.4-0.9-0.9c0-0.5,0.4-0.9,0.9-0.9H109c0.5,0,0.9,0.4,0.9,0.9
				C109.8,109.9,109.4,110.3,109,110.3z"/>
			<path class="st10" d="M109,116.7H82.3c-0.5,0-0.9-0.4-0.9-0.9c0-0.5,0.4-0.9,0.9-0.9H109c0.5,0,0.9,0.4,0.9,0.9
				C109.8,116.3,109.4,116.7,109,116.7z"/>
			<path class="st10" d="M109,123.2H82.3c-0.5,0-0.9-0.4-0.9-0.9s0.4-0.9,0.9-0.9H109c0.5,0,0.9,0.4,0.9,0.9S109.4,123.2,109,123.2z
				"/>
			<path class="st10" d="M109,129.7H82.3c-0.5,0-0.9-0.4-0.9-0.9s0.4-0.9,0.9-0.9H109c0.5,0,0.9,0.4,0.9,0.9S109.4,129.7,109,129.7z
				"/>
			<path class="st10" d="M109,136.2H82.3c-0.5,0-0.9-0.4-0.9-0.9s0.4-0.9,0.9-0.9H109c0.5,0,0.9,0.4,0.9,0.9S109.4,136.2,109,136.2z
				"/>
			<path class="st10" d="M109,142.6H82.3c-0.5,0-0.9-0.4-0.9-0.9s0.4-0.9,0.9-0.9H109c0.5,0,0.9,0.4,0.9,0.9S109.4,142.6,109,142.6z
				"/>
			<path class="st10" d="M109,149.1H82.3c-0.5,0-0.9-0.4-0.9-0.9c0-0.5,0.4-0.9,0.9-0.9H109c0.5,0,0.9,0.4,0.9,0.9
				C109.8,148.7,109.4,149.1,109,149.1z"/>
			<path class="st10" d="M109,155.6H82.3c-0.5,0-0.9-0.4-0.9-0.9c0-0.5,0.4-0.9,0.9-0.9H109c0.5,0,0.9,0.4,0.9,0.9
				C109.8,155.2,109.4,155.6,109,155.6z"/>
			<path class="st10" d="M109,162.1H82.3c-0.5,0-0.9-0.4-0.9-0.9c0-0.5,0.4-0.9,0.9-0.9H109c0.5,0,0.9,0.4,0.9,0.9
				C109.8,161.7,109.4,162.1,109,162.1z"/>
			<path class="st10" d="M109,168.5H82.3c-0.5,0-0.9-0.4-0.9-0.9c0-0.5,0.4-0.9,0.9-0.9H109c0.5,0,0.9,0.4,0.9,0.9
				C109.8,168.2,109.4,168.5,109,168.5z"/>
			<path class="st10" d="M109,175H82.3c-0.5,0-0.9-0.4-0.9-0.9c0-0.5,0.4-0.9,0.9-0.9H109c0.5,0,0.9,0.4,0.9,0.9
				C109.8,174.6,109.4,175,109,175z"/>
			<path class="st10" d="M109,181.5H82.3c-0.5,0-0.9-0.4-0.9-0.9s0.4-0.9,0.9-0.9H109c0.5,0,0.9,0.4,0.9,0.9S109.4,181.5,109,181.5z
				"/>
			<path class="st10" d="M109,188H82.3c-0.5,0-0.9-0.4-0.9-0.9c0-0.5,0.4-0.9,0.9-0.9H109c0.5,0,0.9,0.4,0.9,0.9
				C109.8,187.6,109.4,188,109,188z"/>
		</g>
		<g>
			<path class="st10" d="M145.7,103.8H119c-0.5,0-0.9-0.4-0.9-0.9s0.4-0.9,0.9-0.9h26.7c0.5,0,0.9,0.4,0.9,0.9
				S146.2,103.8,145.7,103.8z"/>
			<path class="st10" d="M145.7,110.3H119c-0.5,0-0.9-0.4-0.9-0.9c0-0.5,0.4-0.9,0.9-0.9h26.7c0.5,0,0.9,0.4,0.9,0.9
				C146.5,109.9,146.2,110.3,145.7,110.3z"/>
			<path class="st10" d="M145.7,116.7H119c-0.5,0-0.9-0.4-0.9-0.9c0-0.5,0.4-0.9,0.9-0.9h26.7c0.5,0,0.9,0.4,0.9,0.9
				C146.5,116.3,146.2,116.7,145.7,116.7z"/>
			<path class="st10" d="M145.7,123.2H119c-0.5,0-0.9-0.4-0.9-0.9c0-0.5,0.4-0.9,0.9-0.9h26.7c0.5,0,0.9,0.4,0.9,0.9
				C146.5,122.8,146.2,123.2,145.7,123.2z"/>
			<path class="st10" d="M145.7,129.7H119c-0.5,0-0.9-0.4-0.9-0.9c0-0.5,0.4-0.9,0.9-0.9h26.7c0.5,0,0.9,0.4,0.9,0.9
				C146.5,129.3,146.2,129.7,145.7,129.7z"/>
			<path class="st10" d="M145.7,136.2H119c-0.5,0-0.9-0.4-0.9-0.9s0.4-0.9,0.9-0.9h26.7c0.5,0,0.9,0.4,0.9,0.9
				S146.2,136.2,145.7,136.2z"/>
			<path class="st10" d="M145.7,142.6H119c-0.5,0-0.9-0.4-0.9-0.9s0.4-0.9,0.9-0.9h26.7c0.5,0,0.9,0.4,0.9,0.9
				S146.2,142.6,145.7,142.6z"/>
			<path class="st10" d="M145.7,149.1H119c-0.5,0-0.9-0.4-0.9-0.9c0-0.5,0.4-0.9,0.9-0.9h26.7c0.5,0,0.9,0.4,0.9,0.9
				C146.5,148.7,146.2,149.1,145.7,149.1z"/>
			<path class="st10" d="M145.7,155.6H119c-0.5,0-0.9-0.4-0.9-0.9c0-0.5,0.4-0.9,0.9-0.9h26.7c0.5,0,0.9,0.4,0.9,0.9
				C146.5,155.2,146.2,155.6,145.7,155.6z"/>
			<path class="st10" d="M145.7,162.1H119c-0.5,0-0.9-0.4-0.9-0.9c0-0.5,0.4-0.9,0.9-0.9h26.7c0.5,0,0.9,0.4,0.9,0.9
				C146.5,161.7,146.2,162.1,145.7,162.1z"/>
			<path class="st10" d="M145.7,168.5H119c-0.5,0-0.9-0.4-0.9-0.9c0-0.5,0.4-0.9,0.9-0.9h26.7c0.5,0,0.9,0.4,0.9,0.9
				C146.5,168.2,146.2,168.5,145.7,168.5z"/>
			<path class="st10" d="M145.7,175H119c-0.5,0-0.9-0.4-0.9-0.9c0-0.5,0.4-0.9,0.9-0.9h26.7c0.5,0,0.9,0.4,0.9,0.9
				C146.5,174.6,146.2,175,145.7,175z"/>
			<path class="st10" d="M145.7,181.5H119c-0.5,0-0.9-0.4-0.9-0.9c0-0.5,0.4-0.9,0.9-0.9h26.7c0.5,0,0.9,0.4,0.9,0.9
				C146.5,181.1,146.2,181.5,145.7,181.5z"/>
			<path class="st10" d="M145.7,188H119c-0.5,0-0.9-0.4-0.9-0.9c0-0.5,0.4-0.9,0.9-0.9h26.7c0.5,0,0.9,0.4,0.9,0.9
				C146.5,187.6,146.2,188,145.7,188z"/>
		</g>
		<path class="st10" d="M168.4,82.4l-4.6-12.9c-0.4-1.3-1.4-2.2-2.7-2.6l-9.1-2.9c-0.4-0.1-0.9-0.2-1.3-0.2H77.1
			c-0.5,0-0.9,0.1-1.3,0.2l-9,2.9c-1.3,0.4-2.3,1.4-2.7,2.6l-4.6,12.9c-0.2,0.5-0.2,0.9-0.2,1.4v108.9c0,1.5,0.8,3,2.2,3.7l9.9,5.6
			c0.6,0.4,1.4,0.6,2.1,0.6h81c0.7,0,1.5-0.2,2.1-0.6l9.9-5.6c1.3-0.8,2.2-2.2,2.2-3.7V83.8C168.7,83.3,168.6,82.9,168.4,82.4z
			 M68.2,70.9l9-2.9h73.7l9.1,2.9l4.5,12.8l-10.1,4.7H73.7l-10.1-4.7L68.2,70.9z M74.4,90.2h79.3v108.2H74.4V90.2z M63.6,192.8V85.7
			l9,4.2v108L63.6,192.8z M155.4,197.9v-108l9-4.2v107.1L155.4,197.9z"/>
	</g>
</g>
<g id="SecondTier_-_Benefits">
</g>
<g id="First_Tier_-_PrimaryPillars">
</g>
</svg>
