<?xml version="1.0" encoding="utf-8"?>
<!-- Generator: Adobe Illustrator 19.1.0, SVG Export Plug-In . SVG Version: 6.00 Build 0)  -->
<svg version="1.1" xmlns="http://www.w3.org/2000/svg" xmlns:xlink="http://www.w3.org/1999/xlink" x="0px" y="0px"
	 viewBox="0 0 226 263.4" style="enable-background:new 0 0 226 263.4;" xml:space="preserve">
<style type="text/css">
	.st0{display:none;}
	.st1{display:inline;}
	.st2{fill:none;stroke:#004987;stroke-width:4;stroke-miterlimit:10;}
	.st3{fill:#004987;}
	.st4{display:inline;fill:none;stroke:#004987;stroke-width:3.114;stroke-linejoin:round;stroke-miterlimit:10;}
	
		.st5{display:inline;fill:none;stroke:#004987;stroke-width:3.114;stroke-linecap:round;stroke-linejoin:round;stroke-miterlimit:10;}
	.st6{display:inline;fill:#004987;}
	.st7{fill:none;stroke:#FFFFFF;stroke-width:4;stroke-linecap:round;stroke-linejoin:round;stroke-miterlimit:10;}
	.st8{fill:none;stroke:#FFFFFF;stroke-width:4;stroke-linecap:round;stroke-linejoin:round;}
	.st9{fill:none;stroke:#FFFFFF;stroke-width:4;stroke-linecap:round;stroke-linejoin:round;stroke-dasharray:0,11.3326;}
	.st10{fill:#FFFFFF;}
	.st11{fill:none;stroke:#FFFFFF;stroke-width:4;stroke-linejoin:round;stroke-miterlimit:10;}
	.st12{display:inline;fill:#004987;stroke:#FFFFFF;stroke-width:4;stroke-linejoin:round;stroke-miterlimit:10;}
	.st13{display:inline;fill:none;stroke:#FFFFFF;stroke-width:2;stroke-linecap:round;stroke-linejoin:round;stroke-miterlimit:10;}
	.st14{display:inline;fill:none;stroke:#FFFFFF;stroke-width:4;stroke-linejoin:round;stroke-miterlimit:10;}
	.st15{display:inline;fill:#A9A8A9;}
	.st16{display:inline;fill:#FFFFFF;}
	.st17{fill:#A9A8A9;stroke:#FFFFFF;stroke-width:3.1943;stroke-linejoin:round;stroke-miterlimit:10;}
	.st18{fill:none;stroke:#A9A8A9;stroke-width:3.1943;stroke-linecap:round;stroke-linejoin:round;stroke-miterlimit:10;}
	.st19{display:inline;fill:#A9A8A9;stroke:#FFFFFF;stroke-width:5.9435;stroke-linejoin:round;stroke-miterlimit:10;}
	.st20{fill:#A9A8A9;stroke:#FFFFFF;stroke-width:5.9435;stroke-linejoin:round;stroke-miterlimit:10;}
	.st21{fill:#A9A8A9;}
	.st22{display:inline;fill:none;stroke:#FFFFFF;stroke-width:5.0435;stroke-linecap:round;stroke-miterlimit:10;}
	.st23{fill:none;stroke:#FFFFFF;stroke-width:5.0435;stroke-linecap:round;stroke-miterlimit:10;}
	.st24{display:inline;fill:none;stroke:#58595B;stroke-width:3;stroke-miterlimit:10;}
	.st25{display:inline;fill:none;stroke:#FFFFFF;stroke-width:5.0435;stroke-miterlimit:10;}
	.st26{display:inline;fill:#FFFFFF;stroke:#FFFFFF;stroke-width:0.75;stroke-miterlimit:10;}
	.st27{display:inline;fill:none;stroke:#FFFFFF;stroke-width:5;stroke-linecap:round;stroke-linejoin:round;stroke-miterlimit:10;}
	.st28{display:inline;fill:none;stroke:#FFFFFF;stroke-width:3.6286;stroke-miterlimit:10;}
	
		.st29{display:inline;fill:none;stroke:#FFFFFF;stroke-width:3.6286;stroke-linecap:round;stroke-linejoin:round;stroke-miterlimit:10;}
	.st30{fill:none;stroke:#FFFFFF;stroke-width:4.0259;stroke-miterlimit:10;}
	
		.st31{display:inline;fill:none;stroke:#FFFFFF;stroke-width:4.0186;stroke-linecap:round;stroke-linejoin:round;stroke-miterlimit:10;}
	.st32{display:inline;fill:none;stroke:#FFFFFF;stroke-width:3.429;stroke-linecap:round;stroke-miterlimit:10;}
	.st33{fill:none;stroke:#FFFFFF;stroke-width:3.429;stroke-linecap:round;stroke-miterlimit:10;}
	.st34{fill:none;stroke:#FFFFFF;stroke-width:3.429;stroke-miterlimit:10;}
	.st35{fill:none;stroke:#FFFFFF;stroke-width:3.429;stroke-linecap:round;stroke-linejoin:round;stroke-miterlimit:10;}
	.st36{fill:none;stroke:#FFFFFF;stroke-width:4;stroke-linecap:round;stroke-miterlimit:10;}
	.st37{display:inline;fill:#9ECF7C;}
	.st38{fill:#A9A8A9;stroke:#FFFFFF;stroke-width:4.0369;stroke-linecap:round;stroke-miterlimit:10;}
	
		.st39{display:inline;fill:none;stroke:#FFFFFF;stroke-width:3.966;stroke-linecap:round;stroke-linejoin:round;stroke-miterlimit:10;}
	.st40{fill:#A9A8A9;stroke:#FFFFFF;stroke-width:3.1476;stroke-linecap:round;stroke-miterlimit:10;}
	
		.st41{display:inline;fill:none;stroke:#FFFFFF;stroke-width:2.876;stroke-linecap:round;stroke-linejoin:round;stroke-miterlimit:10;}
	.st42{fill:none;stroke:#FFFFFF;stroke-width:4.3508;stroke-linecap:round;stroke-linejoin:round;stroke-miterlimit:10;}
	.st43{fill:none;stroke:#FFFFFF;stroke-width:5.2742;stroke-linecap:round;stroke-miterlimit:10;}
	.st44{fill:none;stroke:#FFFFFF;stroke-width:1.904;stroke-linecap:round;stroke-linejoin:round;stroke-miterlimit:10;}
	.st45{display:inline;fill:none;stroke:#FFFFFF;stroke-width:2.3081;stroke-linecap:round;stroke-miterlimit:10;}
	
		.st46{display:inline;fill:#A9A8A9;stroke:#FFFFFF;stroke-width:6;stroke-linecap:round;stroke-linejoin:round;stroke-miterlimit:10;}
	.st47{fill:none;stroke:#FFFFFF;stroke-width:6;stroke-linecap:round;stroke-linejoin:round;stroke-miterlimit:10;}
	.st48{fill:#A9A8A9;stroke:#FFFFFF;stroke-width:4.36;stroke-linejoin:round;stroke-miterlimit:10;}
	.st49{fill:#A9A8A9;stroke:#FFFFFF;stroke-width:4.36;stroke-linecap:round;stroke-linejoin:round;stroke-miterlimit:10;}
	.st50{fill:none;stroke:#A9A8A9;stroke-width:4;stroke-linecap:round;stroke-linejoin:round;stroke-miterlimit:10;}
	.st51{display:inline;fill:none;stroke:#FFFFFF;stroke-width:4;stroke-linecap:round;stroke-linejoin:round;stroke-miterlimit:10;}
	.st52{fill:#004987;stroke:#FFFFFF;stroke-width:4;stroke-linejoin:round;stroke-miterlimit:10;}
	.st53{fill:#6D6E71;}
	.st54{display:inline;fill:none;stroke:#FFFFFF;stroke-width:3.2247;stroke-linejoin:round;stroke-miterlimit:10;}
	.st55{display:inline;fill:none;stroke:#FFFFFF;stroke-width:3.6491;stroke-linejoin:round;stroke-miterlimit:10;}
	.st56{fill:#004987;stroke:#FFFFFF;stroke-width:4;stroke-linecap:round;stroke-linejoin:round;stroke-miterlimit:10;}
	.st57{fill:#A9A8A9;stroke:#FFFFFF;stroke-width:4;stroke-linejoin:round;stroke-miterlimit:10;}
	.st58{fill:#A9A8A9;stroke:#FFFFFF;stroke-width:4;stroke-linecap:round;stroke-linejoin:round;stroke-miterlimit:10;}
	.st59{display:inline;fill:#A9A8A9;stroke:#FFFFFF;stroke-width:4;stroke-linejoin:round;stroke-miterlimit:10;}
	.st60{display:inline;fill:#40B4E5;}
	.st61{display:inline;fill:#A4D55D;}
	.st62{display:inline;opacity:0.15;}
	.st63{opacity:0.15;}
	.st64{clip-path:url(#SVGID_2_);}
	.st65{clip-path:url(#SVGID_4_);}
	.st66{clip-path:url(#SVGID_6_);}
	.st67{fill:#004987;stroke:#FFFFFF;stroke-width:5.2097;stroke-linecap:round;stroke-linejoin:round;stroke-miterlimit:10;}
	.st68{fill:none;stroke:#FFFFFF;stroke-width:5.2097;stroke-linecap:round;stroke-linejoin:round;stroke-miterlimit:10;}
	.st69{clip-path:url(#SVGID_8_);}
	.st70{fill:#0065A4;}
	.st71{fill:#A4D55D;}
	.st72{fill:none;}
	.st73{fill:none;stroke:#FFFFFF;stroke-width:4.4123;stroke-linecap:round;stroke-linejoin:round;stroke-miterlimit:10;}
	.st74{display:inline;fill:#FFFFFF;stroke:#FFFFFF;stroke-width:0.5;stroke-miterlimit:10;}
	
		.st75{display:inline;fill:#004987;stroke:#FFFFFF;stroke-width:5.2097;stroke-linecap:round;stroke-linejoin:round;stroke-miterlimit:10;}
	
		.st76{display:inline;fill:none;stroke:#FFFFFF;stroke-width:5.2097;stroke-linecap:round;stroke-linejoin:round;stroke-miterlimit:10;}
	.st77{display:inline;fill:#6D6E71;}
	.st78{display:none;fill:#6D6E71;}
	.st79{font-family:'FuturaStd-Book';}
	.st80{font-size:12px;}
	.st81{fill:#40B4E5;}
	.st82{fill:none;stroke:#FFFFFF;stroke-width:3;stroke-linecap:round;stroke-linejoin:round;stroke-miterlimit:10;}
	.st83{fill:none;stroke:#FFFFFF;stroke-width:3.1061;stroke-linecap:round;stroke-linejoin:round;stroke-miterlimit:10;}
	.st84{fill:#FFFFFF;stroke:#FFFFFF;stroke-width:0.5;stroke-miterlimit:10;}
	.st85{display:none;fill:#A9A8A9;stroke:#FFFFFF;stroke-width:3.1943;stroke-linejoin:round;stroke-miterlimit:10;}
	.st86{fill:#9ECF7C;}
	.st87{fill:none;stroke:#FFFFFF;stroke-width:4.0465;stroke-linecap:round;stroke-miterlimit:10;}
	.st88{fill:none;stroke:#FFFFFF;stroke-width:4.0465;stroke-linecap:round;stroke-linejoin:round;stroke-miterlimit:10;}
	.st89{display:none;fill:#004987;}
	.st90{fill:none;stroke:#FFFFFF;stroke-width:4;stroke-miterlimit:10;}
	.st91{display:inline;fill:none;stroke:#FFFFFF;stroke-width:4;stroke-linecap:round;stroke-miterlimit:10;}
	
		.st92{display:none;fill:none;stroke:#FFFFFF;stroke-width:4.4123;stroke-linecap:round;stroke-linejoin:round;stroke-miterlimit:10;}
	.st93{display:none;fill:#FFFFFF;stroke:#FFFFFF;stroke-width:2.2464;stroke-miterlimit:10;}
	
		.st94{display:inline;fill:none;stroke:#FFFFFF;stroke-width:4.4123;stroke-linecap:round;stroke-linejoin:round;stroke-miterlimit:10;}
</style>
<g id="WorkableArtwork" class="st0">
</g>
<g id="Labels">
	<rect y="238.7" class="st72" width="226" height="24.7"/>
	<text transform="matrix(1 0 0 1 56.8285 248.5562)" class="st78 st79 st80">Advanced Thermostat</text>
</g>
<g id="Icons">
</g>
<g id="Fourth_Tier_-_Optional_Features">
</g>
<g id="Third_Tier_-_Features">
	<circle class="st81" cx="113" cy="128" r="107.1"/>
	<g>
		<path class="st10" d="M112.7,67.4c-8.2,0-16.2,1.6-23.8,4.8c-7.3,3.1-13.8,7.5-19.4,13.1c-5.6,5.6-10,12.1-13.1,19.4
			c-3.2,7.5-4.8,15.5-4.8,23.8s1.6,16.2,4.8,23.8c3.1,7.3,7.5,13.8,13.1,19.4c5.6,5.6,12.1,10,19.4,13.1c7.5,3.2,15.5,4.8,23.8,4.8
			c8.2,0,16.2-1.6,23.8-4.8c7.3-3.1,13.8-7.5,19.4-13.1s10-12.1,13.1-19.4c3.2-7.5,4.8-15.5,4.8-23.8s-1.6-16.2-4.8-23.8
			c-3.1-7.3-7.5-13.8-13.1-19.4s-12.1-10-19.4-13.1C128.9,69.1,120.9,67.4,112.7,67.4 M112.7,193.4c-8.8,0-17.2-1.7-25.2-5.1
			c-7.7-3.3-14.7-7.9-20.6-13.9c-6-6-10.6-12.9-13.9-20.6c-3.4-8-5.1-16.5-5.1-25.2s1.7-17.2,5.1-25.2c3.3-7.7,7.9-14.7,13.9-20.6
			c6-6,12.9-10.6,20.6-13.9c8-3.4,16.5-5.1,25.2-5.1c8.8,0,17.2,1.7,25.2,5.1c7.7,3.3,14.7,7.9,20.6,13.9c6,6,10.6,12.9,13.9,20.6
			c3.4,8,5.1,16.5,5.1,25.2s-1.7,17.2-5.1,25.2c-3.3,7.7-7.9,14.7-13.9,20.6c-6,6-12.9,10.6-20.6,13.9
			C129.9,191.6,121.4,193.4,112.7,193.4"/>
		<path class="st10" d="M112.7,67.4c-8.2,0-16.2,1.6-23.8,4.8c-7.3,3.1-13.8,7.5-19.4,13.1c-5.6,5.6-10,12.1-13.1,19.4
			c-3.2,7.5-4.8,15.5-4.8,23.8s1.6,16.2,4.8,23.8c3.1,7.3,7.5,13.8,13.1,19.4c5.6,5.6,12.1,10,19.4,13.1c7.5,3.2,15.5,4.8,23.8,4.8
			c8.2,0,16.2-1.6,23.8-4.8c7.3-3.1,13.8-7.5,19.4-13.1s10-12.1,13.1-19.4c3.2-7.5,4.8-15.5,4.8-23.8s-1.6-16.2-4.8-23.8
			c-3.1-7.3-7.5-13.8-13.1-19.4s-12.1-10-19.4-13.1C128.9,69.1,120.9,67.4,112.7,67.4z M112.7,193.4c-8.8,0-17.2-1.7-25.2-5.1
			c-7.7-3.3-14.7-7.9-20.6-13.9c-6-6-10.6-12.9-13.9-20.6c-3.4-8-5.1-16.5-5.1-25.2s1.7-17.2,5.1-25.2c3.3-7.7,7.9-14.7,13.9-20.6
			c6-6,12.9-10.6,20.6-13.9c8-3.4,16.5-5.1,25.2-5.1c8.8,0,17.2,1.7,25.2,5.1c7.7,3.3,14.7,7.9,20.6,13.9c6,6,10.6,12.9,13.9,20.6
			c3.4,8,5.1,16.5,5.1,25.2s-1.7,17.2-5.1,25.2c-3.3,7.7-7.9,14.7-13.9,20.6c-6,6-12.9,10.6-20.6,13.9
			C129.9,191.6,121.4,193.4,112.7,193.4z"/>
		<path class="st10" d="M148.8,125.4c0-0.2,0-0.5-0.1-0.7l-0.1-0.6l7.2-0.7l0.1,0.6c0,0.3,0.1,0.5,0.1,0.8l0,0.6l-7.2,0.6
			L148.8,125.4z M148.3,121.9c0-0.2-0.1-0.5-0.1-0.7l-0.1-0.6l7.1-1.4l0.1,0.6c0.1,0.3,0.1,0.5,0.2,0.8l0.1,0.6l-7.1,1.3
			L148.3,121.9z M147.6,118.6c-0.1-0.2-0.1-0.4-0.2-0.7l-0.2-0.5l6.9-2.1l0.2,0.5c0.1,0.3,0.2,0.5,0.2,0.8l0.2,0.5l-6.9,2
			L147.6,118.6z M146.5,115.3c-0.1-0.2-0.2-0.4-0.3-0.6l-0.2-0.5l6.7-2.7l0.2,0.5c0.1,0.3,0.2,0.5,0.3,0.8l0.2,0.5l-6.7,2.6
			L146.5,115.3z M145.1,112.2c-0.1-0.2-0.2-0.4-0.3-0.6l-0.3-0.5l6.4-3.4l0.3,0.5c0.1,0.2,0.3,0.5,0.4,0.7l0.3,0.5l-6.4,3.2
			L145.1,112.2z M143.4,109.2c-0.1-0.2-0.2-0.4-0.4-0.6l-0.3-0.5l6-4l0.3,0.5c0.2,0.2,0.3,0.5,0.4,0.7l0.3,0.5l-6.1,3.8L143.4,109.2
			z M141.4,106.3c-0.1-0.2-0.3-0.4-0.4-0.5l-0.4-0.4l5.6-4.5l0.4,0.4c0.2,0.2,0.3,0.4,0.5,0.6l0.3,0.5l-5.7,4.4L141.4,106.3z
			 M139.1,103.7c-0.2-0.2-0.3-0.3-0.5-0.5l-0.4-0.4l5.2-5l0.4,0.4c0.2,0.2,0.4,0.4,0.6,0.6l0.4,0.4l-5.3,4.9L139.1,103.7z
			 M136.7,101.3c-0.2-0.2-0.3-0.3-0.5-0.5l-0.4-0.4l4.7-5.5l0.4,0.4c0.2,0.2,0.4,0.4,0.6,0.5l0.4,0.4l-4.8,5.4L136.7,101.3z
			 M134,99.1c-0.2-0.1-0.4-0.3-0.6-0.4l-0.5-0.3l4.1-5.9l0.5,0.3c0.2,0.2,0.4,0.3,0.7,0.5l0.5,0.3l-4.2,5.8L134,99.1z M113.6,148.7
			c-11.1,0.5-20.5-8.1-21-19.2c-0.4-9,5.2-16.8,13.2-19.8c0.9-0.3,7.1-11.3,7.1-11.3s6.4,11.1,7.3,11.4c7.1,2.8,12.3,9.7,12.7,17.8
			C133.3,138.8,124.7,148.2,113.6,148.7 M91.9,98.7c-0.2,0.1-0.4,0.3-0.6,0.4l-0.5,0.3l-4.2-5.8l0.5-0.3c0.2-0.2,0.5-0.3,0.7-0.5
			l0.5-0.3l4.1,5.9L91.9,98.7z M89.2,100.9c-0.2,0.2-0.4,0.3-0.5,0.5l-0.4,0.4l-4.8-5.4l0.4-0.4c0.2-0.2,0.4-0.4,0.6-0.5l0.4-0.4
			l4.7,5.5L89.2,100.9z M86.6,103.2c-0.2,0.2-0.3,0.3-0.5,0.5l-0.4,0.4l-5.3-4.9l0.4-0.4c0.2-0.2,0.4-0.4,0.6-0.6l0.4-0.4l5.2,5
			L86.6,103.2z M84.4,105.8c-0.1,0.2-0.3,0.4-0.4,0.5l-0.3,0.5l-5.7-4.4l0.3-0.4c0.2-0.2,0.3-0.4,0.5-0.7l0.4-0.4l5.6,4.5
			L84.4,105.8z M82.3,108.6c-0.1,0.2-0.3,0.4-0.4,0.6l-0.3,0.5l-6.1-3.8l0.3-0.5c0.1-0.2,0.3-0.5,0.4-0.7l0.3-0.5l6,4L82.3,108.6z
			 M80.6,111.6c-0.1,0.2-0.2,0.4-0.3,0.6l-0.3,0.5l-6.4-3.2l0.3-0.5c0.1-0.2,0.2-0.5,0.4-0.7l0.3-0.5l6.4,3.4L80.6,111.6z
			 M79.1,114.7c-0.1,0.2-0.2,0.4-0.3,0.6l-0.2,0.5l-6.7-2.6l0.2-0.5c0.1-0.3,0.2-0.5,0.3-0.8l0.2-0.5l6.7,2.7L79.1,114.7z M77.9,118
			c-0.1,0.2-0.1,0.4-0.2,0.7l-0.2,0.5l-6.9-2l0.2-0.5c0.1-0.3,0.2-0.5,0.2-0.8l0.2-0.5l6.9,2.1L77.9,118z M77.1,121.3
			c0,0.2-0.1,0.5-0.1,0.7l-0.1,0.6l-7.1-1.3l0.1-0.6c0.1-0.3,0.1-0.5,0.2-0.8l0.1-0.6l7.1,1.4L77.1,121.3z M76.6,124.7
			c0,0.2,0,0.5-0.1,0.7l0,0.6l-7.2-0.6l0-0.6c0-0.3,0-0.5,0.1-0.8l0.1-0.6l7.2,0.7L76.6,124.7z M90.6,91.1c0.2-0.1,0.5-0.3,0.7-0.4
			l0.5-0.3l3.5,6.3l-0.5,0.3c-0.2,0.1-0.4,0.2-0.6,0.3l-0.5,0.3l-3.7-6.2L90.6,91.1z M94.2,89.1c0.2-0.1,0.5-0.2,0.7-0.3l0.5-0.2
			l2.9,6.6l-0.5,0.2c-0.2,0.1-0.4,0.2-0.6,0.3l-0.5,0.2l-3.1-6.5L94.2,89.1z M98,87.5c0.3-0.1,0.5-0.2,0.8-0.3l0.5-0.2l2.3,6.8
			l-0.5,0.2c-0.2,0.1-0.4,0.1-0.7,0.2l-0.5,0.2l-2.4-6.8L98,87.5z M102,86.3c0.3-0.1,0.5-0.1,0.8-0.2l0.6-0.1l1.6,7l-0.6,0.1
			c-0.2,0.1-0.4,0.1-0.7,0.2l-0.6,0.1l-1.8-7L102,86.3z M106,85.5c0.3,0,0.5-0.1,0.8-0.1l0.6-0.1l0.9,7.1l-0.6,0.1
			c-0.2,0-0.5,0.1-0.7,0.1l-0.6,0.1l-1.1-7.1L106,85.5z M110.2,85.1c0.3,0,0.6,0,0.8,0l0.6,0l0.3,7.2l-0.6,0c-0.2,0-0.5,0-0.7,0
			l-0.6,0l-0.4-7.2L110.2,85.1z M113.7,85l0.6,0c0.3,0,0.6,0,0.8,0l0.6,0l-0.4,7.2l-0.6,0c-0.2,0-0.5,0-0.7,0l-0.6,0L113.7,85z
			 M117.8,85.3l0.6,0.1c0.3,0,0.5,0.1,0.8,0.1l0.6,0.1l-1.1,7.1l-0.6-0.1c-0.2,0-0.5-0.1-0.7-0.1l-0.6-0.1L117.8,85.3z M121.9,86
			l0.6,0.1c0.3,0.1,0.5,0.1,0.8,0.2l0.6,0.1l-1.8,7l-0.6-0.1c-0.2-0.1-0.4-0.1-0.7-0.2l-0.6-0.1L121.9,86z M126.5,87.3
			c0.3,0.1,0.5,0.2,0.8,0.3l0.5,0.2l-2.4,6.8l-0.5-0.2c-0.2-0.1-0.4-0.2-0.7-0.2l-0.5-0.2l2.3-6.8L126.5,87.3z M130.3,88.8
			c0.2,0.1,0.5,0.2,0.8,0.3l0.5,0.2l-3.1,6.5l-0.5-0.2c-0.2-0.1-0.4-0.2-0.6-0.3l-0.5-0.2l2.9-6.6L130.3,88.8z M134,90.6
			c0.2,0.1,0.5,0.3,0.7,0.4l0.5,0.3l-3.7,6.2l-0.5-0.3c-0.2-0.1-0.4-0.2-0.6-0.3l-0.5-0.3l3.5-6.3L134,90.6z"/>
	</g>
</g>
<g id="SecondTier_-_Benefits">
</g>
<g id="First_Tier_-_PrimaryPillars">
</g>
</svg>
