<?xml version="1.0" encoding="utf-8"?>
<!-- Generator: Adobe Illustrator 19.1.0, SVG Export Plug-In . SVG Version: 6.00 Build 0)  -->
<svg version="1.1" xmlns="http://www.w3.org/2000/svg" xmlns:xlink="http://www.w3.org/1999/xlink" x="0px" y="0px"
	 viewBox="0 0 226 259.7" style="enable-background:new 0 0 226 259.7;" xml:space="preserve">
<style type="text/css">
	.st0{display:none;}
	.st1{display:inline;}
	.st2{fill:none;stroke:#004987;stroke-width:4;stroke-miterlimit:10;}
	.st3{fill:#004987;}
	.st4{display:inline;fill:none;stroke:#004987;stroke-width:3.114;stroke-linejoin:round;stroke-miterlimit:10;}
	
		.st5{display:inline;fill:none;stroke:#004987;stroke-width:3.114;stroke-linecap:round;stroke-linejoin:round;stroke-miterlimit:10;}
	.st6{display:inline;fill:#004987;}
	.st7{fill:none;stroke:#FFFFFF;stroke-width:4;stroke-linecap:round;stroke-linejoin:round;stroke-miterlimit:10;}
	.st8{fill:none;stroke:#FFFFFF;stroke-width:4;stroke-linecap:round;stroke-linejoin:round;}
	.st9{fill:none;stroke:#FFFFFF;stroke-width:4;stroke-linecap:round;stroke-linejoin:round;stroke-dasharray:0,11.3326;}
	.st10{fill:#FFFFFF;}
	.st11{fill:none;stroke:#FFFFFF;stroke-width:4;stroke-linejoin:round;stroke-miterlimit:10;}
	.st12{display:inline;fill:#004987;stroke:#FFFFFF;stroke-width:4;stroke-linejoin:round;stroke-miterlimit:10;}
	.st13{display:inline;fill:none;stroke:#FFFFFF;stroke-width:2;stroke-linecap:round;stroke-linejoin:round;stroke-miterlimit:10;}
	.st14{display:inline;fill:none;stroke:#FFFFFF;stroke-width:4;stroke-linejoin:round;stroke-miterlimit:10;}
	.st15{display:inline;fill:#A9A8A9;}
	.st16{display:inline;fill:#FFFFFF;}
	.st17{fill:#A9A8A9;stroke:#FFFFFF;stroke-width:3.1943;stroke-linejoin:round;stroke-miterlimit:10;}
	.st18{fill:none;stroke:#A9A8A9;stroke-width:3.1943;stroke-linecap:round;stroke-linejoin:round;stroke-miterlimit:10;}
	.st19{display:inline;fill:#A9A8A9;stroke:#FFFFFF;stroke-width:5.9435;stroke-linejoin:round;stroke-miterlimit:10;}
	.st20{fill:#A9A8A9;stroke:#FFFFFF;stroke-width:5.9435;stroke-linejoin:round;stroke-miterlimit:10;}
	.st21{fill:#A9A8A9;}
	.st22{display:inline;fill:none;stroke:#FFFFFF;stroke-width:5.0435;stroke-linecap:round;stroke-miterlimit:10;}
	.st23{fill:none;stroke:#FFFFFF;stroke-width:5.0435;stroke-linecap:round;stroke-miterlimit:10;}
	.st24{display:inline;fill:none;stroke:#58595B;stroke-width:3;stroke-miterlimit:10;}
	.st25{display:inline;fill:none;stroke:#FFFFFF;stroke-width:5.0435;stroke-miterlimit:10;}
	.st26{display:inline;fill:#FFFFFF;stroke:#FFFFFF;stroke-width:0.75;stroke-miterlimit:10;}
	.st27{display:inline;fill:none;stroke:#FFFFFF;stroke-width:5;stroke-linecap:round;stroke-linejoin:round;stroke-miterlimit:10;}
	.st28{display:inline;fill:none;stroke:#FFFFFF;stroke-width:3.6286;stroke-miterlimit:10;}
	
		.st29{display:inline;fill:none;stroke:#FFFFFF;stroke-width:3.6286;stroke-linecap:round;stroke-linejoin:round;stroke-miterlimit:10;}
	.st30{fill:none;stroke:#FFFFFF;stroke-width:4.0259;stroke-miterlimit:10;}
	
		.st31{display:inline;fill:none;stroke:#FFFFFF;stroke-width:4.0186;stroke-linecap:round;stroke-linejoin:round;stroke-miterlimit:10;}
	.st32{display:inline;fill:none;stroke:#FFFFFF;stroke-width:3.429;stroke-linecap:round;stroke-miterlimit:10;}
	.st33{fill:none;stroke:#FFFFFF;stroke-width:3.429;stroke-linecap:round;stroke-miterlimit:10;}
	.st34{fill:none;stroke:#FFFFFF;stroke-width:3.429;stroke-miterlimit:10;}
	.st35{fill:none;stroke:#FFFFFF;stroke-width:3.429;stroke-linecap:round;stroke-linejoin:round;stroke-miterlimit:10;}
	.st36{fill:none;stroke:#FFFFFF;stroke-width:4;stroke-linecap:round;stroke-miterlimit:10;}
	.st37{display:inline;fill:#9ECF7C;}
	.st38{fill:#A9A8A9;stroke:#FFFFFF;stroke-width:4.0369;stroke-linecap:round;stroke-miterlimit:10;}
	
		.st39{display:inline;fill:none;stroke:#FFFFFF;stroke-width:3.966;stroke-linecap:round;stroke-linejoin:round;stroke-miterlimit:10;}
	.st40{fill:#A9A8A9;stroke:#FFFFFF;stroke-width:3.1476;stroke-linecap:round;stroke-miterlimit:10;}
	
		.st41{display:inline;fill:none;stroke:#FFFFFF;stroke-width:2.876;stroke-linecap:round;stroke-linejoin:round;stroke-miterlimit:10;}
	.st42{fill:none;stroke:#FFFFFF;stroke-width:4.3508;stroke-linecap:round;stroke-linejoin:round;stroke-miterlimit:10;}
	.st43{fill:none;stroke:#FFFFFF;stroke-width:5.2742;stroke-linecap:round;stroke-miterlimit:10;}
	.st44{fill:none;stroke:#FFFFFF;stroke-width:1.904;stroke-linecap:round;stroke-linejoin:round;stroke-miterlimit:10;}
	.st45{display:inline;fill:none;stroke:#FFFFFF;stroke-width:2.3081;stroke-linecap:round;stroke-miterlimit:10;}
	
		.st46{display:inline;fill:#A9A8A9;stroke:#FFFFFF;stroke-width:6;stroke-linecap:round;stroke-linejoin:round;stroke-miterlimit:10;}
	.st47{fill:none;stroke:#FFFFFF;stroke-width:6;stroke-linecap:round;stroke-linejoin:round;stroke-miterlimit:10;}
	.st48{fill:#A9A8A9;stroke:#FFFFFF;stroke-width:4.36;stroke-linejoin:round;stroke-miterlimit:10;}
	.st49{fill:#A9A8A9;stroke:#FFFFFF;stroke-width:4.36;stroke-linecap:round;stroke-linejoin:round;stroke-miterlimit:10;}
	.st50{fill:none;stroke:#A9A8A9;stroke-width:4;stroke-linecap:round;stroke-linejoin:round;stroke-miterlimit:10;}
	.st51{display:inline;fill:none;stroke:#FFFFFF;stroke-width:4;stroke-linecap:round;stroke-linejoin:round;stroke-miterlimit:10;}
	.st52{fill:#004987;stroke:#FFFFFF;stroke-width:4;stroke-linejoin:round;stroke-miterlimit:10;}
	.st53{fill:#6D6E71;}
	.st54{display:inline;fill:none;stroke:#FFFFFF;stroke-width:3.2247;stroke-linejoin:round;stroke-miterlimit:10;}
	.st55{display:inline;fill:none;stroke:#FFFFFF;stroke-width:3.6491;stroke-linejoin:round;stroke-miterlimit:10;}
	.st56{fill:#004987;stroke:#FFFFFF;stroke-width:4;stroke-linecap:round;stroke-linejoin:round;stroke-miterlimit:10;}
	.st57{fill:#A9A8A9;stroke:#FFFFFF;stroke-width:4;stroke-linejoin:round;stroke-miterlimit:10;}
	.st58{fill:#A9A8A9;stroke:#FFFFFF;stroke-width:4;stroke-linecap:round;stroke-linejoin:round;stroke-miterlimit:10;}
	.st59{display:inline;fill:#A9A8A9;stroke:#FFFFFF;stroke-width:4;stroke-linejoin:round;stroke-miterlimit:10;}
	.st60{display:inline;fill:#40B4E5;}
	.st61{display:inline;fill:#A4D55D;}
	.st62{display:inline;opacity:0.15;}
	.st63{opacity:0.15;}
	.st64{clip-path:url(#SVGID_2_);}
	.st65{clip-path:url(#SVGID_4_);}
	.st66{clip-path:url(#SVGID_6_);}
	.st67{fill:#004987;stroke:#FFFFFF;stroke-width:5.2097;stroke-linecap:round;stroke-linejoin:round;stroke-miterlimit:10;}
	.st68{fill:none;stroke:#FFFFFF;stroke-width:5.2097;stroke-linecap:round;stroke-linejoin:round;stroke-miterlimit:10;}
	.st69{clip-path:url(#SVGID_8_);}
	.st70{fill:#0065A4;}
	.st71{fill:#A4D55D;}
	.st72{fill:none;}
	.st73{fill:none;stroke:#FFFFFF;stroke-width:4.4123;stroke-linecap:round;stroke-linejoin:round;stroke-miterlimit:10;}
	.st74{display:inline;fill:#FFFFFF;stroke:#FFFFFF;stroke-width:0.5;stroke-miterlimit:10;}
	
		.st75{display:inline;fill:#004987;stroke:#FFFFFF;stroke-width:5.2097;stroke-linecap:round;stroke-linejoin:round;stroke-miterlimit:10;}
	
		.st76{display:inline;fill:none;stroke:#FFFFFF;stroke-width:5.2097;stroke-linecap:round;stroke-linejoin:round;stroke-miterlimit:10;}
	.st77{display:inline;fill:#6D6E71;}
	.st78{display:none;fill:#6D6E71;}
	.st79{font-family:'FuturaStd-Book';}
	.st80{font-size:12px;}
	.st81{fill:#40B4E5;}
	.st82{fill:none;stroke:#FFFFFF;stroke-width:3;stroke-linecap:round;stroke-linejoin:round;stroke-miterlimit:10;}
	.st83{fill:none;stroke:#FFFFFF;stroke-width:3.1061;stroke-linecap:round;stroke-linejoin:round;stroke-miterlimit:10;}
	.st84{fill:#FFFFFF;stroke:#FFFFFF;stroke-width:0.5;stroke-miterlimit:10;}
	.st85{display:none;fill:#A9A8A9;stroke:#FFFFFF;stroke-width:3.1943;stroke-linejoin:round;stroke-miterlimit:10;}
	.st86{fill:#9ECF7C;}
	.st87{fill:none;stroke:#FFFFFF;stroke-width:4.0465;stroke-linecap:round;stroke-miterlimit:10;}
	.st88{fill:none;stroke:#FFFFFF;stroke-width:4.0465;stroke-linecap:round;stroke-linejoin:round;stroke-miterlimit:10;}
	.st89{display:none;fill:#004987;}
	.st90{fill:none;stroke:#FFFFFF;stroke-width:4;stroke-miterlimit:10;}
	.st91{display:inline;fill:none;stroke:#FFFFFF;stroke-width:4;stroke-linecap:round;stroke-miterlimit:10;}
	
		.st92{display:none;fill:none;stroke:#FFFFFF;stroke-width:4.4123;stroke-linecap:round;stroke-linejoin:round;stroke-miterlimit:10;}
	.st93{display:none;fill:#FFFFFF;stroke:#FFFFFF;stroke-width:2.2464;stroke-miterlimit:10;}
	
		.st94{display:inline;fill:none;stroke:#FFFFFF;stroke-width:4.4123;stroke-linecap:round;stroke-linejoin:round;stroke-miterlimit:10;}
</style>
<g id="WorkableArtwork" class="st0">
	<g class="st1">
		<circle class="st21" cx="111.8" cy="113.3" r="107.1"/>
		<g>
			<path class="st10" d="M126.4,64.8l21.9,0.1h0c1,0,1.8-0.8,1.8-1.7l0-12.5c0-1.3-0.5-2.6-1.4-3.5c-0.9-0.9-2.2-1.5-3.5-1.5
				l-15.5-0.1c-2.7,0-4.9,2.2-5,4.9l0,12.4c0,0.5,0.2,0.9,0.5,1.2C125.5,64.6,125.9,64.8,126.4,64.8z M128.1,61.3l0-10.7
				c0-0.8,0.7-1.4,1.4-1.4l15.5,0.1c0.4,0,0.7,0.2,1,0.4c0.3,0.3,0.4,0.6,0.4,1l0,10.7L128.1,61.3z"/>
			<path class="st10" d="M133.4,169.3l1.1-2.1c0,0,0-0.1,0-0.1l0.1-16.4h-2.5l-0.1,16.5c0,0,0,0.1,0,0.1l1,2.1
				C133.2,169.4,133.4,169.4,133.4,169.3z"/>
			<path class="st10" d="M140.2,169.3l1.1-2.1c0,0,0-0.1,0-0.1l0.1-16.4H139l-0.1,16.5c0,0,0,0.1,0,0.1l1,2.1
				C140,169.4,140.1,169.4,140.2,169.3z"/>
			<path class="st10" d="M146.6,121.2h0.4h2h0.4h0.4l0.3-49.4c0-1-0.4-2-1.1-2.7c-0.7-0.7-1.7-1.1-2.7-1.1l-17.8,0
				c-1,0-2,0.4-2.7,1.1c-0.7,0.7-1.1,1.7-1.1,2.7v49.5h0.4h0.4h2h0.4h0.4V71.8c0-0.1,0-0.2,0.1-0.2c0,0,0.1-0.1,0.2-0.1l0-0.4l0,0.4
				l4,0l-0.2,49.8h2.5l0.2-49.8l4.3,0l-0.2,49.8h2.4l0.2-49.8l4.6,0c0.1,0,0.2,0.1,0.2,0.1c0,0,0.1,0.1,0.1,0.2l-0.3,49.5H146.6z"/>
			<path class="st10" d="M148.8,150.6h-2h-0.4h-0.4l-0.1,18.9c0,0.1,0,0.1,0,0.1l-4.2,7h-9l-4.5-7.1c0,0,0-0.1,0-0.2v-18.8h-0.4
				h-0.4h-2H125h-0.4v18.8c0,0.7,0.2,1.4,0.6,2l8.9,13.9c0.7,1.1,1.9,1.8,3.2,1.8l0,0c1.3,0,2.5-0.7,3.2-1.8l8.4-13.8
				c0.4-0.6,0.5-1.3,0.5-1.9l0.1-19h-0.4H148.8z M140.4,178.8h0.4l-3,4.9c-0.2,0.3-0.4,0.3-0.6,0.3c-0.2,0-0.4,0-0.6-0.3l-3.1-4.9
				h0.4H140.4z"/>
			<path class="st10" d="M171.8,125.8h-22.1h-0.4H149h-2h-0.4h-0.4h-4.8h-2.4h-4.3h-2.5h-4.1h-0.4h-0.4h-2H125h-0.4H109v-4.5V121
				h6.7c0.5,0,0.9-0.4,0.9-0.9v-13.5c0-0.5-0.4-0.9-0.9-0.9h-6.9c-0.9-8.6-4.7-16.3-10.8-22.4c-7-6.9-16.1-10.7-25.7-10.6
				C52.4,72.8,36.2,89.1,36,108.9c-0.1,9.6,3.7,18.8,10.6,25.7c7.1,7.1,16.5,11,26.5,11h31.8c0.1,0,0.1,0,0.2,0l3.3,0l16.2,0h0.4
				l0.4,0l2,0l0.4,0l0.4,0l4,0l2.5,0l4.3,0l2.4,0l4.7,0h0.4l0.4,0l2,0h0.4l0.4,0l20.3,0v5v0.4h3.9v-25.2H171.8z M109,109.4
				c0,0,0-0.1,0-0.1c0,0,0,0,0,0h3.9c0.1,0,0.1,0.1,0.1,0.1v7.9c0,0.1-0.1,0.1-0.1,0.1H109v-7.7C109,109.7,109,109.5,109,109.4z
				 M109,129.6h2.7v8.2h2.8v-8.2h6.9v4.2h2.8v-4.2h0.5h0.4h0.4h2h0.4h0.4h3.1v8.2h1h1.8v-8.2h0.7h4.3h1.9v4.2h0.5h2.3v-4.2h2.5h0.4
				h0.4h2h0.4h0.4h1.1v8.2h2.8v-8.2h6.9v4.2h2.8v-4.2h6.6v12.2h-20.3h-0.4h-0.4h-2h-0.4h-0.4h-4.8H139h-4.3h-2.5h-4.1h-0.4h-0.4h-2
				H125h-0.4H109V129.6z M72.5,76.6c8.5,0,16.6,3.4,22.7,9.4c6.5,6.4,9.9,14.8,9.9,24.3v31.3c0,0.1-0.1,0.2-0.2,0.2H73.1
				c-9,0-17.4-3.5-23.8-9.9c-6.1-6.2-9.5-14.3-9.4-23C40,91.2,54.5,76.7,72.3,76.6L72.5,76.6z"/>
			<path class="st10" d="M72.4,131.2c12,0,21.8-9.8,21.8-21.8c0-12-9.8-21.8-21.8-21.8c-12,0-21.8,9.8-21.8,21.8
				C50.5,121.4,60.3,131.2,72.4,131.2z M72.4,90.6c10.3,0,18.7,8.4,18.7,18.7c0,10.3-8.4,18.7-18.7,18.7c-10.3,0-18.7-8.4-18.7-18.7
				C53.6,99,62,90.6,72.4,90.6z"/>
		</g>
	</g>
</g>
<g id="Labels">
	<rect x="25.6" y="233.2" class="st72" width="174" height="26"/>
	<text transform="matrix(1 0 0 1 67.0435 243.1162)" class="st78 st79 st80">PEACE OF MIND</text>
</g>
<g id="Icons">
</g>
<g id="Fourth_Tier_-_Optional_Features">
</g>
<g id="Third_Tier_-_Features">
</g>
<g id="SecondTier_-_Benefits">
</g>
<g id="First_Tier_-_PrimaryPillars">
	<circle class="st21" cx="111.8" cy="129.5" r="107.1"/>
	<g>
		<path class="st10" d="M174.3,106l-12.1-7.6V76.7c0-3.6-3-6.6-6.6-6.6h-15.7v-6.6c0-1.4-1.1-2.5-2.5-2.5c-1.4,0-2.5,1.1-2.5,2.5
			v6.6H88.6v-6.6c0-1.4-1.1-2.5-2.5-2.5s-2.5,1.1-2.5,2.5v6.6H68c-3.6,0-6.6,3-6.6,6.6v105.8c0,3.6,3,6.6,6.6,6.6h34.8l-1.6,16.3
			c-0.1,1.3,0.4,2,1.2,2c0.4,0,0.8-0.1,1.3-0.4l14.5-8.7c1.6-0.9,3.6-3,4.6-4.5l2.9-4.6h30c3.6,0,6.6-3,6.6-6.6v-51.2l13.1-20.7
			C176.3,109.1,175.8,107,174.3,106z M68,75.1h15.7v5c0,1.4,1.1,2.5,2.5,2.5s2.5-1.1,2.5-2.5v-5h46.3v5c0,1.4,1.1,2.5,2.5,2.5
			s2.5-1.1,2.5-2.5v-5h15.7c0.9,0,1.7,0.8,1.7,1.7v10.7H66.3V76.7C66.3,75.8,67.1,75.1,68,75.1z M66.3,182.5V92.4h90.9v7.4l-3.3,5.3
			l-2.5-1.6c-1-0.6-2-0.9-3.1-0.9c-1.9,0-3.8,0.9-4.9,2.7l-15.1,23.8c-0.7,1.2-0.4,2.7,0.8,3.4c1.2,0.7,2.7,0.4,3.4-0.8l15.1-23.8
			c0.1-0.2,0.4-0.4,0.7-0.4c0.2,0,0.3,0,0.4,0.1l2.5,1.6l-46.3,73.2c-0.3,0.5-0.6,1-0.8,1.6H68C67.1,184.2,66.3,183.4,66.3,182.5z
			 M115.5,194.1l-8.8,5.3l1-10.2c0.1-0.6,0.3-1.6,0.7-2.5l9,5.7C116.8,193,116,193.7,115.5,194.1z M120.3,188.3l-9.4-5.9l38.9-61.5
			l9.4,5.9L120.3,188.3z M157.2,182.5c0,0.9-0.8,1.7-1.7,1.7h-26.8l28.5-45V182.5z M161.8,122.6l-9.4-5.9l8.4-13.2l9.4,5.9
			L161.8,122.6z"/>
		<path class="st10" d="M87,121.6c0.5,0.4,1.2,0.6,1.8,0.6c0.7-0.1,1.3-0.4,1.7-0.9l5.8-7.2c0.9-1.1,0.7-2.6-0.4-3.5
			c-1.1-0.9-2.6-0.7-3.5,0.4l-4.2,5.2l-2.2-1.8c-1.1-0.9-2.6-0.7-3.5,0.3c-0.9,1.1-0.7,2.6,0.3,3.5L87,121.6z"/>
		<path class="st10" d="M87,161.6c0.5,0.4,1.2,0.6,1.8,0.6c0.7-0.1,1.3-0.4,1.7-0.9l5.8-7.2c0.9-1.1,0.7-2.6-0.4-3.5
			c-1.1-0.9-2.6-0.7-3.5,0.4l-4.2,5.2l-2.2-1.8c-1.1-0.9-2.6-0.7-3.5,0.3c-0.9,1.1-0.7,2.6,0.3,3.5L87,161.6z"/>
		<path class="st10" d="M81.2,131.3h16.5c3.6,0,6.6-3,6.6-6.6v-16.5c0-3.6-3-6.6-6.6-6.6H81.2c-3.6,0-6.6,3-6.6,6.6v16.5
			C74.6,128.3,77.5,131.3,81.2,131.3z M79.5,108.2c0-0.9,0.8-1.7,1.7-1.7h16.5c0.9,0,1.7,0.8,1.7,1.7v16.5c0,0.9-0.8,1.7-1.7,1.7
			H81.2c-0.9,0-1.7-0.8-1.7-1.7V108.2z"/>
		<path class="st10" d="M104.3,164.4v-16.5c0-3.6-3-6.6-6.6-6.6H81.2c-3.6,0-6.6,3-6.6,6.6v16.5c0,3.6,3,6.6,6.6,6.6h16.5
			C101.4,171,104.3,168,104.3,164.4z M99.4,164.4c0,0.9-0.8,1.7-1.7,1.7H81.2c-0.9,0-1.7-0.8-1.7-1.7v-16.5c0-0.9,0.8-1.7,1.7-1.7
			h16.5c0.9,0,1.7,0.8,1.7,1.7V164.4z"/>
	</g>
</g>
</svg>
