<?xml version="1.0" encoding="utf-8"?>
<!-- Generator: Adobe Illustrator 19.1.0, SVG Export Plug-In . SVG Version: 6.00 Build 0)  -->
<svg version="1.1" xmlns="http://www.w3.org/2000/svg" xmlns:xlink="http://www.w3.org/1999/xlink" x="0px" y="0px"
	 viewBox="0 0 226 259.7" style="enable-background:new 0 0 226 259.7;" xml:space="preserve">
<style type="text/css">
	.st0{display:none;}
	.st1{display:inline;}
	.st2{fill:none;stroke:#004987;stroke-width:4;stroke-miterlimit:10;}
	.st3{fill:#004987;}
	.st4{display:inline;fill:none;stroke:#004987;stroke-width:3.114;stroke-linejoin:round;stroke-miterlimit:10;}
	
		.st5{display:inline;fill:none;stroke:#004987;stroke-width:3.114;stroke-linecap:round;stroke-linejoin:round;stroke-miterlimit:10;}
	.st6{display:inline;fill:#004987;}
	.st7{fill:none;stroke:#FFFFFF;stroke-width:4;stroke-linecap:round;stroke-linejoin:round;stroke-miterlimit:10;}
	.st8{fill:none;stroke:#FFFFFF;stroke-width:4;stroke-linecap:round;stroke-linejoin:round;}
	.st9{fill:none;stroke:#FFFFFF;stroke-width:4;stroke-linecap:round;stroke-linejoin:round;stroke-dasharray:0,11.3326;}
	.st10{fill:#FFFFFF;}
	.st11{fill:none;stroke:#FFFFFF;stroke-width:4;stroke-linejoin:round;stroke-miterlimit:10;}
	.st12{display:inline;fill:#004987;stroke:#FFFFFF;stroke-width:4;stroke-linejoin:round;stroke-miterlimit:10;}
	.st13{display:inline;fill:none;stroke:#FFFFFF;stroke-width:2;stroke-linecap:round;stroke-linejoin:round;stroke-miterlimit:10;}
	.st14{display:inline;fill:none;stroke:#FFFFFF;stroke-width:4;stroke-linejoin:round;stroke-miterlimit:10;}
	.st15{display:inline;fill:#A9A8A9;}
	.st16{display:inline;fill:#FFFFFF;}
	.st17{fill:#A9A8A9;stroke:#FFFFFF;stroke-width:3.1943;stroke-linejoin:round;stroke-miterlimit:10;}
	.st18{fill:none;stroke:#A9A8A9;stroke-width:3.1943;stroke-linecap:round;stroke-linejoin:round;stroke-miterlimit:10;}
	.st19{display:inline;fill:#A9A8A9;stroke:#FFFFFF;stroke-width:5.9435;stroke-linejoin:round;stroke-miterlimit:10;}
	.st20{fill:#A9A8A9;stroke:#FFFFFF;stroke-width:5.9435;stroke-linejoin:round;stroke-miterlimit:10;}
	.st21{fill:#A9A8A9;}
	.st22{display:inline;fill:none;stroke:#FFFFFF;stroke-width:5.0435;stroke-linecap:round;stroke-miterlimit:10;}
	.st23{fill:none;stroke:#FFFFFF;stroke-width:5.0435;stroke-linecap:round;stroke-miterlimit:10;}
	.st24{display:inline;fill:none;stroke:#58595B;stroke-width:3;stroke-miterlimit:10;}
	.st25{display:inline;fill:none;stroke:#FFFFFF;stroke-width:5.0435;stroke-miterlimit:10;}
	.st26{display:inline;fill:#FFFFFF;stroke:#FFFFFF;stroke-width:0.75;stroke-miterlimit:10;}
	.st27{display:inline;fill:none;stroke:#FFFFFF;stroke-width:5;stroke-linecap:round;stroke-linejoin:round;stroke-miterlimit:10;}
	.st28{display:inline;fill:none;stroke:#FFFFFF;stroke-width:3.6286;stroke-miterlimit:10;}
	
		.st29{display:inline;fill:none;stroke:#FFFFFF;stroke-width:3.6286;stroke-linecap:round;stroke-linejoin:round;stroke-miterlimit:10;}
	.st30{fill:none;stroke:#FFFFFF;stroke-width:4.0259;stroke-miterlimit:10;}
	
		.st31{display:inline;fill:none;stroke:#FFFFFF;stroke-width:4.0186;stroke-linecap:round;stroke-linejoin:round;stroke-miterlimit:10;}
	.st32{display:inline;fill:none;stroke:#FFFFFF;stroke-width:3.429;stroke-linecap:round;stroke-miterlimit:10;}
	.st33{fill:none;stroke:#FFFFFF;stroke-width:3.429;stroke-linecap:round;stroke-miterlimit:10;}
	.st34{fill:none;stroke:#FFFFFF;stroke-width:3.429;stroke-miterlimit:10;}
	.st35{fill:none;stroke:#FFFFFF;stroke-width:3.429;stroke-linecap:round;stroke-linejoin:round;stroke-miterlimit:10;}
	.st36{fill:none;stroke:#FFFFFF;stroke-width:4;stroke-linecap:round;stroke-miterlimit:10;}
	.st37{display:inline;fill:#9ECF7C;}
	.st38{fill:#A9A8A9;stroke:#FFFFFF;stroke-width:4.0369;stroke-linecap:round;stroke-miterlimit:10;}
	
		.st39{display:inline;fill:none;stroke:#FFFFFF;stroke-width:3.966;stroke-linecap:round;stroke-linejoin:round;stroke-miterlimit:10;}
	.st40{fill:#A9A8A9;stroke:#FFFFFF;stroke-width:3.1476;stroke-linecap:round;stroke-miterlimit:10;}
	
		.st41{display:inline;fill:none;stroke:#FFFFFF;stroke-width:2.876;stroke-linecap:round;stroke-linejoin:round;stroke-miterlimit:10;}
	.st42{fill:none;stroke:#FFFFFF;stroke-width:4.3508;stroke-linecap:round;stroke-linejoin:round;stroke-miterlimit:10;}
	.st43{fill:none;stroke:#FFFFFF;stroke-width:5.2742;stroke-linecap:round;stroke-miterlimit:10;}
	.st44{fill:none;stroke:#FFFFFF;stroke-width:1.904;stroke-linecap:round;stroke-linejoin:round;stroke-miterlimit:10;}
	.st45{display:inline;fill:none;stroke:#FFFFFF;stroke-width:2.3081;stroke-linecap:round;stroke-miterlimit:10;}
	
		.st46{display:inline;fill:#A9A8A9;stroke:#FFFFFF;stroke-width:6;stroke-linecap:round;stroke-linejoin:round;stroke-miterlimit:10;}
	.st47{fill:none;stroke:#FFFFFF;stroke-width:6;stroke-linecap:round;stroke-linejoin:round;stroke-miterlimit:10;}
	.st48{fill:#A9A8A9;stroke:#FFFFFF;stroke-width:4.36;stroke-linejoin:round;stroke-miterlimit:10;}
	.st49{fill:#A9A8A9;stroke:#FFFFFF;stroke-width:4.36;stroke-linecap:round;stroke-linejoin:round;stroke-miterlimit:10;}
	.st50{fill:none;stroke:#A9A8A9;stroke-width:4;stroke-linecap:round;stroke-linejoin:round;stroke-miterlimit:10;}
	.st51{display:inline;fill:none;stroke:#FFFFFF;stroke-width:4;stroke-linecap:round;stroke-linejoin:round;stroke-miterlimit:10;}
	.st52{fill:#004987;stroke:#FFFFFF;stroke-width:4;stroke-linejoin:round;stroke-miterlimit:10;}
	.st53{fill:#6D6E71;}
	.st54{display:inline;fill:none;stroke:#FFFFFF;stroke-width:3.2247;stroke-linejoin:round;stroke-miterlimit:10;}
	.st55{display:inline;fill:none;stroke:#FFFFFF;stroke-width:3.6491;stroke-linejoin:round;stroke-miterlimit:10;}
	.st56{fill:#004987;stroke:#FFFFFF;stroke-width:4;stroke-linecap:round;stroke-linejoin:round;stroke-miterlimit:10;}
	.st57{fill:#A9A8A9;stroke:#FFFFFF;stroke-width:4;stroke-linejoin:round;stroke-miterlimit:10;}
	.st58{fill:#A9A8A9;stroke:#FFFFFF;stroke-width:4;stroke-linecap:round;stroke-linejoin:round;stroke-miterlimit:10;}
	.st59{display:inline;fill:#A9A8A9;stroke:#FFFFFF;stroke-width:4;stroke-linejoin:round;stroke-miterlimit:10;}
	.st60{display:inline;fill:#40B4E5;}
	.st61{display:inline;fill:#A4D55D;}
	.st62{display:inline;opacity:0.15;}
	.st63{opacity:0.15;}
	.st64{clip-path:url(#SVGID_2_);}
	.st65{clip-path:url(#SVGID_4_);}
	.st66{clip-path:url(#SVGID_6_);}
	.st67{fill:#004987;stroke:#FFFFFF;stroke-width:5.2097;stroke-linecap:round;stroke-linejoin:round;stroke-miterlimit:10;}
	.st68{fill:none;stroke:#FFFFFF;stroke-width:5.2097;stroke-linecap:round;stroke-linejoin:round;stroke-miterlimit:10;}
	.st69{clip-path:url(#SVGID_8_);}
	.st70{fill:#0065A4;}
	.st71{fill:#A4D55D;}
	.st72{fill:none;}
	.st73{fill:none;stroke:#FFFFFF;stroke-width:4.4123;stroke-linecap:round;stroke-linejoin:round;stroke-miterlimit:10;}
	.st74{display:inline;fill:#FFFFFF;stroke:#FFFFFF;stroke-width:0.5;stroke-miterlimit:10;}
	
		.st75{display:inline;fill:#004987;stroke:#FFFFFF;stroke-width:5.2097;stroke-linecap:round;stroke-linejoin:round;stroke-miterlimit:10;}
	
		.st76{display:inline;fill:none;stroke:#FFFFFF;stroke-width:5.2097;stroke-linecap:round;stroke-linejoin:round;stroke-miterlimit:10;}
	.st77{display:inline;fill:#6D6E71;}
	.st78{display:none;fill:#6D6E71;}
	.st79{font-family:'FuturaStd-Book';}
	.st80{font-size:12px;}
	.st81{fill:#40B4E5;}
	.st82{fill:none;stroke:#FFFFFF;stroke-width:3;stroke-linecap:round;stroke-linejoin:round;stroke-miterlimit:10;}
	.st83{fill:none;stroke:#FFFFFF;stroke-width:3.1061;stroke-linecap:round;stroke-linejoin:round;stroke-miterlimit:10;}
	.st84{fill:#FFFFFF;stroke:#FFFFFF;stroke-width:0.5;stroke-miterlimit:10;}
	.st85{display:none;fill:#A9A8A9;stroke:#FFFFFF;stroke-width:3.1943;stroke-linejoin:round;stroke-miterlimit:10;}
	.st86{fill:#9ECF7C;}
	.st87{fill:none;stroke:#FFFFFF;stroke-width:4.0465;stroke-linecap:round;stroke-miterlimit:10;}
	.st88{fill:none;stroke:#FFFFFF;stroke-width:4.0465;stroke-linecap:round;stroke-linejoin:round;stroke-miterlimit:10;}
	.st89{display:none;fill:#004987;}
	.st90{fill:none;stroke:#FFFFFF;stroke-width:4;stroke-miterlimit:10;}
	.st91{display:inline;fill:none;stroke:#FFFFFF;stroke-width:4;stroke-linecap:round;stroke-miterlimit:10;}
	
		.st92{display:none;fill:none;stroke:#FFFFFF;stroke-width:4.4123;stroke-linecap:round;stroke-linejoin:round;stroke-miterlimit:10;}
	.st93{display:none;fill:#FFFFFF;stroke:#FFFFFF;stroke-width:2.2464;stroke-miterlimit:10;}
	
		.st94{display:inline;fill:none;stroke:#FFFFFF;stroke-width:4.4123;stroke-linecap:round;stroke-linejoin:round;stroke-miterlimit:10;}
</style>
<g id="WorkableArtwork" class="st0">
</g>
<g id="Labels">
	<rect x="28.9" y="233.2" class="st72" width="174" height="26"/>
	<text transform="matrix(1 0 0 1 72.1529 243.1162)" class="st78 st79 st80">REAL COMFORT</text>
</g>
<g id="Icons">
</g>
<g id="Fourth_Tier_-_Optional_Features">
</g>
<g id="Third_Tier_-_Features">
</g>
<g id="SecondTier_-_Benefits">
</g>
<g id="First_Tier_-_PrimaryPillars">
	<circle class="st81" cx="113.3" cy="129.8" r="107.1"/>
	<g>
		<path class="st10" d="M189.6,127.8h-15.9c-1.1,0-2.1-0.6-2.5-1.7c-0.4-1-0.2-2.2,0.6-2.9l9.7-9.7c0.3-0.3,0.5-0.8,0.5-1.3
			c0-0.5-0.2-1-0.5-1.3c-0.7-0.7-1.9-0.7-2.6,0l-16.1,16.1c-0.5,0.5-1.2,0.8-1.9,0.8h-27.5c-1.1,0-2.1-0.7-2.5-1.7
			c-0.4-1-0.2-2.1,0.6-2.9l20-20c0.5-0.5,1.2-0.8,1.9-0.8h19.4c1,0,1.8-0.8,1.8-1.9c0-1-0.8-1.9-1.8-1.9h-10.3
			c-1.1,0-2.1-0.7-2.5-1.7c-0.4-1-0.2-2.1,0.6-2.9l10.4-10.4c0.4-0.4,0.5-0.8,0.5-1.3c0-0.5-0.2-1-0.5-1.3c-0.7-0.7-1.9-0.7-2.6,0
			L158,91.5c-0.7,0.7-1.9,1-2.9,0.6c-1-0.4-1.7-1.4-1.7-2.5V79.5c0-1-0.8-1.9-1.9-1.9s-1.9,0.8-1.9,1.9v19.2c0,0.7-0.3,1.4-0.8,1.9
			l-20.1,20c-0.8,0.8-1.9,1-2.9,0.6c-1-0.4-1.7-1.4-1.7-2.5v-29c0-0.7,0.3-1.4,0.8-1.9l16.2-16.2c0.4-0.4,0.5-0.8,0.5-1.3
			c0-0.5-0.2-1-0.5-1.3c-0.7-0.7-1.9-0.7-2.6,0l-9.7,9.7c-0.8,0.8-2,1-2.9,0.6c-1-0.4-1.7-1.4-1.7-2.5V62.5c0-1-0.8-1.9-1.9-1.9
			c-1,0-1.9,0.8-1.9,1.9v134.4c0,1,0.8,1.9,1.9,1.9c1,0,1.9-0.8,1.9-1.9v-17.4c0-1.1,0.7-2.1,1.7-2.5c1-0.4,2.2-0.2,2.9,0.6l9.7,9.7
			c0.7,0.7,1.9,0.7,2.6,0c0.4-0.4,0.5-0.8,0.5-1.3c0-0.5-0.2-1-0.5-1.3l-16.1-16.1c-0.5-0.5-0.8-1.2-0.8-1.9v-26
			c0-1.1,0.7-2.1,1.7-2.5c1-0.4,2.2-0.2,2.9,0.6l20.3,20.3c0.5,0.5,0.8,1.2,0.8,1.9v19.2c0,1,0.8,1.9,1.9,1.9c1,0,1.9-0.8,1.9-1.9
			V170c0-1.1,0.7-2.1,1.7-2.5c1-0.4,2.2-0.2,2.9,0.6l10.6,10.6c0.7,0.7,1.9,0.7,2.6,0c0.4-0.4,0.5-0.8,0.5-1.3s-0.2-1-0.5-1.3
			l-10.6-10.6c-0.8-0.8-1-1.9-0.6-2.9c0.4-1,1.4-1.7,2.5-1.7h10.3c1,0,1.9-0.8,1.9-1.9c0-1-0.8-1.9-1.9-1.9h-19.3
			c-0.7,0-1.4-0.3-1.9-0.8l-20.2-20.2c-0.8-0.8-1-1.9-0.6-2.9c0.4-1,1.4-1.7,2.5-1.7h27.5c0.7,0,1.4,0.3,1.9,0.8l16.1,16.1
			c0.7,0.7,1.9,0.7,2.6,0c0.3-0.4,0.5-0.8,0.5-1.3c0-0.5-0.2-1-0.5-1.3l-9.7-9.7c-0.8-0.8-1-1.9-0.6-2.9c0.4-1,1.4-1.7,2.5-1.7h15.9
			c1,0,1.9-0.8,1.9-1.9C191.4,128.7,190.6,127.8,189.6,127.8z"/>
		<path class="st10" d="M108.3,63c0.2-0.8-0.1-1.6-0.6-2.2c-0.9-0.9-2.4-0.9-3.3,0L89.6,75.6c-0.5,0.5-1.1,0.7-1.9,0.6L67.1,73
			c-0.1,0-0.3,0-0.4,0c-1.2,0-2.1,0.8-2.3,2l-3.3,20.6c-0.1,0.7-0.5,1.3-1.2,1.6l-18.6,9.5c-0.6,0.3-1,0.8-1.2,1.4
			c-0.2,0.6-0.1,1.2,0.1,1.8l9.5,18.6c0.3,0.6,0.3,1.4,0,2L40.3,149c-0.3,0.6-0.3,1.2-0.1,1.8c0.2,0.6,0.6,1.1,1.2,1.4l18.6,9.5
			c0.6,0.3,1,0.9,1.2,1.6l3.3,20.6c0.2,1.2,1.2,2,2.3,2c0.1,0,0.3,0,0.4,0l20.6-3.3c0.1,0,0.2,0,0.3,0c0.6,0,1.1,0.2,1.5,0.6
			l14.8,14.8c0.7,0.7,1.7,0.9,2.6,0.5c0.9-0.4,1.5-1.2,1.5-2.2V64.6C108.4,64.4,108.3,63.4,108.3,63z M103.7,93c0,1.1-0.9,2.1-2,2.2
			c-18.1,1.2-32.3,16.3-32.3,34.5c0,18.2,14.2,33.3,32.3,34.5c1.1,0.1,2,1,2,2.2v19c0,0.9-0.5,1.7-1.3,2c-0.3,0.1-0.5,0.2-0.8,0.2
			c-0.6,0-1.1-0.2-1.5-0.6l-8.7-8.7c-0.5-0.5-1.3-0.8-2-0.7l-18.4,2.9c-1.2,0.2-2.3-0.6-2.5-1.8l-2.9-18.4c-0.1-0.7-0.6-1.4-1.3-1.7
			l-16.6-8.5c-0.5-0.3-0.9-0.7-1.1-1.3c-0.2-0.6-0.1-1.1,0.1-1.7l8.5-16.6c0.3-0.7,0.3-1.5,0-2.1l-8.5-16.6
			c-0.3-0.5-0.3-1.1-0.1-1.7c0.2-0.6,0.6-1,1.1-1.3l16.6-8.5c0.7-0.3,1.1-1,1.3-1.7l2.9-18.4c0.2-1.2,1.3-2,2.5-1.8l18.4,2.9
			c0.8,0.1,1.5-0.1,2-0.7l8.7-8.7c0.6-0.6,1.6-0.8,2.4-0.5c0.8,0.3,1.3,1.1,1.3,2V93z M103.6,158.9c0,0.6-0.3,1.2-0.7,1.6
			c-0.4,0.4-0.9,0.6-1.5,0.6c-0.1,0-0.2,0-0.2,0c-16-1.6-28.1-15-28.1-31.1c0-15.9,12-29.3,28-31.1c0.6-0.1,1.2,0.1,1.7,0.5
			c0.5,0.4,0.7,1,0.7,1.6L103.6,158.9z"/>
	</g>
</g>
</svg>
