<?xml version="1.0" encoding="utf-8"?>
<!-- Generator: Adobe Illustrator 19.1.0, SVG Export Plug-In . SVG Version: 6.00 Build 0)  -->
<svg version="1.1" xmlns="http://www.w3.org/2000/svg" xmlns:xlink="http://www.w3.org/1999/xlink" x="0px" y="0px"
	 viewBox="0 0 226 257.1" style="enable-background:new 0 0 226 257.1;" xml:space="preserve">
<style type="text/css">
	.st0{display:none;}
	.st1{display:inline;}
	.st2{fill:none;stroke:#004987;stroke-width:4;stroke-miterlimit:10;}
	.st3{fill:#004987;}
	.st4{display:inline;fill:none;stroke:#004987;stroke-width:3.114;stroke-linejoin:round;stroke-miterlimit:10;}
	
		.st5{display:inline;fill:none;stroke:#004987;stroke-width:3.114;stroke-linecap:round;stroke-linejoin:round;stroke-miterlimit:10;}
	.st6{display:inline;fill:#004987;}
	.st7{fill:none;stroke:#FFFFFF;stroke-width:4;stroke-linecap:round;stroke-linejoin:round;stroke-miterlimit:10;}
	.st8{fill:none;stroke:#FFFFFF;stroke-width:4;stroke-linecap:round;stroke-linejoin:round;}
	.st9{fill:none;stroke:#FFFFFF;stroke-width:4;stroke-linecap:round;stroke-linejoin:round;stroke-dasharray:0,11.3326;}
	.st10{fill:#FFFFFF;}
	.st11{fill:none;stroke:#FFFFFF;stroke-width:4;stroke-linejoin:round;stroke-miterlimit:10;}
	.st12{display:inline;fill:#004987;stroke:#FFFFFF;stroke-width:4;stroke-linejoin:round;stroke-miterlimit:10;}
	.st13{display:inline;fill:none;stroke:#FFFFFF;stroke-width:2;stroke-linecap:round;stroke-linejoin:round;stroke-miterlimit:10;}
	.st14{display:inline;fill:none;stroke:#FFFFFF;stroke-width:4;stroke-linejoin:round;stroke-miterlimit:10;}
	.st15{display:inline;fill:#A9A8A9;}
	.st16{display:inline;fill:#FFFFFF;}
	.st17{fill:#A9A8A9;stroke:#FFFFFF;stroke-width:3.1943;stroke-linejoin:round;stroke-miterlimit:10;}
	.st18{fill:none;stroke:#A9A8A9;stroke-width:3.1943;stroke-linecap:round;stroke-linejoin:round;stroke-miterlimit:10;}
	.st19{display:inline;fill:#A9A8A9;stroke:#FFFFFF;stroke-width:5.9435;stroke-linejoin:round;stroke-miterlimit:10;}
	.st20{fill:#A9A8A9;stroke:#FFFFFF;stroke-width:5.9435;stroke-linejoin:round;stroke-miterlimit:10;}
	.st21{fill:#A9A8A9;}
	.st22{display:inline;fill:none;stroke:#FFFFFF;stroke-width:5.0435;stroke-linecap:round;stroke-miterlimit:10;}
	.st23{fill:none;stroke:#FFFFFF;stroke-width:5.0435;stroke-linecap:round;stroke-miterlimit:10;}
	.st24{display:inline;fill:none;stroke:#58595B;stroke-width:3;stroke-miterlimit:10;}
	.st25{display:inline;fill:none;stroke:#FFFFFF;stroke-width:5.0435;stroke-miterlimit:10;}
	.st26{display:inline;fill:#FFFFFF;stroke:#FFFFFF;stroke-width:0.75;stroke-miterlimit:10;}
	.st27{display:inline;fill:none;stroke:#FFFFFF;stroke-width:5;stroke-linecap:round;stroke-linejoin:round;stroke-miterlimit:10;}
	.st28{display:inline;fill:none;stroke:#FFFFFF;stroke-width:3.6286;stroke-miterlimit:10;}
	
		.st29{display:inline;fill:none;stroke:#FFFFFF;stroke-width:3.6286;stroke-linecap:round;stroke-linejoin:round;stroke-miterlimit:10;}
	.st30{fill:none;stroke:#FFFFFF;stroke-width:4.0259;stroke-miterlimit:10;}
	
		.st31{display:inline;fill:none;stroke:#FFFFFF;stroke-width:4.0186;stroke-linecap:round;stroke-linejoin:round;stroke-miterlimit:10;}
	.st32{display:inline;fill:none;stroke:#FFFFFF;stroke-width:3.429;stroke-linecap:round;stroke-miterlimit:10;}
	.st33{fill:none;stroke:#FFFFFF;stroke-width:3.429;stroke-linecap:round;stroke-miterlimit:10;}
	.st34{fill:none;stroke:#FFFFFF;stroke-width:3.429;stroke-miterlimit:10;}
	.st35{fill:none;stroke:#FFFFFF;stroke-width:3.429;stroke-linecap:round;stroke-linejoin:round;stroke-miterlimit:10;}
	.st36{fill:none;stroke:#FFFFFF;stroke-width:4;stroke-linecap:round;stroke-miterlimit:10;}
	.st37{display:inline;fill:#9ECF7C;}
	.st38{fill:#A9A8A9;stroke:#FFFFFF;stroke-width:4.0369;stroke-linecap:round;stroke-miterlimit:10;}
	
		.st39{display:inline;fill:none;stroke:#FFFFFF;stroke-width:3.966;stroke-linecap:round;stroke-linejoin:round;stroke-miterlimit:10;}
	.st40{fill:#A9A8A9;stroke:#FFFFFF;stroke-width:3.1476;stroke-linecap:round;stroke-miterlimit:10;}
	
		.st41{display:inline;fill:none;stroke:#FFFFFF;stroke-width:2.876;stroke-linecap:round;stroke-linejoin:round;stroke-miterlimit:10;}
	.st42{fill:none;stroke:#FFFFFF;stroke-width:4.3508;stroke-linecap:round;stroke-linejoin:round;stroke-miterlimit:10;}
	.st43{fill:none;stroke:#FFFFFF;stroke-width:5.2742;stroke-linecap:round;stroke-miterlimit:10;}
	.st44{fill:none;stroke:#FFFFFF;stroke-width:1.904;stroke-linecap:round;stroke-linejoin:round;stroke-miterlimit:10;}
	.st45{display:inline;fill:none;stroke:#FFFFFF;stroke-width:2.3081;stroke-linecap:round;stroke-miterlimit:10;}
	
		.st46{display:inline;fill:#A9A8A9;stroke:#FFFFFF;stroke-width:6;stroke-linecap:round;stroke-linejoin:round;stroke-miterlimit:10;}
	.st47{fill:none;stroke:#FFFFFF;stroke-width:6;stroke-linecap:round;stroke-linejoin:round;stroke-miterlimit:10;}
	.st48{fill:#A9A8A9;stroke:#FFFFFF;stroke-width:4.36;stroke-linejoin:round;stroke-miterlimit:10;}
	.st49{fill:#A9A8A9;stroke:#FFFFFF;stroke-width:4.36;stroke-linecap:round;stroke-linejoin:round;stroke-miterlimit:10;}
	.st50{fill:none;stroke:#A9A8A9;stroke-width:4;stroke-linecap:round;stroke-linejoin:round;stroke-miterlimit:10;}
	.st51{display:inline;fill:none;stroke:#FFFFFF;stroke-width:4;stroke-linecap:round;stroke-linejoin:round;stroke-miterlimit:10;}
	.st52{fill:#004987;stroke:#FFFFFF;stroke-width:4;stroke-linejoin:round;stroke-miterlimit:10;}
	.st53{fill:#6D6E71;}
	.st54{display:inline;fill:none;stroke:#FFFFFF;stroke-width:3.2247;stroke-linejoin:round;stroke-miterlimit:10;}
	.st55{display:inline;fill:none;stroke:#FFFFFF;stroke-width:3.6491;stroke-linejoin:round;stroke-miterlimit:10;}
	.st56{fill:#004987;stroke:#FFFFFF;stroke-width:4;stroke-linecap:round;stroke-linejoin:round;stroke-miterlimit:10;}
	.st57{fill:#A9A8A9;stroke:#FFFFFF;stroke-width:4;stroke-linejoin:round;stroke-miterlimit:10;}
	.st58{fill:#A9A8A9;stroke:#FFFFFF;stroke-width:4;stroke-linecap:round;stroke-linejoin:round;stroke-miterlimit:10;}
	.st59{display:inline;fill:#A9A8A9;stroke:#FFFFFF;stroke-width:4;stroke-linejoin:round;stroke-miterlimit:10;}
	.st60{display:inline;fill:#40B4E5;}
	.st61{display:inline;fill:#A4D55D;}
	.st62{display:inline;opacity:0.15;}
	.st63{opacity:0.15;}
	.st64{clip-path:url(#SVGID_2_);}
	.st65{clip-path:url(#SVGID_4_);}
	.st66{clip-path:url(#SVGID_6_);}
	.st67{fill:#004987;stroke:#FFFFFF;stroke-width:5.2097;stroke-linecap:round;stroke-linejoin:round;stroke-miterlimit:10;}
	.st68{fill:none;stroke:#FFFFFF;stroke-width:5.2097;stroke-linecap:round;stroke-linejoin:round;stroke-miterlimit:10;}
	.st69{clip-path:url(#SVGID_8_);}
	.st70{fill:#0065A4;}
	.st71{fill:#A4D55D;}
	.st72{fill:none;}
	.st73{fill:none;stroke:#FFFFFF;stroke-width:4.4123;stroke-linecap:round;stroke-linejoin:round;stroke-miterlimit:10;}
	.st74{display:inline;fill:#FFFFFF;stroke:#FFFFFF;stroke-width:0.5;stroke-miterlimit:10;}
	
		.st75{display:inline;fill:#004987;stroke:#FFFFFF;stroke-width:5.2097;stroke-linecap:round;stroke-linejoin:round;stroke-miterlimit:10;}
	
		.st76{display:inline;fill:none;stroke:#FFFFFF;stroke-width:5.2097;stroke-linecap:round;stroke-linejoin:round;stroke-miterlimit:10;}
	.st77{display:inline;fill:#6D6E71;}
	.st78{display:none;fill:#6D6E71;}
	.st79{font-family:'FuturaStd-Book';}
	.st80{font-size:12px;}
	.st81{fill:#40B4E5;}
	.st82{fill:none;stroke:#FFFFFF;stroke-width:3;stroke-linecap:round;stroke-linejoin:round;stroke-miterlimit:10;}
	.st83{fill:none;stroke:#FFFFFF;stroke-width:3.1061;stroke-linecap:round;stroke-linejoin:round;stroke-miterlimit:10;}
	.st84{fill:#FFFFFF;stroke:#FFFFFF;stroke-width:0.5;stroke-miterlimit:10;}
	.st85{display:none;fill:#A9A8A9;stroke:#FFFFFF;stroke-width:3.1943;stroke-linejoin:round;stroke-miterlimit:10;}
	.st86{fill:#9ECF7C;}
	.st87{fill:none;stroke:#FFFFFF;stroke-width:4.0465;stroke-linecap:round;stroke-miterlimit:10;}
	.st88{fill:none;stroke:#FFFFFF;stroke-width:4.0465;stroke-linecap:round;stroke-linejoin:round;stroke-miterlimit:10;}
	.st89{display:none;fill:#004987;}
	.st90{fill:none;stroke:#FFFFFF;stroke-width:4;stroke-miterlimit:10;}
	.st91{display:inline;fill:none;stroke:#FFFFFF;stroke-width:4;stroke-linecap:round;stroke-miterlimit:10;}
	
		.st92{display:none;fill:none;stroke:#FFFFFF;stroke-width:4.4123;stroke-linecap:round;stroke-linejoin:round;stroke-miterlimit:10;}
	.st93{display:none;fill:#FFFFFF;stroke:#FFFFFF;stroke-width:2.2464;stroke-miterlimit:10;}
	
		.st94{display:inline;fill:none;stroke:#FFFFFF;stroke-width:4.4123;stroke-linecap:round;stroke-linejoin:round;stroke-miterlimit:10;}
</style>
<g id="WorkableArtwork" class="st0">
</g>
<g id="Labels">
	<rect y="232.4" class="st72" width="226" height="49.4"/>
	<text transform="matrix(1 0 0 1 55.2746 242.256)" class="st78 st79 st80">Spray Foam Insulation</text>
</g>
<g id="Icons">
</g>
<g id="Fourth_Tier_-_Optional_Features">
</g>
<g id="Third_Tier_-_Features">
</g>
<g id="SecondTier_-_Benefits">
	<circle class="st81" cx="111.6" cy="131" r="107.1"/>
	<g>
		<g>
			<g>
				<g>
					<path class="st10" d="M123.2,201.8h-20.8c-3.2,0-5.8-2.6-5.8-5.8v-14.4c0-3.2,2.6-5.8,5.8-5.8h20.8c3.2,0,5.8,2.6,5.8,5.8V196
						C129,199.2,126.4,201.8,123.2,201.8z M102.5,180.6c-0.6,0-1.1,0.5-1.1,1V196c0,0.5,0.5,1,1.1,1h20.8c0.6,0,1.1-0.5,1.1-1v-14.4
						c0-0.6-0.5-1-1.1-1H102.5z M112.7,170.4c-5,0-9.1-4-9.1-9c0-4.9,4.1-8.9,9.1-8.9c5,0,9.1,4,9.1,8.9
						C121.8,166.4,117.7,170.4,112.7,170.4z M112.7,157.3c-2.4,0-4.3,1.9-4.3,4.2c0,2.3,1.9,4.2,4.3,4.2c2.4,0,4.3-1.9,4.3-4.2
						C117,159.2,115.1,157.3,112.7,157.3z M125.4,143.8c-5,0-9.1-4-9.1-9c0-4.9,4.1-9,9.1-9c5,0,9.1,4,9.1,9
						C134.4,139.8,130.4,143.8,125.4,143.8z M125.4,130.7c-2.4,0-4.3,1.9-4.3,4.2c0,2.3,1.9,4.2,4.3,4.2c2.4,0,4.3-1.9,4.3-4.2
						C129.7,132.6,127.8,130.7,125.4,130.7z M100.1,143.8c-5,0-9.1-4-9.1-9c0-4.9,4.1-9,9.1-9c5,0,9.1,4,9.1,9
						C109.1,139.8,105.1,143.8,100.1,143.8z M100.1,130.7c-2.4,0-4.3,1.9-4.3,4.2c0,2.3,1.9,4.2,4.3,4.2c2.4,0,4.3-1.9,4.3-4.2
						C104.4,132.6,102.5,130.7,100.1,130.7z M138.1,117.2c-5,0-9.1-4-9.1-8.9c0-4.9,4.1-9,9.1-9c5,0,9.1,4,9.1,9
						C147.1,113.2,143,117.2,138.1,117.2z M138.1,104.1c-2.4,0-4.3,1.9-4.3,4.2c0,2.3,1.9,4.2,4.3,4.2c2.4,0,4.3-1.9,4.3-4.2
						C142.4,106,140.4,104.1,138.1,104.1z M112.7,117.2c-5,0-9.1-4-9.1-8.9c0-4.9,4.1-9,9.1-9s9,4,9,9
						C121.8,113.2,117.7,117.2,112.7,117.2z M112.7,104.1c-2.4,0-4.3,1.9-4.3,4.2c0,2.3,1.9,4.2,4.3,4.2c2.4,0,4.3-1.9,4.3-4.2
						C117,106,115.1,104.1,112.7,104.1z M87.4,117.2c-5,0-9.1-4-9.1-8.9c0-4.9,4.1-9,9.1-9c5,0,9.1,4,9.1,9
						C96.5,113.2,92.4,117.2,87.4,117.2z M87.4,104.1c-2.4,0-4.3,1.9-4.3,4.2c0,2.3,1.9,4.2,4.3,4.2c2.4,0,4.3-1.9,4.3-4.2
						C91.7,106,89.8,104.1,87.4,104.1z M150.7,90.7c-5,0-9.1-4-9.1-9c0-4.9,4.1-9,9.1-9c5,0,9.1,4,9.1,9
						C159.8,86.6,155.7,90.7,150.7,90.7z M150.7,77.5c-2.4,0-4.3,1.9-4.3,4.2c0,2.3,1.9,4.2,4.3,4.2c2.4,0,4.3-1.9,4.3-4.2
						C155,79.4,153.1,77.5,150.7,77.5z M125.4,90.7c-5,0-9.1-4-9.1-9c0-4.9,4.1-9,9.1-9c5,0,9.1,4,9.1,9
						C134.4,86.6,130.4,90.7,125.4,90.7z M125.4,77.5c-2.4,0-4.3,1.9-4.3,4.2c0,2.3,1.9,4.2,4.3,4.2c2.4,0,4.3-1.9,4.3-4.2
						C129.7,79.4,127.8,77.5,125.4,77.5z M100.1,90.7c-5,0-9.1-4-9.1-9c0-4.9,4.1-9,9.1-9c5,0,9.1,4,9.1,9
						C109.1,86.6,105.1,90.7,100.1,90.7z M100.1,77.5c-2.4,0-4.3,1.9-4.3,4.2c0,2.3,1.9,4.2,4.3,4.2c2.4,0,4.3-1.9,4.3-4.2
						C104.4,79.4,102.4,77.5,100.1,77.5z M74.8,90.7c-5,0-9.1-4-9.1-9c0-4.9,4.1-9,9.1-9c5,0,9.1,4,9.1,9
						C83.8,86.6,79.8,90.7,74.8,90.7z M74.8,77.5c-2.4,0-4.3,1.9-4.3,4.2c0,2.3,1.9,4.2,4.3,4.2c2.4,0,4.3-1.9,4.3-4.2
						C79.1,79.4,77.1,77.5,74.8,77.5z"/>
				</g>
			</g>
		</g>
	</g>
</g>
<g id="First_Tier_-_PrimaryPillars">
</g>
</svg>
