<?xml version="1.0" encoding="utf-8"?>
<!-- Generator: Adobe Illustrator 19.1.0, SVG Export Plug-In . SVG Version: 6.00 Build 0)  -->
<svg version="1.1" xmlns="http://www.w3.org/2000/svg" xmlns:xlink="http://www.w3.org/1999/xlink" x="0px" y="0px"
	 viewBox="0 0 226 263.4" style="enable-background:new 0 0 226 263.4;" xml:space="preserve">
<style type="text/css">
	.st0{display:none;}
	.st1{display:inline;}
	.st2{fill:none;stroke:#004987;stroke-width:4;stroke-miterlimit:10;}
	.st3{fill:#004987;}
	.st4{display:inline;fill:none;stroke:#004987;stroke-width:3.114;stroke-linejoin:round;stroke-miterlimit:10;}
	
		.st5{display:inline;fill:none;stroke:#004987;stroke-width:3.114;stroke-linecap:round;stroke-linejoin:round;stroke-miterlimit:10;}
	.st6{display:inline;fill:#004987;}
	.st7{fill:none;stroke:#FFFFFF;stroke-width:4;stroke-linecap:round;stroke-linejoin:round;stroke-miterlimit:10;}
	.st8{fill:none;stroke:#FFFFFF;stroke-width:4;stroke-linecap:round;stroke-linejoin:round;}
	.st9{fill:none;stroke:#FFFFFF;stroke-width:4;stroke-linecap:round;stroke-linejoin:round;stroke-dasharray:0,11.3326;}
	.st10{fill:#FFFFFF;}
	.st11{fill:none;stroke:#FFFFFF;stroke-width:4;stroke-linejoin:round;stroke-miterlimit:10;}
	.st12{display:inline;fill:#004987;stroke:#FFFFFF;stroke-width:4;stroke-linejoin:round;stroke-miterlimit:10;}
	.st13{display:inline;fill:none;stroke:#FFFFFF;stroke-width:2;stroke-linecap:round;stroke-linejoin:round;stroke-miterlimit:10;}
	.st14{display:inline;fill:none;stroke:#FFFFFF;stroke-width:4;stroke-linejoin:round;stroke-miterlimit:10;}
	.st15{display:inline;fill:#A9A8A9;}
	.st16{display:inline;fill:#FFFFFF;}
	.st17{fill:#A9A8A9;stroke:#FFFFFF;stroke-width:3.1943;stroke-linejoin:round;stroke-miterlimit:10;}
	.st18{fill:none;stroke:#A9A8A9;stroke-width:3.1943;stroke-linecap:round;stroke-linejoin:round;stroke-miterlimit:10;}
	.st19{display:inline;fill:#A9A8A9;stroke:#FFFFFF;stroke-width:5.9435;stroke-linejoin:round;stroke-miterlimit:10;}
	.st20{fill:#A9A8A9;stroke:#FFFFFF;stroke-width:5.9435;stroke-linejoin:round;stroke-miterlimit:10;}
	.st21{fill:#A9A8A9;}
	.st22{display:inline;fill:none;stroke:#FFFFFF;stroke-width:5.0435;stroke-linecap:round;stroke-miterlimit:10;}
	.st23{fill:none;stroke:#FFFFFF;stroke-width:5.0435;stroke-linecap:round;stroke-miterlimit:10;}
	.st24{display:inline;fill:none;stroke:#58595B;stroke-width:3;stroke-miterlimit:10;}
	.st25{display:inline;fill:none;stroke:#FFFFFF;stroke-width:5.0435;stroke-miterlimit:10;}
	.st26{display:inline;fill:#FFFFFF;stroke:#FFFFFF;stroke-width:0.75;stroke-miterlimit:10;}
	.st27{display:inline;fill:none;stroke:#FFFFFF;stroke-width:5;stroke-linecap:round;stroke-linejoin:round;stroke-miterlimit:10;}
	.st28{display:inline;fill:none;stroke:#FFFFFF;stroke-width:3.6286;stroke-miterlimit:10;}
	
		.st29{display:inline;fill:none;stroke:#FFFFFF;stroke-width:3.6286;stroke-linecap:round;stroke-linejoin:round;stroke-miterlimit:10;}
	.st30{fill:none;stroke:#FFFFFF;stroke-width:4.0259;stroke-miterlimit:10;}
	
		.st31{display:inline;fill:none;stroke:#FFFFFF;stroke-width:4.0186;stroke-linecap:round;stroke-linejoin:round;stroke-miterlimit:10;}
	.st32{display:inline;fill:none;stroke:#FFFFFF;stroke-width:3.429;stroke-linecap:round;stroke-miterlimit:10;}
	.st33{fill:none;stroke:#FFFFFF;stroke-width:3.429;stroke-linecap:round;stroke-miterlimit:10;}
	.st34{fill:none;stroke:#FFFFFF;stroke-width:3.429;stroke-miterlimit:10;}
	.st35{fill:none;stroke:#FFFFFF;stroke-width:3.429;stroke-linecap:round;stroke-linejoin:round;stroke-miterlimit:10;}
	.st36{fill:none;stroke:#FFFFFF;stroke-width:4;stroke-linecap:round;stroke-miterlimit:10;}
	.st37{display:inline;fill:#9ECF7C;}
	.st38{fill:#A9A8A9;stroke:#FFFFFF;stroke-width:4.0369;stroke-linecap:round;stroke-miterlimit:10;}
	
		.st39{display:inline;fill:none;stroke:#FFFFFF;stroke-width:3.966;stroke-linecap:round;stroke-linejoin:round;stroke-miterlimit:10;}
	.st40{fill:#A9A8A9;stroke:#FFFFFF;stroke-width:3.1476;stroke-linecap:round;stroke-miterlimit:10;}
	
		.st41{display:inline;fill:none;stroke:#FFFFFF;stroke-width:2.876;stroke-linecap:round;stroke-linejoin:round;stroke-miterlimit:10;}
	.st42{fill:none;stroke:#FFFFFF;stroke-width:4.3508;stroke-linecap:round;stroke-linejoin:round;stroke-miterlimit:10;}
	.st43{fill:none;stroke:#FFFFFF;stroke-width:5.2742;stroke-linecap:round;stroke-miterlimit:10;}
	.st44{fill:none;stroke:#FFFFFF;stroke-width:1.904;stroke-linecap:round;stroke-linejoin:round;stroke-miterlimit:10;}
	.st45{display:inline;fill:none;stroke:#FFFFFF;stroke-width:2.3081;stroke-linecap:round;stroke-miterlimit:10;}
	
		.st46{display:inline;fill:#A9A8A9;stroke:#FFFFFF;stroke-width:6;stroke-linecap:round;stroke-linejoin:round;stroke-miterlimit:10;}
	.st47{fill:none;stroke:#FFFFFF;stroke-width:6;stroke-linecap:round;stroke-linejoin:round;stroke-miterlimit:10;}
	.st48{fill:#A9A8A9;stroke:#FFFFFF;stroke-width:4.36;stroke-linejoin:round;stroke-miterlimit:10;}
	.st49{fill:#A9A8A9;stroke:#FFFFFF;stroke-width:4.36;stroke-linecap:round;stroke-linejoin:round;stroke-miterlimit:10;}
	.st50{fill:none;stroke:#A9A8A9;stroke-width:4;stroke-linecap:round;stroke-linejoin:round;stroke-miterlimit:10;}
	.st51{display:inline;fill:none;stroke:#FFFFFF;stroke-width:4;stroke-linecap:round;stroke-linejoin:round;stroke-miterlimit:10;}
	.st52{fill:#004987;stroke:#FFFFFF;stroke-width:4;stroke-linejoin:round;stroke-miterlimit:10;}
	.st53{fill:#6D6E71;}
	.st54{display:inline;fill:none;stroke:#FFFFFF;stroke-width:3.2247;stroke-linejoin:round;stroke-miterlimit:10;}
	.st55{display:inline;fill:none;stroke:#FFFFFF;stroke-width:3.6491;stroke-linejoin:round;stroke-miterlimit:10;}
	.st56{fill:#004987;stroke:#FFFFFF;stroke-width:4;stroke-linecap:round;stroke-linejoin:round;stroke-miterlimit:10;}
	.st57{fill:#A9A8A9;stroke:#FFFFFF;stroke-width:4;stroke-linejoin:round;stroke-miterlimit:10;}
	.st58{fill:#A9A8A9;stroke:#FFFFFF;stroke-width:4;stroke-linecap:round;stroke-linejoin:round;stroke-miterlimit:10;}
	.st59{display:inline;fill:#A9A8A9;stroke:#FFFFFF;stroke-width:4;stroke-linejoin:round;stroke-miterlimit:10;}
	.st60{display:inline;fill:#40B4E5;}
	.st61{display:inline;fill:#A4D55D;}
	.st62{display:inline;opacity:0.15;}
	.st63{opacity:0.15;}
	.st64{clip-path:url(#SVGID_2_);}
	.st65{clip-path:url(#SVGID_4_);}
	.st66{clip-path:url(#SVGID_6_);}
	.st67{fill:#004987;stroke:#FFFFFF;stroke-width:5.2097;stroke-linecap:round;stroke-linejoin:round;stroke-miterlimit:10;}
	.st68{fill:none;stroke:#FFFFFF;stroke-width:5.2097;stroke-linecap:round;stroke-linejoin:round;stroke-miterlimit:10;}
	.st69{clip-path:url(#SVGID_8_);}
	.st70{fill:#0065A4;}
	.st71{fill:#A4D55D;}
	.st72{fill:none;}
	.st73{fill:none;stroke:#FFFFFF;stroke-width:4.4123;stroke-linecap:round;stroke-linejoin:round;stroke-miterlimit:10;}
	.st74{display:inline;fill:#FFFFFF;stroke:#FFFFFF;stroke-width:0.5;stroke-miterlimit:10;}
	
		.st75{display:inline;fill:#004987;stroke:#FFFFFF;stroke-width:5.2097;stroke-linecap:round;stroke-linejoin:round;stroke-miterlimit:10;}
	
		.st76{display:inline;fill:none;stroke:#FFFFFF;stroke-width:5.2097;stroke-linecap:round;stroke-linejoin:round;stroke-miterlimit:10;}
	.st77{display:inline;fill:#6D6E71;}
	.st78{display:none;fill:#6D6E71;}
	.st79{font-family:'FuturaStd-Book';}
	.st80{font-size:12px;}
	.st81{fill:#40B4E5;}
	.st82{fill:none;stroke:#FFFFFF;stroke-width:3;stroke-linecap:round;stroke-linejoin:round;stroke-miterlimit:10;}
	.st83{fill:none;stroke:#FFFFFF;stroke-width:3.1061;stroke-linecap:round;stroke-linejoin:round;stroke-miterlimit:10;}
	.st84{fill:#FFFFFF;stroke:#FFFFFF;stroke-width:0.5;stroke-miterlimit:10;}
	.st85{display:none;fill:#A9A8A9;stroke:#FFFFFF;stroke-width:3.1943;stroke-linejoin:round;stroke-miterlimit:10;}
	.st86{fill:#9ECF7C;}
	.st87{fill:none;stroke:#FFFFFF;stroke-width:4.0465;stroke-linecap:round;stroke-miterlimit:10;}
	.st88{fill:none;stroke:#FFFFFF;stroke-width:4.0465;stroke-linecap:round;stroke-linejoin:round;stroke-miterlimit:10;}
	.st89{display:none;fill:#004987;}
	.st90{fill:none;stroke:#FFFFFF;stroke-width:4;stroke-miterlimit:10;}
	.st91{display:inline;fill:none;stroke:#FFFFFF;stroke-width:4;stroke-linecap:round;stroke-miterlimit:10;}
	
		.st92{display:none;fill:none;stroke:#FFFFFF;stroke-width:4.4123;stroke-linecap:round;stroke-linejoin:round;stroke-miterlimit:10;}
	.st93{display:none;fill:#FFFFFF;stroke:#FFFFFF;stroke-width:2.2464;stroke-miterlimit:10;}
	
		.st94{display:inline;fill:none;stroke:#FFFFFF;stroke-width:4.4123;stroke-linecap:round;stroke-linejoin:round;stroke-miterlimit:10;}
</style>
<g id="WorkableArtwork" class="st0">
</g>
<g id="Labels">
	<rect y="238.7" class="st72" width="226" height="24.7"/>
	<text transform="matrix(1 0 0 1 63.4882 248.5564)" class="st78 st79 st80">Advanced Framing</text>
</g>
<g id="Icons">
</g>
<g id="Fourth_Tier_-_Optional_Features">
</g>
<g id="Third_Tier_-_Features">
	<circle class="st3" cx="112.9" cy="133.2" r="107.1"/>
	<path class="st10" d="M179.5,112.1L117,73.7c-0.4-0.2-0.9-0.4-1.4-0.4c-0.5,0-1,0.1-1.4,0.4L85.7,91.2c-0.3,0.2-0.5,0.2-0.8,0.2
		c-0.6,0-1-0.5-1-1.2l0-11.9c0-0.9-0.7-1.6-1.6-1.6H59.4c-0.9,0-1.6,0.7-1.6,1.6v28.1c0,1-0.7,2.3-1.6,2.8l-4.7,2.9
		c-0.8,0.5-1.4,1.6-1.4,2.5v68.7c0,0.9,0.7,1.6,1.6,1.6l20.2,0c0.9,0,1.6-0.7,1.6-1.6v-43.5c0-1.1,0.9-1.9,1.9-1.9H102
		c1.1,0,1.9,0.9,1.9,1.9v43.5c0,0.9,0.7,1.6,1.6,1.6l73.9,0c0.9,0,1.6-0.7,1.6-1.6v-68.7C181,113.7,180.3,112.6,179.5,112.1z
		 M63.3,84.1c0-1.1,0.9-1.9,1.9-1.9h11.4c1.1,0,1.9,0.9,1.9,1.9v9.7c0,1-0.7,2.3-1.6,2.8L65,103.8c-0.3,0.2-0.5,0.2-0.8,0.2
		c-0.6,0-1-0.5-1-1.2V84.1z M68.1,177.5c0,1.1-0.9,1.9-1.9,1.9h-8.6c-1.1,0-1.9-0.9-1.9-1.9v-54.1c0-1.1,0.9-1.9,1.9-1.9h8.6
		c1.1,0,1.9,0.9,1.9,1.9V177.5z M86,130.5c0,1.1-0.9,1.9-1.9,1.9h-8.6c-1.1,0-1.9-0.9-1.9-1.9v-7c0-1.1,0.9-1.9,1.9-1.9H84
		c1.1,0,1.9,0.9,1.9,1.9V130.5z M103.9,130.5c0,1.1-0.9,1.9-1.9,1.9h-8.6c-1.1,0-1.9-0.9-1.9-1.9v-7c0-1.1,0.9-1.9,1.9-1.9h8.6
		c1.1,0,1.9,0.9,1.9,1.9V130.5z M57.8,116.1c-0.6,0-0.9-0.1-1-0.4c-0.1-0.3,0.1-0.5,0.6-0.8L114,80.2c0.4-0.3,1-0.4,1.6-0.4
		c0.6,0,1.2,0.1,1.6,0.4l56.5,34.7c0.5,0.3,0.7,0.6,0.6,0.8c-0.1,0.3-0.4,0.4-1,0.4H57.8z M129.2,137.9h26.5c1.1,0,1.9,0.9,1.9,1.9
		v12.8c0,1.1-0.9,1.9-1.9,1.9h-26.5c-1.1,0-1.9-0.9-1.9-1.9v-12.8C127.2,138.7,128.1,137.9,129.2,137.9z M127.2,130.5v-7
		c0-1.1,0.9-1.9,1.9-1.9h8.6c1.1,0,1.9,0.9,1.9,1.9v7c0,1.1-0.9,1.9-1.9,1.9h-8.6C128.1,132.4,127.2,131.6,127.2,130.5z
		 M155.7,132.4h-8.6c-1.1,0-1.9-0.9-1.9-1.9v-7c0-1.1,0.9-1.9,1.9-1.9h8.6c1.1,0,1.9,0.9,1.9,1.9v7
		C157.6,131.6,156.8,132.4,155.7,132.4z M121.8,177.5c0,1.1-0.9,1.9-1.9,1.9h-8.6c-1.1,0-1.9-0.9-1.9-1.9v-54.1
		c0-1.1,0.9-1.9,1.9-1.9h8.6c1.1,0,1.9,0.9,1.9,1.9V177.5z M139.7,177.5c0,1.1-0.9,1.9-1.9,1.9h-8.6c-1.1,0-1.9-0.9-1.9-1.9v-15.6
		c0-1.1,0.9-1.9,1.9-1.9h8.6c1.1,0,1.9,0.9,1.9,1.9V177.5z M157.6,177.5c0,1.1-0.9,1.9-1.9,1.9h-8.6c-1.1,0-1.9-0.9-1.9-1.9v-15.6
		c0-1.1,0.9-1.9,1.9-1.9h8.6c1.1,0,1.9,0.9,1.9,1.9V177.5z M175.5,177.5c0,1.1-0.9,1.9-1.9,1.9H165c-1.1,0-1.9-0.9-1.9-1.9v-54.1
		c0-1.1,0.9-1.9,1.9-1.9h8.6c1.1,0,1.9,0.9,1.9,1.9V177.5z"/>
</g>
<g id="SecondTier_-_Benefits">
</g>
<g id="First_Tier_-_PrimaryPillars">
</g>
</svg>
