<?xml version="1.0" encoding="utf-8"?>
<!-- Generator: Adobe Illustrator 19.1.0, SVG Export Plug-In . SVG Version: 6.00 Build 0)  -->
<svg version="1.1" xmlns="http://www.w3.org/2000/svg" xmlns:xlink="http://www.w3.org/1999/xlink" x="0px" y="0px"
	 viewBox="0 0 226 259.7" style="enable-background:new 0 0 226 259.7;" xml:space="preserve">
<style type="text/css">
	.st0{display:none;}
	.st1{display:inline;}
	.st2{fill:none;stroke:#004987;stroke-width:4;stroke-miterlimit:10;}
	.st3{fill:#004987;}
	.st4{display:inline;fill:none;stroke:#004987;stroke-width:3.114;stroke-linejoin:round;stroke-miterlimit:10;}
	
		.st5{display:inline;fill:none;stroke:#004987;stroke-width:3.114;stroke-linecap:round;stroke-linejoin:round;stroke-miterlimit:10;}
	.st6{display:inline;fill:#004987;}
	.st7{fill:none;stroke:#FFFFFF;stroke-width:4;stroke-linecap:round;stroke-linejoin:round;stroke-miterlimit:10;}
	.st8{fill:none;stroke:#FFFFFF;stroke-width:4;stroke-linecap:round;stroke-linejoin:round;}
	.st9{fill:none;stroke:#FFFFFF;stroke-width:4;stroke-linecap:round;stroke-linejoin:round;stroke-dasharray:0,11.3326;}
	.st10{fill:#FFFFFF;}
	.st11{fill:none;stroke:#FFFFFF;stroke-width:4;stroke-linejoin:round;stroke-miterlimit:10;}
	.st12{display:inline;fill:#004987;stroke:#FFFFFF;stroke-width:4;stroke-linejoin:round;stroke-miterlimit:10;}
	.st13{display:inline;fill:none;stroke:#FFFFFF;stroke-width:2;stroke-linecap:round;stroke-linejoin:round;stroke-miterlimit:10;}
	.st14{display:inline;fill:none;stroke:#FFFFFF;stroke-width:4;stroke-linejoin:round;stroke-miterlimit:10;}
	.st15{display:inline;fill:#A9A8A9;}
	.st16{display:inline;fill:#FFFFFF;}
	.st17{fill:#A9A8A9;stroke:#FFFFFF;stroke-width:3.1943;stroke-linejoin:round;stroke-miterlimit:10;}
	.st18{fill:none;stroke:#A9A8A9;stroke-width:3.1943;stroke-linecap:round;stroke-linejoin:round;stroke-miterlimit:10;}
	.st19{display:inline;fill:#A9A8A9;stroke:#FFFFFF;stroke-width:5.9435;stroke-linejoin:round;stroke-miterlimit:10;}
	.st20{fill:#A9A8A9;stroke:#FFFFFF;stroke-width:5.9435;stroke-linejoin:round;stroke-miterlimit:10;}
	.st21{fill:#A9A8A9;}
	.st22{display:inline;fill:none;stroke:#FFFFFF;stroke-width:5.0435;stroke-linecap:round;stroke-miterlimit:10;}
	.st23{fill:none;stroke:#FFFFFF;stroke-width:5.0435;stroke-linecap:round;stroke-miterlimit:10;}
	.st24{display:inline;fill:none;stroke:#58595B;stroke-width:3;stroke-miterlimit:10;}
	.st25{display:inline;fill:none;stroke:#FFFFFF;stroke-width:5.0435;stroke-miterlimit:10;}
	.st26{display:inline;fill:#FFFFFF;stroke:#FFFFFF;stroke-width:0.75;stroke-miterlimit:10;}
	.st27{display:inline;fill:none;stroke:#FFFFFF;stroke-width:5;stroke-linecap:round;stroke-linejoin:round;stroke-miterlimit:10;}
	.st28{display:inline;fill:none;stroke:#FFFFFF;stroke-width:3.6286;stroke-miterlimit:10;}
	
		.st29{display:inline;fill:none;stroke:#FFFFFF;stroke-width:3.6286;stroke-linecap:round;stroke-linejoin:round;stroke-miterlimit:10;}
	.st30{fill:none;stroke:#FFFFFF;stroke-width:4.0259;stroke-miterlimit:10;}
	
		.st31{display:inline;fill:none;stroke:#FFFFFF;stroke-width:4.0186;stroke-linecap:round;stroke-linejoin:round;stroke-miterlimit:10;}
	.st32{display:inline;fill:none;stroke:#FFFFFF;stroke-width:3.429;stroke-linecap:round;stroke-miterlimit:10;}
	.st33{fill:none;stroke:#FFFFFF;stroke-width:3.429;stroke-linecap:round;stroke-miterlimit:10;}
	.st34{fill:none;stroke:#FFFFFF;stroke-width:3.429;stroke-miterlimit:10;}
	.st35{fill:none;stroke:#FFFFFF;stroke-width:3.429;stroke-linecap:round;stroke-linejoin:round;stroke-miterlimit:10;}
	.st36{fill:none;stroke:#FFFFFF;stroke-width:4;stroke-linecap:round;stroke-miterlimit:10;}
	.st37{display:inline;fill:#9ECF7C;}
	.st38{fill:#A9A8A9;stroke:#FFFFFF;stroke-width:4.0369;stroke-linecap:round;stroke-miterlimit:10;}
	
		.st39{display:inline;fill:none;stroke:#FFFFFF;stroke-width:3.966;stroke-linecap:round;stroke-linejoin:round;stroke-miterlimit:10;}
	.st40{fill:#A9A8A9;stroke:#FFFFFF;stroke-width:3.1476;stroke-linecap:round;stroke-miterlimit:10;}
	
		.st41{display:inline;fill:none;stroke:#FFFFFF;stroke-width:2.876;stroke-linecap:round;stroke-linejoin:round;stroke-miterlimit:10;}
	.st42{fill:none;stroke:#FFFFFF;stroke-width:4.3508;stroke-linecap:round;stroke-linejoin:round;stroke-miterlimit:10;}
	.st43{fill:none;stroke:#FFFFFF;stroke-width:5.2742;stroke-linecap:round;stroke-miterlimit:10;}
	.st44{fill:none;stroke:#FFFFFF;stroke-width:1.904;stroke-linecap:round;stroke-linejoin:round;stroke-miterlimit:10;}
	.st45{display:inline;fill:none;stroke:#FFFFFF;stroke-width:2.3081;stroke-linecap:round;stroke-miterlimit:10;}
	
		.st46{display:inline;fill:#A9A8A9;stroke:#FFFFFF;stroke-width:6;stroke-linecap:round;stroke-linejoin:round;stroke-miterlimit:10;}
	.st47{fill:none;stroke:#FFFFFF;stroke-width:6;stroke-linecap:round;stroke-linejoin:round;stroke-miterlimit:10;}
	.st48{fill:#A9A8A9;stroke:#FFFFFF;stroke-width:4.36;stroke-linejoin:round;stroke-miterlimit:10;}
	.st49{fill:#A9A8A9;stroke:#FFFFFF;stroke-width:4.36;stroke-linecap:round;stroke-linejoin:round;stroke-miterlimit:10;}
	.st50{fill:none;stroke:#A9A8A9;stroke-width:4;stroke-linecap:round;stroke-linejoin:round;stroke-miterlimit:10;}
	.st51{display:inline;fill:none;stroke:#FFFFFF;stroke-width:4;stroke-linecap:round;stroke-linejoin:round;stroke-miterlimit:10;}
	.st52{fill:#004987;stroke:#FFFFFF;stroke-width:4;stroke-linejoin:round;stroke-miterlimit:10;}
	.st53{fill:#6D6E71;}
	.st54{display:inline;fill:none;stroke:#FFFFFF;stroke-width:3.2247;stroke-linejoin:round;stroke-miterlimit:10;}
	.st55{display:inline;fill:none;stroke:#FFFFFF;stroke-width:3.6491;stroke-linejoin:round;stroke-miterlimit:10;}
	.st56{fill:#004987;stroke:#FFFFFF;stroke-width:4;stroke-linecap:round;stroke-linejoin:round;stroke-miterlimit:10;}
	.st57{fill:#A9A8A9;stroke:#FFFFFF;stroke-width:4;stroke-linejoin:round;stroke-miterlimit:10;}
	.st58{fill:#A9A8A9;stroke:#FFFFFF;stroke-width:4;stroke-linecap:round;stroke-linejoin:round;stroke-miterlimit:10;}
	.st59{display:inline;fill:#A9A8A9;stroke:#FFFFFF;stroke-width:4;stroke-linejoin:round;stroke-miterlimit:10;}
	.st60{display:inline;fill:#40B4E5;}
	.st61{display:inline;fill:#A4D55D;}
	.st62{display:inline;opacity:0.15;}
	.st63{opacity:0.15;}
	.st64{clip-path:url(#SVGID_2_);}
	.st65{clip-path:url(#SVGID_4_);}
	.st66{clip-path:url(#SVGID_6_);}
	.st67{fill:#004987;stroke:#FFFFFF;stroke-width:5.2097;stroke-linecap:round;stroke-linejoin:round;stroke-miterlimit:10;}
	.st68{fill:none;stroke:#FFFFFF;stroke-width:5.2097;stroke-linecap:round;stroke-linejoin:round;stroke-miterlimit:10;}
	.st69{clip-path:url(#SVGID_8_);}
	.st70{fill:#0065A4;}
	.st71{fill:#A4D55D;}
	.st72{fill:none;}
	.st73{fill:none;stroke:#FFFFFF;stroke-width:4.4123;stroke-linecap:round;stroke-linejoin:round;stroke-miterlimit:10;}
	.st74{display:inline;fill:#FFFFFF;stroke:#FFFFFF;stroke-width:0.5;stroke-miterlimit:10;}
	
		.st75{display:inline;fill:#004987;stroke:#FFFFFF;stroke-width:5.2097;stroke-linecap:round;stroke-linejoin:round;stroke-miterlimit:10;}
	
		.st76{display:inline;fill:none;stroke:#FFFFFF;stroke-width:5.2097;stroke-linecap:round;stroke-linejoin:round;stroke-miterlimit:10;}
	.st77{display:inline;fill:#6D6E71;}
	.st78{display:none;fill:#6D6E71;}
	.st79{font-family:'FuturaStd-Book';}
	.st80{font-size:12px;}
	.st81{fill:#40B4E5;}
	.st82{fill:none;stroke:#FFFFFF;stroke-width:3;stroke-linecap:round;stroke-linejoin:round;stroke-miterlimit:10;}
	.st83{fill:none;stroke:#FFFFFF;stroke-width:3.1061;stroke-linecap:round;stroke-linejoin:round;stroke-miterlimit:10;}
	.st84{fill:#FFFFFF;stroke:#FFFFFF;stroke-width:0.5;stroke-miterlimit:10;}
	.st85{display:none;fill:#A9A8A9;stroke:#FFFFFF;stroke-width:3.1943;stroke-linejoin:round;stroke-miterlimit:10;}
	.st86{fill:#9ECF7C;}
	.st87{fill:none;stroke:#FFFFFF;stroke-width:4.0465;stroke-linecap:round;stroke-miterlimit:10;}
	.st88{fill:none;stroke:#FFFFFF;stroke-width:4.0465;stroke-linecap:round;stroke-linejoin:round;stroke-miterlimit:10;}
	.st89{display:none;fill:#004987;}
	.st90{fill:none;stroke:#FFFFFF;stroke-width:4;stroke-miterlimit:10;}
	.st91{display:inline;fill:none;stroke:#FFFFFF;stroke-width:4;stroke-linecap:round;stroke-miterlimit:10;}
	
		.st92{display:none;fill:none;stroke:#FFFFFF;stroke-width:4.4123;stroke-linecap:round;stroke-linejoin:round;stroke-miterlimit:10;}
	.st93{display:none;fill:#FFFFFF;stroke:#FFFFFF;stroke-width:2.2464;stroke-miterlimit:10;}
	
		.st94{display:inline;fill:none;stroke:#FFFFFF;stroke-width:4.4123;stroke-linecap:round;stroke-linejoin:round;stroke-miterlimit:10;}
</style>
<g id="WorkableArtwork" class="st0">
	<circle class="st6" cx="114" cy="112.8" r="107.1"/>
	<g class="st1">
		<g>
			<path class="st10" d="M66.8,111.5l-18,1.6c-1,0.1-1.8,1-1.7,2l0,0.6c0,0.5,0.3,0.9,0.7,1.3c0.3,0.3,0.7,0.4,1.2,0.4
				c0.1,0,0.1,0,0.2,0l18-1.6c1-0.1,1.8-1,1.7-2l0-0.6C68.7,112.1,67.8,111.4,66.8,111.5z"/>
			<path class="st10" d="M71.8,75.9L71.8,75.9c0.4,0.4,0.9,0.6,1.4,0.6c0.4,0,0.9-0.2,1.2-0.5l0.4-0.4c0.4-0.3,0.6-0.8,0.6-1.3
				c0-0.5-0.1-1-0.5-1.3L62.8,59.7c-0.3-0.4-0.8-0.6-1.3-0.6c-0.5,0-1,0.1-1.3,0.5L59.8,60c-0.8,0.7-0.8,1.9-0.1,2.6L71.8,75.9z"/>
			<path class="st10" d="M114.3,62.7h0.6c1,0,1.8-0.8,1.8-1.8v-18c0-1-0.8-1.8-1.8-1.8h-0.6c-1,0-1.8,0.8-1.8,1.8v18
				C112.5,61.9,113.3,62.7,114.3,62.7z"/>
		</g>
		<g>
			<path class="st10" d="M162.6,111.5l18,1.6c1,0.1,1.8,1,1.7,2l0,0.6c0,0.5-0.3,0.9-0.7,1.3c-0.3,0.3-0.7,0.4-1.2,0.4
				c-0.1,0-0.1,0-0.2,0l-18-1.6c-1-0.1-1.8-1-1.7-2l0-0.6C160.7,112.1,161.6,111.4,162.6,111.5z"/>
			<path class="st10" d="M157.6,75.9L157.6,75.9c-0.4,0.4-0.9,0.6-1.4,0.6c-0.4,0-0.9-0.2-1.2-0.5l-0.4-0.4
				c-0.4-0.3-0.6-0.8-0.6-1.3c0-0.5,0.1-1,0.5-1.3l12.2-13.4c0.3-0.4,0.8-0.6,1.3-0.6c0.5,0,1,0.1,1.3,0.5l0.4,0.4
				c0.8,0.7,0.8,1.9,0.1,2.6L157.6,75.9z"/>
		</g>
	</g>
	<path class="st16" d="M126.4,156.4h-23c-1,0-1.8,0.8-1.8,1.8v0.7c0,1,0.8,1.8,1.8,1.8h23c1,0,1.7-0.8,1.7-1.8v-0.7
		C128.1,157.2,127.4,156.4,126.4,156.4z"/>
	<path class="st16" d="M126.4,162.4h-23c-1,0-1.8,0.8-1.8,1.8v0.7c0,1,0.8,1.8,1.8,1.8h23c1,0,1.7-0.8,1.7-1.8v-0.7
		C128.1,163.2,127.4,162.4,126.4,162.4z"/>
	<path class="st16" d="M126.4,168.5h-23c-1,0-1.8,0.8-1.8,1.8v0.7c0,1,0.8,1.8,1.8,1.8h23c1,0,1.7-0.8,1.7-1.8v-0.7
		C128.1,169.3,127.4,168.5,126.4,168.5z"/>
	<path class="st16" d="M121.1,175.6h-12.3c-0.5,0-0.9,0.2-1.2,0.5c-0.3,0.3-0.4,0.8-0.4,1.2c0.4,3.8,3.7,6.6,7.8,6.6
		c4.1,0,7.4-2.8,7.8-6.6c0-0.4-0.1-0.9-0.4-1.2C122,175.8,121.5,175.6,121.1,175.6z"/>
	<path class="st16" d="M138,85.5c-4.1-4.8-11.4-10.5-22.8-10.6c0,0-0.1,0-0.1,0c0,0-0.1,0-0.1,0c0,0-0.1,0-0.1,0c0,0-0.1,0-0.1,0
		c-11.5,0.1-18.7,5.8-22.8,10.6c-5,5.9-8,13.7-8,21.1c0,13.4,4.7,20,9.3,26.5c3.9,5.4,9.4,10.6,9.4,19.9v1h4.2v-1
		c0-10.7-6.1-16.6-10.2-22.3c-4.2-5.9-8.5-12-8.5-24c0-18.7,16-27.4,26.9-27.5c10.9,0.1,26.9,8.8,26.9,27.5c0,12-4.3,18.1-8.5,24
		c-4.1,5.7-10.2,11.7-10.2,22.3v1h4.2v-1c0-9.3,5.5-14.5,9.4-19.9c4.6-6.4,9.3-13.1,9.3-26.5C146,99.2,143,91.3,138,85.5z"/>
	<path class="st16" d="M106.2,88.9c-0.2-0.4-0.5-0.7-0.9-0.8c-0.4-0.1-0.9-0.1-1.2,0.1c-0.1,0.1-11.2,5.3-10.5,17.6
		c0,0.4,0.2,0.8,0.5,1.1c0.3,0.3,0.7,0.4,1.2,0.4c0.1,0,0.2,0,0.3,0c0.8-0.2,1.3-0.9,1.2-1.7c-0.6-10,8.2-14.3,8.6-14.4
		C106.3,90.6,106.6,89.7,106.2,88.9z"/>
</g>
<g id="Labels">
	<rect x="29.7" y="233.2" class="st72" width="174" height="26"/>
	<text transform="matrix(1 0 0 1 71.8867 243.1162)" class="st78 st79 st80">MORE SAVINGS</text>
</g>
<g id="Icons">
</g>
<g id="Fourth_Tier_-_Optional_Features">
</g>
<g id="Third_Tier_-_Features">
</g>
<g id="SecondTier_-_Benefits">
</g>
<g id="First_Tier_-_PrimaryPillars">
	<circle class="st3" cx="113.4" cy="130.4" r="107.1"/>
	<path class="st67" d="M30.9,154.3c16.1-6.6,47.7-17.1,83.9-17.1c34,0,63.9,9.3,80.8,15.8"/>
	<path class="st67" d="M144.9,169.9c15.5-10,25.7-27.4,25.7-47.1c0-31-25.1-56.1-56.1-56.1s-56.1,25.1-56.1,56.1
		c0,19.4,9.8,36.5,24.8,46.5c0.6,0.4,1.2,0.8,1.8,1.2c0,0,11.5-2.7,30.5-2.7S144.9,169.9,144.9,169.9z"/>
	<g>
		<path class="st10" d="M115.3,91.6c1.7,0,3.1,1.4,3.1,3.1v1.6c4.2,0.5,7.8,1.9,11.2,4c1.2,0.6,2.2,1.7,2.2,3.5c0,2.2-1.8,4-4,4
			c-0.7,0-1.4-0.2-2.2-0.6c-2.5-1.5-5-2.6-7.4-3.2v13.8c10.9,2.7,15.6,7.1,15.6,14.8c0,7.9-6.2,13.2-15.3,14v4.3
			c0,1.7-1.4,3.1-3.1,3.1c-1.7,0-3.2-1.4-3.2-3.1v-4.5c-5.4-0.6-10.4-2.5-14.8-5.6c-1.2-0.8-1.9-1.9-1.9-3.5c0-2.2,1.7-4,4-4
			c0.9,0,1.7,0.3,2.4,0.8c3.4,2.4,6.7,4.1,10.7,4.8v-14.2C101.9,122.1,97,118.1,97,110c0-7.7,6.1-13,15.1-13.8v-1.5
			C112.1,93,113.6,91.6,115.3,91.6z M112.4,116.2v-12.7c-4.6,0.4-6.9,2.9-6.9,6C105.5,112.5,106.9,114.4,112.4,116.2z M118.1,126.2
			v13.1c4.6-0.5,7.1-2.8,7.1-6.3C125.2,129.9,123.6,127.9,118.1,126.2z"/>
	</g>
	<path class="st68" d="M156.2,161.3c11.6,2.5,17.3,5.7,17.3,5.7l6.5,13.8c0,0-30.7-13-64.4-13s-67.4,13-67.4,13l6.5-13.8
		c0,0,8.2-3.5,18.7-5.8"/>
</g>
</svg>
