<?xml version="1.0" encoding="utf-8"?>
<!-- Generator: Adobe Illustrator 19.1.0, SVG Export Plug-In . SVG Version: 6.00 Build 0)  -->
<svg version="1.1" xmlns="http://www.w3.org/2000/svg" xmlns:xlink="http://www.w3.org/1999/xlink" x="0px" y="0px"
	 viewBox="0 0 226 263.3" style="enable-background:new 0 0 226 263.3;" xml:space="preserve">
<style type="text/css">
	.st0{display:none;}
	.st1{display:inline;}
	.st2{fill:none;stroke:#004987;stroke-width:4;stroke-miterlimit:10;}
	.st3{fill:#004987;}
	.st4{display:inline;fill:none;stroke:#004987;stroke-width:3.114;stroke-linejoin:round;stroke-miterlimit:10;}
	
		.st5{display:inline;fill:none;stroke:#004987;stroke-width:3.114;stroke-linecap:round;stroke-linejoin:round;stroke-miterlimit:10;}
	.st6{display:inline;fill:#004987;}
	.st7{fill:none;stroke:#FFFFFF;stroke-width:4;stroke-linecap:round;stroke-linejoin:round;stroke-miterlimit:10;}
	.st8{fill:none;stroke:#FFFFFF;stroke-width:4;stroke-linecap:round;stroke-linejoin:round;}
	.st9{fill:none;stroke:#FFFFFF;stroke-width:4;stroke-linecap:round;stroke-linejoin:round;stroke-dasharray:0,11.3326;}
	.st10{fill:#FFFFFF;}
	.st11{fill:none;stroke:#FFFFFF;stroke-width:4;stroke-linejoin:round;stroke-miterlimit:10;}
	.st12{display:inline;fill:#004987;stroke:#FFFFFF;stroke-width:4;stroke-linejoin:round;stroke-miterlimit:10;}
	.st13{display:inline;fill:none;stroke:#FFFFFF;stroke-width:2;stroke-linecap:round;stroke-linejoin:round;stroke-miterlimit:10;}
	.st14{display:inline;fill:none;stroke:#FFFFFF;stroke-width:4;stroke-linejoin:round;stroke-miterlimit:10;}
	.st15{display:inline;fill:#A9A8A9;}
	.st16{display:inline;fill:#FFFFFF;}
	.st17{fill:#A9A8A9;stroke:#FFFFFF;stroke-width:3.1943;stroke-linejoin:round;stroke-miterlimit:10;}
	.st18{fill:none;stroke:#A9A8A9;stroke-width:3.1943;stroke-linecap:round;stroke-linejoin:round;stroke-miterlimit:10;}
	.st19{display:inline;fill:#A9A8A9;stroke:#FFFFFF;stroke-width:5.9435;stroke-linejoin:round;stroke-miterlimit:10;}
	.st20{fill:#A9A8A9;stroke:#FFFFFF;stroke-width:5.9435;stroke-linejoin:round;stroke-miterlimit:10;}
	.st21{fill:#A9A8A9;}
	.st22{display:inline;fill:none;stroke:#FFFFFF;stroke-width:5.0435;stroke-linecap:round;stroke-miterlimit:10;}
	.st23{fill:none;stroke:#FFFFFF;stroke-width:5.0435;stroke-linecap:round;stroke-miterlimit:10;}
	.st24{display:inline;fill:none;stroke:#58595B;stroke-width:3;stroke-miterlimit:10;}
	.st25{display:inline;fill:none;stroke:#FFFFFF;stroke-width:5.0435;stroke-miterlimit:10;}
	.st26{display:inline;fill:#FFFFFF;stroke:#FFFFFF;stroke-width:0.75;stroke-miterlimit:10;}
	.st27{display:inline;fill:none;stroke:#FFFFFF;stroke-width:5;stroke-linecap:round;stroke-linejoin:round;stroke-miterlimit:10;}
	.st28{display:inline;fill:none;stroke:#FFFFFF;stroke-width:3.6286;stroke-miterlimit:10;}
	
		.st29{display:inline;fill:none;stroke:#FFFFFF;stroke-width:3.6286;stroke-linecap:round;stroke-linejoin:round;stroke-miterlimit:10;}
	.st30{fill:none;stroke:#FFFFFF;stroke-width:4.0259;stroke-miterlimit:10;}
	
		.st31{display:inline;fill:none;stroke:#FFFFFF;stroke-width:4.0186;stroke-linecap:round;stroke-linejoin:round;stroke-miterlimit:10;}
	.st32{display:inline;fill:none;stroke:#FFFFFF;stroke-width:3.429;stroke-linecap:round;stroke-miterlimit:10;}
	.st33{fill:none;stroke:#FFFFFF;stroke-width:3.429;stroke-linecap:round;stroke-miterlimit:10;}
	.st34{fill:none;stroke:#FFFFFF;stroke-width:3.429;stroke-miterlimit:10;}
	.st35{fill:none;stroke:#FFFFFF;stroke-width:3.429;stroke-linecap:round;stroke-linejoin:round;stroke-miterlimit:10;}
	.st36{fill:none;stroke:#FFFFFF;stroke-width:4;stroke-linecap:round;stroke-miterlimit:10;}
	.st37{display:inline;fill:#9ECF7C;}
	.st38{fill:#A9A8A9;stroke:#FFFFFF;stroke-width:4.0369;stroke-linecap:round;stroke-miterlimit:10;}
	
		.st39{display:inline;fill:none;stroke:#FFFFFF;stroke-width:3.966;stroke-linecap:round;stroke-linejoin:round;stroke-miterlimit:10;}
	.st40{fill:#A9A8A9;stroke:#FFFFFF;stroke-width:3.1476;stroke-linecap:round;stroke-miterlimit:10;}
	
		.st41{display:inline;fill:none;stroke:#FFFFFF;stroke-width:2.876;stroke-linecap:round;stroke-linejoin:round;stroke-miterlimit:10;}
	.st42{fill:none;stroke:#FFFFFF;stroke-width:4.3508;stroke-linecap:round;stroke-linejoin:round;stroke-miterlimit:10;}
	.st43{fill:none;stroke:#FFFFFF;stroke-width:5.2742;stroke-linecap:round;stroke-miterlimit:10;}
	.st44{fill:none;stroke:#FFFFFF;stroke-width:1.904;stroke-linecap:round;stroke-linejoin:round;stroke-miterlimit:10;}
	.st45{display:inline;fill:none;stroke:#FFFFFF;stroke-width:2.3081;stroke-linecap:round;stroke-miterlimit:10;}
	
		.st46{display:inline;fill:#A9A8A9;stroke:#FFFFFF;stroke-width:6;stroke-linecap:round;stroke-linejoin:round;stroke-miterlimit:10;}
	.st47{fill:none;stroke:#FFFFFF;stroke-width:6;stroke-linecap:round;stroke-linejoin:round;stroke-miterlimit:10;}
	.st48{fill:#A9A8A9;stroke:#FFFFFF;stroke-width:4.36;stroke-linejoin:round;stroke-miterlimit:10;}
	.st49{fill:#A9A8A9;stroke:#FFFFFF;stroke-width:4.36;stroke-linecap:round;stroke-linejoin:round;stroke-miterlimit:10;}
	.st50{fill:none;stroke:#A9A8A9;stroke-width:4;stroke-linecap:round;stroke-linejoin:round;stroke-miterlimit:10;}
	.st51{display:inline;fill:none;stroke:#FFFFFF;stroke-width:4;stroke-linecap:round;stroke-linejoin:round;stroke-miterlimit:10;}
	.st52{fill:#004987;stroke:#FFFFFF;stroke-width:4;stroke-linejoin:round;stroke-miterlimit:10;}
	.st53{fill:#6D6E71;}
	.st54{display:inline;fill:none;stroke:#FFFFFF;stroke-width:3.2247;stroke-linejoin:round;stroke-miterlimit:10;}
	.st55{display:inline;fill:none;stroke:#FFFFFF;stroke-width:3.6491;stroke-linejoin:round;stroke-miterlimit:10;}
	.st56{fill:#004987;stroke:#FFFFFF;stroke-width:4;stroke-linecap:round;stroke-linejoin:round;stroke-miterlimit:10;}
	.st57{fill:#A9A8A9;stroke:#FFFFFF;stroke-width:4;stroke-linejoin:round;stroke-miterlimit:10;}
	.st58{fill:#A9A8A9;stroke:#FFFFFF;stroke-width:4;stroke-linecap:round;stroke-linejoin:round;stroke-miterlimit:10;}
	.st59{display:inline;fill:#A9A8A9;stroke:#FFFFFF;stroke-width:4;stroke-linejoin:round;stroke-miterlimit:10;}
	.st60{display:inline;fill:#40B4E5;}
	.st61{display:inline;fill:#A4D55D;}
	.st62{display:inline;opacity:0.15;}
	.st63{opacity:0.15;}
	.st64{clip-path:url(#SVGID_2_);}
	.st65{clip-path:url(#SVGID_4_);}
	.st66{clip-path:url(#SVGID_6_);}
	.st67{fill:#004987;stroke:#FFFFFF;stroke-width:5.2097;stroke-linecap:round;stroke-linejoin:round;stroke-miterlimit:10;}
	.st68{fill:none;stroke:#FFFFFF;stroke-width:5.2097;stroke-linecap:round;stroke-linejoin:round;stroke-miterlimit:10;}
	.st69{clip-path:url(#SVGID_8_);}
	.st70{fill:#0065A4;}
	.st71{fill:#A4D55D;}
	.st72{fill:none;}
	.st73{fill:none;stroke:#FFFFFF;stroke-width:4.4123;stroke-linecap:round;stroke-linejoin:round;stroke-miterlimit:10;}
	.st74{display:inline;fill:#FFFFFF;stroke:#FFFFFF;stroke-width:0.5;stroke-miterlimit:10;}
	
		.st75{display:inline;fill:#004987;stroke:#FFFFFF;stroke-width:5.2097;stroke-linecap:round;stroke-linejoin:round;stroke-miterlimit:10;}
	
		.st76{display:inline;fill:none;stroke:#FFFFFF;stroke-width:5.2097;stroke-linecap:round;stroke-linejoin:round;stroke-miterlimit:10;}
	.st77{display:inline;fill:#6D6E71;}
	.st78{font-family:'FuturaStd-Book';}
	.st79{font-size:12px;}
	.st80{fill:#40B4E5;}
	.st81{fill:none;stroke:#FFFFFF;stroke-width:3;stroke-linecap:round;stroke-linejoin:round;stroke-miterlimit:10;}
	.st82{fill:none;stroke:#FFFFFF;stroke-width:3.1061;stroke-linecap:round;stroke-linejoin:round;stroke-miterlimit:10;}
	.st83{fill:#FFFFFF;stroke:#FFFFFF;stroke-width:0.5;stroke-miterlimit:10;}
	.st84{display:none;fill:#A9A8A9;stroke:#FFFFFF;stroke-width:3.1943;stroke-linejoin:round;stroke-miterlimit:10;}
	.st85{fill:#9ECF7C;}
	.st86{fill:none;stroke:#FFFFFF;stroke-width:4.0465;stroke-linecap:round;stroke-miterlimit:10;}
	.st87{fill:none;stroke:#FFFFFF;stroke-width:4.0465;stroke-linecap:round;stroke-linejoin:round;stroke-miterlimit:10;}
	.st88{display:none;fill:#004987;}
	.st89{fill:none;stroke:#FFFFFF;stroke-width:4;stroke-miterlimit:10;}
	.st90{display:inline;fill:none;stroke:#FFFFFF;stroke-width:4;stroke-linecap:round;stroke-miterlimit:10;}
	
		.st91{display:none;fill:none;stroke:#FFFFFF;stroke-width:4.4123;stroke-linecap:round;stroke-linejoin:round;stroke-miterlimit:10;}
	.st92{display:none;fill:#FFFFFF;stroke:#FFFFFF;stroke-width:2.2464;stroke-miterlimit:10;}
	
		.st93{display:inline;fill:none;stroke:#FFFFFF;stroke-width:4.4123;stroke-linecap:round;stroke-linejoin:round;stroke-miterlimit:10;}
</style>
<g id="WorkableArtwork" class="st0">
</g>
<g id="Labels">
	<rect y="236.1" class="st72" width="226" height="16.9"/>
	<g class="st0">
		<text transform="matrix(1 0 0 1 40.6983 245.9647)" class="st77 st78 st79">ENERGY STAR</text>
		<text transform="matrix(0.583 0 0 0.583 117.9171 241.9686)" class="st77 st78 st79">®</text>
		<text transform="matrix(1 0 0 1 123.5138 245.9647)" class="st77 st78 st79"> Appliances</text>
	</g>
</g>
<g id="Icons">
</g>
<g id="Fourth_Tier_-_Optional_Features">
</g>
<g id="Third_Tier_-_Features">
	<g>
		<circle class="st3" cx="115.4" cy="133.9" r="107.1"/>
		<g>
			<path class="st10" d="M64.2,77.9v24.4v3.9v89.8h102.5v-89.8v-3.9V77.9H64.2z M162.7,192.2H68.1v-85.9h94.6V192.2z M162.7,102.3
				H68.1V81.8h94.6V102.3z"/>
			<path class="st10" d="M158.7,148.8v-3.9V111H72v33.9v3.9v39.4h86.7V148.8z M76,114.9h78.8v29.9H143v-12c4.5-0.9,7.9-4.9,7.9-9.7
				v-2H143H139h-7.9v2c0,4.8,3.4,8.7,7.9,9.7v12h-21.7v-12c4.5-0.9,7.9-4.9,7.9-9.7v-2h-7.9h-3.9h-7.9v2c0,4.8,3.4,8.7,7.9,9.7v12
				H91.7v-12c4.5-0.9,7.9-4.9,7.9-9.7v-2h-7.9h-3.9h-7.9v2c0,4.8,3.4,8.7,7.9,9.7v12H76V114.9z M139.8,129c-2.1-0.4-3.7-1.9-4.4-3.8
				h3.6h3.9h3.6c-0.7,1.9-2.3,3.4-4.4,3.8l-1.2,0.2L139.8,129z M114.2,129c-2.1-0.4-3.7-1.9-4.4-3.8h3.6h3.9h3.6
				c-0.7,1.9-2.3,3.4-4.4,3.8l-1.2,0.2L114.2,129z M88.6,129c-2.1-0.4-3.7-1.9-4.4-3.8h3.6h3.9h3.6c-0.7,1.9-2.3,3.4-4.4,3.8
				l-1.2,0.2L88.6,129z M76,184.3v-35.5h78.8v35.5H76z"/>
			<path class="st10" d="M79.5,98.8c3.7,0,6.7-3,6.7-6.7c0-3.7-3-6.7-6.7-6.7s-6.7,3-6.7,6.7C72.8,95.8,75.8,98.8,79.5,98.8z
				 M79.5,89.3c1.5,0,2.8,1.2,2.8,2.8c0,1.5-1.2,2.8-2.8,2.8s-2.8-1.2-2.8-2.8C76.8,90.6,78,89.3,79.5,89.3z"/>
			<path class="st10" d="M127.6,98.8c3.7,0,6.7-3,6.7-6.7c0-3.7-3-6.7-6.7-6.7c-3.7,0-6.7,3-6.7,6.7
				C120.9,95.8,123.9,98.8,127.6,98.8z M127.6,89.3c1.5,0,2.8,1.2,2.8,2.8c0,1.5-1.2,2.8-2.8,2.8c-1.5,0-2.8-1.2-2.8-2.8
				C124.8,90.6,126.1,89.3,127.6,89.3z"/>
			<path class="st10" d="M103.2,98.8c3.7,0,6.7-3,6.7-6.7c0-3.7-3-6.7-6.7-6.7s-6.7,3-6.7,6.7C96.5,95.8,99.5,98.8,103.2,98.8z
				 M103.2,89.3c1.5,0,2.8,1.2,2.8,2.8c0,1.5-1.2,2.8-2.8,2.8c-1.5,0-2.8-1.2-2.8-2.8C100.4,90.6,101.7,89.3,103.2,89.3z"/>
			<path class="st10" d="M135.1,152.8c-8.7,0-15.8,7.1-15.8,15.8c0,8.7,7.1,15.8,15.8,15.8s15.8-7.1,15.8-15.8
				C150.9,159.8,143.8,152.8,135.1,152.8z M135.1,180.3c-6.5,0-11.8-5.3-11.8-11.8c0-6.5,5.3-11.8,11.8-11.8
				c6.5,0,11.8,5.3,11.8,11.8C146.9,175,141.6,180.3,135.1,180.3z"/>
			<path class="st10" d="M95.7,152.8c-8.7,0-15.8,7.1-15.8,15.8c0,8.7,7.1,15.8,15.8,15.8s15.8-7.1,15.8-15.8
				C111.4,159.8,104.4,152.8,95.7,152.8z M95.7,180.3c-6.5,0-11.8-5.3-11.8-11.8c0-6.5,5.3-11.8,11.8-11.8c6.5,0,11.8,5.3,11.8,11.8
				C107.5,175,102.2,180.3,95.7,180.3z"/>
			<path class="st10" d="M151.2,98.8c3.7,0,6.7-3,6.7-6.7c0-3.7-3-6.7-6.7-6.7c-3.7,0-6.7,3-6.7,6.7
				C144.5,95.8,147.5,98.8,151.2,98.8z M151.2,89.3c1.5,0,2.8,1.2,2.8,2.8c0,1.5-1.2,2.8-2.8,2.8c-1.5,0-2.8-1.2-2.8-2.8
				C148.5,90.6,149.7,89.3,151.2,89.3z"/>
		</g>
	</g>
</g>
<g id="SecondTier_-_Benefits">
</g>
<g id="First_Tier_-_PrimaryPillars">
</g>
</svg>
