<?xml version="1.0" encoding="utf-8"?>
<!-- Generator: Adobe Illustrator 19.1.0, SVG Export Plug-In . SVG Version: 6.00 Build 0)  -->
<svg version="1.1" xmlns="http://www.w3.org/2000/svg" xmlns:xlink="http://www.w3.org/1999/xlink" x="0px" y="0px"
	 viewBox="0 0 226 262.7" style="enable-background:new 0 0 226 262.7;" xml:space="preserve">
<style type="text/css">
	.st0{display:none;}
	.st1{display:inline;}
	.st2{fill:none;stroke:#004987;stroke-width:4;stroke-miterlimit:10;}
	.st3{fill:#004987;}
	.st4{display:inline;fill:none;stroke:#004987;stroke-width:3.114;stroke-linejoin:round;stroke-miterlimit:10;}
	
		.st5{display:inline;fill:none;stroke:#004987;stroke-width:3.114;stroke-linecap:round;stroke-linejoin:round;stroke-miterlimit:10;}
	.st6{display:inline;fill:#004987;}
	.st7{fill:none;stroke:#FFFFFF;stroke-width:4;stroke-linecap:round;stroke-linejoin:round;stroke-miterlimit:10;}
	.st8{fill:none;stroke:#FFFFFF;stroke-width:4;stroke-linecap:round;stroke-linejoin:round;}
	.st9{fill:none;stroke:#FFFFFF;stroke-width:4;stroke-linecap:round;stroke-linejoin:round;stroke-dasharray:0,11.3326;}
	.st10{fill:#FFFFFF;}
	.st11{fill:none;stroke:#FFFFFF;stroke-width:4;stroke-linejoin:round;stroke-miterlimit:10;}
	.st12{display:inline;fill:#004987;stroke:#FFFFFF;stroke-width:4;stroke-linejoin:round;stroke-miterlimit:10;}
	.st13{display:inline;fill:none;stroke:#FFFFFF;stroke-width:2;stroke-linecap:round;stroke-linejoin:round;stroke-miterlimit:10;}
	.st14{display:inline;fill:none;stroke:#FFFFFF;stroke-width:4;stroke-linejoin:round;stroke-miterlimit:10;}
	.st15{display:inline;fill:#A9A8A9;}
	.st16{display:inline;fill:#FFFFFF;}
	.st17{fill:#A9A8A9;stroke:#FFFFFF;stroke-width:3.1943;stroke-linejoin:round;stroke-miterlimit:10;}
	.st18{fill:none;stroke:#A9A8A9;stroke-width:3.1943;stroke-linecap:round;stroke-linejoin:round;stroke-miterlimit:10;}
	.st19{display:inline;fill:#A9A8A9;stroke:#FFFFFF;stroke-width:5.9435;stroke-linejoin:round;stroke-miterlimit:10;}
	.st20{fill:#A9A8A9;stroke:#FFFFFF;stroke-width:5.9435;stroke-linejoin:round;stroke-miterlimit:10;}
	.st21{fill:#A9A8A9;}
	.st22{display:inline;fill:none;stroke:#FFFFFF;stroke-width:5.0435;stroke-linecap:round;stroke-miterlimit:10;}
	.st23{fill:none;stroke:#FFFFFF;stroke-width:5.0435;stroke-linecap:round;stroke-miterlimit:10;}
	.st24{display:inline;fill:none;stroke:#58595B;stroke-width:3;stroke-miterlimit:10;}
	.st25{display:inline;fill:none;stroke:#FFFFFF;stroke-width:5.0435;stroke-miterlimit:10;}
	.st26{display:inline;fill:#FFFFFF;stroke:#FFFFFF;stroke-width:0.75;stroke-miterlimit:10;}
	.st27{display:inline;fill:none;stroke:#FFFFFF;stroke-width:5;stroke-linecap:round;stroke-linejoin:round;stroke-miterlimit:10;}
	.st28{display:inline;fill:none;stroke:#FFFFFF;stroke-width:3.6286;stroke-miterlimit:10;}
	
		.st29{display:inline;fill:none;stroke:#FFFFFF;stroke-width:3.6286;stroke-linecap:round;stroke-linejoin:round;stroke-miterlimit:10;}
	.st30{fill:none;stroke:#FFFFFF;stroke-width:4.0259;stroke-miterlimit:10;}
	
		.st31{display:inline;fill:none;stroke:#FFFFFF;stroke-width:4.0186;stroke-linecap:round;stroke-linejoin:round;stroke-miterlimit:10;}
	.st32{display:inline;fill:none;stroke:#FFFFFF;stroke-width:3.429;stroke-linecap:round;stroke-miterlimit:10;}
	.st33{fill:none;stroke:#FFFFFF;stroke-width:3.429;stroke-linecap:round;stroke-miterlimit:10;}
	.st34{fill:none;stroke:#FFFFFF;stroke-width:3.429;stroke-miterlimit:10;}
	.st35{fill:none;stroke:#FFFFFF;stroke-width:3.429;stroke-linecap:round;stroke-linejoin:round;stroke-miterlimit:10;}
	.st36{fill:none;stroke:#FFFFFF;stroke-width:4;stroke-linecap:round;stroke-miterlimit:10;}
	.st37{display:inline;fill:#9ECF7C;}
	.st38{fill:#A9A8A9;stroke:#FFFFFF;stroke-width:4.0369;stroke-linecap:round;stroke-miterlimit:10;}
	
		.st39{display:inline;fill:none;stroke:#FFFFFF;stroke-width:3.966;stroke-linecap:round;stroke-linejoin:round;stroke-miterlimit:10;}
	.st40{fill:#A9A8A9;stroke:#FFFFFF;stroke-width:3.1476;stroke-linecap:round;stroke-miterlimit:10;}
	
		.st41{display:inline;fill:none;stroke:#FFFFFF;stroke-width:2.876;stroke-linecap:round;stroke-linejoin:round;stroke-miterlimit:10;}
	.st42{fill:none;stroke:#FFFFFF;stroke-width:4.3508;stroke-linecap:round;stroke-linejoin:round;stroke-miterlimit:10;}
	.st43{fill:none;stroke:#FFFFFF;stroke-width:5.2742;stroke-linecap:round;stroke-miterlimit:10;}
	.st44{fill:none;stroke:#FFFFFF;stroke-width:1.904;stroke-linecap:round;stroke-linejoin:round;stroke-miterlimit:10;}
	.st45{display:inline;fill:none;stroke:#FFFFFF;stroke-width:2.3081;stroke-linecap:round;stroke-miterlimit:10;}
	
		.st46{display:inline;fill:#A9A8A9;stroke:#FFFFFF;stroke-width:6;stroke-linecap:round;stroke-linejoin:round;stroke-miterlimit:10;}
	.st47{fill:none;stroke:#FFFFFF;stroke-width:6;stroke-linecap:round;stroke-linejoin:round;stroke-miterlimit:10;}
	.st48{fill:#A9A8A9;stroke:#FFFFFF;stroke-width:4.36;stroke-linejoin:round;stroke-miterlimit:10;}
	.st49{fill:#A9A8A9;stroke:#FFFFFF;stroke-width:4.36;stroke-linecap:round;stroke-linejoin:round;stroke-miterlimit:10;}
	.st50{fill:none;stroke:#A9A8A9;stroke-width:4;stroke-linecap:round;stroke-linejoin:round;stroke-miterlimit:10;}
	.st51{display:inline;fill:none;stroke:#FFFFFF;stroke-width:4;stroke-linecap:round;stroke-linejoin:round;stroke-miterlimit:10;}
	.st52{fill:#004987;stroke:#FFFFFF;stroke-width:4;stroke-linejoin:round;stroke-miterlimit:10;}
	.st53{fill:#6D6E71;}
	.st54{display:inline;fill:none;stroke:#FFFFFF;stroke-width:3.2247;stroke-linejoin:round;stroke-miterlimit:10;}
	.st55{display:inline;fill:none;stroke:#FFFFFF;stroke-width:3.6491;stroke-linejoin:round;stroke-miterlimit:10;}
	.st56{fill:#004987;stroke:#FFFFFF;stroke-width:4;stroke-linecap:round;stroke-linejoin:round;stroke-miterlimit:10;}
	.st57{fill:#A9A8A9;stroke:#FFFFFF;stroke-width:4;stroke-linejoin:round;stroke-miterlimit:10;}
	.st58{fill:#A9A8A9;stroke:#FFFFFF;stroke-width:4;stroke-linecap:round;stroke-linejoin:round;stroke-miterlimit:10;}
	.st59{display:inline;fill:#A9A8A9;stroke:#FFFFFF;stroke-width:4;stroke-linejoin:round;stroke-miterlimit:10;}
	.st60{display:inline;fill:#40B4E5;}
	.st61{display:inline;fill:#A4D55D;}
	.st62{display:inline;opacity:0.15;}
	.st63{opacity:0.15;}
	.st64{clip-path:url(#SVGID_2_);}
	.st65{clip-path:url(#SVGID_4_);}
	.st66{clip-path:url(#SVGID_6_);}
	.st67{fill:#004987;stroke:#FFFFFF;stroke-width:5.2097;stroke-linecap:round;stroke-linejoin:round;stroke-miterlimit:10;}
	.st68{fill:none;stroke:#FFFFFF;stroke-width:5.2097;stroke-linecap:round;stroke-linejoin:round;stroke-miterlimit:10;}
	.st69{clip-path:url(#SVGID_8_);}
	.st70{fill:#0065A4;}
	.st71{fill:#A4D55D;}
	.st72{fill:none;}
	.st73{fill:none;stroke:#FFFFFF;stroke-width:4.4123;stroke-linecap:round;stroke-linejoin:round;stroke-miterlimit:10;}
	.st74{display:inline;fill:#FFFFFF;stroke:#FFFFFF;stroke-width:0.5;stroke-miterlimit:10;}
	
		.st75{display:inline;fill:#004987;stroke:#FFFFFF;stroke-width:5.2097;stroke-linecap:round;stroke-linejoin:round;stroke-miterlimit:10;}
	
		.st76{display:inline;fill:none;stroke:#FFFFFF;stroke-width:5.2097;stroke-linecap:round;stroke-linejoin:round;stroke-miterlimit:10;}
	.st77{display:inline;fill:#6D6E71;}
	.st78{display:none;fill:#6D6E71;}
	.st79{font-family:'FuturaStd-Book';}
	.st80{font-size:12px;}
	.st81{fill:#40B4E5;}
	.st82{fill:none;stroke:#FFFFFF;stroke-width:3;stroke-linecap:round;stroke-linejoin:round;stroke-miterlimit:10;}
	.st83{fill:none;stroke:#FFFFFF;stroke-width:3.1061;stroke-linecap:round;stroke-linejoin:round;stroke-miterlimit:10;}
	.st84{fill:#FFFFFF;stroke:#FFFFFF;stroke-width:0.5;stroke-miterlimit:10;}
	.st85{display:none;fill:#A9A8A9;stroke:#FFFFFF;stroke-width:3.1943;stroke-linejoin:round;stroke-miterlimit:10;}
	.st86{fill:#9ECF7C;}
	.st87{fill:none;stroke:#FFFFFF;stroke-width:4.0465;stroke-linecap:round;stroke-miterlimit:10;}
	.st88{fill:none;stroke:#FFFFFF;stroke-width:4.0465;stroke-linecap:round;stroke-linejoin:round;stroke-miterlimit:10;}
	.st89{display:none;fill:#004987;}
	.st90{fill:none;stroke:#FFFFFF;stroke-width:4;stroke-miterlimit:10;}
	.st91{display:inline;fill:none;stroke:#FFFFFF;stroke-width:4;stroke-linecap:round;stroke-miterlimit:10;}
	
		.st92{display:none;fill:none;stroke:#FFFFFF;stroke-width:4.4123;stroke-linecap:round;stroke-linejoin:round;stroke-miterlimit:10;}
	.st93{display:none;fill:#FFFFFF;stroke:#FFFFFF;stroke-width:2.2464;stroke-miterlimit:10;}
	
		.st94{display:inline;fill:none;stroke:#FFFFFF;stroke-width:4.4123;stroke-linecap:round;stroke-linejoin:round;stroke-miterlimit:10;}
</style>
<g id="WorkableArtwork" class="st0">
</g>
<g id="Labels">
	<rect y="238.5" class="st72" width="224.2" height="21.7"/>
	<text transform="matrix(1 0 0 1 41.9376 248.4158)" class="st78 st79 st80">Tankless Hot Water Heater</text>
</g>
<g id="Icons">
</g>
<g id="Fourth_Tier_-_Optional_Features">
	<circle class="st3" cx="113.5" cy="130.2" r="107.1"/>
	<g>
		<path class="st10" d="M169.1,119.7c0-5.5-1.8-9.3-5.5-11.2c-3-1.6-6.4-1.6-9.3-1.6c0,0,0,0-0.1,0H74.6c0,0,0,0,0,0
			c-2.5,0-5.3,0-7.4-1.1c-0.8-0.4-3.4-1.8-3.4-7.7s2.5-7.2,3.4-7.7c2.1-1.1,4.9-1.1,7.4-1.1c0,0,0,0,0,0h79.7c0,0,0,0,0,0
			c2.8,0,6.3,0,9.3-1.6c3.6-1.9,5.5-5.7,5.5-11.2s-1.8-9.3-5.5-11.2c-3-1.6-6.5-1.6-9.3-1.6c0,0,0,0,0,0H61.8c-1.1,0-2,0.9-2,2
			s0.9,2,2,2h92.5c0,0,0,0,0,0c2.5,0,5.3,0,7.4,1.1c0.8,0.4,3.4,1.8,3.4,7.7s-2.5,7.2-3.4,7.7c-2.1,1.1-4.9,1.1-7.4,1.1c0,0,0,0,0,0
			H74.6c0,0,0,0,0,0c-2.8,0-6.3,0-9.3,1.6c-3.6,1.9-5.5,5.7-5.5,11.2s1.8,9.3,5.5,11.2c3,1.6,6.5,1.6,9.3,1.6c0,0,0,0,0,0h79.7
			c0,0,0,0,0,0c2.5,0,5.3,0,7.4,1.1c0.8,0.4,3.4,1.8,3.4,7.7s-2.5,7.2-3.4,7.7c-2.1,1.1-4.9,1.1-7.4,1.1c0,0,0,0,0,0H74.6
			c0,0,0,0,0,0c-2.8,0-6.3,0-9.3,1.6c-3.6,1.9-5.5,5.7-5.5,11.2s1.8,9.3,5.5,11.2c3,1.6,6.4,1.6,9.3,1.6c0,0,0,0,0.1,0h79.7
			c2.5,0,5.3,0,7.4,1.1c0.8,0.4,3.4,1.8,3.4,7.7s-2.5,7.2-3.4,7.7c-2.1,1.1-4.9,1.1-7.4,1.1c0,0,0,0,0,0H74.6c0,0,0,0,0,0
			c-2.8,0-6.3,0-9.3,1.6c-3.6,1.9-5.5,5.7-5.5,11.2s1.8,9.3,5.5,11.2c3,1.6,6.5,1.6,9.3,1.6c0,0,0,0,0,0h92.5c1.1,0,2-0.9,2-2
			s-0.9-2-2-2H74.6c-2.5,0-5.3,0-7.4-1.1c-0.8-0.4-3.4-1.8-3.4-7.7s2.5-7.2,3.4-7.7c2.1-1.1,4.9-1.1,7.4-1.1c0,0,0,0,0.1,0h79.7
			c0,0,0,0,0,0c2.8,0,6.3,0,9.3-1.6c3.6-1.9,5.5-5.7,5.5-11.2s-1.8-9.3-5.5-11.2c-3-1.6-6.5-1.6-9.3-1.6c0,0,0,0,0,0H74.6
			c0,0,0,0,0,0c-2.5,0-5.3,0-7.4-1.1c-0.8-0.4-3.4-1.8-3.4-7.7s2.5-7.2,3.4-7.7c2.1-1.1,4.9-1.1,7.4-1.1c0,0,0,0,0,0h79.7
			c0,0,0,0,0,0c2.8,0,6.3,0,9.3-1.6C167.3,129,169.1,125.2,169.1,119.7z"/>
		<path class="st10" d="M76.1,77.6c0.4-0.4,0.6-0.9,0.6-1.4s-0.2-1-0.6-1.4c-0.1-0.1-0.2-0.2-0.3-0.2c-0.1-0.1-0.2-0.1-0.3-0.2
			c-0.1-0.1-0.2-0.1-0.4-0.1c-0.3,0-0.5,0-0.8,0c-0.1,0-0.2,0.1-0.4,0.1c-0.1,0-0.2,0.1-0.3,0.2c-0.1,0.1-0.2,0.2-0.3,0.2
			c-0.1,0.1-0.2,0.2-0.2,0.3c-0.1,0.1-0.1,0.2-0.2,0.3c0,0.1-0.1,0.2-0.1,0.4c0,0.1,0,0.3,0,0.4c0,0.5,0.2,1,0.6,1.4
			c0.4,0.4,0.9,0.6,1.4,0.6C75.2,78.2,75.7,77.9,76.1,77.6z"/>
		<path class="st10" d="M122,76.2c0-1.1-0.9-2-2-2c-1.1,0-2,0.9-2,2c0,1.1,0.9,2,2,2C121.1,78.2,122,77.3,122,76.2z"/>
		<path class="st10" d="M144.7,76.2c0-1.1-0.9-2-2-2c-1.1,0-2,0.9-2,2c0,1.1,0.9,2,2,2C143.8,78.2,144.7,77.3,144.7,76.2z"/>
		<path class="st10" d="M133.3,76.2c0-1.1-0.9-2-2-2c-1.1,0-2,0.9-2,2c0,1.1,0.9,2,2,2C132.4,78.2,133.3,77.3,133.3,76.2z"/>
		<path class="st10" d="M88,76.2c0-1.1-0.9-2-2-2c-1.1,0-2,0.9-2,2c0,1.1,0.9,2,2,2C87.1,78.2,88,77.3,88,76.2z"/>
		<path class="st10" d="M99.3,76.2c0-1.1-0.9-2-2-2c-1.1,0-2,0.9-2,2c0,1.1,0.9,2,2,2C98.4,78.2,99.3,77.3,99.3,76.2z"/>
		<path class="st10" d="M110.7,76.2c0-1.1-0.9-2-2-2c-1.1,0-2,0.9-2,2c0,1.1,0.9,2,2,2C109.8,78.2,110.7,77.3,110.7,76.2z"/>
		<path class="st10" d="M155.4,77.6c0.4-0.4,0.6-0.9,0.6-1.4s-0.2-1-0.6-1.4c-0.7-0.8-2.1-0.8-2.8,0c-0.4,0.4-0.6,0.9-0.6,1.4
			s0.2,1,0.6,1.4c0.4,0.4,0.9,0.6,1.4,0.6C154.5,78.2,155,77.9,155.4,77.6z"/>
		<path class="st10" d="M75.4,96.2c-0.1,0-0.2-0.1-0.4-0.1c-0.3-0.1-0.5-0.1-0.8,0c-0.1,0-0.2,0.1-0.4,0.1c-0.1,0-0.2,0.1-0.3,0.2
			c-0.1,0.1-0.2,0.1-0.3,0.2c-0.4,0.4-0.6,0.9-0.6,1.4c0,0.3,0,0.5,0.1,0.8c0.1,0.2,0.2,0.5,0.4,0.6c0.1,0.1,0.2,0.2,0.3,0.3
			c0.1,0.1,0.2,0.1,0.3,0.2s0.2,0.1,0.4,0.1c0.1,0,0.3,0,0.4,0s0.3,0,0.4,0c0.1,0,0.3-0.1,0.4-0.1s0.2-0.1,0.3-0.2
			c0.1-0.1,0.2-0.2,0.3-0.3c0.2-0.2,0.3-0.4,0.4-0.6c0.1-0.2,0.1-0.5,0.1-0.8c0-0.5-0.2-1-0.6-1.4c-0.1-0.1-0.2-0.2-0.3-0.2
			C75.7,96.4,75.6,96.3,75.4,96.2z"/>
		<path class="st10" d="M106.7,98.1c0,1.1,0.9,2,2,2c1.1,0,2-0.9,2-2c0-1.1-0.9-2-2-2C107.6,96.1,106.7,97,106.7,98.1z"/>
		<path class="st10" d="M95.3,98.1c0,1.1,0.9,2,2,2c1.1,0,2-0.9,2-2c0-1.1-0.9-2-2-2C96.2,96.1,95.3,97,95.3,98.1z"/>
		<path class="st10" d="M84,98.1c0,1.1,0.9,2,2,2c1.1,0,2-0.9,2-2c0-1.1-0.9-2-2-2C84.9,96.1,84,97,84,98.1z"/>
		<path class="st10" d="M118,98.1c0,1.1,0.9,2,2,2c1.1,0,2-0.9,2-2c0-1.1-0.9-2-2-2C118.9,96.1,118,97,118,98.1z"/>
		<path class="st10" d="M140.7,98.1c0,1.1,0.9,2,2,2c1.1,0,2-0.9,2-2c0-1.1-0.9-2-2-2C141.6,96.1,140.7,97,140.7,98.1z"/>
		<path class="st10" d="M129.3,98.1c0,1.1,0.9,2,2,2c1.1,0,2-0.9,2-2c0-1.1-0.9-2-2-2C130.2,96.1,129.3,97,129.3,98.1z"/>
		<path class="st10" d="M155.7,97c-0.1-0.1-0.1-0.2-0.2-0.3c-0.1-0.1-0.2-0.2-0.3-0.2c-0.1-0.1-0.2-0.1-0.4-0.2s-0.2-0.1-0.4-0.1
			c-0.3-0.1-0.5-0.1-0.8,0c-0.1,0-0.3,0.1-0.4,0.1c-0.1,0-0.2,0.1-0.3,0.2c-0.1,0.1-0.2,0.1-0.3,0.2c-0.4,0.4-0.6,0.9-0.6,1.4
			c0,0.3,0,0.5,0.1,0.8c0.1,0.2,0.2,0.5,0.4,0.6c0.2,0.2,0.4,0.3,0.7,0.4c0.2,0.1,0.5,0.2,0.8,0.2c0.5,0,1-0.2,1.4-0.6
			c0.4-0.4,0.6-0.9,0.6-1.4c0-0.1,0-0.3,0-0.4c0-0.1-0.1-0.2-0.1-0.4C155.8,97.2,155.7,97.1,155.7,97z"/>
		<path class="st10" d="M76.1,121.5c0.4-0.4,0.6-0.9,0.6-1.4c0-0.5-0.2-1-0.6-1.4c-0.1-0.1-0.2-0.2-0.3-0.2
			c-0.1-0.1-0.2-0.1-0.3-0.2c-0.1,0-0.2-0.1-0.4-0.1c-0.3,0-0.5,0-0.8,0c-0.1,0-0.2,0.1-0.4,0.1c-0.1,0-0.2,0.1-0.3,0.2
			c-0.1,0.1-0.2,0.2-0.3,0.2c-0.4,0.4-0.6,0.9-0.6,1.4c0,0.5,0.2,1,0.6,1.4c0.4,0.4,0.9,0.6,1.4,0.6C75.2,122,75.7,121.8,76.1,121.5
			z"/>
		<path class="st10" d="M99.3,120c0-1.1-0.9-2-2-2c-1.1,0-2,0.9-2,2c0,1.1,0.9,2,2,2C98.4,122,99.3,121.1,99.3,120z"/>
		<path class="st10" d="M88,120c0-1.1-0.9-2-2-2c-1.1,0-2,0.9-2,2c0,1.1,0.9,2,2,2C87.1,122,88,121.1,88,120z"/>
		<path class="st10" d="M133.3,120c0-1.1-0.9-2-2-2c-1.1,0-2,0.9-2,2c0,1.1,0.9,2,2,2C132.4,122,133.3,121.1,133.3,120z"/>
		<path class="st10" d="M110.7,120c0-1.1-0.9-2-2-2c-1.1,0-2,0.9-2,2c0,1.1,0.9,2,2,2C109.8,122,110.7,121.1,110.7,120z"/>
		<path class="st10" d="M144.7,120c0-1.1-0.9-2-2-2c-1.1,0-2,0.9-2,2c0,1.1,0.9,2,2,2C143.8,122,144.7,121.1,144.7,120z"/>
		<path class="st10" d="M122,120c0-1.1-0.9-2-2-2c-1.1,0-2,0.9-2,2c0,1.1,0.9,2,2,2C121.1,122,122,121.1,122,120z"/>
		<path class="st10" d="M155.4,121.5c0.4-0.4,0.6-0.9,0.6-1.4c0-0.5-0.2-1-0.6-1.4c-0.1-0.1-0.2-0.2-0.3-0.2
			c-0.1-0.1-0.2-0.1-0.4-0.2s-0.2-0.1-0.4-0.1c-0.3,0-0.5,0-0.8,0c-0.1,0-0.3,0.1-0.4,0.1c-0.1,0-0.2,0.1-0.3,0.2
			c-0.1,0.1-0.2,0.2-0.3,0.2c-0.4,0.4-0.6,0.9-0.6,1.4c0,0.5,0.2,1,0.6,1.4c0.4,0.4,0.9,0.6,1.4,0.6
			C154.5,122,155,121.8,155.4,121.5z"/>
		<path class="st10" d="M76.3,140c-0.1-0.1-0.1-0.2-0.2-0.3c-0.1-0.1-0.2-0.2-0.3-0.2s-0.2-0.1-0.3-0.2c-0.1-0.1-0.2-0.1-0.4-0.1
			c-0.7-0.1-1.3,0.1-1.8,0.5c-0.1,0.1-0.2,0.2-0.2,0.3c-0.1,0.1-0.1,0.2-0.2,0.3c0,0.1-0.1,0.2-0.1,0.4c0,0.1,0,0.3,0,0.4
			c0,0.3,0,0.5,0.1,0.8c0.1,0.2,0.2,0.5,0.4,0.6c0.2,0.2,0.4,0.3,0.6,0.4c0.2,0.1,0.5,0.2,0.8,0.2c0.5,0,1-0.2,1.4-0.6
			c0.2-0.2,0.3-0.4,0.4-0.6c0.1-0.2,0.1-0.5,0.1-0.8c0-0.1,0-0.3,0-0.4c0-0.1-0.1-0.3-0.1-0.4C76.5,140.2,76.4,140.1,76.3,140z"/>
		<path class="st10" d="M129.3,141.1c0,1.1,0.9,2,2,2c1.1,0,2-0.9,2-2c0-1.1-0.9-2-2-2C130.2,139.1,129.3,140,129.3,141.1z"/>
		<path class="st10" d="M118,141.1c0,1.1,0.9,2,2,2c1.1,0,2-0.9,2-2c0-1.1-0.9-2-2-2C118.9,139.1,118,140,118,141.1z"/>
		<path class="st10" d="M140.7,141.1c0,1.1,0.9,2,2,2c1.1,0,2-0.9,2-2c0-1.1-0.9-2-2-2C141.6,139.1,140.7,140,140.7,141.1z"/>
		<path class="st10" d="M95.3,141.1c0,1.1,0.9,2,2,2c1.1,0,2-0.9,2-2c0-1.1-0.9-2-2-2C96.2,139.1,95.3,140,95.3,141.1z"/>
		<path class="st10" d="M84,141.1c0,1.1,0.9,2,2,2c1.1,0,2-0.9,2-2c0-1.1-0.9-2-2-2C84.9,139.1,84,140,84,141.1z"/>
		<path class="st10" d="M106.7,141.1c0,1.1,0.9,2,2,2c1.1,0,2-0.9,2-2c0-1.1-0.9-2-2-2C107.6,139.1,106.7,140,106.7,141.1z"/>
		<path class="st10" d="M155.7,140c-0.1-0.1-0.1-0.2-0.2-0.3c-0.5-0.5-1.1-0.7-1.8-0.5c-0.1,0-0.3,0.1-0.4,0.1
			c-0.1,0-0.2,0.1-0.3,0.2c-0.1,0.1-0.2,0.2-0.3,0.2c-0.1,0.1-0.2,0.2-0.2,0.3c-0.1,0.1-0.1,0.2-0.2,0.3c-0.1,0.1-0.1,0.2-0.1,0.4
			c0,0.1,0,0.3,0,0.4c0,0.3,0,0.5,0.1,0.8c0.1,0.2,0.2,0.5,0.4,0.6c0.2,0.2,0.4,0.3,0.7,0.4c0.2,0.1,0.5,0.2,0.8,0.2
			c0.3,0,0.5,0,0.8-0.2c0.2-0.1,0.5-0.2,0.6-0.4c0.2-0.2,0.3-0.4,0.4-0.6c0.1-0.2,0.2-0.5,0.2-0.8c0-0.1,0-0.3,0-0.4
			c0-0.1-0.1-0.3-0.1-0.4C155.8,140.2,155.7,140.1,155.7,140z"/>
		<path class="st10" d="M74.7,165c0.5,0,1-0.2,1.4-0.6c0.4-0.4,0.6-0.9,0.6-1.4c0-0.1,0-0.3,0-0.4c0-0.1-0.1-0.2-0.1-0.4
			c-0.1-0.1-0.1-0.2-0.2-0.3c-0.1-0.1-0.1-0.2-0.2-0.3c-0.1-0.1-0.2-0.2-0.3-0.2c-0.1-0.1-0.2-0.1-0.3-0.2c-0.1-0.1-0.2-0.1-0.4-0.1
			c-0.3,0-0.5,0-0.8,0c-0.1,0-0.2,0.1-0.4,0.1c-0.1,0-0.2,0.1-0.3,0.2c-0.1,0.1-0.2,0.1-0.3,0.2c-0.1,0.1-0.2,0.2-0.2,0.3
			c-0.1,0.1-0.1,0.2-0.2,0.3s-0.1,0.2-0.1,0.4c0,0.1,0,0.3,0,0.4c0,0.5,0.2,1,0.6,1.4c0.2,0.2,0.4,0.3,0.6,0.4
			C74.2,165,74.4,165,74.7,165z"/>
		<path class="st10" d="M133.3,163c0-1.1-0.9-2-2-2c-1.1,0-2,0.9-2,2c0,1.1,0.9,2,2,2C132.4,165,133.3,164.1,133.3,163z"/>
		<path class="st10" d="M88,163c0-1.1-0.9-2-2-2c-1.1,0-2,0.9-2,2c0,1.1,0.9,2,2,2C87.1,165,88,164.1,88,163z"/>
		<path class="st10" d="M122,163c0-1.1-0.9-2-2-2c-1.1,0-2,0.9-2,2c0,1.1,0.9,2,2,2C121.1,165,122,164.1,122,163z"/>
		<path class="st10" d="M144.7,163c0-1.1-0.9-2-2-2c-1.1,0-2,0.9-2,2c0,1.1,0.9,2,2,2C143.8,165,144.7,164.1,144.7,163z"/>
		<path class="st10" d="M110.7,163c0-1.1-0.9-2-2-2c-1.1,0-2,0.9-2,2c0,1.1,0.9,2,2,2C109.8,165,110.7,164.1,110.7,163z"/>
		<path class="st10" d="M99.3,163c0-1.1-0.9-2-2-2c-1.1,0-2,0.9-2,2c0,1.1,0.9,2,2,2C98.4,165,99.3,164.1,99.3,163z"/>
		<path class="st10" d="M154,165c0.5,0,1-0.2,1.4-0.6c0.4-0.4,0.6-0.9,0.6-1.4c0-0.1,0-0.3,0-0.4c0-0.1-0.1-0.2-0.1-0.4
			c0-0.1-0.1-0.2-0.2-0.3c-0.1-0.1-0.1-0.2-0.2-0.3c-0.1-0.1-0.2-0.2-0.3-0.2c-0.1-0.1-0.2-0.1-0.4-0.2c-0.1-0.1-0.2-0.1-0.4-0.1
			c-0.3,0-0.5,0-0.8,0c-0.1,0-0.3,0.1-0.4,0.1c-0.1,0-0.2,0.1-0.3,0.2c-0.1,0.1-0.2,0.1-0.3,0.2c-0.1,0.1-0.2,0.2-0.2,0.3
			c-0.1,0.1-0.1,0.2-0.2,0.3c-0.1,0.1-0.1,0.2-0.1,0.4c0,0.1,0,0.3,0,0.4c0,0.5,0.2,1,0.6,1.4c0.2,0.2,0.4,0.3,0.7,0.4
			C153.5,165,153.7,165,154,165z"/>
		<path class="st10" d="M73.3,183.1c-0.4,0.4-0.6,0.9-0.6,1.4c0,0.1,0,0.3,0,0.4c0,0.1,0.1,0.2,0.1,0.4c0,0.1,0.1,0.2,0.2,0.3
			c0.1,0.1,0.2,0.2,0.3,0.3c0.2,0.2,0.4,0.3,0.6,0.4c0.2,0.1,0.5,0.2,0.8,0.2c0.1,0,0.3,0,0.4,0c0.1,0,0.3-0.1,0.4-0.1
			c0.1,0,0.2-0.1,0.3-0.2s0.2-0.2,0.3-0.2c0.1-0.1,0.2-0.2,0.2-0.3c0.1-0.1,0.1-0.2,0.2-0.3c0-0.1,0.1-0.2,0.1-0.4
			c0-0.1,0-0.3,0-0.4c0-0.5-0.2-1-0.6-1.4C75.3,182.3,74,182.3,73.3,183.1z"/>
		<path class="st10" d="M106.7,184.5c0,1.1,0.9,2,2,2c1.1,0,2-0.9,2-2c0-1.1-0.9-2-2-2C107.6,182.5,106.7,183.4,106.7,184.5z"/>
		<path class="st10" d="M118,184.5c0,1.1,0.9,2,2,2c1.1,0,2-0.9,2-2c0-1.1-0.9-2-2-2C118.9,182.5,118,183.4,118,184.5z"/>
		<path class="st10" d="M95.3,184.5c0,1.1,0.9,2,2,2c1.1,0,2-0.9,2-2c0-1.1-0.9-2-2-2C96.2,182.5,95.3,183.4,95.3,184.5z"/>
		<path class="st10" d="M84,184.5c0,1.1,0.9,2,2,2c1.1,0,2-0.9,2-2c0-1.1-0.9-2-2-2C84.9,182.5,84,183.4,84,184.5z"/>
		<path class="st10" d="M140.7,184.5c0,1.1,0.9,2,2,2c1.1,0,2-0.9,2-2c0-1.1-0.9-2-2-2C141.6,182.5,140.7,183.4,140.7,184.5z"/>
		<path class="st10" d="M129.3,184.5c0,1.1,0.9,2,2,2c1.1,0,2-0.9,2-2c0-1.1-0.9-2-2-2C130.2,182.5,129.3,183.4,129.3,184.5z"/>
		<path class="st10" d="M152.6,183.1c-0.4,0.4-0.6,0.9-0.6,1.4c0,0.1,0,0.3,0,0.4c0,0.1,0.1,0.2,0.1,0.4c0,0.1,0.1,0.2,0.2,0.3
			c0.1,0.1,0.2,0.2,0.2,0.3c0.1,0.1,0.2,0.2,0.3,0.2c0.1,0.1,0.2,0.1,0.3,0.2c0.1,0.1,0.2,0.1,0.4,0.1c0.1,0,0.3,0,0.4,0
			c0.1,0,0.3,0,0.4,0c0.1,0,0.3-0.1,0.4-0.1c0.1,0,0.2-0.1,0.4-0.2s0.2-0.2,0.3-0.2c0.1-0.1,0.2-0.2,0.2-0.3
			c0.1-0.1,0.1-0.2,0.2-0.3c0.1-0.1,0.1-0.2,0.1-0.4c0-0.1,0-0.3,0-0.4c0-0.5-0.2-1-0.6-1.4C154.7,182.3,153.3,182.3,152.6,183.1z"
			/>
	</g>
</g>
<g id="Third_Tier_-_Features">
</g>
<g id="SecondTier_-_Benefits">
</g>
<g id="First_Tier_-_PrimaryPillars">
</g>
</svg>
