<?xml version="1.0" encoding="utf-8"?>
<!-- Generator: Adobe Illustrator 19.1.0, SVG Export Plug-In . SVG Version: 6.00 Build 0)  -->
<svg version="1.1" xmlns="http://www.w3.org/2000/svg" xmlns:xlink="http://www.w3.org/1999/xlink" x="0px" y="0px"
	 viewBox="0 0 226 261.3" style="enable-background:new 0 0 226 261.3;" xml:space="preserve">
<style type="text/css">
	.st0{display:none;}
	.st1{display:inline;}
	.st2{fill:none;stroke:#004987;stroke-width:4;stroke-miterlimit:10;}
	.st3{fill:#004987;}
	.st4{display:inline;fill:none;stroke:#004987;stroke-width:3.114;stroke-linejoin:round;stroke-miterlimit:10;}
	
		.st5{display:inline;fill:none;stroke:#004987;stroke-width:3.114;stroke-linecap:round;stroke-linejoin:round;stroke-miterlimit:10;}
	.st6{display:inline;fill:#004987;}
	.st7{fill:none;stroke:#FFFFFF;stroke-width:4;stroke-linecap:round;stroke-linejoin:round;stroke-miterlimit:10;}
	.st8{fill:none;stroke:#FFFFFF;stroke-width:4;stroke-linecap:round;stroke-linejoin:round;}
	.st9{fill:none;stroke:#FFFFFF;stroke-width:4;stroke-linecap:round;stroke-linejoin:round;stroke-dasharray:0,11.3326;}
	.st10{fill:#FFFFFF;}
	.st11{fill:none;stroke:#FFFFFF;stroke-width:4;stroke-linejoin:round;stroke-miterlimit:10;}
	.st12{display:inline;fill:#004987;stroke:#FFFFFF;stroke-width:4;stroke-linejoin:round;stroke-miterlimit:10;}
	.st13{display:inline;fill:none;stroke:#FFFFFF;stroke-width:2;stroke-linecap:round;stroke-linejoin:round;stroke-miterlimit:10;}
	.st14{display:inline;fill:none;stroke:#FFFFFF;stroke-width:4;stroke-linejoin:round;stroke-miterlimit:10;}
	.st15{display:inline;fill:#A9A8A9;}
	.st16{display:inline;fill:#FFFFFF;}
	.st17{fill:#A9A8A9;stroke:#FFFFFF;stroke-width:3.1943;stroke-linejoin:round;stroke-miterlimit:10;}
	.st18{fill:none;stroke:#A9A8A9;stroke-width:3.1943;stroke-linecap:round;stroke-linejoin:round;stroke-miterlimit:10;}
	.st19{display:inline;fill:#A9A8A9;stroke:#FFFFFF;stroke-width:5.9435;stroke-linejoin:round;stroke-miterlimit:10;}
	.st20{fill:#A9A8A9;stroke:#FFFFFF;stroke-width:5.9435;stroke-linejoin:round;stroke-miterlimit:10;}
	.st21{fill:#A9A8A9;}
	.st22{display:inline;fill:none;stroke:#FFFFFF;stroke-width:5.0435;stroke-linecap:round;stroke-miterlimit:10;}
	.st23{fill:none;stroke:#FFFFFF;stroke-width:5.0435;stroke-linecap:round;stroke-miterlimit:10;}
	.st24{display:inline;fill:none;stroke:#58595B;stroke-width:3;stroke-miterlimit:10;}
	.st25{display:inline;fill:none;stroke:#FFFFFF;stroke-width:5.0435;stroke-miterlimit:10;}
	.st26{display:inline;fill:#FFFFFF;stroke:#FFFFFF;stroke-width:0.75;stroke-miterlimit:10;}
	.st27{display:inline;fill:none;stroke:#FFFFFF;stroke-width:5;stroke-linecap:round;stroke-linejoin:round;stroke-miterlimit:10;}
	.st28{display:inline;fill:none;stroke:#FFFFFF;stroke-width:3.6286;stroke-miterlimit:10;}
	
		.st29{display:inline;fill:none;stroke:#FFFFFF;stroke-width:3.6286;stroke-linecap:round;stroke-linejoin:round;stroke-miterlimit:10;}
	.st30{fill:none;stroke:#FFFFFF;stroke-width:4.0259;stroke-miterlimit:10;}
	
		.st31{display:inline;fill:none;stroke:#FFFFFF;stroke-width:4.0186;stroke-linecap:round;stroke-linejoin:round;stroke-miterlimit:10;}
	.st32{display:inline;fill:none;stroke:#FFFFFF;stroke-width:3.429;stroke-linecap:round;stroke-miterlimit:10;}
	.st33{fill:none;stroke:#FFFFFF;stroke-width:3.429;stroke-linecap:round;stroke-miterlimit:10;}
	.st34{fill:none;stroke:#FFFFFF;stroke-width:3.429;stroke-miterlimit:10;}
	.st35{fill:none;stroke:#FFFFFF;stroke-width:3.429;stroke-linecap:round;stroke-linejoin:round;stroke-miterlimit:10;}
	.st36{fill:none;stroke:#FFFFFF;stroke-width:4;stroke-linecap:round;stroke-miterlimit:10;}
	.st37{display:inline;fill:#9ECF7C;}
	.st38{fill:#A9A8A9;stroke:#FFFFFF;stroke-width:4.0369;stroke-linecap:round;stroke-miterlimit:10;}
	
		.st39{display:inline;fill:none;stroke:#FFFFFF;stroke-width:3.966;stroke-linecap:round;stroke-linejoin:round;stroke-miterlimit:10;}
	.st40{fill:#A9A8A9;stroke:#FFFFFF;stroke-width:3.1476;stroke-linecap:round;stroke-miterlimit:10;}
	
		.st41{display:inline;fill:none;stroke:#FFFFFF;stroke-width:2.876;stroke-linecap:round;stroke-linejoin:round;stroke-miterlimit:10;}
	.st42{fill:none;stroke:#FFFFFF;stroke-width:4.3508;stroke-linecap:round;stroke-linejoin:round;stroke-miterlimit:10;}
	.st43{fill:none;stroke:#FFFFFF;stroke-width:5.2742;stroke-linecap:round;stroke-miterlimit:10;}
	.st44{fill:none;stroke:#FFFFFF;stroke-width:1.904;stroke-linecap:round;stroke-linejoin:round;stroke-miterlimit:10;}
	.st45{display:inline;fill:none;stroke:#FFFFFF;stroke-width:2.3081;stroke-linecap:round;stroke-miterlimit:10;}
	
		.st46{display:inline;fill:#A9A8A9;stroke:#FFFFFF;stroke-width:6;stroke-linecap:round;stroke-linejoin:round;stroke-miterlimit:10;}
	.st47{fill:none;stroke:#FFFFFF;stroke-width:6;stroke-linecap:round;stroke-linejoin:round;stroke-miterlimit:10;}
	.st48{fill:#A9A8A9;stroke:#FFFFFF;stroke-width:4.36;stroke-linejoin:round;stroke-miterlimit:10;}
	.st49{fill:#A9A8A9;stroke:#FFFFFF;stroke-width:4.36;stroke-linecap:round;stroke-linejoin:round;stroke-miterlimit:10;}
	.st50{fill:none;stroke:#A9A8A9;stroke-width:4;stroke-linecap:round;stroke-linejoin:round;stroke-miterlimit:10;}
	.st51{display:inline;fill:none;stroke:#FFFFFF;stroke-width:4;stroke-linecap:round;stroke-linejoin:round;stroke-miterlimit:10;}
	.st52{fill:#004987;stroke:#FFFFFF;stroke-width:4;stroke-linejoin:round;stroke-miterlimit:10;}
	.st53{fill:#6D6E71;}
	.st54{display:inline;fill:none;stroke:#FFFFFF;stroke-width:3.2247;stroke-linejoin:round;stroke-miterlimit:10;}
	.st55{display:inline;fill:none;stroke:#FFFFFF;stroke-width:3.6491;stroke-linejoin:round;stroke-miterlimit:10;}
	.st56{fill:#004987;stroke:#FFFFFF;stroke-width:4;stroke-linecap:round;stroke-linejoin:round;stroke-miterlimit:10;}
	.st57{fill:#A9A8A9;stroke:#FFFFFF;stroke-width:4;stroke-linejoin:round;stroke-miterlimit:10;}
	.st58{fill:#A9A8A9;stroke:#FFFFFF;stroke-width:4;stroke-linecap:round;stroke-linejoin:round;stroke-miterlimit:10;}
	.st59{display:inline;fill:#A9A8A9;stroke:#FFFFFF;stroke-width:4;stroke-linejoin:round;stroke-miterlimit:10;}
	.st60{display:inline;fill:#40B4E5;}
	.st61{display:inline;fill:#A4D55D;}
	.st62{display:inline;opacity:0.15;}
	.st63{opacity:0.15;}
	.st64{clip-path:url(#SVGID_2_);}
	.st65{clip-path:url(#SVGID_4_);}
	.st66{clip-path:url(#SVGID_6_);}
	.st67{fill:#004987;stroke:#FFFFFF;stroke-width:5.2097;stroke-linecap:round;stroke-linejoin:round;stroke-miterlimit:10;}
	.st68{fill:none;stroke:#FFFFFF;stroke-width:5.2097;stroke-linecap:round;stroke-linejoin:round;stroke-miterlimit:10;}
	.st69{clip-path:url(#SVGID_8_);}
	.st70{fill:#0065A4;}
	.st71{fill:#A4D55D;}
	.st72{fill:none;}
	.st73{fill:none;stroke:#FFFFFF;stroke-width:4.4123;stroke-linecap:round;stroke-linejoin:round;stroke-miterlimit:10;}
	.st74{display:inline;fill:#FFFFFF;stroke:#FFFFFF;stroke-width:0.5;stroke-miterlimit:10;}
	
		.st75{display:inline;fill:#004987;stroke:#FFFFFF;stroke-width:5.2097;stroke-linecap:round;stroke-linejoin:round;stroke-miterlimit:10;}
	
		.st76{display:inline;fill:none;stroke:#FFFFFF;stroke-width:5.2097;stroke-linecap:round;stroke-linejoin:round;stroke-miterlimit:10;}
	.st77{display:inline;fill:#6D6E71;}
	.st78{font-family:'FuturaStd-Book';}
	.st79{font-size:12px;}
	.st80{fill:#40B4E5;}
	.st81{fill:none;stroke:#FFFFFF;stroke-width:3;stroke-linecap:round;stroke-linejoin:round;stroke-miterlimit:10;}
	.st82{fill:none;stroke:#FFFFFF;stroke-width:3.1061;stroke-linecap:round;stroke-linejoin:round;stroke-miterlimit:10;}
	.st83{fill:#FFFFFF;stroke:#FFFFFF;stroke-width:0.5;stroke-miterlimit:10;}
	.st84{display:none;fill:#A9A8A9;stroke:#FFFFFF;stroke-width:3.1943;stroke-linejoin:round;stroke-miterlimit:10;}
	.st85{fill:#9ECF7C;}
	.st86{fill:none;stroke:#FFFFFF;stroke-width:4.0465;stroke-linecap:round;stroke-miterlimit:10;}
	.st87{fill:none;stroke:#FFFFFF;stroke-width:4.0465;stroke-linecap:round;stroke-linejoin:round;stroke-miterlimit:10;}
	.st88{display:none;fill:#004987;}
	.st89{fill:none;stroke:#FFFFFF;stroke-width:4;stroke-miterlimit:10;}
	.st90{display:inline;fill:none;stroke:#FFFFFF;stroke-width:4;stroke-linecap:round;stroke-miterlimit:10;}
	
		.st91{display:none;fill:none;stroke:#FFFFFF;stroke-width:4.4123;stroke-linecap:round;stroke-linejoin:round;stroke-miterlimit:10;}
	.st92{display:none;fill:#FFFFFF;stroke:#FFFFFF;stroke-width:2.2464;stroke-miterlimit:10;}
	
		.st93{display:inline;fill:none;stroke:#FFFFFF;stroke-width:4.4123;stroke-linecap:round;stroke-linejoin:round;stroke-miterlimit:10;}
</style>
<g id="WorkableArtwork" class="st0">
	<circle class="st15" cx="113.3" cy="113.5" r="107.1"/>
	<path class="st16" d="M172.4,91.6c-3-8-7.4-15.1-13.2-21.3c-5.6-5.9-12.2-10.7-19.6-14.1c-7.4-3.4-15.3-5.3-23.5-5.7
		c-8.4-0.4-16.7,0.9-24.7,3.9c-8,3-15.1,7.4-21.3,13.2c-5.9,5.6-10.7,12.2-14.1,19.6c-3.4,7.4-5.3,15.3-5.7,23.5
		c-0.4,8.4,0.9,16.7,3.9,24.7c3,8,7.4,15.1,13.2,21.3c5.6,5.9,12.2,10.7,19.6,14.1c7.4,3.4,15.3,5.3,23.5,5.7c0.9,0,1.9,0.1,2.8,0.1
		c7.5,0,14.8-1.3,21.9-4c8-3,15.1-7.4,21.3-13.2c5.9-5.6,10.7-12.2,14.1-19.6c3.4-7.4,5.3-15.3,5.7-23.5
		C176.7,107.9,175.4,99.5,172.4,91.6z M171.3,116.1c-0.1,3-0.5,5.9-1.1,8.8l-17.1,6.3c-0.3-8-1.9-17.3-5.7-28.2l20.9-7.8
		C170.6,102,171.6,109,171.3,116.1z M58.3,131.8C56,125,55,118,55.4,110.9c0.1-3.1,0.5-6.2,1.2-9.2L75,94.9c0.3,8,2.1,17.4,6.1,28.4
		L58.3,131.8z M103.1,80.2L95,58.4c0.4,0.2,0.8,0.3,1.3,0.3c0.8-0.1,14.8-1.8,29,13.2L103.1,80.2z M128.2,75.2
		c5,6,9.8,14.3,14.1,25.4l-27.8,10.3l-10-27L128.2,75.2z M91.6,60.7l7.7,20.9L79,89.1C79.8,71.1,88.9,62.8,91.6,60.7z M78.9,93.4
		l21.8-8.1l10,27l-25.9,9.6C80.8,110.7,79.1,101.2,78.9,93.4z M112.1,116.1l9.9,26.7l-21.4,7.9c-5.1-6-10.1-14.1-14.4-25
		L112.1,116.1z M123.4,146.5l7.8,21.1c-3.5,0-15.5-1.1-27.7-13.7L123.4,146.5z M136.1,166.1c-0.4,0.3-0.6,0.6-0.7,1l-8.2-22
		l21.9-8.1C147.9,157.4,136.8,165.6,136.1,166.1z M125.8,141.4l-9.9-26.7l27.8-10.3c3.9,11.1,5.4,20.5,5.5,28.3L125.8,141.4z
		 M155.6,73.7c4.9,5.2,8.7,11.1,11.4,17.7l-20.9,7.8c-4.2-11-9-19.3-13.9-25.5l16.6-6.2C151.2,69.4,153.5,71.5,155.6,73.7z
		 M113.3,55.5c0.9,0,1.7,0,2.6,0.1c7.5,0.3,14.8,2.1,21.6,5.2c2.5,1.2,4.9,2.5,7.3,4l-15.4,5.7c-8-9-16.2-12.9-22.5-14.6
		C109,55.6,111.2,55.5,113.3,55.5z M73.6,71.2c2.9-2.8,6.1-5.2,9.5-7.2c-3.9,5.3-7.9,13.9-8.2,26.7L57.7,97c0.8-2.6,1.8-5.2,2.9-7.7
		C63.7,82.4,68.1,76.4,73.6,71.2z M71.1,153.3c-4.9-5.2-8.7-11.1-11.4-17.7l22.8-8.5c4.2,10.8,9.1,18.9,14.1,25.1l-19,7
		C75.3,157.4,73.1,155.4,71.1,153.3z M110.8,171.5c-7.5-0.3-14.8-2.1-21.6-5.2c-2.6-1.2-5.2-2.6-7.6-4.2l17.8-6.6
		c8.8,9.7,17.8,13.6,24.2,15.2C119.3,171.3,115.1,171.6,110.8,171.5z M153.1,155.7c-2.4,2.3-5,4.3-7.8,6.2c3.7-5.4,7.5-14,7.9-26.4
		l15.9-5.9c-0.8,2.8-1.8,5.5-3,8.1C162.9,144.5,158.6,150.6,153.1,155.7z"/>
</g>
<g id="Labels">
	<rect y="229.2" class="st72" width="226" height="29.1"/>
	<text transform="matrix(1 0 0 1 79.9402 239.1287)" class="st0"><tspan x="0" y="0" class="st77 st78 st79">First Full EPA </tspan><tspan x="-49.2" y="14.4" class="st77 st78 st79">Triple-Certified National Builder</tspan></text>
</g>
<g id="Icons">
</g>
<g id="Fourth_Tier_-_Optional_Features">
</g>
<g id="Third_Tier_-_Features">
	<g>
		<circle class="st21" cx="113.7" cy="132.8" r="107.1"/>
		<g>
			<polygon class="st57" points="80.2,189 80.2,145.1 44.5,145.1 44.5,189 62.3,174.9 			"/>
			<polygon class="st57" points="62.3,89.1 71.6,86.5 77.9,93.7 87.1,96.5 88.6,105.9 94.8,113.3 90.9,122 92.2,131.6 84.2,136.8 
				80.1,145.5 70.5,145.6 62.3,150.8 54.2,145.6 44.6,145.5 40.5,136.8 32.5,131.6 33.8,122 29.9,113.3 36.1,105.9 37.5,96.5 
				46.7,93.7 53.1,86.5 			"/>
			<path class="st58" d="M75.4,129.2c-3.1,3.8-7.8,6.2-13,6.2c-9.3,0-16.8-7.5-16.8-16.8s7.5-16.8,16.8-16.8c1.1,0,2.1,0.1,3.1,0.3"
				/>
		</g>
		<g>
			<polygon class="st57" points="147.2,189 147.2,145.1 182.8,145.1 182.8,189 165,174.9 			"/>
			<polygon class="st57" points="165,89.1 155.8,86.5 149.4,93.7 140.2,96.5 138.7,105.9 132.5,113.3 136.4,122 135.2,131.6 
				143.2,136.8 147.3,145.5 156.9,145.6 165,150.8 173.1,145.6 182.7,145.5 186.8,136.8 194.8,131.6 193.6,122 197.5,113.3 
				191.3,105.9 189.8,96.5 180.6,93.7 174.2,86.5 			"/>
			<path class="st58" d="M152,129.2c3.1,3.8,7.8,6.2,13,6.2c9.3,0,16.8-7.5,16.8-16.8s-7.5-16.8-16.8-16.8c-1.1,0-2.1,0.1-3.1,0.3"
				/>
		</g>
		<g>
			<polygon class="st57" points="136.1,203.2 136.1,135.1 91.4,135.1 91.4,203.2 113.8,185.6 			"/>
			<g>
				<polygon class="st57" points="113.8,64.9 125.4,61.6 133.4,70.6 144.9,74.2 146.7,86.1 154.5,95.2 149.6,106.3 151.2,118.2 
					141.2,124.8 136,135.7 124,135.8 113.8,142.3 103.6,135.8 91.5,135.7 86.4,124.8 76.4,118.2 78,106.3 73.1,95.2 80.9,86.1 
					82.7,74.2 94.2,70.6 102.2,61.6 				"/>
				<circle class="st57" cx="113.8" cy="101.9" r="21"/>
			</g>
		</g>
	</g>
</g>
<g id="SecondTier_-_Benefits">
</g>
<g id="First_Tier_-_PrimaryPillars">
</g>
</svg>
