<?xml version="1.0" encoding="utf-8"?>
<!-- Generator: Adobe Illustrator 19.1.0, SVG Export Plug-In . SVG Version: 6.00 Build 0)  -->
<svg version="1.1" xmlns="http://www.w3.org/2000/svg" xmlns:xlink="http://www.w3.org/1999/xlink" x="0px" y="0px"
	 viewBox="0 0 226 263.5" style="enable-background:new 0 0 226 263.5;" xml:space="preserve">
<style type="text/css">
	.st0{display:none;}
	.st1{display:inline;}
	.st2{fill:none;stroke:#004987;stroke-width:4;stroke-miterlimit:10;}
	.st3{fill:#004987;}
	.st4{display:inline;fill:none;stroke:#004987;stroke-width:3.114;stroke-linejoin:round;stroke-miterlimit:10;}
	
		.st5{display:inline;fill:none;stroke:#004987;stroke-width:3.114;stroke-linecap:round;stroke-linejoin:round;stroke-miterlimit:10;}
	.st6{display:inline;fill:#004987;}
	.st7{fill:none;stroke:#FFFFFF;stroke-width:4;stroke-linecap:round;stroke-linejoin:round;stroke-miterlimit:10;}
	.st8{fill:none;stroke:#FFFFFF;stroke-width:4;stroke-linecap:round;stroke-linejoin:round;}
	.st9{fill:none;stroke:#FFFFFF;stroke-width:4;stroke-linecap:round;stroke-linejoin:round;stroke-dasharray:0,11.3326;}
	.st10{fill:#FFFFFF;}
	.st11{fill:none;stroke:#FFFFFF;stroke-width:4;stroke-linejoin:round;stroke-miterlimit:10;}
	.st12{display:inline;fill:#004987;stroke:#FFFFFF;stroke-width:4;stroke-linejoin:round;stroke-miterlimit:10;}
	.st13{display:inline;fill:none;stroke:#FFFFFF;stroke-width:2;stroke-linecap:round;stroke-linejoin:round;stroke-miterlimit:10;}
	.st14{display:inline;fill:none;stroke:#FFFFFF;stroke-width:4;stroke-linejoin:round;stroke-miterlimit:10;}
	.st15{display:inline;fill:#A9A8A9;}
	.st16{display:inline;fill:#FFFFFF;}
	.st17{fill:#A9A8A9;stroke:#FFFFFF;stroke-width:3.1943;stroke-linejoin:round;stroke-miterlimit:10;}
	.st18{fill:none;stroke:#A9A8A9;stroke-width:3.1943;stroke-linecap:round;stroke-linejoin:round;stroke-miterlimit:10;}
	.st19{display:inline;fill:#A9A8A9;stroke:#FFFFFF;stroke-width:5.9435;stroke-linejoin:round;stroke-miterlimit:10;}
	.st20{fill:#A9A8A9;stroke:#FFFFFF;stroke-width:5.9435;stroke-linejoin:round;stroke-miterlimit:10;}
	.st21{fill:#A9A8A9;}
	.st22{display:inline;fill:none;stroke:#FFFFFF;stroke-width:5.0435;stroke-linecap:round;stroke-miterlimit:10;}
	.st23{fill:none;stroke:#FFFFFF;stroke-width:5.0435;stroke-linecap:round;stroke-miterlimit:10;}
	.st24{display:inline;fill:none;stroke:#58595B;stroke-width:3;stroke-miterlimit:10;}
	.st25{display:inline;fill:none;stroke:#FFFFFF;stroke-width:5.0435;stroke-miterlimit:10;}
	.st26{display:inline;fill:#FFFFFF;stroke:#FFFFFF;stroke-width:0.75;stroke-miterlimit:10;}
	.st27{display:inline;fill:none;stroke:#FFFFFF;stroke-width:5;stroke-linecap:round;stroke-linejoin:round;stroke-miterlimit:10;}
	.st28{display:inline;fill:none;stroke:#FFFFFF;stroke-width:3.6286;stroke-miterlimit:10;}
	
		.st29{display:inline;fill:none;stroke:#FFFFFF;stroke-width:3.6286;stroke-linecap:round;stroke-linejoin:round;stroke-miterlimit:10;}
	.st30{fill:none;stroke:#FFFFFF;stroke-width:4.0259;stroke-miterlimit:10;}
	
		.st31{display:inline;fill:none;stroke:#FFFFFF;stroke-width:4.0186;stroke-linecap:round;stroke-linejoin:round;stroke-miterlimit:10;}
	.st32{display:inline;fill:none;stroke:#FFFFFF;stroke-width:3.429;stroke-linecap:round;stroke-miterlimit:10;}
	.st33{fill:none;stroke:#FFFFFF;stroke-width:3.429;stroke-linecap:round;stroke-miterlimit:10;}
	.st34{fill:none;stroke:#FFFFFF;stroke-width:3.429;stroke-miterlimit:10;}
	.st35{fill:none;stroke:#FFFFFF;stroke-width:3.429;stroke-linecap:round;stroke-linejoin:round;stroke-miterlimit:10;}
	.st36{fill:none;stroke:#FFFFFF;stroke-width:4;stroke-linecap:round;stroke-miterlimit:10;}
	.st37{display:inline;fill:#9ECF7C;}
	.st38{fill:#A9A8A9;stroke:#FFFFFF;stroke-width:4.0369;stroke-linecap:round;stroke-miterlimit:10;}
	
		.st39{display:inline;fill:none;stroke:#FFFFFF;stroke-width:3.966;stroke-linecap:round;stroke-linejoin:round;stroke-miterlimit:10;}
	.st40{fill:#A9A8A9;stroke:#FFFFFF;stroke-width:3.1476;stroke-linecap:round;stroke-miterlimit:10;}
	
		.st41{display:inline;fill:none;stroke:#FFFFFF;stroke-width:2.876;stroke-linecap:round;stroke-linejoin:round;stroke-miterlimit:10;}
	.st42{fill:none;stroke:#FFFFFF;stroke-width:4.3508;stroke-linecap:round;stroke-linejoin:round;stroke-miterlimit:10;}
	.st43{fill:none;stroke:#FFFFFF;stroke-width:5.2742;stroke-linecap:round;stroke-miterlimit:10;}
	.st44{fill:none;stroke:#FFFFFF;stroke-width:1.904;stroke-linecap:round;stroke-linejoin:round;stroke-miterlimit:10;}
	.st45{display:inline;fill:none;stroke:#FFFFFF;stroke-width:2.3081;stroke-linecap:round;stroke-miterlimit:10;}
	
		.st46{display:inline;fill:#A9A8A9;stroke:#FFFFFF;stroke-width:6;stroke-linecap:round;stroke-linejoin:round;stroke-miterlimit:10;}
	.st47{fill:none;stroke:#FFFFFF;stroke-width:6;stroke-linecap:round;stroke-linejoin:round;stroke-miterlimit:10;}
	.st48{fill:#A9A8A9;stroke:#FFFFFF;stroke-width:4.36;stroke-linejoin:round;stroke-miterlimit:10;}
	.st49{fill:#A9A8A9;stroke:#FFFFFF;stroke-width:4.36;stroke-linecap:round;stroke-linejoin:round;stroke-miterlimit:10;}
	.st50{fill:none;stroke:#A9A8A9;stroke-width:4;stroke-linecap:round;stroke-linejoin:round;stroke-miterlimit:10;}
	.st51{display:inline;fill:none;stroke:#FFFFFF;stroke-width:4;stroke-linecap:round;stroke-linejoin:round;stroke-miterlimit:10;}
	.st52{fill:#004987;stroke:#FFFFFF;stroke-width:4;stroke-linejoin:round;stroke-miterlimit:10;}
	.st53{fill:#6D6E71;}
	.st54{display:inline;fill:none;stroke:#FFFFFF;stroke-width:3.2247;stroke-linejoin:round;stroke-miterlimit:10;}
	.st55{display:inline;fill:none;stroke:#FFFFFF;stroke-width:3.6491;stroke-linejoin:round;stroke-miterlimit:10;}
	.st56{fill:#004987;stroke:#FFFFFF;stroke-width:4;stroke-linecap:round;stroke-linejoin:round;stroke-miterlimit:10;}
	.st57{fill:#A9A8A9;stroke:#FFFFFF;stroke-width:4;stroke-linejoin:round;stroke-miterlimit:10;}
	.st58{fill:#A9A8A9;stroke:#FFFFFF;stroke-width:4;stroke-linecap:round;stroke-linejoin:round;stroke-miterlimit:10;}
	.st59{display:inline;fill:#A9A8A9;stroke:#FFFFFF;stroke-width:4;stroke-linejoin:round;stroke-miterlimit:10;}
	.st60{display:inline;fill:#40B4E5;}
	.st61{display:inline;fill:#A4D55D;}
	.st62{display:inline;opacity:0.15;}
	.st63{opacity:0.15;}
	.st64{clip-path:url(#SVGID_2_);}
	.st65{clip-path:url(#SVGID_4_);}
	.st66{clip-path:url(#SVGID_6_);}
	.st67{fill:#004987;stroke:#FFFFFF;stroke-width:5.2097;stroke-linecap:round;stroke-linejoin:round;stroke-miterlimit:10;}
	.st68{fill:none;stroke:#FFFFFF;stroke-width:5.2097;stroke-linecap:round;stroke-linejoin:round;stroke-miterlimit:10;}
	.st69{clip-path:url(#SVGID_8_);}
	.st70{fill:#0065A4;}
	.st71{fill:#A4D55D;}
	.st72{fill:none;}
	.st73{fill:none;stroke:#FFFFFF;stroke-width:4.4123;stroke-linecap:round;stroke-linejoin:round;stroke-miterlimit:10;}
	.st74{display:inline;fill:#FFFFFF;stroke:#FFFFFF;stroke-width:0.5;stroke-miterlimit:10;}
	
		.st75{display:inline;fill:#004987;stroke:#FFFFFF;stroke-width:5.2097;stroke-linecap:round;stroke-linejoin:round;stroke-miterlimit:10;}
	
		.st76{display:inline;fill:none;stroke:#FFFFFF;stroke-width:5.2097;stroke-linecap:round;stroke-linejoin:round;stroke-miterlimit:10;}
	.st77{display:inline;fill:#6D6E71;}
	.st78{display:none;fill:#6D6E71;}
	.st79{font-family:'FuturaStd-Book';}
	.st80{font-size:12px;}
	.st81{fill:#40B4E5;}
	.st82{fill:none;stroke:#FFFFFF;stroke-width:3;stroke-linecap:round;stroke-linejoin:round;stroke-miterlimit:10;}
	.st83{fill:none;stroke:#FFFFFF;stroke-width:3.1061;stroke-linecap:round;stroke-linejoin:round;stroke-miterlimit:10;}
	.st84{fill:#FFFFFF;stroke:#FFFFFF;stroke-width:0.5;stroke-miterlimit:10;}
	.st85{display:none;fill:#A9A8A9;stroke:#FFFFFF;stroke-width:3.1943;stroke-linejoin:round;stroke-miterlimit:10;}
	.st86{fill:#9ECF7C;}
	.st87{fill:none;stroke:#FFFFFF;stroke-width:4.0465;stroke-linecap:round;stroke-miterlimit:10;}
	.st88{fill:none;stroke:#FFFFFF;stroke-width:4.0465;stroke-linecap:round;stroke-linejoin:round;stroke-miterlimit:10;}
	.st89{display:none;fill:#004987;}
	.st90{fill:none;stroke:#FFFFFF;stroke-width:4;stroke-miterlimit:10;}
	.st91{display:inline;fill:none;stroke:#FFFFFF;stroke-width:4;stroke-linecap:round;stroke-miterlimit:10;}
	
		.st92{display:none;fill:none;stroke:#FFFFFF;stroke-width:4.4123;stroke-linecap:round;stroke-linejoin:round;stroke-miterlimit:10;}
	.st93{display:none;fill:#FFFFFF;stroke:#FFFFFF;stroke-width:2.2464;stroke-miterlimit:10;}
	
		.st94{display:inline;fill:none;stroke:#FFFFFF;stroke-width:4.4123;stroke-linecap:round;stroke-linejoin:round;stroke-miterlimit:10;}
</style>
<g id="WorkableArtwork" class="st0">
</g>
<g id="Labels">
	<rect y="239.5" class="st72" width="224.2" height="21.7"/>
	<text transform="matrix(1 0 0 1 43.3477 249.4149)" class="st78 st79 st80">Weather-sensing Irrigation</text>
</g>
<g id="Icons">
</g>
<g id="Fourth_Tier_-_Optional_Features">
	<circle class="st3" cx="113.5" cy="129.8" r="107.1"/>
	<g>
		<path class="st10" d="M98.8,101.7c-1.2-10-11-23.6-11.4-24.2l-0.1-0.1c-0.8-1-2.5-1-3.3,0l-0.1,0.1c-0.4,0.6-10.3,14.2-11.4,24.1
			c-0.8,7,1.3,11,3.2,13.1c2.4,2.6,5.9,4.1,9.9,4.1h0.2c4,0,7.6-1.5,9.9-4.1C97.5,112.6,99.6,108.6,98.8,101.7z M92.5,112
			c-2,2.2-4.8,2.7-6.9,2.7h-0.2c-2,0-4.9-0.5-6.9-2.7c-1.9-2.1-2.6-5.6-2.1-9.9c0.8-6.7,6.3-15.7,9.1-19.9
			c2.8,4.2,8.3,13.2,9.1,19.9C95.2,106.5,94.4,109.9,92.5,112z"/>
		<path class="st10" d="M109.4,90.9h0.1c2.9,0,5.4-1,7-2.9c1.3-1.5,2.8-4.3,2.2-9.1c-0.8-6.7-7.3-15.8-7.6-16.2c0,0-0.1-0.1-0.1-0.1
			c-0.4-0.5-1-0.8-1.6-0.8c0,0,0,0,0,0c-0.6,0-1.2,0.3-1.6,0.8c0,0-0.1,0.1-0.1,0.1c-0.3,0.4-6.8,9.4-7.6,16.2
			c-0.6,4.8,0.9,7.6,2.2,9.1C104,89.9,106.5,90.9,109.4,90.9z M104.2,79.4c0.4-3.8,3.4-8.9,5.2-11.8c2.1,3.2,4.8,8.2,5.2,11.8
			c0.3,2.6-0.1,4.7-1.2,5.9c-1.1,1.3-2.8,1.5-4,1.5h-0.1c-1.2,0-2.8-0.3-4-1.5C104.3,84,103.9,82,104.2,79.4z"/>
		<path class="st10" d="M128.2,167.9v-61.8c0-1.1-0.9-2.1-2.1-2.1h-15.9c-1.1,0-2.1,0.9-2.1,2.1V168c-5.6,3.4-9.4,9.6-9.4,16.7
			c0,1.1,0.9,2.1,2.1,2.1h34.9c1.1,0,2.1-0.9,2.1-2.1C137.8,177.5,134,171.3,128.2,167.9z M108.2,182.6h-5.2
			c0.5-3.8,2.4-7.1,5.2-9.5V182.6z M124.1,182.6h-11.8v-59.8h11.8V182.6z M124.1,118.6h-11.8v-10.5h11.8V118.6z M128.2,182.6v-9.7
			c2.8,2.4,4.8,5.8,5.3,9.7H128.2z"/>
		<path class="st10" d="M134.9,109.1c0.5,0,1.1-0.2,1.5-0.6L155.9,89c0.8-0.8,0.8-2.1,0-2.9c-0.8-0.8-2.1-0.8-2.9,0l-19.5,19.5
			c-0.8,0.8-0.8,2.1,0,2.9C133.9,108.9,134.4,109.1,134.9,109.1z"/>
		<path class="st10" d="M136.4,120.6c-0.8-0.8-2.1-0.8-2.9,0c-0.8,0.8-0.8,2.1,0,2.9l19.5,19.5c0.4,0.4,0.9,0.6,1.5,0.6
			s1.1-0.2,1.5-0.6c0.8-0.8,0.8-2.1,0-2.9L136.4,120.6z"/>
		<path class="st10" d="M157.5,112.7h-22.6c-1.1,0-2.1,0.9-2.1,2.1s0.9,2.1,2.1,2.1h22.6c1.1,0,2.1-0.9,2.1-2.1
			S158.7,112.7,157.5,112.7z"/>
		<path class="st10" d="M91.8,154c-1.1,0-2.1,0.9-2.1,2.1v28.6c0,1.1,0.9,2.1,2.1,2.1s2.1-0.9,2.1-2.1V156
			C93.9,154.9,92.9,154,91.8,154z"/>
		<path class="st10" d="M73.4,148c-1.1,0-2.1,0.9-2.1,2.1v34.6c0,1.1,0.9,2.1,2.1,2.1s2.1-0.9,2.1-2.1V150
			C75.5,148.9,74.6,148,73.4,148z"/>
		<path class="st10" d="M64,165.3c-1.1,0-2.1,0.9-2.1,2.1v17.3c0,1.1,0.9,2.1,2.1,2.1s2.1-0.9,2.1-2.1v-17.3
			C66.1,166.2,65.2,165.3,64,165.3z"/>
		<path class="st10" d="M45.8,165.3c-1.1,0-2.1,0.9-2.1,2.1v17.3c0,1.1,0.9,2.1,2.1,2.1s2.1-0.9,2.1-2.1v-17.3
			C47.9,166.2,46.9,165.3,45.8,165.3z"/>
		<path class="st10" d="M54.4,159.3c-1.1,0-2.1,0.9-2.1,2.1v23.3c0,1.1,0.9,2.1,2.1,2.1s2.1-0.9,2.1-2.1v-23.3
			C56.5,160.2,55.6,159.3,54.4,159.3z"/>
		<path class="st10" d="M82.6,159.3c-1.1,0-2.1,0.9-2.1,2.1v23.3c0,1.1,0.9,2.1,2.1,2.1s2.1-0.9,2.1-2.1v-23.3
			C84.7,160.2,83.8,159.3,82.6,159.3z"/>
		<path class="st10" d="M172.7,156.6c-1.1,0-2.1,0.9-2.1,2.1v25.9c0,1.1,0.9,2.1,2.1,2.1s2.1-0.9,2.1-2.1v-25.9
			C174.8,157.6,173.8,156.6,172.7,156.6z"/>
		<path class="st10" d="M163.3,165.3c-1.1,0-2.1,0.9-2.1,2.1v17.3c0,1.1,0.9,2.1,2.1,2.1s2.1-0.9,2.1-2.1v-17.3
			C165.4,166.2,164.4,165.3,163.3,165.3z"/>
		<path class="st10" d="M145.1,165.3c-1.1,0-2.1,0.9-2.1,2.1v17.3c0,1.1,0.9,2.1,2.1,2.1s2.1-0.9,2.1-2.1v-17.3
			C147.1,166.2,146.2,165.3,145.1,165.3z"/>
		<path class="st10" d="M153.7,159.3c-1.1,0-2.1,0.9-2.1,2.1v23.3c0,1.1,0.9,2.1,2.1,2.1s2.1-0.9,2.1-2.1v-23.3
			C155.8,160.2,154.9,159.3,153.7,159.3z"/>
		<path class="st10" d="M181.9,170.9c-1.1,0-2.1,0.9-2.1,2.1v11.6c0,1.1,0.9,2.1,2.1,2.1s2.1-0.9,2.1-2.1V173
			C184,171.9,183,170.9,181.9,170.9z"/>
	</g>
</g>
<g id="Third_Tier_-_Features">
</g>
<g id="SecondTier_-_Benefits">
</g>
<g id="First_Tier_-_PrimaryPillars">
</g>
</svg>
