<?xml version="1.0" encoding="utf-8"?>
<!-- Generator: Adobe Illustrator 21.0.0, SVG Export Plug-In . SVG Version: 6.00 Build 0)  -->
<svg version="1.1" id="Layer_1" xmlns="http://www.w3.org/2000/svg" xmlns:xlink="http://www.w3.org/1999/xlink" x="0px" y="0px"
	 viewBox="0 0 151.4 138.6" style="enable-background:new 0 0 151.4 138.6;" xml:space="preserve">
<style type="text/css">
	.st0{fill:#FFFFFF;}
</style>
<g>
	<path class="st0" d="M149.6,67.7h-15.9c-1.1,0-2.1-0.6-2.5-1.7c-0.4-1-0.2-2.2,0.6-2.9l9.7-9.7c0.3-0.3,0.5-0.8,0.5-1.3
		c0-0.5-0.2-1-0.5-1.3c-0.7-0.7-1.9-0.7-2.6,0l-16.1,16.1c-0.5,0.5-1.2,0.8-1.9,0.8H93.3c-1.1,0-2.1-0.7-2.5-1.7
		c-0.4-1-0.2-2.1,0.6-2.9l20-20c0.5-0.5,1.2-0.8,1.9-0.8h19.4c1,0,1.8-0.8,1.8-1.9c0-1-0.8-1.9-1.8-1.9h-10.3
		c-1.1,0-2.1-0.7-2.5-1.7c-0.4-1-0.2-2.1,0.6-2.9l10.4-10.4c0.4-0.4,0.5-0.8,0.5-1.3c0-0.5-0.2-1-0.5-1.3c-0.7-0.7-1.9-0.7-2.6,0
		l-10.4,10.4c-0.7,0.7-1.9,1-2.9,0.6c-1-0.4-1.7-1.4-1.7-2.5V19.3c0-1-0.8-1.9-1.9-1.9s-1.9,0.8-1.9,1.9v19.2c0,0.7-0.3,1.4-0.8,1.9
		l-20.1,20c-0.8,0.8-1.9,1-2.9,0.6c-1-0.4-1.7-1.4-1.7-2.5v-29c0-0.7,0.3-1.4,0.8-1.9l16.2-16.2c0.4-0.4,0.5-0.8,0.5-1.3
		c0-0.5-0.2-1-0.5-1.3c-0.7-0.7-1.9-0.7-2.6,0l-9.7,9.7c-0.8,0.8-2,1-2.9,0.6c-1-0.4-1.7-1.4-1.7-2.5V2.4c0-1-0.8-1.9-1.9-1.9
		c-1,0-1.9,0.8-1.9,1.9v134.4c0,1,0.8,1.9,1.9,1.9c1,0,1.9-0.8,1.9-1.9v-17.4c0-1.1,0.7-2.1,1.7-2.5c1-0.4,2.2-0.2,2.9,0.6l9.7,9.7
		c0.7,0.7,1.9,0.7,2.6,0c0.4-0.4,0.5-0.8,0.5-1.3c0-0.5-0.2-1-0.5-1.3L85,108.4c-0.5-0.5-0.8-1.2-0.8-1.9v-26c0-1.1,0.7-2.1,1.7-2.5
		c1-0.4,2.2-0.2,2.9,0.6l20.3,20.3c0.5,0.5,0.8,1.2,0.8,1.9V120c0,1,0.8,1.9,1.9,1.9c1,0,1.9-0.8,1.9-1.9v-10.2
		c0-1.1,0.7-2.1,1.7-2.5c1-0.4,2.2-0.2,2.9,0.6l10.6,10.6c0.7,0.7,1.9,0.7,2.6,0c0.4-0.4,0.5-0.8,0.5-1.3s-0.2-1-0.5-1.3l-10.6-10.6
		c-0.8-0.8-1-1.9-0.6-2.9c0.4-1,1.4-1.7,2.5-1.7h10.3c1,0,1.9-0.8,1.9-1.9c0-1-0.8-1.9-1.9-1.9h-19.3c-0.7,0-1.4-0.3-1.9-0.8
		L91.4,76c-0.8-0.8-1-1.9-0.6-2.9c0.4-1,1.4-1.7,2.5-1.7h27.5c0.7,0,1.4,0.3,1.9,0.8l16.1,16.1c0.7,0.7,1.9,0.7,2.6,0
		c0.3-0.4,0.5-0.8,0.5-1.3c0-0.5-0.2-1-0.5-1.3l-9.7-9.7c-0.8-0.8-1-1.9-0.6-2.9c0.4-1,1.4-1.7,2.5-1.7h15.9c1,0,1.9-0.8,1.9-1.9
		C151.4,68.5,150.6,67.7,149.6,67.7z"/>
	<path class="st0" d="M68.3,2.9c0.2-0.8-0.1-1.6-0.6-2.2c-0.9-0.9-2.4-0.9-3.3,0L49.5,15.4c-0.5,0.5-1.1,0.7-1.9,0.6L27,12.8
		c-0.1,0-0.3,0-0.4,0c-1.2,0-2.1,0.8-2.3,2l-3.3,20.6c-0.1,0.7-0.5,1.3-1.2,1.6L1.3,46.5c-0.6,0.3-1,0.8-1.2,1.4
		c-0.2,0.6-0.1,1.2,0.1,1.8l9.5,18.6c0.3,0.6,0.3,1.4,0,2L0.3,88.9c-0.3,0.6-0.3,1.2-0.1,1.8c0.2,0.6,0.6,1.1,1.2,1.4l18.6,9.5
		c0.6,0.3,1,0.9,1.2,1.6l3.3,20.6c0.2,1.2,1.2,2,2.3,2c0.1,0,0.3,0,0.4,0l20.6-3.3c0.1,0,0.2,0,0.3,0c0.6,0,1.1,0.2,1.5,0.6
		l14.8,14.8c0.7,0.7,1.7,0.9,2.6,0.5c0.9-0.4,1.5-1.2,1.5-2.2V4.5C68.4,4.3,68.2,3.2,68.3,2.9z M63.7,32.9c0,1.1-0.9,2.1-2,2.2
		c-18.1,1.2-32.3,16.3-32.3,34.5c0,18.2,14.2,33.3,32.3,34.5c1.1,0.1,2,1,2,2.2v19c0,0.9-0.5,1.7-1.3,2c-0.3,0.1-0.5,0.2-0.8,0.2
		c-0.6,0-1.1-0.2-1.5-0.6l-8.7-8.7c-0.5-0.5-1.3-0.8-2-0.7l-18.4,2.9c-1.2,0.2-2.3-0.6-2.5-1.8l-2.9-18.4c-0.1-0.7-0.6-1.4-1.3-1.7
		L7.5,89.9c-0.5-0.3-0.9-0.7-1.1-1.3c-0.2-0.6-0.1-1.1,0.1-1.7L15,70.3c0.3-0.7,0.3-1.5,0-2.1L6.5,51.6c-0.3-0.5-0.3-1.1-0.1-1.7
		c0.2-0.6,0.6-1,1.1-1.3l16.6-8.5c0.7-0.3,1.1-1,1.3-1.7L28.3,20c0.2-1.2,1.3-2,2.5-1.8l18.4,2.9c0.8,0.1,1.5-0.1,2-0.7l8.7-8.7
		c0.6-0.6,1.6-0.8,2.4-0.5c0.8,0.3,1.3,1.1,1.3,2V32.9z M63.5,98.7c0,0.6-0.3,1.2-0.7,1.6c-0.4,0.4-0.9,0.6-1.5,0.6
		c-0.1,0-0.2,0-0.2,0c-16-1.6-28.1-15-28.1-31.1c0-15.9,12-29.3,28-31.1c0.6-0.1,1.2,0.1,1.7,0.5c0.5,0.4,0.7,1,0.7,1.6L63.5,98.7z"
		/>
</g>
</svg>
