<?xml version="1.0" encoding="utf-8"?>
<!-- Generator: Adobe Illustrator 21.0.0, SVG Export Plug-In . SVG Version: 6.00 Build 0)  -->
<svg version="1.1" id="Layer_1" xmlns="http://www.w3.org/2000/svg" xmlns:xlink="http://www.w3.org/1999/xlink" x="0px" y="0px"
	 viewBox="0 0 169.9 119.3" style="enable-background:new 0 0 169.9 119.3;" xml:space="preserve">
<style type="text/css">
	.st0{fill:#FFFFFF;}
</style>
<g>
	<g>
		<path class="st0" d="M87,27.5c1.7,0,3.1,1.4,3.1,3.1v1.6c4.2,0.5,7.8,1.9,11.2,4c1.2,0.6,2.2,1.7,2.2,3.5c0,2.2-1.8,4-4,4
			c-0.7,0-1.4-0.2-2.2-0.6c-2.5-1.5-5-2.6-7.4-3.2v13.8c10.9,2.7,15.6,7.1,15.6,14.8c0,7.9-6.2,13.2-15.3,14v4.3
			c0,1.7-1.4,3.1-3.1,3.1s-3.2-1.4-3.2-3.1v-4.5c-5.4-0.6-10.4-2.5-14.8-5.6c-1.2-0.8-1.9-1.9-1.9-3.5c0-2.2,1.7-4,4-4
			c0.9,0,1.7,0.3,2.4,0.8c3.4,2.4,6.7,4.1,10.7,4.8V60.7C73.6,57.9,68.7,54,68.7,45.8c0-7.7,6.1-13,15.1-13.8v-1.5
			C83.8,28.9,85.3,27.5,87,27.5z M84.1,52V39.3c-4.6,0.4-6.9,2.9-6.9,6C77.2,48.4,78.6,50.2,84.1,52z M89.8,62v13.1
			c4.6-0.5,7.1-2.8,7.1-6.3C96.9,65.7,95.3,63.8,89.8,62z"/>
	</g>
	<path class="st0" d="M168.3,86.4c-7.3-2.9-16.3-5.9-26.6-8.6c2.1-6.1,3.2-12.5,3.2-19.2C144.9,26.3,118.6,0,86.3,0
		C53.9,0,27.6,26.3,27.6,58.7c0,6.7,1.1,13.2,3.3,19.3c-12.2,3.2-22.3,6.9-29.3,9.7c-1.3,0.5-2,2.1-1.4,3.4c0.4,1,1.4,1.6,2.4,1.6
		c0.3,0,0.7-0.1,1-0.2c6.9-2.8,17-6.5,29.2-9.7c2,4.5,4.6,8.7,7.8,12.6c-8.6,2.3-14.9,4.9-15.2,5c-0.6,0.2-1.1,0.7-1.3,1.3
		l-6.5,13.8c-0.5,1-0.3,2.1,0.5,2.9c0.5,0.5,1.2,0.8,1.9,0.8c0.3,0,0.6-0.1,0.9-0.2c0.3-0.1,33.7-12.8,66.4-12.8
		c32.7,0,63,12.7,63.3,12.8c1,0.4,2.1,0.2,2.9-0.6c0.7-0.8,0.9-1.9,0.5-2.9l-6.5-13.8c-0.2-0.5-0.6-0.9-1.1-1.2
		c-0.2-0.1-5-2.8-14.5-5.2c3.1-3.9,5.8-8.2,7.8-12.7c10.2,2.7,19.3,5.7,26.6,8.6c1.3,0.5,2.9-0.1,3.4-1.5
		C170.3,88.5,169.6,86.9,168.3,86.4z M86.3,5.2c29.5,0,53.4,24,53.4,53.4c0,17.9-8.8,34.4-23.6,44.4c-3.1-0.5-13-2-28.8-2
		c-16,0-26.7,1.9-30,2.6c-0.3-0.2-0.6-0.4-0.9-0.6c-14.8-10-23.6-26.6-23.6-44.4C32.8,29.2,56.8,5.2,86.3,5.2z M28.3,104.9
		c2.3-0.9,8.6-3.2,16.2-5c1.9,1.9,3.9,3.7,6,5.3c-10.9,2.3-20,5.1-25.6,6.9L28.3,104.9z M146.6,111.9c-5.4-1.9-14-4.7-24.4-6.9
		c2.1-1.6,4-3.3,5.8-5.2c8.4,1.8,13.4,4.1,15.2,4.9L146.6,111.9z"/>
</g>
</svg>
