<?xml version="1.0" encoding="utf-8"?>
<!-- Generator: Adobe Illustrator 21.0.0, SVG Export Plug-In . SVG Version: 6.00 Build 0)  -->
<svg version="1.1" id="Layer_1" xmlns="http://www.w3.org/2000/svg" xmlns:xlink="http://www.w3.org/1999/xlink" x="0px" y="0px"
	 viewBox="0 0 114.5 146.4" style="enable-background:new 0 0 114.5 146.4;" xml:space="preserve">
<style type="text/css">
	.st0{fill:#FFFFFF;}
</style>
<g>
	<path class="st0" d="M112.9,45l-12.1-7.6V15.7c0-3.6-3-6.6-6.6-6.6H78.5V2.5C78.5,1.1,77.4,0,76,0s-2.5,1.1-2.5,2.5v6.6H27.3V2.5
		c0-1.4-1.1-2.5-2.5-2.5s-2.5,1.1-2.5,2.5v6.6H6.6C3,9.1,0,12.1,0,15.7v105.8c0,3.6,3,6.6,6.6,6.6h34.8l-1.6,16.3
		c-0.1,1.3,0.4,2,1.2,2c0.4,0,0.8-0.1,1.3-0.4l14.5-8.7c1.6-0.9,3.6-3,4.6-4.5l2.9-4.6h30c3.6,0,6.6-3,6.6-6.6V70.3l13.1-20.7
		C114.9,48,114.5,46,112.9,45z M6.6,14.1h15.7v5c0,1.4,1.1,2.5,2.5,2.5s2.5-1.1,2.5-2.5v-5h46.3v5c0,1.4,1.1,2.5,2.5,2.5
		c1.4,0,2.5-1.1,2.5-2.5v-5h15.7c0.9,0,1.7,0.8,1.7,1.7v10.7H5V15.7C5,14.8,5.7,14.1,6.6,14.1z M5,121.5V31.4h90.9v7.4l-3.3,5.3
		L90,42.5c-1-0.6-2-0.9-3.1-0.9c-1.9,0-3.8,0.9-4.9,2.7L66.9,68.1c-0.7,1.2-0.4,2.7,0.8,3.4c1.2,0.7,2.7,0.4,3.4-0.8l15.1-23.8
		c0.1-0.2,0.4-0.4,0.7-0.4c0.2,0,0.3,0,0.4,0.1l2.5,1.6l-46.3,73.2c-0.3,0.5-0.6,1-0.8,1.6H6.6C5.7,123.2,5,122.4,5,121.5z
		 M54.1,133l-8.8,5.3l1-10.2c0.1-0.6,0.3-1.6,0.7-2.5l9,5.7C55.4,132,54.7,132.7,54.1,133z M58.9,127.3l-9.4-5.9l38.9-61.5l9.4,5.9
		L58.9,127.3z M95.9,121.5c0,0.9-0.8,1.7-1.7,1.7H67.4l28.5-45V121.5z M100.5,61.6l-9.4-5.9l8.4-13.2l9.4,5.9L100.5,61.6z"/>
	<path class="st0" d="M25.7,60.6c0.5,0.4,1.2,0.6,1.8,0.6c0.7-0.1,1.3-0.4,1.7-0.9l5.8-7.2c0.9-1.1,0.7-2.6-0.4-3.5
		c-1.1-0.9-2.6-0.7-3.5,0.4l-4.2,5.2l-2.2-1.8c-1.1-0.9-2.6-0.7-3.5,0.3c-0.9,1.1-0.7,2.6,0.3,3.5L25.7,60.6z"/>
	<path class="st0" d="M25.7,100.5c0.5,0.4,1.2,0.6,1.8,0.6c0.7-0.1,1.3-0.4,1.7-0.9L35,93c0.9-1.1,0.7-2.6-0.4-3.5
		c-1.1-0.9-2.6-0.7-3.5,0.4l-4.2,5.2l-2.2-1.8c-1.1-0.9-2.6-0.7-3.5,0.3c-0.9,1.1-0.7,2.6,0.3,3.5L25.7,100.5z"/>
	<path class="st0" d="M19.8,70.3h16.5c3.6,0,6.6-3,6.6-6.6V47.1c0-3.6-3-6.6-6.6-6.6H19.8c-3.6,0-6.6,3-6.6,6.6v16.5
		C13.2,67.3,16.2,70.3,19.8,70.3z M18.2,47.1c0-0.9,0.8-1.7,1.7-1.7h16.5c0.9,0,1.7,0.8,1.7,1.7v16.5c0,0.9-0.8,1.7-1.7,1.7H19.8
		c-0.9,0-1.7-0.8-1.7-1.7V47.1z"/>
	<path class="st0" d="M43,103.3V86.8c0-3.6-3-6.6-6.6-6.6H19.8c-3.6,0-6.6,3-6.6,6.6v16.5c0,3.6,3,6.6,6.6,6.6h16.5
		C40,109.9,43,107,43,103.3z M38,103.3c0,0.9-0.8,1.7-1.7,1.7H19.8c-0.9,0-1.7-0.8-1.7-1.7V86.8c0-0.9,0.8-1.7,1.7-1.7h16.5
		c0.9,0,1.7,0.8,1.7,1.7V103.3z"/>
</g>
</svg>
