<?xml version="1.0" encoding="utf-8"?>
<!-- Generator: Adobe Illustrator 19.2.1, SVG Export Plug-In . SVG Version: 6.00 Build 0)  -->
<svg version="1.1" id="Layer_1" xmlns="http://www.w3.org/2000/svg" xmlns:xlink="http://www.w3.org/1999/xlink" x="0px" y="0px"
	 viewBox="0 0 70.2 64.1" style="enable-background:new 0 0 70.2 64.1;" xml:space="preserve">
<style type="text/css">
	.st0{fill:#BBDC96;}
	.st1{fill:none;stroke:#BBDC96;stroke-width:2;stroke-miterlimit:10;}
	.st2{fill:none;}
</style>
<g>
	<path class="st0" d="M60.8,1.7H9.4c-3.8,0-7,3.1-7,7v35.5c0,3.8,3.1,7,7,7h2c0.5,0,0.8,0.4,0.8,0.8v8.3c0,0.8,0.5,1.5,1.3,1.8
		c0.2,0.1,0.5,0.1,0.7,0.1c0.5,0,1.1-0.2,1.4-0.7l9.9-9.4c0.7-0.7,1.6-1,2.6-1h32.7c3.8,0,7-3.1,7-7V8.7C67.8,4.8,64.6,1.7,60.8,1.7
		z M65.7,44.1c0,2.7-2.2,4.9-4.9,4.9H27.3c-1.1,0-2.1,0.4-2.9,1.2L14.3,60v-9.8c0-0.6-0.5-1.1-1.1-1.1H9.4c-2.7,0-4.9-2.2-4.9-4.9
		V8.7c0-2.7,2.2-4.9,4.9-4.9h51.4c2.7,0,4.9,2.2,4.9,4.9V44.1z"/>
</g>
<g>
	<path class="st0" d="M52.1,29.6l-8.9-2.3c-0.6-0.2-1.3,0.1-1.7,0.5l-2,2.5c-3.5-2-6.6-4.5-9.3-7.5l2-2.5c0.4-0.5,0.5-1.2,0.2-1.7
		l-4.1-8.2c-0.3-0.6-0.9-1-1.6-0.9l-0.6,0.1c-2.8,0.3-5.3,1.7-7.1,3.9c0,0,0,0,0,0c-1.9,2.3-2.7,5.2-2.4,8.1
		c0.2,1.9,0.9,3.8,2.1,5.4c5,6.7,11.6,12.1,19.3,15.6c1.8,0.8,3.7,1.1,5.7,0.9c2.9-0.3,5.6-1.7,7.4-4c1.8-2.2,2.6-4.9,2.3-7.7
		L53.3,31C53.2,30.3,52.7,29.7,52.1,29.6z M49.5,38c-1.7,2.1-4.2,3.2-6.9,3.1c-1.1,0-2.3-0.1-3.3-0.5c-7.5-3.4-14.1-8.7-19-15.4
		c-0.6-0.9-0.9-2.1-1.2-3.1c-0.7-2.6-0.1-5.4,1.6-7.4l0,0c1-1.2,3-2.3,4.7-2.8c0.6-0.2,1.2,0.1,1.5,0.6l2.9,5
		c0.3,0.5,0.2,1.2-0.1,1.6l-1.8,2.2c-0.5,0.6-0.5,1.5,0,2.1c3.7,4.4,6.5,6.7,11.6,9.4c0.7,0.4,1.6,0.2,2.1-0.5l1.3-1.8
		c0.3-0.5,0.9-0.7,1.4-0.5l6.4,1.6c0.5,0.1,0.8,0.5,0.7,1C51.2,34.5,50.5,36.7,49.5,38z"/>
</g>
</svg>
