<?xml version="1.0" encoding="utf-8"?>
<!-- Generator: Adobe Illustrator 19.2.1, SVG Export Plug-In . SVG Version: 6.00 Build 0)  -->
<svg version="1.1" id="Layer_1" xmlns="http://www.w3.org/2000/svg" xmlns:xlink="http://www.w3.org/1999/xlink" x="0px" y="0px"
	 viewBox="0 0 70.2 70.5" style="enable-background:new 0 0 70.2 70.5;" xml:space="preserve">
<style type="text/css">
	.st0{fill:#BBDC96;}
	.st1{fill:none;stroke:#BBDC96;stroke-width:2;stroke-miterlimit:10;}
	.st2{fill:none;}
</style>
<path class="st0" d="M66.9,29.1c-1.8-1.7-5.1-2.6-7.7,0l-3-3l-5,5V2.1H1.4v67.1h49.8V52.4l15.7-15.8C69,34.6,69,31.1,66.9,29.1z
	 M49,67.1H3.5V4.3H49v28.9l-3.9,3.9l1.5,1.5l9.6-9.6l1.5,1.5l-24,24l-1,8.7l8.7-1l7.6-7.6V67.1z M35.6,57.4l2.9,2.9l-3.4,0.3
	L35.6,57.4z M63.4,37L40.9,59.6L36.3,55L59,32.4l0.3-0.3l4.5,4.5L63.4,37z M65.4,35.1l-4.5-4.5c0.6-0.6,1.4-0.9,2.3-0.9
	c0.8,0,1.7,0.3,2.3,0.9C66.7,31.8,66.7,33.8,65.4,35.1z"/>
<rect x="6.8" y="29" class="st0" width="39.1" height="2.2"/>
<rect x="6.8" y="38.8" class="st0" width="35.7" height="2.2"/>
<rect x="6.8" y="48.5" class="st0" width="25.5" height="2.2"/>
<rect x="24.7" y="20.4" class="st0" width="21.2" height="2.2"/>
<line class="st1" x1="57.9" y1="31.3" x2="63.7" y2="37.3"/>
<path class="st0" d="M16.5,16.6l-2,2.5c-0.1,0.2-0.4,0.3-0.6,0.3c-0.2,0-0.5,0-0.6-0.2L11.8,18c-0.4-0.3-0.4-0.8-0.1-1.2
	c0.3-0.4,0.8-0.4,1.2-0.1l0.8,0.6l1.5-1.8c0.3-0.4,0.8-0.4,1.2-0.1C16.7,15.7,16.8,16.3,16.5,16.6z"/>
<path class="st0" d="M17.6,11h-7c-1.5,0-2.8,1.3-2.8,2.8v7c0,1.5,1.3,2.8,2.8,2.8h7c1.5,0,2.8-1.3,2.8-2.8v-7
	C20.4,12.3,19.1,11,17.6,11z M18.3,20.8c0,0.4-0.3,0.7-0.7,0.7h-7c-0.4,0-0.7-0.3-0.7-0.7v-7c0-0.4,0.3-0.7,0.7-0.7h7
	c0.4,0,0.7,0.3,0.7,0.7V20.8z"/>
</svg>
