<?xml version="1.0" encoding="utf-8"?>
<!-- Generator: Adobe Illustrator 19.2.1, SVG Export Plug-In . SVG Version: 6.00 Build 0)  -->
<svg version="1.1" id="Layer_1" xmlns="http://www.w3.org/2000/svg" xmlns:xlink="http://www.w3.org/1999/xlink" x="0px" y="0px"
	 viewBox="0 0 70.2 54.9" style="enable-background:new 0 0 70.2 54.9;" xml:space="preserve">
<style type="text/css">
	.st0{fill:#BBDC96;}
	.st1{fill:none;stroke:#BBDC96;stroke-width:2;stroke-miterlimit:10;}
	.st2{fill:none;}
</style>
<g>
	<g>
		<path class="st0" d="M5.6,52.5h7.7h4.3h47.7c4.2,0,4.3-1.9,4.3-4.3V21.9v-4.3v-5.3c0-2.3-0.4-4.3-4.3-4.3h-3l0,0
			c0-3.8-3.1-6.8-6.8-6.8H39c-3.8,0-6.8,3.1-6.8,6.8l0,0H5.6c-4,0-4.3,1.9-4.3,4.3v5.3v4.3v26.4C1.4,50.6,1.7,52.5,5.6,52.5z
			 M66.6,49.3h-49V21.9h9.9c-1.5,2.5-2.4,5.3-2.4,8.4c0,8.9,7.3,16.2,16.2,16.2s16.2-7.3,16.2-16.2c0-3.1-0.9-6-2.4-8.4h11.4V49.3z
			 M55.3,30.3c0,7.6-6.3,13.9-13.9,13.9c-7.7,0-13.9-6.2-13.9-13.9s6.3-13.9,13.9-13.9C49,16.5,55.3,22.7,55.3,30.3z M35.6,8.1
			c0-3.2,1.9-3.8,3.3-3.8h16.4c1.4,0,3.6,0.9,3.6,3.8h-1H36.4H35.6z M5.7,11.1h59.6c0.7,0,1.3,0.6,1.3,1.3v6.4H51.3
			c-2.8-2.2-6.2-4.6-10-4.6c-3.8,0-7.3,2.4-10,4.6H4.5v-6.4C4.5,11.7,5,11.1,5.7,11.1z M14.6,21.9v27.4H4.5V21.9H14.6z"/>
		<path class="st0" d="M41.3,21.4c-4.9,0-8.9,4-8.9,8.9s4,8.9,8.9,8.9c4.9,0,8.9-4,8.9-8.9S46.2,21.4,41.3,21.4z M41.3,36
			c-3.1,0-5.7-2.5-5.7-5.7s2.6-5.7,5.7-5.7c3.1,0,5.7,2.5,5.7,5.7S44.5,36,41.3,36z"/>
	</g>
</g>
<g>
	<path class="st0" d="M41.3,46.5c-8.9,0-16.1-7.2-16.1-16.1s7.2-16.1,16.1-16.1s16.1,7.2,16.1,16.1S50.2,46.5,41.3,46.5z M41.3,16.3
		c-7.7,0-14,6.3-14,14s6.3,14,14,14s14-6.3,14-14S49,16.3,41.3,16.3z"/>
</g>
</svg>
