<svg id="Layer_1" data-name="Layer 1" xmlns="http://www.w3.org/2000/svg" viewBox="0 0 70.25 46.7"><defs><style>.cls-1{fill:#bbdc96;}</style></defs><title>icon</title><path class="cls-1" d="M65.73,14.74a3.14,3.14,0,0,0-3.14,3.14v6.39a5.48,5.48,0,0,0-4.2-1.95H22.7a5.5,5.5,0,0,0-4.41,2.22A11.61,11.61,0,0,0,7.64,16.39V5.4a3.14,3.14,0,1,0-6.28,0V41.85a3.14,3.14,0,1,0,6.28,0V34h55v7.8a3.14,3.14,0,1,0,6.28,0V17.91A3.19,3.19,0,0,0,65.73,14.74Zm0,28.46a1.39,1.39,0,0,1-1.38-1.38V17.88a1.38,1.38,0,1,1,2.76,0V41.82A1.39,1.39,0,0,1,65.73,43.2ZM4.5,43.2a1.39,1.39,0,0,1-1.38-1.38V5.37a1.38,1.38,0,0,1,2.76,0V41.82A1.39,1.39,0,0,1,4.5,43.2ZM8.07,18.12A9.88,9.88,0,0,1,17,27a6.12,6.12,0,0,1,0,.7H7.61V18.07A3,3,0,0,0,8.07,18.12ZM17.93,28h0ZM7.61,29.53h55v2.74h-55V29.53ZM22.7,24.06H58.41a3.76,3.76,0,0,1,3.76,3.71H18.93A3.76,3.76,0,0,1,22.7,24.06Z"/></svg>