<svg id="Layer_1" data-name="Layer 1" xmlns="http://www.w3.org/2000/svg" viewBox="0 0 63.67 55.08"><defs><style>.cls-1{fill:#bbdc96;}</style></defs><title>icon</title><rect class="cls-1" x="37.31" y="19.29" width="3.02" height="3.02"/><rect class="cls-1" x="43.35" y="19.29" width="3.02" height="3.02"/><path class="cls-1" d="M11.61,9.09a3.41,3.41,0,0,1,4.11-3.33,3.46,3.46,0,0,1,2.69,3.42V10.6h3V9.31a6.57,6.57,0,0,0-5.58-6.59A6.43,6.43,0,0,0,8.59,9.09v5.67H3.26A2.23,2.23,0,0,0,1,17V52.13A1.92,1.92,0,0,0,3,54.05H61.08A1.92,1.92,0,0,0,63,52.13V17a2.23,2.23,0,0,0-2.23-2.23H11.61V9.09Zm21.92,8.69H60v6H33.53v-6Zm0,9.07H60V51H33.53V26.85Zm-3-9.07V49.61A1.42,1.42,0,0,1,29.08,51H5.48a1.42,1.42,0,0,1-1.42-1.42V17.78H30.51Z"/><path class="cls-1" d="M36.55,47.25H57V35.16H36.55V47.25Zm3-10.07H53.93v7H39.57v-7Z"/><rect class="cls-1" x="36.55" y="29.87" width="20.4" height="3.02"/><rect class="cls-1" x="1.03" y="23.82" width="38.54" height="3.02"/></svg>