<svg id="Layer_1" data-name="Layer 1" xmlns="http://www.w3.org/2000/svg" viewBox="0 0 68 58.91"><defs><style>.cls-1{fill:#bbdc96;}</style></defs><title>icon</title><path class="cls-1" d="M43.18,31.74H38.46V28.48a4.81,4.81,0,0,0-4.72-4.89H14.08a4.81,4.81,0,0,0-4.72,4.89v3.26H4.65A3.21,3.21,0,0,0,1.5,35V57.81H46.33V35A3.21,3.21,0,0,0,43.18,31.74Zm-30.67,0V28.48a1.6,1.6,0,0,1,1.57-1.63H33.74a1.6,1.6,0,0,1,1.57,1.63v16.3H12.51v-13ZM4.65,35H9.36v9.78H4.65V35ZM43.18,54.55H4.65V48H43.18v6.52Zm0-9.78H38.46V35h4.72v9.78Z"/><path class="cls-1" d="M50.18,3.28L47.1,14.44a1.43,1.43,0,0,0,1.38,1.82H55v38.3H51v3.26h11V54.55H58.12V16.26h6.49A1.43,1.43,0,0,0,66,14.44L62.92,3.28A2.3,2.3,0,0,0,60.7,1.59H52.4A2.3,2.3,0,0,0,50.18,3.28ZM50.77,13L53,4.85h7.06L62.33,13H50.77Z"/></svg>