<svg id="Layer_1" data-name="Layer 1" xmlns="http://www.w3.org/2000/svg" viewBox="0 0 68 58.91"><defs><style>.cls-1{fill:#bbdc96;}</style></defs><title>icon</title><path class="cls-1" d="M30,30.23a1.64,1.64,0,1,0,1.61,1.64A1.63,1.63,0,0,0,30,30.23Zm0,2.46a0.82,0.82,0,1,1,.79-0.82A0.8,0.8,0,0,1,30,32.69Z"/><path class="cls-1" d="M20.6,10.47H20.5c-3.71.1-6.4,3.08-6.51,3.21L13.74,14v9.25H27.47V14l-0.27-.29C27.09,13.54,24.3,10.57,20.6,10.47Zm4.88,10.75H15.74V14.75a7.75,7.75,0,0,1,4.81-2.28,8.23,8.23,0,0,1,4.92,2.29v6.45Z"/><path class="cls-1" d="M33.52,1.08H3.83A1.43,1.43,0,0,0,2.39,2.52V57.35H65V2.52a1.43,1.43,0,0,0-1.43-1.43h-30Zm-8,54.26H15.74v-28h9.73v28Zm2,0v-30H13.74v30H9.11V8H32.45V55.35h-5ZM34.52,8H57.86V55.35H53.22v-30H39.49v30h-5V8ZM51.22,55.35H41.49v-28h9.73v28Zm8.63,0V6.89A0.85,0.85,0,0,0,59,6H8a0.85,0.85,0,0,0-.85.85V55.35H5.48a0.72,0.72,0,0,1-.72-0.72V4.29a0.72,0.72,0,0,1,.72-0.72h56a0.72,0.72,0,0,1,.72.72V54.62a0.72,0.72,0,0,1-.72.72H59.86Z"/><path class="cls-1" d="M37,30.23a1.64,1.64,0,1,0,1.61,1.64A1.63,1.63,0,0,0,37,30.23Zm0,2.46a0.82,0.82,0,1,1,.78-0.82A0.8,0.8,0,0,1,37,32.69Z"/><path class="cls-1" d="M46.33,23.22h6.89V14L53,13.69c-0.11-.13-2.8-3.12-6.51-3.21H46.37c-3.7.1-6.5,3.07-6.61,3.2L39.49,14v9.27h6.84Zm-4.84-2V14.77a8.23,8.23,0,0,1,4.92-2.29,7.81,7.81,0,0,1,4.81,2.28v6.47H41.49Z"/></svg>